<svg width="200" height="200" viewBox="0 0 200 200" fill="none" xmlns="http://www.w3.org/2000/svg">
<g id="curiosity search-bro 2">
<g id="freepik--background-simple--inject-287">
<path id="Vector" d="M192.22 74.6756C191.52 65.9956 191.444 58.3076 187.916 50.0876C185.084 43.4876 181.916 36.8076 177.616 31.0276C164.416 13.3836 143.78 5.51959 122.28 4.71559C87.032 3.40359 52.72 25.9156 40.936 59.3476C39.032 64.7436 35.9 69.2956 32.36 73.5996C31.988 73.3756 31.78 72.7756 31.78 71.7396C31.78 62.5156 21.352 72.8316 19.72 75.3396C-1.41998 107.836 3.13203 161.296 38.36 182.084C52.824 190.62 68.856 194.72 85.496 196.052C100.628 197.252 117.02 194.98 128.436 184.1C138.324 174.68 141.696 160.692 149.96 150.34C148.483 153.298 147.695 156.553 147.656 159.86C147.684 165.4 161.656 163.176 175.948 138.724C189.356 115.784 193.816 94.5236 192.22 74.6756Z" fill="#3498DB"/>
<path id="Vector_2" opacity="0.7" d="M192.22 74.6756C191.52 65.9956 191.444 58.3076 187.916 50.0876C185.084 43.4876 181.916 36.8076 177.616 31.0276C164.416 13.3836 143.78 5.51959 122.28 4.71559C87.032 3.40359 52.72 25.9156 40.936 59.3476C39.032 64.7436 35.9 69.2956 32.36 73.5996C31.988 73.3756 31.78 72.7756 31.78 71.7396C31.78 62.5156 21.352 72.8316 19.72 75.3396C-1.41998 107.836 3.13203 161.296 38.36 182.084C52.824 190.62 68.856 194.72 85.496 196.052C100.628 197.252 117.02 194.98 128.436 184.1C138.324 174.68 141.696 160.692 149.96 150.34C148.483 153.298 147.695 156.553 147.656 159.86C147.684 165.4 161.656 163.176 175.948 138.724C189.356 115.784 193.816 94.5236 192.22 74.6756Z" fill="white"/>
</g>
<g id="freepik--plants-2--inject-287">
<path id="Vector_3" d="M179.371 151.999C179.399 151.999 179.683 149.927 179.683 149.795C179.715 148.247 178.883 145.243 177.227 144.679C176.953 144.593 176.664 144.565 176.378 144.599C176.092 144.632 175.817 144.725 175.569 144.872C175.322 145.018 175.109 145.216 174.943 145.451C174.777 145.686 174.663 145.953 174.607 146.235C174.327 147.435 175.007 148.763 175.755 149.651C176.623 150.699 179.367 151.999 179.371 151.999Z" fill="#263238"/>
<path id="Vector_4" d="M148.764 154.968C150.06 155.368 153.072 154.936 153.072 154.936C153.072 154.936 152.192 153.036 152.12 152.936C151.292 151.628 148.92 149.592 147.248 150.024C146.972 150.104 146.716 150.241 146.496 150.426C146.276 150.611 146.097 150.841 145.972 151.1C145.847 151.358 145.777 151.641 145.769 151.928C145.76 152.216 145.811 152.502 145.92 152.768C146.344 153.904 147.656 154.636 148.764 154.968Z" fill="#263238"/>
<path id="Vector_5" d="M164.357 178.32C164.645 178.856 164.937 179.396 165.193 179.92C165.361 180.288 165.545 180.632 165.693 181.012L166.149 182.116C166.413 182.832 166.689 183.568 166.929 184.268C167.097 184.756 167.253 185.224 167.409 185.696C167.097 185.18 166.461 184.188 166.401 184.096C165.429 182.896 162.845 181.14 161.229 181.764C160.963 181.874 160.724 182.039 160.527 182.248C160.33 182.457 160.178 182.706 160.083 182.977C159.988 183.248 159.951 183.536 159.975 183.823C159.999 184.109 160.082 184.388 160.221 184.64C160.773 185.732 162.165 186.308 163.301 186.516C164.553 186.74 167.189 186.084 167.517 186C167.769 186.78 168.013 187.54 168.229 188.264C168.629 189.544 168.941 190.72 169.217 191.76H170.365C170.049 190.644 169.665 189.36 169.205 187.956C168.949 187.156 168.661 186.32 168.357 185.46C169.123 185.042 169.864 184.58 170.577 184.076C171.569 184.924 173.957 185.768 174.265 185.876C174.049 186.676 173.829 187.436 173.613 188.156C173.213 189.496 172.813 190.708 172.457 191.756H173.621C173.929 190.764 174.261 189.66 174.597 188.436C174.821 187.636 175.045 186.772 175.265 185.884C175.597 185.916 178.309 186.136 179.509 185.712C180.597 185.312 181.877 184.512 182.245 183.368C182.341 183.097 182.38 182.808 182.357 182.521C182.335 182.234 182.252 181.955 182.115 181.703C181.978 181.45 181.789 181.229 181.56 181.054C181.331 180.879 181.069 180.754 180.789 180.688C179.093 180.336 176.825 182.48 176.061 183.824C176.017 183.904 175.621 184.82 175.385 185.4C175.473 185.04 175.561 184.688 175.649 184.312C175.825 183.572 175.977 182.828 176.145 182.028L176.349 180.852C176.429 180.452 176.461 180.052 176.517 179.624C176.625 178.664 176.693 177.692 176.737 176.708C177.385 176.86 179.697 177.368 180.837 177.148C181.977 176.928 183.357 176.348 183.897 175.244C184.032 174.99 184.113 174.711 184.134 174.424C184.154 174.137 184.115 173.849 184.017 173.579C183.919 173.309 183.766 173.062 183.567 172.854C183.368 172.647 183.127 172.484 182.861 172.376C181.261 171.772 178.673 173.548 177.713 174.776C177.653 174.852 177.061 175.8 176.749 176.328C176.769 175.736 176.797 175.128 176.797 174.544C176.797 172.816 176.761 171.064 176.725 169.316C176.725 168.78 176.725 168.248 176.701 167.716C176.933 167.776 179.665 168.436 180.941 168.196C182.077 167.976 183.461 167.396 184.001 166.292C184.137 166.038 184.219 165.759 184.24 165.472C184.261 165.185 184.222 164.897 184.125 164.626C184.027 164.355 183.874 164.107 183.675 163.9C183.476 163.692 183.235 163.528 182.969 163.42C181.345 162.816 178.777 164.596 177.821 165.82C177.745 165.912 176.897 167.276 176.701 167.632C176.701 166.456 176.681 165.284 176.721 164.128C176.774 162.566 176.925 161.01 177.173 159.468C177.281 159.496 180.129 160.2 181.437 159.952C182.573 159.736 183.957 159.152 184.501 158.048C184.636 157.794 184.717 157.515 184.738 157.228C184.758 156.941 184.719 156.653 184.621 156.383C184.523 156.113 184.37 155.866 184.171 155.658C183.972 155.451 183.731 155.288 183.465 155.18C181.841 154.572 179.277 156.352 178.317 157.58C178.253 157.66 177.605 158.7 177.309 159.2L177.217 159.164C177.512 157.62 177.945 156.106 178.509 154.64C178.809 153.84 179.141 153.068 179.481 152.336C179.997 152.52 182.369 153.344 183.573 153.252C184.777 153.16 186.165 152.724 186.825 151.696C186.988 151.458 187.099 151.189 187.152 150.906C187.204 150.623 187.196 150.332 187.128 150.052C187.061 149.772 186.935 149.509 186.76 149.281C186.584 149.053 186.362 148.864 186.109 148.728C184.565 147.948 181.817 149.436 180.733 150.536C180.673 150.596 180.137 151.268 179.757 151.764C179.917 151.436 180.073 151.096 180.229 150.784C180.821 149.616 181.429 148.584 181.985 147.672C182.301 147.156 182.597 146.696 182.881 146.268C183.481 146.188 185.909 145.824 186.913 145.196C187.917 144.568 188.969 143.536 189.081 142.316C189.117 142.03 189.092 141.74 189.008 141.465C188.925 141.19 188.784 140.935 188.595 140.718C188.406 140.501 188.174 140.326 187.913 140.205C187.652 140.084 187.368 140.02 187.081 140.016C185.349 140.036 183.597 142.62 183.137 144.096C183.101 144.224 182.709 146.292 182.737 146.288H182.773C182.493 146.688 182.197 147.132 181.885 147.616C181.313 148.516 180.685 149.54 180.057 150.7C179.378 151.944 178.772 153.226 178.241 154.54C177.641 156.009 177.171 157.528 176.837 159.08C176.837 159.08 176.837 159.116 176.837 159.136C176.785 158.632 176.597 157.224 176.569 157.136C176.193 155.64 174.569 152.964 172.849 152.852C172.562 152.841 172.275 152.892 172.009 152.999C171.742 153.107 171.502 153.269 171.302 153.476C171.102 153.683 170.949 153.929 170.851 154.199C170.752 154.469 170.712 154.757 170.733 155.044C170.777 156.268 171.797 157.372 172.733 158.036C173.797 158.784 176.577 159.3 176.797 159.34C176.497 160.925 176.305 162.529 176.221 164.14C176.165 165.08 176.141 166.028 176.125 166.98C176.069 166.544 176.013 166.156 175.997 166.104C175.621 164.604 173.997 161.928 172.281 161.816C171.993 161.805 171.706 161.855 171.439 161.962C171.171 162.07 170.93 162.232 170.73 162.44C170.53 162.647 170.376 162.894 170.278 163.165C170.179 163.436 170.14 163.724 170.161 164.012C170.205 165.232 171.225 166.34 172.161 167C173.097 167.66 175.481 168.16 176.105 168.28C176.105 168.644 176.105 169.012 176.105 169.376C176.105 171.124 176.105 172.872 176.065 174.576C176.065 175.18 176.013 175.776 175.977 176.368C175.925 175.968 175.877 175.66 175.865 175.608C175.485 174.108 173.865 171.436 172.145 171.324C171.857 171.313 171.571 171.363 171.304 171.47C171.037 171.577 170.795 171.74 170.595 171.946C170.395 172.153 170.241 172.4 170.143 172.67C170.045 172.941 170.004 173.229 170.025 173.516C170.069 174.74 171.093 175.844 172.025 176.508C172.957 177.172 175.113 177.62 175.857 177.764C175.801 178.372 175.749 178.964 175.669 179.568C175.605 179.968 175.569 180.368 175.485 180.768C175.401 181.168 175.329 181.568 175.253 181.944C175.077 182.684 174.905 183.448 174.717 184.168C174.589 184.668 174.461 185.144 174.317 185.62C174.341 185.02 174.361 183.844 174.353 183.744C174.17 182.396 173.647 181.117 172.833 180.028C172.82 179.876 172.793 179.726 172.753 179.58C172.683 179.301 172.556 179.039 172.379 178.813C172.202 178.586 171.979 178.4 171.725 178.265C171.472 178.13 171.192 178.049 170.905 178.029C170.619 178.009 170.331 178.049 170.061 178.148C168.461 178.788 167.745 181.832 167.845 183.376C167.845 183.464 168.029 184.444 168.153 185.064C168.025 184.712 167.905 184.368 167.753 184.008C167.493 183.292 167.213 182.588 166.909 181.828L166.433 180.732C166.281 180.364 166.073 179.992 165.893 179.62C165.457 178.76 164.973 177.908 164.469 177.064C165.093 176.832 167.301 175.98 168.129 175.172C168.957 174.364 169.785 173.108 169.633 171.896C169.607 171.609 169.521 171.331 169.381 171.08C169.24 170.829 169.048 170.61 168.818 170.438C168.587 170.266 168.323 170.144 168.042 170.081C167.762 170.018 167.471 170.015 167.189 170.072C165.501 170.472 164.341 173.364 164.209 174.904C164.209 175 164.229 176.104 164.257 176.728C163.949 176.224 163.645 175.716 163.317 175.216C162.369 173.768 161.369 172.332 160.373 170.892C160.069 170.452 159.769 170.012 159.469 169.568C159.693 169.488 162.337 168.536 163.269 167.628C164.093 166.828 164.925 165.564 164.769 164.352C164.743 164.065 164.657 163.787 164.517 163.536C164.376 163.285 164.184 163.066 163.954 162.894C163.723 162.722 163.459 162.6 163.178 162.537C162.898 162.474 162.607 162.471 162.325 162.528C160.637 162.928 159.477 165.82 159.345 167.36C159.345 167.476 159.381 169.08 159.413 169.488C158.753 168.516 158.101 167.54 157.501 166.552C156.679 165.224 155.945 163.844 155.305 162.42C155.409 162.38 158.173 161.396 159.129 160.468C159.953 159.668 160.785 158.404 160.629 157.192C160.603 156.905 160.517 156.627 160.377 156.376C160.236 156.125 160.044 155.907 159.814 155.735C159.583 155.563 159.319 155.442 159.038 155.38C158.757 155.317 158.466 155.314 158.185 155.372C156.497 155.772 155.337 158.66 155.205 160.2C155.205 160.3 155.233 161.524 155.261 162.108L155.165 162.128C154.572 160.663 154.114 159.147 153.797 157.6C153.597 156.756 153.457 155.94 153.337 155.144C153.869 155.012 156.305 154.392 157.253 153.648C158.201 152.904 159.125 151.78 159.109 150.556C159.114 150.268 159.058 149.983 158.946 149.718C158.833 149.454 158.666 149.216 158.456 149.02C158.245 148.824 157.996 148.675 157.724 148.582C157.452 148.488 157.163 148.454 156.877 148.48C155.157 148.68 153.677 151.436 153.385 152.952C153.385 153.032 153.297 153.892 153.253 154.516C153.205 154.156 153.149 153.784 153.109 153.436C152.957 152.136 152.897 150.936 152.853 149.872C152.833 149.268 152.825 148.72 152.825 148.208C153.281 147.808 155.105 146.164 155.597 145.088C156.089 144.012 156.397 142.568 155.817 141.488C155.687 141.231 155.506 141.005 155.284 140.824C155.061 140.642 154.803 140.51 154.527 140.434C154.25 140.359 153.96 140.342 153.677 140.386C153.393 140.43 153.122 140.532 152.881 140.688C151.445 141.656 151.409 144.78 151.841 146.264C151.881 146.392 152.697 148.332 152.721 148.312L152.749 148.288C152.749 148.78 152.749 149.308 152.749 149.888C152.749 150.952 152.801 152.16 152.925 153.468C153.045 154.879 153.247 156.283 153.529 157.672C153.837 159.228 154.283 160.754 154.861 162.232L154.885 162.284C154.565 161.884 153.629 160.824 153.549 160.748C152.405 159.708 149.585 158.348 148.085 159.228C147.839 159.377 147.628 159.577 147.464 159.813C147.301 160.05 147.189 160.318 147.136 160.601C147.084 160.883 147.091 161.174 147.158 161.454C147.225 161.733 147.35 161.996 147.525 162.224C148.237 163.22 149.697 163.58 150.853 163.608C152.157 163.644 154.757 162.54 154.965 162.452C155.59 163.941 156.314 165.387 157.133 166.78C157.605 167.58 158.109 168.4 158.621 169.2C158.333 168.868 158.073 168.576 158.033 168.536C156.889 167.496 154.069 166.136 152.565 167.016C152.32 167.164 152.11 167.363 151.947 167.598C151.784 167.834 151.672 168.101 151.619 168.382C151.566 168.663 151.572 168.953 151.638 169.231C151.704 169.51 151.827 169.772 152.001 170C152.709 170.996 154.173 171.356 155.329 171.384C156.485 171.412 158.733 170.524 159.329 170.276L159.921 171.2C160.885 172.664 161.853 174.116 162.761 175.568C163.081 176.084 163.377 176.6 163.677 177.116C163.417 176.82 163.201 176.576 163.161 176.54C162.021 175.5 159.201 174.16 157.697 175.02C157.451 175.169 157.24 175.369 157.076 175.605C156.913 175.842 156.801 176.11 156.748 176.393C156.696 176.675 156.703 176.966 156.77 177.246C156.837 177.525 156.962 177.788 157.137 178.016C157.849 179.012 159.313 179.372 160.469 179.4C161.625 179.428 163.657 178.608 164.357 178.32Z" fill="#263238"/>
<path id="Vector_6" opacity="0.3" d="M148.764 154.968C150.06 155.368 153.072 154.936 153.072 154.936C153.072 154.936 152.192 153.036 152.12 152.936C151.292 151.628 148.92 149.592 147.248 150.024C146.972 150.104 146.716 150.241 146.496 150.426C146.276 150.611 146.097 150.841 145.972 151.1C145.847 151.358 145.777 151.641 145.769 151.928C145.76 152.216 145.811 152.502 145.92 152.768C146.344 153.904 147.656 154.636 148.764 154.968Z" fill="#263238"/>
<path id="Vector_7" opacity="0.3" d="M179.371 151.999C179.399 151.999 179.683 149.927 179.683 149.795C179.715 148.247 178.883 145.243 177.227 144.679C176.953 144.593 176.664 144.565 176.378 144.599C176.092 144.632 175.817 144.725 175.569 144.872C175.322 145.018 175.109 145.216 174.943 145.451C174.777 145.686 174.663 145.953 174.607 146.235C174.327 147.435 175.007 148.763 175.755 149.651C176.623 150.699 179.367 151.999 179.371 151.999Z" fill="#263238"/>
<path id="Vector_8" opacity="0.3" d="M164.357 178.32C164.645 178.856 164.937 179.396 165.193 179.92C165.361 180.288 165.545 180.632 165.693 181.012L166.149 182.116C166.413 182.832 166.689 183.568 166.929 184.268C167.097 184.756 167.253 185.224 167.409 185.696C167.097 185.18 166.461 184.188 166.401 184.096C165.429 182.896 162.845 181.14 161.229 181.764C160.963 181.874 160.724 182.039 160.527 182.248C160.33 182.457 160.178 182.706 160.083 182.977C159.988 183.248 159.951 183.536 159.975 183.823C159.999 184.109 160.082 184.388 160.221 184.64C160.773 185.732 162.165 186.308 163.301 186.516C164.553 186.74 167.189 186.084 167.517 186C167.769 186.78 168.013 187.54 168.229 188.264C168.629 189.544 168.941 190.72 169.217 191.76H170.365C170.049 190.644 169.665 189.36 169.205 187.956C168.949 187.156 168.661 186.32 168.357 185.46C169.123 185.042 169.864 184.58 170.577 184.076C171.569 184.924 173.957 185.768 174.265 185.876C174.049 186.676 173.829 187.436 173.613 188.156C173.213 189.496 172.813 190.708 172.457 191.756H173.621C173.929 190.764 174.261 189.66 174.597 188.436C174.821 187.636 175.045 186.772 175.265 185.884C175.597 185.916 178.309 186.136 179.509 185.712C180.597 185.312 181.877 184.512 182.245 183.368C182.341 183.097 182.38 182.808 182.357 182.521C182.335 182.234 182.252 181.955 182.115 181.703C181.978 181.45 181.789 181.229 181.56 181.054C181.331 180.879 181.069 180.754 180.789 180.688C179.093 180.336 176.825 182.48 176.061 183.824C176.017 183.904 175.621 184.82 175.385 185.4C175.473 185.04 175.561 184.688 175.649 184.312C175.825 183.572 175.977 182.828 176.145 182.028L176.349 180.852C176.429 180.452 176.461 180.052 176.517 179.624C176.625 178.664 176.693 177.692 176.737 176.708C177.385 176.86 179.697 177.368 180.837 177.148C181.977 176.928 183.357 176.348 183.897 175.244C184.032 174.99 184.113 174.711 184.134 174.424C184.154 174.137 184.115 173.849 184.017 173.579C183.919 173.309 183.766 173.062 183.567 172.854C183.368 172.647 183.127 172.484 182.861 172.376C181.261 171.772 178.673 173.548 177.713 174.776C177.653 174.852 177.061 175.8 176.749 176.328C176.769 175.736 176.797 175.128 176.797 174.544C176.797 172.816 176.761 171.064 176.725 169.316C176.725 168.78 176.725 168.248 176.701 167.716C176.933 167.776 179.665 168.436 180.941 168.196C182.077 167.976 183.461 167.396 184.001 166.292C184.137 166.038 184.219 165.759 184.24 165.472C184.261 165.185 184.222 164.897 184.125 164.626C184.027 164.355 183.874 164.107 183.675 163.9C183.476 163.692 183.235 163.528 182.969 163.42C181.345 162.816 178.777 164.596 177.821 165.82C177.745 165.912 176.897 167.276 176.701 167.632C176.701 166.456 176.681 165.284 176.721 164.128C176.774 162.566 176.925 161.01 177.173 159.468C177.281 159.496 180.129 160.2 181.437 159.952C182.573 159.736 183.957 159.152 184.501 158.048C184.636 157.794 184.717 157.515 184.738 157.228C184.758 156.941 184.719 156.653 184.621 156.383C184.523 156.113 184.37 155.866 184.171 155.658C183.972 155.451 183.731 155.288 183.465 155.18C181.841 154.572 179.277 156.352 178.317 157.58C178.253 157.66 177.605 158.7 177.309 159.2L177.217 159.164C177.512 157.62 177.945 156.106 178.509 154.64C178.809 153.84 179.141 153.068 179.481 152.336C179.997 152.52 182.369 153.344 183.573 153.252C184.777 153.16 186.165 152.724 186.825 151.696C186.988 151.458 187.099 151.189 187.152 150.906C187.204 150.623 187.196 150.332 187.128 150.052C187.061 149.772 186.935 149.509 186.76 149.281C186.584 149.053 186.362 148.864 186.109 148.728C184.565 147.948 181.817 149.436 180.733 150.536C180.673 150.596 180.137 151.268 179.757 151.764C179.917 151.436 180.073 151.096 180.229 150.784C180.821 149.616 181.429 148.584 181.985 147.672C182.301 147.156 182.597 146.696 182.881 146.268C183.481 146.188 185.909 145.824 186.913 145.196C187.917 144.568 188.969 143.536 189.081 142.316C189.117 142.03 189.092 141.74 189.008 141.465C188.925 141.19 188.784 140.935 188.595 140.718C188.406 140.501 188.174 140.326 187.913 140.205C187.652 140.084 187.368 140.02 187.081 140.016C185.349 140.036 183.597 142.62 183.137 144.096C183.101 144.224 182.709 146.292 182.737 146.288H182.773C182.493 146.688 182.197 147.132 181.885 147.616C181.313 148.516 180.685 149.54 180.057 150.7C179.378 151.944 178.772 153.226 178.241 154.54C177.641 156.009 177.171 157.528 176.837 159.08C176.837 159.08 176.837 159.116 176.837 159.136C176.785 158.632 176.597 157.224 176.569 157.136C176.193 155.64 174.569 152.964 172.849 152.852C172.562 152.841 172.275 152.892 172.009 152.999C171.742 153.107 171.502 153.269 171.302 153.476C171.102 153.683 170.949 153.929 170.851 154.199C170.752 154.469 170.712 154.757 170.733 155.044C170.777 156.268 171.797 157.372 172.733 158.036C173.797 158.784 176.577 159.3 176.797 159.34C176.497 160.925 176.305 162.529 176.221 164.14C176.165 165.08 176.141 166.028 176.125 166.98C176.069 166.544 176.013 166.156 175.997 166.104C175.621 164.604 173.997 161.928 172.281 161.816C171.993 161.805 171.706 161.855 171.439 161.962C171.171 162.07 170.93 162.232 170.73 162.44C170.53 162.647 170.376 162.894 170.278 163.165C170.179 163.436 170.14 163.724 170.161 164.012C170.205 165.232 171.225 166.34 172.161 167C173.097 167.66 175.481 168.16 176.105 168.28C176.105 168.644 176.105 169.012 176.105 169.376C176.105 171.124 176.105 172.872 176.065 174.576C176.065 175.18 176.013 175.776 175.977 176.368C175.925 175.968 175.877 175.66 175.865 175.608C175.485 174.108 173.865 171.436 172.145 171.324C171.857 171.313 171.571 171.363 171.304 171.47C171.037 171.577 170.795 171.74 170.595 171.946C170.395 172.153 170.241 172.4 170.143 172.67C170.045 172.941 170.004 173.229 170.025 173.516C170.069 174.74 171.093 175.844 172.025 176.508C172.957 177.172 175.113 177.62 175.857 177.764C175.801 178.372 175.749 178.964 175.669 179.568C175.605 179.968 175.569 180.368 175.485 180.768C175.401 181.168 175.329 181.568 175.253 181.944C175.077 182.684 174.905 183.448 174.717 184.168C174.589 184.668 174.461 185.144 174.317 185.62C174.341 185.02 174.361 183.844 174.353 183.744C174.17 182.396 173.647 181.117 172.833 180.028C172.82 179.876 172.793 179.726 172.753 179.58C172.683 179.301 172.556 179.039 172.379 178.813C172.202 178.586 171.979 178.4 171.725 178.265C171.472 178.13 171.192 178.049 170.905 178.029C170.619 178.009 170.331 178.049 170.061 178.148C168.461 178.788 167.745 181.832 167.845 183.376C167.845 183.464 168.029 184.444 168.153 185.064C168.025 184.712 167.905 184.368 167.753 184.008C167.493 183.292 167.213 182.588 166.909 181.828L166.433 180.732C166.281 180.364 166.073 179.992 165.893 179.62C165.457 178.76 164.973 177.908 164.469 177.064C165.093 176.832 167.301 175.98 168.129 175.172C168.957 174.364 169.785 173.108 169.633 171.896C169.607 171.609 169.521 171.331 169.381 171.08C169.24 170.829 169.048 170.61 168.818 170.438C168.587 170.266 168.323 170.144 168.042 170.081C167.762 170.018 167.471 170.015 167.189 170.072C165.501 170.472 164.341 173.364 164.209 174.904C164.209 175 164.229 176.104 164.257 176.728C163.949 176.224 163.645 175.716 163.317 175.216C162.369 173.768 161.369 172.332 160.373 170.892C160.069 170.452 159.769 170.012 159.469 169.568C159.693 169.488 162.337 168.536 163.269 167.628C164.093 166.828 164.925 165.564 164.769 164.352C164.743 164.065 164.657 163.787 164.517 163.536C164.376 163.285 164.184 163.066 163.954 162.894C163.723 162.722 163.459 162.6 163.178 162.537C162.898 162.474 162.607 162.471 162.325 162.528C160.637 162.928 159.477 165.82 159.345 167.36C159.345 167.476 159.381 169.08 159.413 169.488C158.753 168.516 158.101 167.54 157.501 166.552C156.679 165.224 155.945 163.844 155.305 162.42C155.409 162.38 158.173 161.396 159.129 160.468C159.953 159.668 160.785 158.404 160.629 157.192C160.603 156.905 160.517 156.627 160.377 156.376C160.236 156.125 160.044 155.907 159.814 155.735C159.583 155.563 159.319 155.442 159.038 155.38C158.757 155.317 158.466 155.314 158.185 155.372C156.497 155.772 155.337 158.66 155.205 160.2C155.205 160.3 155.233 161.524 155.261 162.108L155.165 162.128C154.572 160.663 154.114 159.147 153.797 157.6C153.597 156.756 153.457 155.94 153.337 155.144C153.869 155.012 156.305 154.392 157.253 153.648C158.201 152.904 159.125 151.78 159.109 150.556C159.114 150.268 159.058 149.983 158.946 149.718C158.833 149.454 158.666 149.216 158.456 149.02C158.245 148.824 157.996 148.675 157.724 148.582C157.452 148.488 157.163 148.454 156.877 148.48C155.157 148.68 153.677 151.436 153.385 152.952C153.385 153.032 153.297 153.892 153.253 154.516C153.205 154.156 153.149 153.784 153.109 153.436C152.957 152.136 152.897 150.936 152.853 149.872C152.833 149.268 152.825 148.72 152.825 148.208C153.281 147.808 155.105 146.164 155.597 145.088C156.089 144.012 156.397 142.568 155.817 141.488C155.687 141.231 155.506 141.005 155.284 140.824C155.061 140.642 154.803 140.51 154.527 140.434C154.25 140.359 153.96 140.342 153.677 140.386C153.393 140.43 153.122 140.532 152.881 140.688C151.445 141.656 151.409 144.78 151.841 146.264C151.881 146.392 152.697 148.332 152.721 148.312L152.749 148.288C152.749 148.78 152.749 149.308 152.749 149.888C152.749 150.952 152.801 152.16 152.925 153.468C153.045 154.879 153.247 156.283 153.529 157.672C153.837 159.228 154.283 160.754 154.861 162.232L154.885 162.284C154.565 161.884 153.629 160.824 153.549 160.748C152.405 159.708 149.585 158.348 148.085 159.228C147.839 159.377 147.628 159.577 147.464 159.813C147.301 160.05 147.189 160.318 147.136 160.601C147.084 160.883 147.091 161.174 147.158 161.454C147.225 161.733 147.35 161.996 147.525 162.224C148.237 163.22 149.697 163.58 150.853 163.608C152.157 163.644 154.757 162.54 154.965 162.452C155.59 163.941 156.314 165.387 157.133 166.78C157.605 167.58 158.109 168.4 158.621 169.2C158.333 168.868 158.073 168.576 158.033 168.536C156.889 167.496 154.069 166.136 152.565 167.016C152.32 167.164 152.11 167.363 151.947 167.598C151.784 167.834 151.672 168.101 151.619 168.382C151.566 168.663 151.572 168.953 151.638 169.231C151.704 169.51 151.827 169.772 152.001 170C152.709 170.996 154.173 171.356 155.329 171.384C156.485 171.412 158.733 170.524 159.329 170.276L159.921 171.2C160.885 172.664 161.853 174.116 162.761 175.568C163.081 176.084 163.377 176.6 163.677 177.116C163.417 176.82 163.201 176.576 163.161 176.54C162.021 175.5 159.201 174.16 157.697 175.02C157.451 175.169 157.24 175.369 157.076 175.605C156.913 175.842 156.801 176.11 156.748 176.393C156.696 176.675 156.703 176.966 156.77 177.246C156.837 177.525 156.962 177.788 157.137 178.016C157.849 179.012 159.313 179.372 160.469 179.4C161.625 179.428 163.657 178.608 164.357 178.32Z" fill="#263238"/>
<path id="Vector_9" d="M41.9998 168.168C41.9998 168.168 42.1838 166.94 42.1878 166.86C42.1878 165.944 41.6998 164.16 40.7278 163.824C40.5649 163.77 40.3925 163.752 40.222 163.771C40.0515 163.789 39.887 163.844 39.7396 163.932C39.5921 164.019 39.4651 164.138 39.3672 164.278C39.2693 164.419 39.2026 164.579 39.1718 164.748C39.0078 165.456 39.4158 166.248 39.8558 166.776C40.3718 167.396 41.9998 168.168 41.9998 168.168Z" fill="#263238"/>
<path id="Vector_10" d="M23.8358 169.932C24.6038 170.164 26.3918 169.912 26.3918 169.908C26.3918 169.904 25.8678 168.784 25.8278 168.708C25.3358 167.932 23.9318 166.708 22.9358 166.98C22.7694 167.024 22.6144 167.103 22.4812 167.212C22.3481 167.321 22.2399 167.457 22.164 167.611C22.0882 167.766 22.0464 167.935 22.0415 168.107C22.0366 168.279 22.0688 168.45 22.1358 168.608C22.3998 169.296 23.1998 169.732 23.8358 169.932Z" fill="#263238"/>
<path id="Vector_11" d="M33.0919 183.791C33.2639 184.111 33.4359 184.431 33.5879 184.747C33.6879 184.963 33.7959 185.167 33.8839 185.395C33.9719 185.623 34.0639 185.835 34.1559 186.051C34.3119 186.475 34.4759 186.911 34.6159 187.327C34.7199 187.615 34.8119 187.895 34.9039 188.175C34.7159 187.867 34.3399 187.279 34.3039 187.235C33.7279 186.519 32.1919 185.479 31.2359 185.847C31.078 185.913 30.9357 186.012 30.8184 186.136C30.701 186.261 30.6111 186.408 30.5545 186.57C30.4979 186.731 30.4759 186.903 30.4899 187.073C30.5039 187.244 30.5537 187.409 30.6359 187.559C30.9639 188.207 31.7919 188.547 32.4639 188.671C33.2079 188.803 34.7719 188.415 34.9679 188.363C35.1199 188.827 35.2599 189.279 35.3679 189.707C35.5999 190.467 35.7919 191.167 35.9559 191.783H36.6399C36.4479 191.119 36.2399 190.363 35.9519 189.527C35.7999 189.055 35.6279 188.555 35.4439 188.043C35.9006 187.796 36.3415 187.521 36.7639 187.219C37.3519 187.723 38.7639 188.227 38.9559 188.291C38.8239 188.759 38.6959 189.215 38.5559 189.643C38.3199 190.443 38.0839 191.159 37.8719 191.783H38.5599C38.7439 191.195 38.9599 190.539 39.1439 189.815C39.2759 189.339 39.4079 188.827 39.5439 188.299C39.7399 188.299 41.3479 188.447 42.0599 188.195C42.7079 187.967 43.4679 187.495 43.6879 186.803C43.7494 186.642 43.7753 186.469 43.7638 186.296C43.7523 186.124 43.7036 185.956 43.6212 185.804C43.5388 185.652 43.4245 185.52 43.2862 185.416C43.1479 185.312 42.9888 185.24 42.8199 185.203C41.8159 184.991 40.4679 186.267 40.0199 187.063C39.9919 187.111 39.7599 187.655 39.6199 187.999C39.6719 187.783 39.7279 187.575 39.7799 187.351C39.8839 186.915 39.9719 186.471 40.0719 185.995C40.1119 185.767 40.1559 185.531 40.1959 185.299C40.2359 185.067 40.2599 184.815 40.2919 184.567C40.3599 183.999 40.3999 183.423 40.4239 182.839C40.8239 182.927 42.1799 183.239 42.8559 183.099C43.5319 182.959 44.3519 182.623 44.6759 181.971C44.7595 181.821 44.81 181.655 44.8239 181.484C44.8378 181.313 44.8147 181.141 44.7563 180.979C44.6979 180.817 44.6055 180.67 44.4854 180.548C44.3652 180.425 44.2201 180.329 44.0599 180.267C43.0959 179.907 41.5719 180.963 41.0039 181.683C40.9679 181.727 40.6039 182.291 40.4319 182.603C40.4319 182.251 40.4599 181.903 40.4599 181.547C40.4599 180.519 40.4599 179.479 40.4159 178.443V177.491C40.5519 177.523 42.1759 177.919 42.9319 177.771C43.6039 177.643 44.4279 177.295 44.7479 176.643C44.8316 176.494 44.8823 176.328 44.8964 176.157C44.9106 175.986 44.8879 175.814 44.8299 175.652C44.7719 175.491 44.6799 175.343 44.5602 175.22C44.4405 175.097 44.2958 175.002 44.1359 174.939C43.1719 174.579 41.6479 175.635 41.0799 176.355C41.0359 176.411 40.5319 177.219 40.4159 177.431C40.4159 176.735 40.4159 176.039 40.4159 175.351C40.4449 174.425 40.5345 173.502 40.6839 172.587C40.7479 172.587 42.4399 173.019 43.2159 172.871C43.8879 172.743 44.7119 172.395 45.0319 171.743C45.1156 171.594 45.1663 171.428 45.1804 171.257C45.1946 171.086 45.1719 170.914 45.1139 170.752C45.0559 170.591 44.9639 170.443 44.8442 170.32C44.7245 170.197 44.5798 170.102 44.4199 170.039C43.4559 169.679 41.9319 170.735 41.3599 171.455C41.3239 171.503 40.9599 172.119 40.7639 172.415L40.7079 172.395C40.8846 171.479 41.1416 170.579 41.4759 169.707C41.6559 169.227 41.8519 168.775 42.0519 168.343C42.3599 168.451 43.7679 168.939 44.4839 168.883C45.1999 168.827 46.0199 168.571 46.4119 167.963C46.5113 167.824 46.5796 167.664 46.6122 167.496C46.6447 167.327 46.6408 167.154 46.6006 166.987C46.5604 166.82 46.4849 166.664 46.3792 166.529C46.2735 166.394 46.1401 166.283 45.9879 166.203C45.0719 165.739 43.4399 166.603 42.7879 167.271C42.7519 167.307 42.4359 167.707 42.2079 168.003C42.3039 167.807 42.3959 167.603 42.4919 167.423C42.8399 166.727 43.2039 166.115 43.5319 165.575C43.7199 165.267 43.8959 164.995 44.0639 164.739C44.4199 164.691 45.8599 164.475 46.4639 164.103C47.0679 163.731 47.6879 163.119 47.7519 162.395C47.7761 162.224 47.763 162.05 47.7136 161.884C47.6643 161.719 47.5797 161.566 47.4658 161.436C47.3519 161.306 47.2112 161.202 47.0535 161.132C46.8957 161.061 46.7246 161.026 46.5519 161.027C45.5239 161.027 44.4839 162.575 44.2119 163.451C44.1879 163.527 43.9599 164.755 43.9759 164.751H43.9999C43.8319 164.995 43.6559 165.255 43.4719 165.551C43.1319 166.083 42.7519 166.691 42.3879 167.383C41.9831 168.12 41.6225 168.88 41.3079 169.659C40.9509 170.532 40.6725 171.434 40.4759 172.355C40.4759 172.355 40.4759 172.379 40.4759 172.387C40.4479 172.087 40.3359 171.255 40.3199 171.187C40.0959 170.295 39.1199 168.707 38.1119 168.643C37.9405 168.634 37.7692 168.662 37.6095 168.724C37.4497 168.787 37.3053 168.883 37.1859 169.007C37.0664 169.13 36.9748 169.277 36.9172 169.439C36.8596 169.6 36.8373 169.772 36.8519 169.943C36.8799 170.671 37.4839 171.327 38.0519 171.719C38.6839 172.163 40.3319 172.471 40.4519 172.495C40.276 173.438 40.1624 174.39 40.1119 175.347C40.0799 175.903 40.0639 176.467 40.0559 177.031C40.0199 176.771 39.9879 176.543 39.9799 176.511C39.7559 175.619 38.7799 174.031 37.7719 173.967C37.6005 173.958 37.4292 173.986 37.2695 174.048C37.1097 174.111 36.9653 174.207 36.8459 174.331C36.7264 174.454 36.6348 174.601 36.5772 174.763C36.5196 174.924 36.4973 175.096 36.5119 175.267C36.5399 175.995 37.1439 176.651 37.7119 177.043C38.2799 177.435 39.6799 177.731 40.0519 177.803C40.0519 178.019 40.0519 178.235 40.0519 178.451C40.0519 179.491 40.0519 180.527 40.0279 181.547C40.0279 181.903 39.9959 182.259 39.9759 182.611C39.9439 182.379 39.9159 182.187 39.9079 182.159C39.6839 181.267 38.7279 179.679 37.6999 179.615C37.5288 179.607 37.358 179.635 37.1987 179.698C37.0395 179.761 36.8955 179.857 36.7765 179.98C36.6576 180.103 36.5663 180.25 36.5089 180.412C36.4516 180.573 36.4294 180.745 36.4439 180.915C36.4719 181.643 37.0759 182.299 37.6439 182.691C38.2119 183.083 39.4759 183.351 39.9159 183.439C39.8839 183.799 39.8519 184.159 39.8039 184.507C39.7679 184.747 39.7479 184.975 39.6959 185.211C39.6439 185.447 39.6039 185.679 39.5559 185.911C39.4559 186.347 39.3519 186.803 39.2399 187.231C39.1639 187.527 39.0879 187.807 39.0079 188.091C39.0079 187.735 39.0359 187.039 39.0079 186.979C38.9035 186.178 38.5935 185.417 38.1079 184.771C38.0996 184.682 38.0836 184.594 38.0599 184.507C38.021 184.34 37.9467 184.183 37.842 184.047C37.7373 183.911 37.6047 183.799 37.453 183.719C37.3014 183.639 37.1342 183.592 36.9629 183.581C36.7916 183.571 36.62 183.598 36.4599 183.659C35.5079 184.039 35.0879 185.843 35.1479 186.759C35.1479 186.815 35.2559 187.395 35.3279 187.759C35.2519 187.551 35.1839 187.359 35.1039 187.135C34.9479 186.711 34.7799 186.291 34.6039 185.843L34.3519 185.199C34.2639 184.979 34.1399 184.759 34.0319 184.535C33.7759 184.027 33.4879 183.523 33.1879 183.019C33.5599 182.883 34.8679 182.379 35.3599 181.899C35.8519 181.419 36.3439 180.671 36.2559 179.951C36.2426 179.78 36.1929 179.614 36.1101 179.464C36.0273 179.314 35.9132 179.183 35.7756 179.081C35.638 178.979 35.4801 178.907 35.3125 178.871C35.1448 178.835 34.9714 178.835 34.8039 178.871C33.7999 179.103 33.1119 180.823 33.0359 181.739C33.0359 181.795 33.0359 182.459 33.0639 182.823C32.8799 182.523 32.6999 182.219 32.5039 181.923C31.9439 181.063 31.3479 180.211 30.7559 179.359L30.2199 178.559C30.3519 178.511 31.9239 177.947 32.4759 177.407C33.0279 176.867 33.4599 176.183 33.3679 175.463C33.3495 175.295 33.2963 175.132 33.2116 174.986C33.127 174.839 33.0127 174.712 32.8762 174.612C32.7396 174.512 32.5837 174.441 32.4183 174.404C32.253 174.368 32.0819 174.366 31.9159 174.399C30.9159 174.631 30.2239 176.355 30.1479 177.267C30.1479 177.335 30.1479 178.291 30.1879 178.531C29.7879 177.955 29.3879 177.375 29.0519 176.791C28.5636 176.002 28.128 175.182 27.7479 174.335C27.8119 174.311 29.4519 173.727 30.0199 173.179C30.5079 172.699 30.9999 171.951 30.9119 171.231C30.8986 171.06 30.8489 170.894 30.7661 170.744C30.6833 170.594 30.5692 170.463 30.4316 170.361C30.294 170.259 30.1361 170.187 29.9685 170.151C29.8008 170.115 29.6274 170.115 29.4599 170.151C28.4559 170.383 27.7679 172.103 27.6919 173.019C27.6919 173.079 27.6919 173.819 27.7239 174.151H27.6639C27.3048 173.29 27.0236 172.399 26.8239 171.487C26.7039 170.987 26.6199 170.503 26.5479 170.027C26.8679 169.951 28.3119 169.579 28.8759 169.139C29.4399 168.699 29.9879 168.031 29.9759 167.307C29.9819 167.136 29.9511 166.965 29.8855 166.806C29.8199 166.648 29.721 166.505 29.5955 166.388C29.47 166.271 29.3208 166.182 29.158 166.127C28.9952 166.073 28.8226 166.054 28.6519 166.071C27.6319 166.191 26.7559 167.827 26.5799 168.727C26.5799 168.775 26.5239 169.283 26.4999 169.655C26.4719 169.439 26.4359 169.219 26.4119 169.015C26.3239 168.243 26.2879 167.531 26.2599 166.899C26.2599 166.539 26.2599 166.215 26.2599 165.911C26.5319 165.671 27.6159 164.711 27.9079 164.059C28.1999 163.407 28.3839 162.563 28.0399 161.923C27.9635 161.77 27.8559 161.635 27.7239 161.526C27.5919 161.418 27.4385 161.338 27.2736 161.292C27.1088 161.246 26.9362 161.236 26.7671 161.261C26.598 161.287 26.436 161.347 26.2919 161.439C25.4439 162.015 25.4199 163.867 25.6799 164.751C25.6799 164.827 26.1839 165.979 26.1999 165.951C26.1999 166.243 26.1999 166.559 26.1999 166.899C26.1999 167.535 26.2319 168.247 26.3039 169.027C26.3742 169.866 26.4944 170.699 26.6639 171.523C26.8471 172.447 27.1148 173.353 27.4639 174.227V174.259C27.2719 174.027 26.7199 173.391 26.6639 173.347C25.9839 172.731 24.3119 171.935 23.4199 172.443C23.2719 172.53 23.1444 172.648 23.0458 172.789C22.9472 172.929 22.8799 173.089 22.8485 173.258C22.817 173.426 22.8221 173.6 22.8634 173.767C22.9047 173.933 22.9812 174.089 23.0879 174.223C23.4879 174.815 24.3759 175.023 25.0639 175.047C25.8359 175.067 27.3799 174.411 27.5039 174.359C27.8761 175.244 28.3091 176.102 28.7999 176.927C29.0799 177.411 29.3759 177.891 29.6799 178.363C29.5119 178.167 29.3559 177.995 29.3319 177.963C28.6519 177.347 26.9799 176.551 26.0879 177.059C25.9399 177.146 25.8124 177.264 25.7138 177.405C25.6152 177.545 25.5479 177.705 25.5165 177.874C25.485 178.042 25.4901 178.216 25.5314 178.383C25.5727 178.549 25.6492 178.705 25.7559 178.839C26.1559 179.431 27.0439 179.639 27.7319 179.663C28.4199 179.687 29.7319 179.151 30.1039 179.003C30.2239 179.183 30.3399 179.367 30.4559 179.547C31.0319 180.415 31.6039 181.279 32.1439 182.139C32.3319 182.443 32.5079 182.751 32.6879 183.059C32.5359 182.883 32.4039 182.739 32.3839 182.719C31.7039 182.099 30.0279 181.303 29.1359 181.815C28.987 181.902 28.8585 182.02 28.7591 182.16C28.6598 182.301 28.5918 182.461 28.56 182.631C28.5281 182.8 28.533 182.974 28.5744 183.141C28.6158 183.308 28.6927 183.465 28.7999 183.599C29.1999 184.187 30.0879 184.399 30.7759 184.419C31.4639 184.439 32.6759 183.963 33.0919 183.791Z" fill="#263238"/>
<path id="Vector_12" opacity="0.3" d="M23.8358 169.932C24.6038 170.164 26.3918 169.912 26.3918 169.908C26.3918 169.904 25.8678 168.784 25.8278 168.708C25.3358 167.932 23.9318 166.708 22.9358 166.98C22.7694 167.024 22.6144 167.103 22.4812 167.212C22.3481 167.321 22.2399 167.457 22.164 167.611C22.0882 167.766 22.0464 167.935 22.0415 168.107C22.0366 168.279 22.0688 168.45 22.1358 168.608C22.3998 169.296 23.1998 169.732 23.8358 169.932Z" fill="#263238"/>
<path id="Vector_13" opacity="0.3" d="M41.9998 168.168C41.9998 168.168 42.1838 166.94 42.1878 166.86C42.1878 165.944 41.6998 164.16 40.7278 163.824C40.5649 163.77 40.3925 163.752 40.222 163.771C40.0515 163.789 39.887 163.844 39.7396 163.932C39.5921 164.019 39.4651 164.138 39.3672 164.278C39.2693 164.419 39.2026 164.579 39.1718 164.748C39.0078 165.456 39.4158 166.248 39.8558 166.776C40.3718 167.396 41.9998 168.168 41.9998 168.168Z" fill="#263238"/>
<path id="Vector_14" opacity="0.3" d="M33.0919 183.791C33.2639 184.111 33.4359 184.431 33.5879 184.747C33.6879 184.963 33.7959 185.167 33.8839 185.395C33.9719 185.623 34.0639 185.835 34.1559 186.051C34.3119 186.475 34.4759 186.911 34.6159 187.327C34.7199 187.615 34.8119 187.895 34.9039 188.175C34.7159 187.867 34.3399 187.279 34.3039 187.235C33.7279 186.519 32.1919 185.479 31.2359 185.847C31.078 185.913 30.9357 186.012 30.8184 186.136C30.701 186.261 30.6111 186.408 30.5545 186.57C30.4979 186.731 30.4759 186.903 30.4899 187.073C30.5039 187.244 30.5537 187.409 30.6359 187.559C30.9639 188.207 31.7919 188.547 32.4639 188.671C33.2079 188.803 34.7719 188.415 34.9679 188.363C35.1199 188.827 35.2599 189.279 35.3679 189.707C35.5999 190.467 35.7919 191.167 35.9559 191.783H36.6399C36.4479 191.119 36.2399 190.363 35.9519 189.527C35.7999 189.055 35.6279 188.555 35.4439 188.043C35.9006 187.796 36.3415 187.521 36.7639 187.219C37.3519 187.723 38.7639 188.227 38.9559 188.291C38.8239 188.759 38.6959 189.215 38.5559 189.643C38.3199 190.443 38.0839 191.159 37.8719 191.783H38.5599C38.7439 191.195 38.9599 190.539 39.1439 189.815C39.2759 189.339 39.4079 188.827 39.5439 188.299C39.7399 188.299 41.3479 188.447 42.0599 188.195C42.7079 187.967 43.4679 187.495 43.6879 186.803C43.7494 186.642 43.7753 186.469 43.7638 186.296C43.7523 186.124 43.7036 185.956 43.6212 185.804C43.5388 185.652 43.4245 185.52 43.2862 185.416C43.1479 185.312 42.9888 185.24 42.8199 185.203C41.8159 184.991 40.4679 186.267 40.0199 187.063C39.9919 187.111 39.7599 187.655 39.6199 187.999C39.6719 187.783 39.7279 187.575 39.7799 187.351C39.8839 186.915 39.9719 186.471 40.0719 185.995C40.1119 185.767 40.1559 185.531 40.1959 185.299C40.2359 185.067 40.2599 184.815 40.2919 184.567C40.3599 183.999 40.3999 183.423 40.4239 182.839C40.8239 182.927 42.1799 183.239 42.8559 183.099C43.5319 182.959 44.3519 182.623 44.6759 181.971C44.7595 181.821 44.81 181.655 44.8239 181.484C44.8378 181.313 44.8147 181.141 44.7563 180.979C44.6979 180.817 44.6055 180.67 44.4854 180.548C44.3652 180.425 44.2201 180.329 44.0599 180.267C43.0959 179.907 41.5719 180.963 41.0039 181.683C40.9679 181.727 40.6039 182.291 40.4319 182.603C40.4319 182.251 40.4599 181.903 40.4599 181.547C40.4599 180.519 40.4599 179.479 40.4159 178.443V177.491C40.5519 177.523 42.1759 177.919 42.9319 177.771C43.6039 177.643 44.4279 177.295 44.7479 176.643C44.8316 176.494 44.8823 176.328 44.8964 176.157C44.9106 175.986 44.8879 175.814 44.8299 175.652C44.7719 175.491 44.6799 175.343 44.5602 175.22C44.4405 175.097 44.2958 175.002 44.1359 174.939C43.1719 174.579 41.6479 175.635 41.0799 176.355C41.0359 176.411 40.5319 177.219 40.4159 177.431C40.4159 176.735 40.4159 176.039 40.4159 175.351C40.4449 174.425 40.5345 173.502 40.6839 172.587C40.7479 172.587 42.4399 173.019 43.2159 172.871C43.8879 172.743 44.7119 172.395 45.0319 171.743C45.1156 171.594 45.1663 171.428 45.1804 171.257C45.1946 171.086 45.1719 170.914 45.1139 170.752C45.0559 170.591 44.9639 170.443 44.8442 170.32C44.7245 170.197 44.5798 170.102 44.4199 170.039C43.4559 169.679 41.9319 170.735 41.3599 171.455C41.3239 171.503 40.9599 172.119 40.7639 172.415L40.7079 172.395C40.8846 171.479 41.1416 170.579 41.4759 169.707C41.6559 169.227 41.8519 168.775 42.0519 168.343C42.3599 168.451 43.7679 168.939 44.4839 168.883C45.1999 168.827 46.0199 168.571 46.4119 167.963C46.5113 167.824 46.5796 167.664 46.6122 167.496C46.6447 167.327 46.6408 167.154 46.6006 166.987C46.5604 166.82 46.4849 166.664 46.3792 166.529C46.2735 166.394 46.1401 166.283 45.9879 166.203C45.0719 165.739 43.4399 166.603 42.7879 167.271C42.7519 167.307 42.4359 167.707 42.2079 168.003C42.3039 167.807 42.3959 167.603 42.4919 167.423C42.8399 166.727 43.2039 166.115 43.5319 165.575C43.7199 165.267 43.8959 164.995 44.0639 164.739C44.4199 164.691 45.8599 164.475 46.4639 164.103C47.0679 163.731 47.6879 163.119 47.7519 162.395C47.7761 162.224 47.763 162.05 47.7136 161.884C47.6643 161.719 47.5797 161.566 47.4658 161.436C47.3519 161.306 47.2112 161.202 47.0535 161.132C46.8957 161.061 46.7246 161.026 46.5519 161.027C45.5239 161.027 44.4839 162.575 44.2119 163.451C44.1879 163.527 43.9599 164.755 43.9759 164.751H43.9999C43.8319 164.995 43.6559 165.255 43.4719 165.551C43.1319 166.083 42.7519 166.691 42.3879 167.383C41.9831 168.12 41.6225 168.88 41.3079 169.659C40.9509 170.532 40.6725 171.434 40.4759 172.355C40.4759 172.355 40.4759 172.379 40.4759 172.387C40.4479 172.087 40.3359 171.255 40.3199 171.187C40.0959 170.295 39.1199 168.707 38.1119 168.643C37.9405 168.634 37.7692 168.662 37.6095 168.724C37.4497 168.787 37.3053 168.883 37.1859 169.007C37.0664 169.13 36.9748 169.277 36.9172 169.439C36.8596 169.6 36.8373 169.772 36.8519 169.943C36.8799 170.671 37.4839 171.327 38.0519 171.719C38.6839 172.163 40.3319 172.471 40.4519 172.495C40.276 173.438 40.1624 174.39 40.1119 175.347C40.0799 175.903 40.0639 176.467 40.0559 177.031C40.0199 176.771 39.9879 176.543 39.9799 176.511C39.7559 175.619 38.7799 174.031 37.7719 173.967C37.6005 173.958 37.4292 173.986 37.2695 174.048C37.1097 174.111 36.9653 174.207 36.8459 174.331C36.7264 174.454 36.6348 174.601 36.5772 174.763C36.5196 174.924 36.4973 175.096 36.5119 175.267C36.5399 175.995 37.1439 176.651 37.7119 177.043C38.2799 177.435 39.6799 177.731 40.0519 177.803C40.0519 178.019 40.0519 178.235 40.0519 178.451C40.0519 179.491 40.0519 180.527 40.0279 181.547C40.0279 181.903 39.9959 182.259 39.9759 182.611C39.9439 182.379 39.9159 182.187 39.9079 182.159C39.6839 181.267 38.7279 179.679 37.6999 179.615C37.5288 179.607 37.358 179.635 37.1987 179.698C37.0395 179.761 36.8955 179.857 36.7765 179.98C36.6576 180.103 36.5663 180.25 36.5089 180.412C36.4516 180.573 36.4294 180.745 36.4439 180.915C36.4719 181.643 37.0759 182.299 37.6439 182.691C38.2119 183.083 39.4759 183.351 39.9159 183.439C39.8839 183.799 39.8519 184.159 39.8039 184.507C39.7679 184.747 39.7479 184.975 39.6959 185.211C39.6439 185.447 39.6039 185.679 39.5559 185.911C39.4559 186.347 39.3519 186.803 39.2399 187.231C39.1639 187.527 39.0879 187.807 39.0079 188.091C39.0079 187.735 39.0359 187.039 39.0079 186.979C38.9035 186.178 38.5935 185.417 38.1079 184.771C38.0996 184.682 38.0836 184.594 38.0599 184.507C38.021 184.34 37.9467 184.183 37.842 184.047C37.7373 183.911 37.6047 183.799 37.453 183.719C37.3014 183.639 37.1342 183.592 36.9629 183.581C36.7916 183.571 36.62 183.598 36.4599 183.659C35.5079 184.039 35.0879 185.843 35.1479 186.759C35.1479 186.815 35.2559 187.395 35.3279 187.759C35.2519 187.551 35.1839 187.359 35.1039 187.135C34.9479 186.711 34.7799 186.291 34.6039 185.843L34.3519 185.199C34.2639 184.979 34.1399 184.759 34.0319 184.535C33.7759 184.027 33.4879 183.523 33.1879 183.019C33.5599 182.883 34.8679 182.379 35.3599 181.899C35.8519 181.419 36.3439 180.671 36.2559 179.951C36.2426 179.78 36.1929 179.614 36.1101 179.464C36.0273 179.314 35.9132 179.183 35.7756 179.081C35.638 178.979 35.4801 178.907 35.3125 178.871C35.1448 178.835 34.9714 178.835 34.8039 178.871C33.7999 179.103 33.1119 180.823 33.0359 181.739C33.0359 181.795 33.0359 182.459 33.0639 182.823C32.8799 182.523 32.6999 182.219 32.5039 181.923C31.9439 181.063 31.3479 180.211 30.7559 179.359L30.2199 178.559C30.3519 178.511 31.9239 177.947 32.4759 177.407C33.0279 176.867 33.4599 176.183 33.3679 175.463C33.3495 175.295 33.2963 175.132 33.2116 174.986C33.127 174.839 33.0127 174.712 32.8762 174.612C32.7396 174.512 32.5837 174.441 32.4183 174.404C32.253 174.368 32.0819 174.366 31.9159 174.399C30.9159 174.631 30.2239 176.355 30.1479 177.267C30.1479 177.335 30.1479 178.291 30.1879 178.531C29.7879 177.955 29.3879 177.375 29.0519 176.791C28.5636 176.002 28.128 175.182 27.7479 174.335C27.8119 174.311 29.4519 173.727 30.0199 173.179C30.5079 172.699 30.9999 171.951 30.9119 171.231C30.8986 171.06 30.8489 170.894 30.7661 170.744C30.6833 170.594 30.5692 170.463 30.4316 170.361C30.294 170.259 30.1361 170.187 29.9685 170.151C29.8008 170.115 29.6274 170.115 29.4599 170.151C28.4559 170.383 27.7679 172.103 27.6919 173.019C27.6919 173.079 27.6919 173.819 27.7239 174.151H27.6639C27.3048 173.29 27.0236 172.399 26.8239 171.487C26.7039 170.987 26.6199 170.503 26.5479 170.027C26.8679 169.951 28.3119 169.579 28.8759 169.139C29.4399 168.699 29.9879 168.031 29.9759 167.307C29.9819 167.136 29.9511 166.965 29.8855 166.806C29.8199 166.648 29.721 166.505 29.5955 166.388C29.47 166.271 29.3208 166.182 29.158 166.127C28.9952 166.073 28.8226 166.054 28.6519 166.071C27.6319 166.191 26.7559 167.827 26.5799 168.727C26.5799 168.775 26.5239 169.283 26.4999 169.655C26.4719 169.439 26.4359 169.219 26.4119 169.015C26.3239 168.243 26.2879 167.531 26.2599 166.899C26.2599 166.539 26.2599 166.215 26.2599 165.911C26.5319 165.671 27.6159 164.711 27.9079 164.059C28.1999 163.407 28.3839 162.563 28.0399 161.923C27.9635 161.77 27.8559 161.635 27.7239 161.526C27.5919 161.418 27.4385 161.338 27.2736 161.292C27.1088 161.246 26.9362 161.236 26.7671 161.261C26.598 161.287 26.436 161.347 26.2919 161.439C25.4439 162.015 25.4199 163.867 25.6799 164.751C25.6799 164.827 26.1839 165.979 26.1999 165.951C26.1999 166.243 26.1999 166.559 26.1999 166.899C26.1999 167.535 26.2319 168.247 26.3039 169.027C26.3742 169.866 26.4944 170.699 26.6639 171.523C26.8471 172.447 27.1148 173.353 27.4639 174.227V174.259C27.2719 174.027 26.7199 173.391 26.6639 173.347C25.9839 172.731 24.3119 171.935 23.4199 172.443C23.2719 172.53 23.1444 172.648 23.0458 172.789C22.9472 172.929 22.8799 173.089 22.8485 173.258C22.817 173.426 22.8221 173.6 22.8634 173.767C22.9047 173.933 22.9812 174.089 23.0879 174.223C23.4879 174.815 24.3759 175.023 25.0639 175.047C25.8359 175.067 27.3799 174.411 27.5039 174.359C27.8761 175.244 28.3091 176.102 28.7999 176.927C29.0799 177.411 29.3759 177.891 29.6799 178.363C29.5119 178.167 29.3559 177.995 29.3319 177.963C28.6519 177.347 26.9799 176.551 26.0879 177.059C25.9399 177.146 25.8124 177.264 25.7138 177.405C25.6152 177.545 25.5479 177.705 25.5165 177.874C25.485 178.042 25.4901 178.216 25.5314 178.383C25.5727 178.549 25.6492 178.705 25.7559 178.839C26.1559 179.431 27.0439 179.639 27.7319 179.663C28.4199 179.687 29.7319 179.151 30.1039 179.003C30.2239 179.183 30.3399 179.367 30.4559 179.547C31.0319 180.415 31.6039 181.279 32.1439 182.139C32.3319 182.443 32.5079 182.751 32.6879 183.059C32.5359 182.883 32.4039 182.739 32.3839 182.719C31.7039 182.099 30.0279 181.303 29.1359 181.815C28.987 181.902 28.8585 182.02 28.7591 182.16C28.6598 182.301 28.5918 182.461 28.56 182.631C28.5281 182.8 28.533 182.974 28.5744 183.141C28.6158 183.308 28.6927 183.465 28.7999 183.599C29.1999 184.187 30.0879 184.399 30.7759 184.419C31.4639 184.439 32.6759 183.963 33.0919 183.791Z" fill="#263238"/>
</g>
<g id="freepik--plant-1--inject-287">
<g id="Group" opacity="0.2">
<path id="Vector_15" d="M132.273 76.6329C132.357 76.6729 133.173 70.6329 133.181 70.2329C133.269 65.7569 130.813 57.0569 126.073 55.4329C122.661 54.2569 119.273 56.5609 118.473 59.9329C117.673 63.3809 119.673 67.2489 121.805 69.8209C124.317 72.8529 132.269 76.6289 132.273 76.6329Z" fill="black"/>
<path id="Vector_16" d="M43.6723 85.2C47.4323 86.336 56.1443 85.104 56.1523 85.1C56.2403 85.1 53.5923 79.604 53.3883 79.276C50.9883 75.496 44.1443 69.596 39.2883 70.848C35.7923 71.768 34.2403 75.56 35.4403 78.8C36.6643 82.128 40.4723 84.248 43.6723 85.2Z" fill="black"/>
<path id="Vector_17" d="M88.8009 152.8C89.6409 154.352 90.4809 155.908 91.2249 157.452C91.7049 158.52 92.2449 159.512 92.6689 160.612L93.9889 163.812C94.7529 165.88 95.5529 168.004 96.2449 170.04C96.7369 171.452 97.1809 172.804 97.6329 174.168C96.7289 172.68 94.8969 169.808 94.7169 169.584C91.9169 166.1 84.4209 161.028 79.7449 162.828C76.3769 164.128 75.2689 168.072 76.8329 171.164C78.4329 174.32 82.4609 175.992 85.7489 176.584C89.3729 177.236 96.9969 175.34 97.9449 175.096C98.6849 177.356 99.3809 179.556 100.005 181.644C101.125 185.356 102.069 188.756 102.865 191.772H106.193C105.273 188.536 104.165 184.836 102.841 180.76C102.101 178.464 101.241 176.028 100.377 173.532C102.596 172.327 104.743 170.991 106.805 169.532C109.681 171.988 116.593 174.444 117.485 174.752C116.857 177.044 116.225 179.264 115.593 181.352C114.429 185.232 113.293 188.732 112.253 191.784H115.613C116.509 188.916 117.469 185.712 118.445 182.184C119.093 179.86 119.741 177.364 120.381 174.796C121.341 174.88 129.181 175.528 132.661 174.296C135.813 173.18 139.517 170.88 140.585 167.496C141.629 164.192 139.901 160.48 136.365 159.74C131.461 158.716 124.893 164.94 122.681 168.824C122.549 169.052 121.409 171.7 120.721 173.384C120.977 172.332 121.237 171.316 121.485 170.228C121.993 168.088 122.441 165.936 122.925 163.62L123.521 160.208C123.741 159.076 123.833 157.848 123.997 156.656C124.317 153.884 124.509 151.056 124.637 148.212C126.513 148.656 133.201 150.124 136.501 149.496C139.801 148.868 143.793 147.16 145.361 143.988C146.897 140.88 145.761 136.948 142.369 135.68C137.673 133.928 130.241 139.076 127.465 142.584C127.289 142.804 125.581 145.548 124.665 147.072C124.729 145.36 124.805 143.648 124.813 141.916C124.837 136.904 124.709 131.836 124.601 126.776C124.565 125.228 124.553 123.684 124.533 122.136C125.197 122.3 133.109 124.22 136.805 123.516C140.089 122.892 144.097 121.18 145.665 118.008C147.197 114.9 146.065 110.968 142.669 109.704C137.973 107.948 130.545 113.096 127.765 116.608C127.557 116.872 125.101 120.82 124.525 121.856C124.481 118.452 124.469 115.056 124.593 111.712C124.736 107.193 125.173 102.687 125.901 98.2244C126.209 98.3044 134.457 100.344 138.241 99.6244C141.525 98.9964 145.537 97.2844 147.101 94.1124C148.637 91.0084 147.501 87.0724 144.109 85.8084C139.425 84.0564 132.001 89.2004 129.201 92.7164C129.017 92.9444 127.145 95.9524 126.289 97.4044L126.021 97.3044C126.872 92.8335 128.122 88.4479 129.757 84.2004C130.625 81.8524 131.585 79.6524 132.557 77.5364C134.053 78.0724 140.921 80.4564 144.397 80.1804C147.733 79.9204 151.905 78.6604 153.813 75.6804C155.677 72.7604 154.969 68.7244 151.745 67.0964C147.273 64.8364 139.321 69.1364 136.177 72.3204C136.005 72.4924 134.461 74.4484 133.353 75.8844C133.813 74.9364 134.269 73.9484 134.725 73.0484C136.437 69.6644 138.209 66.6724 139.801 64.0364C140.721 62.5444 141.577 61.2124 142.397 59.9724C144.141 59.7324 151.157 58.6844 154.065 56.8724C156.901 55.1044 160.025 52.0724 160.345 48.5364C160.653 45.0884 158.169 41.8324 154.557 41.8724C149.545 41.9284 144.469 49.4084 143.145 53.6844C143.029 54.0524 141.901 60.0364 141.993 60.0284H142.097C141.297 61.2044 140.433 62.4724 139.529 63.8764C137.873 66.4844 136.029 69.4484 134.241 72.8084C132.272 76.4065 130.516 80.1168 128.981 83.9204C127.239 88.1711 125.879 92.5685 124.917 97.0604C124.917 97.1124 124.917 97.1684 124.893 97.2244C124.745 95.7604 124.197 91.6924 124.117 91.3844C123.021 87.0444 118.353 79.3004 113.353 78.9844C109.753 78.7524 107.089 81.8724 107.217 85.3324C107.345 88.8684 110.301 92.0724 113.041 93.9924C116.129 96.1524 124.169 97.6484 124.809 97.7644C123.943 102.359 123.386 107.007 123.141 111.676C122.985 114.392 122.909 117.136 122.869 119.888C122.701 118.632 122.541 117.488 122.501 117.352C121.405 113.012 116.737 105.268 111.733 104.952C108.133 104.716 105.473 107.836 105.601 111.3C105.729 114.836 108.685 118.036 111.425 119.956C114.165 121.876 121.025 123.312 122.841 123.66C122.841 124.716 122.821 125.772 122.821 126.828C122.821 131.892 122.821 136.948 122.705 141.908C122.657 143.656 122.549 145.376 122.445 147.108C122.293 145.992 122.157 145.052 122.121 144.908C121.025 140.568 116.357 132.828 111.357 132.508C107.757 132.276 105.093 135.392 105.221 138.856C105.349 142.392 108.309 145.596 111.045 147.512C113.697 149.368 119.989 150.712 122.137 151.156C121.981 152.912 121.825 154.676 121.589 156.356C121.405 157.512 121.305 158.636 121.053 159.788C120.801 160.94 120.609 162.064 120.389 163.184C119.885 165.328 119.377 167.544 118.833 169.624C118.465 171.072 118.089 172.448 117.717 173.832C117.781 172.092 117.841 168.688 117.813 168.4C117.529 165.44 115.909 160.764 113.413 157.64C113.375 157.202 113.296 156.768 113.177 156.344C112.229 153.012 108.737 150.868 105.381 152.204C100.721 154.056 98.6769 162.864 98.9809 167.328C98.9809 167.592 99.5089 170.428 99.8609 172.216C99.4929 171.196 99.1489 170.216 98.7609 169.16C98.0009 167.096 97.1849 165.052 96.3169 162.856C95.8569 161.808 95.3969 160.752 94.9289 159.68C94.4609 158.608 93.8849 157.54 93.3649 156.456C92.1049 153.968 90.7089 151.508 89.2449 149.06C91.0529 148.392 97.4409 145.928 99.8449 143.584C102.249 141.24 104.645 137.612 104.197 134.1C103.765 130.664 100.637 128.016 97.1169 128.828C92.2329 129.952 88.8769 138.348 88.4969 142.808C88.4729 143.084 88.5569 146.316 88.6409 148.088C87.7489 146.624 86.8649 145.16 85.9169 143.708C83.1769 139.516 80.2689 135.36 77.3889 131.2C76.5089 129.924 75.6449 128.644 74.7729 127.368C75.4169 127.136 83.0769 124.372 85.7689 121.748C88.1689 119.412 90.5689 115.776 90.1209 112.264C89.6889 108.828 86.5609 106.18 83.0409 106.992C78.1569 108.116 74.8009 116.508 74.4209 120.968C74.3889 121.304 74.5209 125.956 74.6129 127.136C72.6969 124.336 70.8169 121.496 69.0729 118.64C66.7 114.791 64.5783 110.792 62.7209 106.668C63.0249 106.56 71.0289 103.712 73.7889 101.024C76.1889 98.6924 78.5889 95.0524 78.1369 91.5404C77.7049 88.1044 74.5769 85.4564 71.0609 86.2684C66.1729 87.3924 62.8169 95.7884 62.4369 100.244C62.4129 100.54 62.5089 104.084 62.5929 105.764L62.3169 105.828C60.5697 101.617 59.2055 97.2567 58.2409 92.8004C57.6689 90.3644 57.2569 88.0004 56.9089 85.6924C58.4569 85.3124 65.5009 83.5084 68.2489 81.3644C70.8849 79.3044 73.6689 75.9524 73.6169 72.4164C73.5609 68.9524 70.7449 65.9764 67.1569 66.3964C62.1809 66.9764 57.9209 74.9524 57.0529 79.3444C57.0049 79.5804 56.7929 82.0644 56.6529 83.8724C56.5129 82.8284 56.3489 81.7524 56.2529 80.7484C55.8129 76.9844 55.6409 73.5084 55.5129 70.4324C55.4569 68.6804 55.4369 67.0964 55.4369 65.6324C56.7609 64.4724 62.0329 59.7244 63.4609 56.6084C64.8489 53.5684 65.7769 49.3084 64.0969 46.2084C62.4529 43.1604 58.5849 41.8084 55.5929 43.8404C51.4449 46.6404 51.3409 55.6924 52.5929 59.9924C52.7009 60.3604 55.0609 65.9924 55.1329 65.9164L55.2129 65.8444C55.1849 67.2724 55.1689 68.8044 55.1889 70.4764C55.2489 73.5604 55.3449 77.0524 55.7049 80.8404C56.0493 84.9269 56.6316 88.9898 57.4489 93.0084C58.3401 97.515 59.6333 101.933 61.3129 106.208C61.3329 106.26 61.3609 106.308 61.3809 106.36C60.4489 105.224 57.7449 102.132 57.5129 101.916C54.2049 98.9004 46.0369 95.0204 41.6889 97.5164C38.5529 99.3124 38.0569 103.376 40.0889 106.196C42.1209 109.016 46.3809 110.116 49.7249 110.196C53.4929 110.296 61.0209 107.108 61.6169 106.852C63.4317 111.161 65.5324 115.344 67.9049 119.372C69.2729 121.728 70.7049 124.06 72.2049 126.376C71.3729 125.42 70.6049 124.568 70.5009 124.464C67.1929 121.444 59.0249 117.564 54.6769 120.064C51.5409 121.856 51.0449 125.924 53.0769 128.74C55.1369 131.62 59.3689 132.66 62.7129 132.74C66.0569 132.82 72.5769 130.24 74.2809 129.54C74.8569 130.424 75.4249 131.312 76.0089 132.192C78.8089 136.42 81.6089 140.628 84.2289 144.836C85.1569 146.32 86.0129 147.816 86.8769 149.308C86.1329 148.456 85.5009 147.748 85.3929 147.652C82.0849 144.636 73.9209 140.752 69.5729 143.252C66.4369 145.044 65.9409 149.112 67.9729 151.928C70.0329 154.808 74.2649 155.848 77.6049 155.928C80.8009 156 86.8009 153.64 88.8009 152.8Z" fill="black"/>
<path id="Vector_18" opacity="0.3" d="M43.6723 85.2C47.4323 86.336 56.1443 85.104 56.1523 85.1C56.2403 85.1 53.5923 79.604 53.3883 79.276C50.9883 75.496 44.1443 69.596 39.2883 70.848C35.7923 71.768 34.2403 75.56 35.4403 78.8C36.6643 82.128 40.4723 84.248 43.6723 85.2Z" fill="black"/>
<path id="Vector_19" opacity="0.3" d="M132.273 76.6329C132.357 76.6729 133.173 70.6329 133.181 70.2329C133.269 65.7569 130.813 57.0569 126.073 55.4329C122.661 54.2569 119.273 56.5609 118.473 59.9329C117.673 63.3809 119.673 67.2489 121.805 69.8209C124.317 72.8529 132.269 76.6289 132.273 76.6329Z" fill="black"/>
<path id="Vector_20" opacity="0.3" d="M88.8009 152.8C89.6409 154.352 90.4809 155.908 91.2249 157.452C91.7049 158.52 92.2449 159.512 92.6689 160.612L93.9889 163.812C94.7529 165.88 95.5529 168.004 96.2449 170.04C96.7369 171.452 97.1809 172.804 97.6329 174.168C96.7289 172.68 94.8969 169.808 94.7169 169.584C91.9169 166.1 84.4209 161.028 79.7449 162.828C76.3769 164.128 75.2689 168.072 76.8329 171.164C78.4329 174.32 82.4609 175.992 85.7489 176.584C89.3729 177.236 96.9969 175.34 97.9449 175.096C98.6849 177.356 99.3809 179.556 100.005 181.644C101.125 185.356 102.069 188.756 102.865 191.772H106.193C105.273 188.536 104.165 184.836 102.841 180.76C102.101 178.464 101.241 176.028 100.377 173.532C102.596 172.327 104.743 170.991 106.805 169.532C109.681 171.988 116.593 174.444 117.485 174.752C116.857 177.044 116.225 179.264 115.593 181.352C114.429 185.232 113.293 188.732 112.253 191.784H115.613C116.509 188.916 117.469 185.712 118.445 182.184C119.093 179.86 119.741 177.364 120.381 174.796C121.341 174.88 129.181 175.528 132.661 174.296C135.813 173.18 139.517 170.88 140.585 167.496C141.629 164.192 139.901 160.48 136.365 159.74C131.461 158.716 124.893 164.94 122.681 168.824C122.549 169.052 121.409 171.7 120.721 173.384C120.977 172.332 121.237 171.316 121.485 170.228C121.993 168.088 122.441 165.936 122.925 163.62L123.521 160.208C123.741 159.076 123.833 157.848 123.997 156.656C124.317 153.884 124.509 151.056 124.637 148.212C126.513 148.656 133.201 150.124 136.501 149.496C139.801 148.868 143.793 147.16 145.361 143.988C146.897 140.88 145.761 136.948 142.369 135.68C137.673 133.928 130.241 139.076 127.465 142.584C127.289 142.804 125.581 145.548 124.665 147.072C124.729 145.36 124.805 143.648 124.813 141.916C124.837 136.904 124.709 131.836 124.601 126.776C124.565 125.228 124.553 123.684 124.533 122.136C125.197 122.3 133.109 124.22 136.805 123.516C140.089 122.892 144.097 121.18 145.665 118.008C147.197 114.9 146.065 110.968 142.669 109.704C137.973 107.948 130.545 113.096 127.765 116.608C127.557 116.872 125.101 120.82 124.525 121.856C124.481 118.452 124.469 115.056 124.593 111.712C124.736 107.193 125.173 102.687 125.901 98.2244C126.209 98.3044 134.457 100.344 138.241 99.6244C141.525 98.9964 145.537 97.2844 147.101 94.1124C148.637 91.0084 147.501 87.0724 144.109 85.8084C139.425 84.0564 132.001 89.2004 129.201 92.7164C129.017 92.9444 127.145 95.9524 126.289 97.4044L126.021 97.3044C126.872 92.8335 128.122 88.4479 129.757 84.2004C130.625 81.8524 131.585 79.6524 132.557 77.5364C134.053 78.0724 140.921 80.4564 144.397 80.1804C147.733 79.9204 151.905 78.6604 153.813 75.6804C155.677 72.7604 154.969 68.7244 151.745 67.0964C147.273 64.8364 139.321 69.1364 136.177 72.3204C136.005 72.4924 134.461 74.4484 133.353 75.8844C133.813 74.9364 134.269 73.9484 134.725 73.0484C136.437 69.6644 138.209 66.6724 139.801 64.0364C140.721 62.5444 141.577 61.2124 142.397 59.9724C144.141 59.7324 151.157 58.6844 154.065 56.8724C156.901 55.1044 160.025 52.0724 160.345 48.5364C160.653 45.0884 158.169 41.8324 154.557 41.8724C149.545 41.9284 144.469 49.4084 143.145 53.6844C143.029 54.0524 141.901 60.0364 141.993 60.0284H142.097C141.297 61.2044 140.433 62.4724 139.529 63.8764C137.873 66.4844 136.029 69.4484 134.241 72.8084C132.272 76.4065 130.516 80.1168 128.981 83.9204C127.239 88.1711 125.879 92.5685 124.917 97.0604C124.917 97.1124 124.917 97.1684 124.893 97.2244C124.745 95.7604 124.197 91.6924 124.117 91.3844C123.021 87.0444 118.353 79.3004 113.353 78.9844C109.753 78.7524 107.089 81.8724 107.217 85.3324C107.345 88.8684 110.301 92.0724 113.041 93.9924C116.129 96.1524 124.169 97.6484 124.809 97.7644C123.943 102.359 123.386 107.007 123.141 111.676C122.985 114.392 122.909 117.136 122.869 119.888C122.701 118.632 122.541 117.488 122.501 117.352C121.405 113.012 116.737 105.268 111.733 104.952C108.133 104.716 105.473 107.836 105.601 111.3C105.729 114.836 108.685 118.036 111.425 119.956C114.165 121.876 121.025 123.312 122.841 123.66C122.841 124.716 122.821 125.772 122.821 126.828C122.821 131.892 122.821 136.948 122.705 141.908C122.657 143.656 122.549 145.376 122.445 147.108C122.293 145.992 122.157 145.052 122.121 144.908C121.025 140.568 116.357 132.828 111.357 132.508C107.757 132.276 105.093 135.392 105.221 138.856C105.349 142.392 108.309 145.596 111.045 147.512C113.697 149.368 119.989 150.712 122.137 151.156C121.981 152.912 121.825 154.676 121.589 156.356C121.405 157.512 121.305 158.636 121.053 159.788C120.801 160.94 120.609 162.064 120.389 163.184C119.885 165.328 119.377 167.544 118.833 169.624C118.465 171.072 118.089 172.448 117.717 173.832C117.781 172.092 117.841 168.688 117.813 168.4C117.529 165.44 115.909 160.764 113.413 157.64C113.375 157.202 113.296 156.768 113.177 156.344C112.229 153.012 108.737 150.868 105.381 152.204C100.721 154.056 98.6769 162.864 98.9809 167.328C98.9809 167.592 99.5089 170.428 99.8609 172.216C99.4929 171.196 99.1489 170.216 98.7609 169.16C98.0009 167.096 97.1849 165.052 96.3169 162.856C95.8569 161.808 95.3969 160.752 94.9289 159.68C94.4609 158.608 93.8849 157.54 93.3649 156.456C92.1049 153.968 90.7089 151.508 89.2449 149.06C91.0529 148.392 97.4409 145.928 99.8449 143.584C102.249 141.24 104.645 137.612 104.197 134.1C103.765 130.664 100.637 128.016 97.1169 128.828C92.2329 129.952 88.8769 138.348 88.4969 142.808C88.4729 143.084 88.5569 146.316 88.6409 148.088C87.7489 146.624 86.8649 145.16 85.9169 143.708C83.1769 139.516 80.2689 135.36 77.3889 131.2C76.5089 129.924 75.6449 128.644 74.7729 127.368C75.4169 127.136 83.0769 124.372 85.7689 121.748C88.1689 119.412 90.5689 115.776 90.1209 112.264C89.6889 108.828 86.5609 106.18 83.0409 106.992C78.1569 108.116 74.8009 116.508 74.4209 120.968C74.3889 121.304 74.5209 125.956 74.6129 127.136C72.6969 124.336 70.8169 121.496 69.0729 118.64C66.7 114.791 64.5783 110.792 62.7209 106.668C63.0249 106.56 71.0289 103.712 73.7889 101.024C76.1889 98.6924 78.5889 95.0524 78.1369 91.5404C77.7049 88.1044 74.5769 85.4564 71.0609 86.2684C66.1729 87.3924 62.8169 95.7884 62.4369 100.244C62.4129 100.54 62.5089 104.084 62.5929 105.764L62.3169 105.828C60.5697 101.617 59.2055 97.2567 58.2409 92.8004C57.6689 90.3644 57.2569 88.0004 56.9089 85.6924C58.4569 85.3124 65.5009 83.5084 68.2489 81.3644C70.8849 79.3044 73.6689 75.9524 73.6169 72.4164C73.5609 68.9524 70.7449 65.9764 67.1569 66.3964C62.1809 66.9764 57.9209 74.9524 57.0529 79.3444C57.0049 79.5804 56.7929 82.0644 56.6529 83.8724C56.5129 82.8284 56.3489 81.7524 56.2529 80.7484C55.8129 76.9844 55.6409 73.5084 55.5129 70.4324C55.4569 68.6804 55.4369 67.0964 55.4369 65.6324C56.7609 64.4724 62.0329 59.7244 63.4609 56.6084C64.8489 53.5684 65.7769 49.3084 64.0969 46.2084C62.4529 43.1604 58.5849 41.8084 55.5929 43.8404C51.4449 46.6404 51.3409 55.6924 52.5929 59.9924C52.7009 60.3604 55.0609 65.9924 55.1329 65.9164L55.2129 65.8444C55.1849 67.2724 55.1689 68.8044 55.1889 70.4764C55.2489 73.5604 55.3449 77.0524 55.7049 80.8404C56.0493 84.9269 56.6316 88.9898 57.4489 93.0084C58.3401 97.515 59.6333 101.933 61.3129 106.208C61.3329 106.26 61.3609 106.308 61.3809 106.36C60.4489 105.224 57.7449 102.132 57.5129 101.916C54.2049 98.9004 46.0369 95.0204 41.6889 97.5164C38.5529 99.3124 38.0569 103.376 40.0889 106.196C42.1209 109.016 46.3809 110.116 49.7249 110.196C53.4929 110.296 61.0209 107.108 61.6169 106.852C63.4317 111.161 65.5324 115.344 67.9049 119.372C69.2729 121.728 70.7049 124.06 72.2049 126.376C71.3729 125.42 70.6049 124.568 70.5009 124.464C67.1929 121.444 59.0249 117.564 54.6769 120.064C51.5409 121.856 51.0449 125.924 53.0769 128.74C55.1369 131.62 59.3689 132.66 62.7129 132.74C66.0569 132.82 72.5769 130.24 74.2809 129.54C74.8569 130.424 75.4249 131.312 76.0089 132.192C78.8089 136.42 81.6089 140.628 84.2289 144.836C85.1569 146.32 86.0129 147.816 86.8769 149.308C86.1329 148.456 85.5009 147.748 85.3929 147.652C82.0849 144.636 73.9209 140.752 69.5729 143.252C66.4369 145.044 65.9409 149.112 67.9729 151.928C70.0329 154.808 74.2649 155.848 77.6049 155.928C80.8009 156 86.8009 153.64 88.8009 152.8Z" fill="black"/>
</g>
</g>
<g id="freepik--Clouds--inject-287">
<path id="Vector_21" d="M47.9225 20.1281C47.9225 20.1281 45.9545 15.0641 38.9265 14.5041C31.8985 13.9441 31.0545 21.5321 29.6505 22.6561C28.2465 23.7801 25.4305 20.6881 22.6185 21.8121C20.9123 22.5221 19.5163 23.8188 18.6825 25.4681C18.6825 25.4681 16.1545 24.3441 14.4665 24.6241C12.7785 24.9041 10.8105 27.4241 10.8105 27.4241H58.3266C58.3266 27.4241 58.3265 22.6241 54.9545 20.9561C51.5825 19.2881 50.1745 22.9281 49.3305 22.6441C48.4865 22.3601 47.9225 20.1281 47.9225 20.1281Z" stroke="#263238" stroke-miterlimit="10"/>
<path id="Vector_22" d="M184.203 57.4325C184.203 57.4325 182.531 53.1285 176.551 52.6325C170.571 52.1365 169.855 58.6285 168.659 59.6005C167.463 60.5725 165.059 57.9245 162.679 58.8805C161.227 59.485 160.04 60.5888 159.331 61.9925C159.331 61.9925 157.179 61.0365 155.731 61.2725C154.283 61.5085 152.623 63.6725 152.623 63.6725H193.023C193.023 63.6725 193.023 59.6085 190.155 58.1725C187.287 56.7365 186.087 59.8485 185.355 59.6085C184.623 59.3685 184.203 57.4325 184.203 57.4325Z" stroke="#263238" stroke-miterlimit="10"/>
<path id="Vector_23" d="M51.0675 136.433C51.0675 136.433 48.7115 130.369 40.2875 129.697C31.8635 129.025 30.8555 138.117 29.1715 139.465C27.4875 140.813 24.1195 137.109 20.7515 138.457C18.7068 139.304 17.0337 140.857 16.0355 142.833C16.0355 142.833 13.0035 141.489 10.9795 141.825C8.95552 142.161 6.60352 145.201 6.60352 145.201H63.5315C63.5315 145.201 63.5315 139.473 59.4915 137.453C55.4515 135.433 53.7635 139.809 52.7555 139.473C51.7475 139.137 51.0675 136.433 51.0675 136.433Z" stroke="#263238" stroke-miterlimit="10"/>
</g>
<g id="freepik--Globe--inject-287">
<path id="Vector_24" d="M173.324 118.42C183.764 118.42 192.228 109.957 192.228 99.5163C192.228 89.0759 183.764 80.6123 173.324 80.6123C162.884 80.6123 154.42 89.0759 154.42 99.5163C154.42 109.957 162.884 118.42 173.324 118.42Z" stroke="#263238" stroke-miterlimit="10"/>
<path id="Vector_25" d="M173.323 118.42C179.325 118.42 184.191 109.957 184.191 99.5163C184.191 89.0759 179.325 80.6123 173.323 80.6123C167.321 80.6123 162.455 89.0759 162.455 99.5163C162.455 109.957 167.321 118.42 173.323 118.42Z" stroke="#263238" stroke-miterlimit="10"/>
<path id="Vector_26" d="M173.324 80.6123V118.42" stroke="#263238" stroke-miterlimit="10"/>
<path id="Vector_27" d="M162.229 84.2881H184.305" stroke="#263238" stroke-miterlimit="10"/>
<path id="Vector_28" d="M162.229 114.969H184.305" stroke="#263238" stroke-miterlimit="10"/>
<path id="Vector_29" d="M155.867 91.832H190.663" stroke="#263238" stroke-miterlimit="10"/>
<path id="Vector_30" d="M155.867 106.924H190.663" stroke="#263238" stroke-miterlimit="10"/>
<path id="Vector_31" d="M154.496 99.3799H192.036" stroke="#263238" stroke-miterlimit="10"/>
</g>
<g id="freepik--search-bar--inject-287">
<path id="Vector_32" d="M169.427 15.3965H125.147C123.608 15.3965 122.359 16.6447 122.359 18.1845V23.1045C122.359 24.6443 123.608 25.8925 125.147 25.8925H169.427C170.967 25.8925 172.215 24.6443 172.215 23.1045V18.1845C172.215 16.6447 170.967 15.3965 169.427 15.3965Z" stroke="#263238" stroke-miterlimit="10"/>
<path id="Vector_33" d="M160.059 15.3604V26.0963" stroke="#263238" stroke-miterlimit="10"/>
<path id="Vector_34" d="M171.059 23.6566L168.199 21.5086C168.591 20.7446 168.684 19.8612 168.458 19.0324C168.232 18.2037 167.703 17.4897 166.977 17.0312C166.25 16.5727 165.378 16.403 164.533 16.5556C163.687 16.7081 162.93 17.1718 162.409 17.8553C161.889 18.5388 161.643 19.3924 161.721 20.248C161.799 21.1035 162.194 21.8989 162.829 22.4774C163.465 23.0558 164.293 23.3753 165.152 23.373C166.012 23.3706 166.839 23.0465 167.471 22.4646L170.339 24.6166C170.443 24.694 170.569 24.736 170.699 24.7366C170.824 24.7366 170.947 24.697 171.049 24.6233C171.152 24.5497 171.228 24.4458 171.268 24.3263C171.308 24.2069 171.309 24.0779 171.271 23.9577C171.234 23.8375 171.159 23.7321 171.059 23.6566ZM165.163 22.1726C164.725 22.1734 164.297 22.0443 163.933 21.8017C163.568 21.5592 163.284 21.214 163.116 20.8099C162.948 20.4057 162.904 19.9609 162.989 19.5315C163.073 19.1022 163.284 18.7076 163.593 18.3979C163.902 18.0881 164.296 17.8771 164.726 17.7914C165.155 17.7057 165.6 17.7493 166.004 17.9166C166.409 18.0839 166.754 18.3674 166.997 18.7313C167.241 19.0951 167.371 19.5229 167.371 19.9606C167.369 20.5462 167.137 21.1076 166.723 21.5221C166.309 21.9366 165.748 22.1705 165.163 22.1726Z" stroke="#263238" stroke-miterlimit="10"/>
</g>
<g id="freepik--magnifying-glass--inject-287">
<path id="Vector_35" d="M42.8009 64.3359L31.4609 55.8439C33.007 52.8281 33.3674 49.3426 32.4711 46.0742C31.5748 42.8059 29.4867 39.9918 26.6185 38.1867C23.7502 36.3815 20.3099 35.7161 16.9754 36.3218C13.6409 36.9274 10.6542 38.76 8.60395 41.4585C6.55367 44.157 5.58853 47.5256 5.89873 50.9004C6.20894 54.2752 7.77199 57.4114 10.2798 59.6909C12.7877 61.9704 16.0584 63.2279 19.4474 63.2155C22.8364 63.2031 26.0978 61.9217 28.5889 59.6239L39.9329 68.1319C40.1809 68.3346 40.4672 68.4851 40.7747 68.5743C41.0823 68.6636 41.4047 68.6897 41.7226 68.6512C42.0405 68.6127 42.3473 68.5103 42.6246 68.3502C42.902 68.1902 43.1441 67.9757 43.3365 67.7196C43.5288 67.4636 43.6674 67.1714 43.744 66.8604C43.8205 66.5495 43.8334 66.2263 43.7819 65.9102C43.7304 65.5942 43.6155 65.2918 43.4442 65.0213C43.2729 64.7507 43.0486 64.5176 42.7849 64.3359H42.8009ZM19.4529 58.4679C17.7216 58.4687 16.029 57.956 14.5891 56.9946C13.1492 56.0332 12.0268 54.6664 11.3639 53.067C10.701 51.4676 10.5273 49.7076 10.8649 48.0095C11.2025 46.3114 12.0361 44.7515 13.2603 43.5273C14.4846 42.3031 16.0444 41.4695 17.7425 41.1319C19.4406 40.7943 21.2007 40.968 22.8 41.6309C24.3994 42.2938 25.7663 43.4162 26.7276 44.8561C27.689 46.2959 28.2017 47.9886 28.2009 49.7199C28.1978 52.0391 27.2751 54.2623 25.6352 55.9022C23.9953 57.5421 21.7721 58.4647 19.4529 58.4679Z" stroke="#263238" stroke-miterlimit="10"/>
</g>
<g id="freepik--Character--inject-287">
<path id="Vector_36" d="M98.7668 77.7002C77.1068 77.7002 58.7268 89.9682 52.2228 106.984C52.1646 107.14 52.1581 107.311 52.2042 107.47C52.2503 107.63 52.3466 107.771 52.4788 107.872L70.6908 121.872C70.826 121.974 70.9898 122.03 71.1588 122.032H74.0788C74.1822 122.032 74.2845 122.01 74.3796 121.97C74.4747 121.929 74.5606 121.869 74.6322 121.795C74.7039 121.72 74.7598 121.632 74.7966 121.535C74.8335 121.439 74.8505 121.336 74.8468 121.232C74.8468 121.016 74.8468 120.8 74.8468 120.584C74.8468 109.032 85.5588 99.6642 98.7788 99.6642C111.999 99.6642 122.711 109.032 122.711 120.584C122.711 132.136 111.999 141.496 98.7668 141.496C96.7346 141.496 94.7088 141.269 92.7268 140.82C92.5446 140.777 92.358 140.756 92.1708 140.756C91.7558 140.757 91.3473 140.859 90.9801 141.053C90.6129 141.246 90.298 141.525 90.0622 141.867C89.8264 142.208 89.6767 142.602 89.626 143.014C89.5752 143.426 89.6249 143.844 89.7708 144.232L92.4308 151.28V167.432H121.667V160.752C121.664 160.097 121.841 159.455 122.18 158.894C122.519 158.334 123.006 157.878 123.587 157.576C138.095 150.124 147.835 136.348 147.835 120.58C147.827 96.8962 125.863 77.7002 98.7668 77.7002Z" fill="#263238" stroke="#263238" stroke-miterlimit="10"/>
<path id="Vector_37" d="M121.66 170.596H92.4238V191.788H121.66V170.596Z" fill="#263238" stroke="#263238" stroke-miterlimit="10"/>
<path id="Vector_38" d="M143.827 120.58C143.827 96.8962 121.863 77.7002 94.7675 77.7002C73.1275 77.7002 54.7675 89.9402 48.2435 106.932C48.1854 107.1 48.1845 107.282 48.2409 107.449C48.2974 107.617 48.408 107.762 48.5555 107.86L69.6515 121.244C69.7684 121.322 69.9044 121.367 70.0448 121.373C70.1852 121.379 70.3246 121.347 70.4481 121.28C70.5716 121.213 70.6744 121.113 70.7455 120.992C70.8165 120.871 70.8532 120.733 70.8515 120.592C70.8515 109.04 81.5675 99.6722 94.7835 99.6722C107.999 99.6722 118.715 109.04 118.715 120.592C118.715 132.144 107.999 141.496 94.7675 141.496C93.6295 141.497 92.4926 141.426 91.3635 141.284C91.0008 141.236 90.6321 141.265 90.2818 141.371C89.9316 141.477 89.6079 141.656 89.3326 141.897C89.0573 142.138 88.8366 142.435 88.6853 142.768C88.534 143.101 88.4557 143.462 88.4555 143.828V151.28H88.4235V167.432H117.659V160.752C117.657 160.098 117.835 159.455 118.174 158.895C118.513 158.335 118.999 157.879 119.579 157.576C134.087 150.124 143.827 136.348 143.827 120.58Z" fill="#0C5DAC" stroke="#263238" stroke-miterlimit="10"/>
<path id="Vector_39" d="M117.66 170.596H88.4238V191.788H117.66V170.596Z" fill="#0C5DAC" stroke="#263238" stroke-miterlimit="10"/>
<path id="Vector_40" d="M92.1995 36.3193C92.1995 36.3193 89.3115 37.5993 87.9995 38.1953C87.2559 38.551 86.4822 38.8402 85.6875 39.0593L87.8915 40.2153L94.0995 39.2393L92.1995 36.3193Z" fill="white" stroke="#263238" stroke-miterlimit="10"/>
<path id="Vector_41" d="M82.9963 37.6517C82.5958 37.268 82.2655 36.8172 82.0203 36.3197C81.7323 35.6317 81.1523 35.9557 81.1523 36.4637C81.1715 36.9575 81.3357 37.4347 81.6243 37.8357C81.7683 37.9077 83.2843 38.1597 83.2843 38.1597L82.9963 37.6517Z" stroke="#263238" stroke-miterlimit="10"/>
<path id="Vector_42" d="M93.3516 40.716L93.9636 44.18C93.9636 44.18 92.7636 51.056 92.5316 55.012C92.2996 58.968 92.1316 61.544 92.3596 62.576C92.5876 63.608 95.5596 73.636 95.5596 73.636C95.5596 73.636 95.0436 74.268 95.0436 74.436C95.0436 74.604 94.9876 75.236 94.9876 75.236C94.5364 75.6863 94.0567 76.1072 93.5516 76.496C92.9236 76.956 91.6036 77.356 91.8356 77.816C92.0676 78.276 93.6116 77.816 95.3316 77.816C97.0516 77.816 98.2516 78.044 98.8836 77.588C99.5156 77.132 98.9396 75.408 98.9396 75.408C98.9396 75.408 98.9996 74.208 99.0556 73.86C99.1116 73.512 98.3116 71.74 98.3676 71.224C98.4236 70.708 96.9996 60.4 96.9996 60.4L99.8636 49.8C99.8636 49.8 104.564 61.72 105.14 62.292C105.716 62.864 113.448 72.724 113.448 72.724C113.448 72.724 112.932 73.296 113.104 73.584C113.244 73.8027 113.397 74.0125 113.564 74.212C113.564 74.212 112.988 75.412 112.644 75.932C112.3 76.452 111.328 76.732 111.5 77.08C111.672 77.428 113.448 77.48 113.9 77.364C114.352 77.248 116.192 75.244 116.7 74.844C117.208 74.444 118.188 73.696 118.188 73.18C118.188 72.664 117.216 72.036 117.156 71.864C117.096 71.692 116.984 70.948 116.64 70.716C116.307 70.5062 115.962 70.3153 115.608 70.144C115.38 70.028 109.648 60.056 109.648 60.056C109.648 60.056 107.072 44.7 106.384 42.924C105.696 41.148 101.788 36.04 101.788 36.04L93.3516 40.716Z" fill="#263238" stroke="#263238" stroke-miterlimit="10"/>
<path id="Vector_43" d="M87.1111 31.1995C87.1111 31.1995 87.8671 34.6675 88.8231 35.5755C89.7791 36.4835 91.6911 36.7315 91.6911 36.7315L93.3511 40.7075C93.3511 40.7075 99.3871 38.8435 101.803 36.0275C101.803 36.0275 99.0031 31.5515 96.9231 28.6835C94.8431 25.8155 95.7151 25.3195 92.7991 23.5995C89.8831 21.8795 87.5151 24.2555 87.5151 24.2555C87.5151 24.2555 85.3031 24.3635 87.1111 31.1995Z" fill="#B5EB2E" stroke="#263238" stroke-miterlimit="10"/>
<path id="Vector_44" d="M83.5469 14.5081C83.5469 14.5081 82.9589 13.3081 79.1469 13.9161C77.8923 14.0646 76.7221 14.6242 75.819 15.5078C74.9159 16.3913 74.3308 17.549 74.1549 18.8001C74.0029 20.0001 74.1549 19.9441 73.7869 20.2441C73.4189 20.5441 71.7869 20.3481 72.0749 22.1081C72.3629 23.8681 74.4429 22.8601 74.7429 23.4641C74.8777 23.7768 75.101 24.0434 75.3852 24.231C75.6695 24.4186 76.0023 24.519 76.3429 24.5201C77.1949 24.5721 78.0029 23.5641 78.1029 23.1641C78.2029 22.7641 79.0589 22.4081 80.5669 23.3161C82.0749 24.2241 84.0869 25.8281 86.2029 24.0681C88.3189 22.3081 85.5589 16.0641 83.5469 14.5081Z" fill="#263238" stroke="#263238" stroke-miterlimit="10"/>
<path id="Vector_45" d="M75.6426 21.9993C75.8079 22.55 76.0207 23.0854 76.2786 23.5993C76.5946 24.1433 77.7706 24.6433 77.8186 25.4553C77.8666 26.2673 77.5906 26.8153 77.8186 26.9513C78.0466 27.0873 79.1306 26.7713 79.1306 26.7713C79.1306 26.7713 81.5306 28.3713 82.1186 28.1273C82.7066 27.8833 83.8386 26.3153 83.8386 26.3153L86.3986 28.1353L87.1106 31.1993L88.0186 29.7393C88.0186 29.7393 86.3066 27.6753 86.9106 25.9673L87.5146 24.2553C87.5146 24.2553 83.6586 23.7233 83.1586 23.0913C82.6586 22.4593 81.7546 20.8713 80.9426 20.6433C80.1306 20.4153 79.8106 21.5513 79.8986 21.8233C79.9866 22.0953 78.5426 22.0473 77.6346 21.6873L76.7306 21.3233C76.5026 21.2433 75.6426 21.5993 75.6426 21.9993Z" fill="white" stroke="#263238" stroke-miterlimit="10"/>
<path id="Vector_46" d="M77.3639 23.8679C77.3639 23.8679 77.3199 23.0679 77.9999 22.9639" stroke="#263238" stroke-miterlimit="10"/>
<path id="Vector_47" d="M78.6067 24.144C78.8307 24.328 78.9187 24.584 78.8067 24.72C78.6947 24.856 78.4067 24.816 78.2067 24.636C78.0067 24.456 77.8907 24.192 78.0027 24.06C78.1147 23.928 78.3987 23.96 78.6067 24.144Z" fill="#263238"/>
<path id="Vector_48" d="M80.3066 26.7995C80.3066 26.7995 80.5786 26.6195 80.3546 25.8955" stroke="#263238" stroke-miterlimit="10"/>
<g id="Vector_49">
<path d="M82.2122 21.7393C82.2122 21.7393 82.8442 22.4193 82.6122 22.7793C82.4984 22.9771 82.3427 23.1477 82.1562 23.2793C82.1562 23.2793 82.7482 23.8673 82.7922 24.2313" fill="white"/>
<path d="M82.2122 21.7393C82.2122 21.7393 82.8442 22.4193 82.6122 22.7793C82.4984 22.9771 82.3427 23.1477 82.1562 23.2793C82.1562 23.2793 82.7482 23.8673 82.7922 24.2313" stroke="#263238" stroke-miterlimit="10"/>
</g>
<g id="Vector_50">
<path d="M80.2991 19.9437C80.2991 19.9437 82.5311 21.3997 83.7111 23.2197C84.8911 25.0397 88.2511 24.9437 89.4391 23.9437C90.6271 22.9437 90.8471 21.9757 91.7631 22.2037C92.6791 22.4317 94.8791 23.1837 96.3111 22.1317C97.7431 21.0797 96.6711 18.9877 98.1271 19.3677C98.9064 19.5811 99.7333 19.541 100.488 19.2534C101.243 18.9658 101.887 18.4455 102.327 17.7677C103.311 16.2397 104.067 13.6317 101.311 10.2237C99.1991 7.59972 96.0351 8.28772 95.0871 8.41972C94.1391 8.55172 94.4511 7.51172 91.3551 7.51172C88.1551 7.51172 86.6471 10.2357 86.4391 10.9957C86.2311 11.7557 87.0951 12.2717 84.6191 11.4237C82.1431 10.5757 80.9351 11.5157 80.9791 12.7877C81.0231 14.0597 78.2271 14.4957 77.7031 14.6997" fill="#263238"/>
<path d="M80.2991 19.9437C80.2991 19.9437 82.5311 21.3997 83.7111 23.2197C84.8911 25.0397 88.2511 24.9437 89.4391 23.9437C90.6271 22.9437 90.8471 21.9757 91.7631 22.2037C92.6791 22.4317 94.8791 23.1837 96.3111 22.1317C97.7431 21.0797 96.6711 18.9877 98.1271 19.3677C98.9064 19.5811 99.7333 19.541 100.488 19.2534C101.243 18.9658 101.887 18.4455 102.327 17.7677C103.311 16.2397 104.067 13.6317 101.311 10.2237C99.1991 7.59972 96.0351 8.28772 95.0871 8.41972C94.1391 8.55172 94.4511 7.51172 91.3551 7.51172C88.1551 7.51172 86.6471 10.2357 86.4391 10.9957C86.2311 11.7557 87.0951 12.2717 84.6191 11.4237C82.1431 10.5757 80.9351 11.5157 80.9791 12.7877C81.0231 14.0597 78.2271 14.4957 77.7031 14.6997" stroke="#263238" stroke-miterlimit="10"/>
</g>
<path id="Vector_51" d="M108.859 46.156C108.742 46.1566 108.625 46.1431 108.511 46.116L77.4354 38.096C77.3056 38.0642 77.1834 38.0072 77.0757 37.9282C76.968 37.8492 76.8769 37.7497 76.8076 37.6355C76.7383 37.5213 76.6922 37.3946 76.672 37.2625C76.6517 37.1305 76.6576 36.9958 76.6894 36.866C76.7211 36.7363 76.7782 36.6141 76.8572 36.5064C76.9362 36.3986 77.0356 36.3076 77.1499 36.2383C77.2641 36.169 77.3908 36.1229 77.5228 36.1026C77.6549 36.0823 77.7896 36.0882 77.9194 36.12L109.199 43.288C109.543 43.3744 109.843 43.5831 110.044 43.8749C110.245 44.1667 110.332 44.5218 110.29 44.8735C110.248 45.2252 110.079 45.5494 109.815 45.7855C109.551 46.0216 109.21 46.1533 108.855 46.156H108.859Z" fill="#8F8F8F" stroke="#263238" stroke-miterlimit="10"/>
<path id="Vector_52" d="M95.9155 40.7634L94.9595 41.4674C94.7431 41.8405 94.4736 42.18 94.1595 42.4754C93.8075 42.7274 93.6075 42.8754 93.9595 43.0274C94.3115 43.1794 95.1595 42.8274 95.1595 42.8274C95.1595 42.8274 94.8555 44.1354 95.1075 44.2354C95.3595 44.3354 95.9075 44.3874 96.0635 44.1874C96.1703 44.0553 96.3076 43.951 96.4635 43.8834C96.4635 43.8834 96.6115 44.0834 97.5195 43.8354C98.4275 43.5874 98.4755 42.0234 98.5755 41.3194C98.6755 40.6154 102.699 31.7594 102.951 30.6034C103.203 29.4474 102.951 28.7394 102.599 28.5394C102.247 28.3394 92.1995 25.2194 90.9995 25.1194C89.7995 25.0194 88.4835 26.7194 89.1875 28.3874C89.8915 30.0554 92.7075 30.6034 93.4635 30.7034C94.2195 30.8034 98.6635 31.3554 98.6635 31.3554C98.6635 31.3554 97.7595 35.9354 97.5595 37.5954C97.4523 38.8274 96.8611 39.9666 95.9155 40.7634Z" fill="white" stroke="#263238" stroke-miterlimit="10"/>
<path id="Vector_53" d="M81.4433 38.3996C81.3627 38.8887 81.3265 39.384 81.3353 39.8796C81.4073 40.0596 81.9833 40.3836 82.1353 39.8436C82.2873 39.3036 82.3153 38.3996 82.0633 38.2436C81.8113 38.0876 81.6593 38.0516 81.4433 38.3996Z" fill="white" stroke="#263238" stroke-miterlimit="10"/>
<path id="Vector_54" d="M82.4004 38.9642C82.4213 39.4595 82.4856 39.9521 82.5924 40.4362C82.7004 40.5962 83.3284 40.8002 83.3604 40.2402C83.3924 39.6802 83.2484 38.7882 82.9604 38.7002C82.6724 38.6122 82.5244 38.5682 82.4004 38.9642Z" fill="white" stroke="#263238" stroke-miterlimit="10"/>
<path id="Vector_55" d="M83.3203 39.1077C83.3433 39.6029 83.4075 40.0953 83.5123 40.5797C83.6203 40.7397 84.2523 40.9437 84.2843 40.3837C84.3163 39.8237 84.1683 38.9317 83.8843 38.8437C83.6003 38.7557 83.4603 38.7117 83.3203 39.1077Z" fill="white" stroke="#263238" stroke-miterlimit="10"/>
<path id="Vector_56" d="M84.3516 39.3041C84.3696 39.7254 84.4245 40.1444 84.5156 40.5561C84.6076 40.6921 85.1436 40.8641 85.1716 40.3881C85.1996 39.9121 85.0716 39.1561 84.8396 39.0761C84.6076 38.9961 84.4716 38.9641 84.3516 39.3041Z" fill="white" stroke="#263238" stroke-miterlimit="10"/>
<path id="Vector_57" d="M78.5563 38.4998L78.6443 36.7798L77.4443 35.0038C76.6443 32.8238 71.5843 30.9718 67.9723 30.0838C64.3603 29.1958 60.0963 29.7958 58.2163 30.7478C56.3363 31.6998 55.9083 32.2758 55.9083 32.2758L55.7923 34.5598C55.2803 37.1478 59.9523 40.2558 66.2323 41.4998C72.5123 42.7438 78.0163 41.6518 78.5283 39.0598C78.5639 38.8754 78.5733 38.6869 78.5563 38.4998ZM73.1243 38.7998C69.4443 39.3478 66.0803 38.9438 63.1523 37.6638C61.2928 36.7987 59.5375 35.7251 57.9203 34.4638C58.7203 32.6598 63.0163 31.9798 67.9203 32.9518C72.5683 33.8718 76.1563 35.9598 76.5523 37.8478C75.4682 38.3473 74.3107 38.6687 73.1243 38.7998Z" fill="#8F8F8F" stroke="#263238" stroke-miterlimit="10"/>
<path id="Vector_58" d="M68.2035 29.8401C61.9275 28.5961 56.4195 29.6881 55.9075 32.2761C55.3955 34.8641 60.0675 37.9761 66.3475 39.2161C72.6275 40.4561 78.1315 39.3681 78.6435 36.7801C79.1555 34.1921 74.4835 31.0841 68.2035 29.8401ZM76.6915 36.1961C76.2915 38.2281 71.7635 39.0441 66.5835 38.0201C61.4035 36.9961 57.5315 34.5161 57.9355 32.4841C58.3395 30.4521 62.8635 29.6361 68.0435 30.6601C73.2235 31.6841 77.0915 34.1641 76.6915 36.1961Z" fill="white" stroke="#263238" stroke-miterlimit="10"/>
</g>
<g id="freepik--Floor--inject-287">
<path id="Vector_59" d="M154.971 191.784H195.923" stroke="#263238" stroke-miterlimit="10"/>
<path id="Vector_60" d="M6.51562 191.784H151.68" stroke="#263238" stroke-miterlimit="10"/>
</g>
</g>
</svg>
