<svg width="368" height="464" viewBox="0 0 368 464" fill="none" xmlns="http://www.w3.org/2000/svg">
<path d="M312.096 381.337L269.296 115.839C266.084 95.9139 247.327 82.3611 227.397 85.573L26.5543 117.949C12.6771 120.189 3.24214 133.247 5.47607 147.124L45.6302 396.218C50.8135 410.347 198.644 391.631 312.096 381.337Z" fill="#1F9F85"/>
<path d="M227.701 85.5267L274.907 378.361L312.096 381.337L269.297 115.839C266.085 95.9139 247.328 82.3611 227.397 85.573" fill="#258371"/>
<path d="M64.6291 401.797L55.4103 403.285C50.7571 404.036 46.3819 400.871 45.6304 396.223C44.8789 391.57 48.0445 387.194 52.6925 386.443L270.547 351.323C290.307 348.137 308.904 361.576 312.09 381.332C315.277 401.092 301.837 419.689 282.082 422.876L64.2276 458.001C59.5744 458.752 55.1992 455.587 54.4477 450.939C53.6962 446.285 56.8618 441.91 61.5098 441.159L70.7286 439.671L64.6291 401.797Z" fill="#258371"/>
<path d="M45.625 401.37C43.144 401.37 40.9564 399.568 40.5498 397.041L0.395721 147.948C-0.901399 139.877 1.01339 131.785 5.80038 125.16C10.5874 118.536 17.6649 114.171 25.7359 112.869L226.578 80.4922C237.563 78.7215 248.599 81.3312 257.632 87.858C266.66 94.3796 272.606 104.026 274.381 115.02L317.176 380.513C317.629 383.318 315.719 385.964 312.914 386.412C310.093 386.87 307.463 384.955 307.015 382.15L264.221 116.657C262.887 108.375 258.404 101.112 251.61 96.1966C244.81 91.2861 236.518 89.3095 228.22 90.653L27.3779 123.029C22.0195 123.889 17.3252 126.787 14.1493 131.183C10.9734 135.579 9.70204 140.947 10.5616 146.3L50.7157 395.394C51.1687 398.199 49.259 400.845 46.4538 401.293C46.1758 401.349 45.8979 401.37 45.625 401.37Z" fill="black"/>
<path d="M212.495 256.071L90.8285 275.682C84.312 276.732 78.1712 272.3 77.1212 265.784L65.3133 192.538C64.2632 186.021 68.6951 179.881 75.2115 178.831L196.878 159.219C203.395 158.169 209.536 162.601 210.586 169.118L222.394 242.364C223.449 248.885 219.017 255.021 212.495 256.071Z" fill="#4EDEC1"/>
<path d="M277.135 406.399L63.069 440.906L56.9644 403.032L271.03 368.525C281.49 366.836 291.331 373.95 293.02 384.409C294.703 394.869 287.594 404.71 277.135 406.399Z" fill="#9FE3D5"/>
<path d="M62.8633 463.256C56.2696 463.256 50.448 458.464 49.3671 451.757C48.3634 445.534 51.7503 439.599 57.2373 437.113L52.6202 408.473C50.2679 408.231 48.0082 407.372 46.0419 405.951C43.0771 403.815 41.1262 400.649 40.5497 397.046C39.9681 393.443 40.8277 389.825 42.9638 386.865C45.1051 383.905 48.2656 381.954 51.8738 381.373L269.728 346.253C280.666 344.467 291.589 347.087 300.55 353.562C309.512 360.037 315.416 369.611 317.171 380.524C318.931 391.436 316.337 402.384 309.862 411.346C303.386 420.307 293.812 426.216 282.9 427.971L65.0509 463.081C64.3148 463.194 63.5891 463.256 62.8633 463.256ZM56.9594 397.885C58.0351 397.885 59.0903 398.22 59.9705 398.858C61.0772 399.656 61.8184 400.866 62.0397 402.209L68.1444 440.083C68.5974 442.888 66.6877 445.534 63.8825 445.982L62.328 446.234C61.4324 446.378 60.65 446.857 60.1249 447.593C59.5948 448.329 59.3837 449.219 59.5278 450.11C59.8264 451.947 61.561 453.203 63.4038 452.91L281.258 417.795C289.458 416.472 296.649 412.035 301.513 405.303C306.372 398.565 308.323 390.345 307 382.145C305.677 373.945 301.245 366.755 294.513 361.89C287.775 357.031 279.549 355.065 271.355 356.403L53.5004 391.523C52.6099 391.667 51.8275 392.151 51.2973 392.882C50.7671 393.618 50.5561 394.504 50.7002 395.399C50.9936 397.237 52.7386 398.493 54.5761 398.199L56.1255 397.947C56.4137 397.906 56.6865 397.885 56.9594 397.885Z" fill="black"/>
<path d="M270.541 356.469C268.06 356.469 265.873 354.668 265.466 352.14L233.419 153.326C232.966 150.521 234.876 147.875 237.681 147.427C240.491 146.969 243.132 148.884 243.58 151.689L275.627 350.504C276.08 353.309 274.17 355.955 271.365 356.402C271.092 356.449 270.814 356.469 270.541 356.469Z" fill="black"/>
<path d="M63.0649 446.052C61.9891 446.052 60.9339 445.718 60.0538 445.08C58.9471 444.282 58.2059 443.072 57.9845 441.729L51.8798 403.855C51.4269 401.05 53.3365 398.404 56.1418 397.956L270.208 363.449C283.472 361.287 295.965 370.362 298.096 383.595C300.232 396.834 291.193 409.347 277.949 411.488L63.8833 445.996C63.6105 446.032 63.3377 446.052 63.0649 446.052ZM62.8642 407.293L67.332 435.006L276.317 401.317C280.018 400.72 283.271 398.718 285.459 395.676C287.657 392.639 288.537 388.928 287.935 385.227C287.338 381.521 285.335 378.278 282.299 376.085C279.262 373.893 275.55 373.012 271.85 373.609L62.8642 407.293Z" fill="black"/>
<path d="M88.9144 280.99C80.6736 280.99 73.3902 274.998 72.0416 266.603L60.2337 193.357C59.5028 188.848 60.5786 184.323 63.25 180.617C65.9266 176.911 69.8849 174.471 74.3939 173.746L196.061 154.134C205.418 152.626 214.169 158.988 215.667 168.3L227.475 241.546C228.973 250.862 222.621 259.649 213.309 261.152L91.6425 280.763C90.7314 280.912 89.8204 280.99 88.9144 280.99ZM198.789 164.213C198.434 164.213 198.068 164.239 197.703 164.3L76.0359 183.912C74.2395 184.2 72.6644 185.173 71.5989 186.645C70.5334 188.122 70.1062 189.918 70.3996 191.715L82.2075 264.961C82.8046 268.672 86.3305 271.22 90.0108 270.602L211.678 250.991C215.389 250.394 217.916 246.889 217.319 243.183L205.511 169.937C204.971 166.596 202.073 164.213 198.789 164.213Z" fill="black"/>
<path d="M84.3174 315.591C81.8364 315.591 79.6488 313.789 79.2421 311.262C78.7892 308.457 80.6988 305.811 83.5041 305.363L228.776 281.943C231.587 281.485 234.227 283.4 234.675 286.205C235.128 289.01 233.218 291.656 230.413 292.104L85.1409 315.524C84.863 315.57 84.5902 315.591 84.3174 315.591Z" fill="black"/>
<path d="M89.9996 350.87C87.5186 350.87 85.331 349.068 84.9244 346.541C84.4714 343.735 86.3811 341.09 89.1864 340.642L234.459 317.222C237.243 316.753 239.91 318.678 240.357 321.484C240.81 324.289 238.901 326.935 236.095 327.382L90.8232 350.803C90.5504 350.854 90.2724 350.87 89.9996 350.87Z" fill="black"/>
<path d="M232.637 121.336C230.156 121.336 227.968 119.534 227.562 117.007L222.62 86.3443C222.167 83.539 224.077 80.8933 226.882 80.4455C229.672 79.9719 232.333 81.9022 232.781 84.7075L237.722 115.37C238.175 118.175 236.266 120.821 233.46 121.269C233.182 121.315 232.91 121.336 232.637 121.336Z" fill="black"/>
<path d="M270.68 374.836L360.743 121.445C367.501 102.425 357.567 81.5273 338.548 74.7689L146.857 6.634C133.613 1.92421 119.062 8.84734 114.352 22.0914L29.8539 259.83C27.6097 274.706 166.242 329.339 270.68 374.836Z" fill="#EC4242"/>
<path d="M338.836 74.8663L239.498 354.354L270.68 374.835L360.743 121.444C367.501 102.425 357.567 81.5269 338.548 74.7685" fill="#EC4242"/>
<path d="M40.1654 273.851L31.3686 270.721C26.9317 269.146 24.6102 264.267 26.1905 259.83C27.7655 255.393 32.6452 253.071 37.0821 254.652L245.007 328.551C263.867 335.253 273.719 355.976 267.017 374.836C260.315 393.695 239.592 403.547 220.733 396.846L12.8075 322.941C8.37049 321.366 6.04906 316.486 7.62928 312.049C9.20435 307.612 14.084 305.291 18.521 306.871L27.3177 310L40.1654 273.851Z" fill="#C53232"/>
<path d="M270.675 379.983C270.104 379.983 269.517 379.885 268.951 379.684C266.274 378.727 264.874 375.788 265.827 373.111L355.894 119.72C361.69 103.408 353.135 85.4182 336.823 79.6172L145.128 11.4825C140.021 9.66033 134.509 9.94343 129.608 12.2752C124.713 14.6069 121.012 18.7041 119.201 23.8102L34.7024 261.548C33.745 264.225 30.8008 265.61 28.1293 264.673C25.4527 263.715 24.0526 260.776 25.0049 258.1L109.498 20.3667C112.236 12.6664 117.811 6.4896 125.192 2.98429C132.573 -0.531316 140.876 -0.953394 148.576 1.78497L340.267 69.9146C361.927 77.6149 373.287 101.504 365.592 123.163L275.529 376.56C274.778 378.665 272.796 379.983 270.675 379.983Z" fill="black"/>
<path d="M243.539 217.122L127.416 175.851C121.193 173.638 117.945 166.802 120.153 160.579L144.999 90.6688C147.213 84.4457 154.048 81.1978 160.271 83.406L276.395 124.677C282.618 126.89 285.866 133.726 283.657 139.949L258.806 209.86C256.598 216.083 249.757 219.331 243.539 217.122Z" fill="#F8B3B3"/>
<path d="M227.978 380.013L23.6663 307.395L36.5139 271.251L240.826 343.869C250.806 347.415 256.021 358.384 252.474 368.365C248.922 378.346 237.959 383.56 227.978 380.013Z" fill="#F8B3B3"/>
<path d="M236.492 404.088C231.901 404.088 227.238 403.321 222.672 401.694L14.7466 327.795C7.6433 325.272 3.91666 317.428 6.43883 310.325C8.54923 304.385 14.3502 300.756 20.3777 301.271L30.0958 273.928C25.1493 270.495 22.8896 264.045 24.9949 258.111C27.5222 250.997 35.3564 247.265 42.4648 249.803L250.385 323.703C271.89 331.346 283.168 355.065 275.524 376.56C269.512 393.495 253.525 404.088 236.492 404.088ZM19.3277 311.519C18.8335 311.519 18.3394 311.627 17.8761 311.848C17.0577 312.234 16.4452 312.919 16.1415 313.768C15.5135 315.529 16.44 317.469 18.1953 318.092L226.115 391.992C233.934 394.776 242.376 394.344 249.88 390.777C257.385 387.21 263.047 380.935 265.827 373.106C268.612 365.282 268.179 356.841 264.612 349.341C261.045 341.842 254.77 336.174 246.941 333.395L39.0213 259.5C37.2557 258.867 35.3255 259.799 34.7027 261.549C34.0798 263.309 35.0012 265.25 36.7564 265.873L38.2286 266.393C39.5154 266.851 40.5757 267.798 41.1625 269.033C41.7493 270.268 41.8214 271.689 41.3684 272.976L28.5208 309.125C28.0626 310.412 27.1155 311.462 25.8802 312.049C24.6448 312.636 23.2293 312.698 21.9425 312.25L20.4601 311.72C20.0895 311.586 19.7086 311.519 19.3277 311.519Z" fill="black"/>
<path d="M248.665 333.699C248.094 333.699 247.507 333.601 246.941 333.401C244.264 332.443 242.864 329.504 243.817 326.827L311.262 137.077C312.214 134.396 315.163 132.996 317.835 133.953C320.511 134.905 321.911 137.849 320.959 140.526L253.519 330.276C252.768 332.381 250.781 333.699 248.665 333.699Z" fill="black"/>
<path d="M234.377 386.267C231.68 386.267 228.936 385.815 226.255 384.862L21.9428 312.249C19.2662 311.292 17.8661 308.353 18.8184 305.676L31.666 269.527C32.1241 268.24 33.0713 267.19 34.3066 266.603C35.542 266.016 36.9575 265.949 38.2443 266.402L242.556 339.02C255.193 343.514 261.823 357.458 257.329 370.095C253.782 380.039 244.383 386.267 234.377 386.267ZM30.2402 304.271L229.703 375.16C237.002 377.759 245.032 373.924 247.621 366.641C250.215 359.347 246.391 351.312 239.102 348.718L39.6392 277.819L30.2402 304.271Z" fill="black"/>
<path d="M247.553 222.964C245.623 222.964 243.682 222.635 241.814 221.971L125.691 180.7C116.806 177.539 112.148 167.739 115.303 158.854L140.149 88.9488C143.305 80.0594 153.11 75.4063 161.994 78.5564L278.117 119.828C282.421 121.356 285.874 124.47 287.836 128.599C289.802 132.722 290.039 137.37 288.51 141.673L263.659 211.583C262.125 215.887 259.016 219.335 254.888 221.301C252.556 222.408 250.06 222.964 247.553 222.964ZM156.276 87.8628C153.476 87.8628 150.84 89.6077 149.852 92.3924L125.006 162.298C123.745 165.834 125.603 169.736 129.139 170.992L245.262 212.263C246.966 212.87 248.809 212.783 250.466 211.995C252.103 211.213 253.349 209.844 253.956 208.13L278.807 138.219C279.415 136.505 279.322 134.657 278.54 133.015C277.762 131.373 276.383 130.132 274.669 129.525L158.546 88.2539C157.799 87.9914 157.027 87.8628 156.276 87.8628Z" fill="black"/>
<path d="M243.657 257.632C243.085 257.632 242.499 257.534 241.932 257.333L103.285 208.053C100.608 207.101 99.2082 204.157 100.16 201.48C101.113 198.803 104.052 197.408 106.734 198.356L245.381 247.636C248.058 248.593 249.458 251.532 248.505 254.209C247.754 256.314 245.772 257.632 243.657 257.632Z" fill="black"/>
<path d="M231.69 291.305C231.119 291.305 230.532 291.207 229.966 291.007L91.3127 241.721C88.6361 240.764 87.236 237.825 88.1882 235.148C89.1456 232.466 92.0745 231.066 94.7614 232.024L233.414 281.309C236.091 282.267 237.491 285.206 236.539 287.882C235.792 289.988 233.811 291.305 231.69 291.305Z" fill="black"/>
<path d="M328.433 109.286C327.861 109.286 327.275 109.188 326.708 108.988C324.027 108.035 322.632 105.091 323.584 102.415L333.982 73.1471C334.934 70.4654 337.888 69.0704 340.555 70.0227C343.231 70.9749 344.631 73.9192 343.679 76.5958L333.282 105.863C332.535 107.969 330.548 109.286 328.433 109.286Z" fill="black"/>
</svg>
