<svg width="115" height="168" viewBox="0 0 115 168" fill="none" xmlns="http://www.w3.org/2000/svg">
<path d="M9.64259 163.466C8.41059 163.466 7.30659 163.266 6.33059 162.866C5.35459 162.466 4.57059 161.874 3.97859 161.09C3.40259 160.306 3.09859 159.362 3.06659 158.258H7.43459C7.49859 158.882 7.71459 159.362 8.08259 159.698C8.45059 160.018 8.93059 160.178 9.52259 160.178C10.1306 160.178 10.6106 160.042 10.9626 159.77C11.3146 159.482 11.4906 159.09 11.4906 158.594C11.4906 158.178 11.3466 157.834 11.0586 157.562C10.7866 157.29 10.4426 157.066 10.0266 156.89C9.62659 156.714 9.05059 156.514 8.29859 156.29C7.21059 155.954 6.32259 155.618 5.63459 155.282C4.94659 154.946 4.35459 154.45 3.85859 153.794C3.36259 153.138 3.11459 152.282 3.11459 151.226C3.11459 149.658 3.68259 148.434 4.81859 147.554C5.95459 146.658 7.43459 146.21 9.25859 146.21C11.1146 146.21 12.6106 146.658 13.7466 147.554C14.8826 148.434 15.4906 149.666 15.5706 151.25H11.1306C11.0986 150.706 10.8986 150.282 10.5306 149.978C10.1626 149.658 9.69059 149.498 9.11459 149.498C8.61859 149.498 8.21859 149.634 7.91459 149.906C7.61059 150.162 7.45859 150.538 7.45859 151.034C7.45859 151.578 7.71459 152.002 8.22659 152.306C8.73859 152.61 9.53859 152.938 10.6266 153.29C11.7146 153.658 12.5946 154.01 13.2666 154.346C13.9546 154.682 14.5466 155.17 15.0426 155.81C15.5386 156.45 15.7866 157.274 15.7866 158.282C15.7866 159.242 15.5386 160.114 15.0426 160.898C14.5626 161.682 13.8586 162.306 12.9306 162.77C12.0026 163.234 10.9066 163.466 9.64259 163.466ZM22.4162 146.45V163.298H18.3122V146.45H22.4162ZM44.4703 146.45V163.298H40.3663V153.194L36.5983 163.298H33.2863L29.4943 153.17V163.298H25.3903V146.45H30.2383L34.9663 158.114L39.6463 146.45H44.4703ZM57.9096 160.322H51.6216L50.6136 163.298H46.3176L52.4136 146.45H57.1656L63.2616 163.298H58.9176L57.9096 160.322ZM56.8536 157.154L54.7656 150.986L52.7016 157.154H56.8536Z" fill="#EC4242"/>
<path d="M73.7089 163.298L70.2049 156.938H69.2209V163.298H65.1169V146.45H72.0049C73.3329 146.45 74.4609 146.682 75.3889 147.146C76.3329 147.61 77.0369 148.25 77.5009 149.066C77.9649 149.866 78.1969 150.762 78.1969 151.754C78.1969 152.874 77.8769 153.874 77.2369 154.754C76.6129 155.634 75.6849 156.258 74.4529 156.626L78.3409 163.298H73.7089ZM69.2209 154.034H71.7649C72.5169 154.034 73.0769 153.85 73.4449 153.482C73.8289 153.114 74.0209 152.594 74.0209 151.922C74.0209 151.282 73.8289 150.778 73.4449 150.41C73.0769 150.042 72.5169 149.858 71.7649 149.858H69.2209V154.034ZM90.5412 163.298L84.8772 155.858V163.298H80.7732V146.45H84.8772V153.842L90.4932 146.45H95.3172L88.7892 154.706L95.5572 163.298H90.5412ZM101.54 146.45V156.53C101.54 157.538 101.788 158.314 102.284 158.858C102.78 159.402 103.508 159.674 104.468 159.674C105.428 159.674 106.164 159.402 106.676 158.858C107.188 158.314 107.444 157.538 107.444 156.53V146.45H111.548V156.506C111.548 158.01 111.228 159.282 110.588 160.322C109.948 161.362 109.084 162.146 107.996 162.674C106.924 163.202 105.724 163.466 104.396 163.466C103.068 163.466 101.876 163.21 100.82 162.698C99.7795 162.17 98.9555 161.386 98.3475 160.346C97.7395 159.29 97.4355 158.01 97.4355 156.506V146.45H101.54Z" fill="#1F9F85"/>
<path d="M92.8917 104.089L81.2091 31.6192C80.3324 26.1805 75.2126 22.4811 69.7724 23.3578L14.9507 32.1953C11.1629 32.8065 8.5875 36.3709 9.19727 40.1588L20.1577 108.151C21.5725 112.008 61.9241 106.899 92.8917 104.089Z" fill="#1F9F85"/>
<path d="M69.8553 23.3452L82.7406 103.277L92.8917 104.089L81.2091 31.6192C80.3324 26.1805 75.2126 22.4811 69.7724 23.3578" fill="#258371"/>
<path d="M25.3435 109.674L22.8272 110.08C21.5571 110.285 20.3628 109.421 20.1577 108.152C19.9526 106.882 20.8166 105.688 22.0854 105.483L81.5506 95.8966C86.9444 95.0269 92.0206 98.6953 92.8903 104.088C93.76 109.482 90.0916 114.558 84.6992 115.427L25.234 125.015C23.9638 125.22 22.7696 124.356 22.5645 123.088C22.3593 121.817 23.2234 120.623 24.4921 120.418L27.0085 120.012L25.3435 109.674Z" fill="#258371"/>
<path d="M20.1563 109.557C19.4791 109.557 18.8819 109.066 18.7709 108.376L7.81053 40.3836C7.45647 38.1806 7.97913 35.9719 9.28578 34.1637C10.5924 32.3554 12.5243 31.164 14.7273 30.8085L69.549 21.9711C72.5473 21.4878 75.5596 22.2001 78.0254 23.9816C80.4898 25.7618 82.1125 28.3947 82.5973 31.3958L94.2784 103.864C94.4021 104.63 93.8808 105.352 93.1151 105.474C92.3452 105.599 91.6272 105.077 91.505 104.311L79.8238 31.8426C79.4599 29.582 78.2362 27.5995 76.3816 26.2577C74.5255 24.9174 72.2621 24.3778 69.9972 24.7445L15.1755 33.582C13.7129 33.8166 12.4316 34.6076 11.5647 35.8075C10.6978 37.0074 10.3508 38.4728 10.5854 39.934L21.5458 107.926C21.6694 108.692 21.1482 109.414 20.3825 109.536C20.3066 109.552 20.2307 109.557 20.1563 109.557Z" fill="black"/>
<path d="M65.7049 69.897L32.495 75.2501C30.7162 75.5367 29.0401 74.327 28.7534 72.5483L25.5304 52.5551C25.2438 50.7764 26.4535 49.1002 28.2322 48.8136L61.4422 43.4605C63.2209 43.1739 64.8971 44.3836 65.1837 46.1624L68.4068 66.1555C68.6948 67.9356 67.4851 69.6104 65.7049 69.897Z" fill="#4EDEC1"/>
<path d="M83.3489 110.93L24.9178 120.349L23.2515 110.011L81.6826 100.592C84.5376 100.131 87.2239 102.073 87.6848 104.928C88.1442 107.783 86.2039 110.469 83.3489 110.93Z" fill="#9FE3D5"/>
<path d="M24.8616 126.45C23.0618 126.45 21.4727 125.142 21.1777 123.311C20.9037 121.612 21.8282 119.992 23.3259 119.314L22.0656 111.496C21.4235 111.43 20.8068 111.196 20.27 110.808C19.4608 110.225 18.9283 109.361 18.7709 108.377C18.6121 107.394 18.8468 106.406 19.4299 105.598C20.0143 104.79 20.877 104.258 21.8619 104.099L81.3271 94.5127C84.3128 94.0251 87.2942 94.7403 89.7403 96.5078C92.1864 98.2753 93.7979 100.889 94.277 103.867C94.7575 106.846 94.0494 109.834 92.2819 112.28C90.5144 114.726 87.9011 116.339 84.9225 116.818L25.4587 126.402C25.2578 126.433 25.0597 126.45 24.8616 126.45ZM23.25 108.606C23.5437 108.606 23.8317 108.698 24.072 108.872C24.374 109.09 24.5764 109.42 24.6368 109.786L26.3031 120.124C26.4267 120.89 25.9055 121.612 25.1398 121.735L24.7155 121.803C24.471 121.843 24.2574 121.973 24.1141 122.174C23.9694 122.375 23.9118 122.618 23.9511 122.861C24.0326 123.363 24.5061 123.706 25.0091 123.626L84.4743 114.041C86.7125 113.68 88.6753 112.469 90.003 110.631C91.3293 108.792 91.8618 106.548 91.5007 104.31C91.1396 102.072 89.9299 100.109 88.0922 98.7811C86.2531 97.4547 84.0079 96.918 81.7711 97.2833L22.3059 106.87C22.0628 106.909 21.8493 107.041 21.7045 107.241C21.5598 107.441 21.5022 107.683 21.5416 107.928C21.6216 108.429 22.0979 108.772 22.5995 108.692L23.0224 108.623C23.1011 108.612 23.1756 108.606 23.25 108.606Z" fill="black"/>
<path d="M81.5491 97.3016C80.8719 97.3016 80.2748 96.8098 80.1638 96.12L71.4163 41.8518C71.2926 41.0861 71.8139 40.3639 72.5796 40.2417C73.3468 40.1166 74.0675 40.6393 74.1898 41.405L82.9373 95.6732C83.0609 96.4389 82.5397 97.1611 81.7739 97.2833C81.6995 97.2959 81.6236 97.3016 81.5491 97.3016Z" fill="black"/>
<path d="M24.9164 121.754C24.6228 121.754 24.3348 121.663 24.0945 121.489C23.7924 121.271 23.5901 120.941 23.5297 120.574L21.8634 110.236C21.7397 109.47 22.261 108.748 23.0267 108.626L81.4578 99.2067C85.0785 98.6166 88.4885 101.094 89.0701 104.706C89.6532 108.32 87.186 111.735 83.571 112.32L25.1398 121.739C25.0654 121.749 24.9909 121.754 24.9164 121.754ZM24.8616 111.174L26.0812 118.739L83.1256 109.543C84.1358 109.38 85.0237 108.834 85.6209 108.003C86.2208 107.174 86.4611 106.161 86.2967 105.151C86.1337 104.14 85.5871 103.255 84.7582 102.656C83.9292 102.057 82.9162 101.817 81.906 101.98L24.8616 111.174Z" fill="black"/>
<path d="M31.9723 76.6987C29.7229 76.6987 27.7348 75.0632 27.3667 72.7717L24.1437 52.7785C23.9442 51.5477 24.2378 50.3128 24.967 49.3012C25.6976 48.2896 26.778 47.6236 28.0088 47.4255L61.2188 42.0724C63.7731 41.6608 66.1616 43.3973 66.5704 45.939L69.7935 65.9321C70.2024 68.4752 68.4686 70.8735 65.927 71.2838L32.717 76.6368C32.4683 76.6776 32.2196 76.6987 31.9723 76.6987ZM61.9635 44.8234C61.8665 44.8234 61.7668 44.8304 61.667 44.8473L28.457 50.2004C27.9667 50.279 27.5367 50.5446 27.2459 50.9464C26.9551 51.3496 26.8385 51.84 26.9185 52.3303L30.1416 72.3235C30.3046 73.3365 31.267 74.032 32.2716 73.8634L65.4816 68.5103C66.4946 68.3473 67.1844 67.3905 67.0215 66.3789L63.7984 46.3858C63.6509 45.4739 62.8598 44.8234 61.9635 44.8234Z" fill="black"/>
<path d="M30.7176 86.143C30.0404 86.143 29.4433 85.6513 29.3323 84.9614C29.2087 84.1957 29.7299 83.4735 30.4956 83.3513L70.149 76.9586C70.9161 76.8335 71.6369 77.3562 71.7591 78.1219C71.8827 78.8876 71.3615 79.6098 70.5957 79.732L30.9424 86.1248C30.8666 86.1374 30.7921 86.143 30.7176 86.143Z" fill="black"/>
<path d="M32.2688 95.7729C31.5916 95.7729 30.9944 95.2812 30.8834 94.5913C30.7598 93.8256 31.2811 93.1034 32.0468 92.9812L71.7001 86.5884C72.4602 86.4606 73.188 86.9861 73.3102 87.7518C73.4339 88.5175 72.9126 89.2397 72.1469 89.3619L32.4936 95.7547C32.4191 95.7687 32.3432 95.7729 32.2688 95.7729Z" fill="black"/>
<path d="M71.2027 33.1197C70.5255 33.1197 69.9284 32.628 69.8174 31.9381L68.4686 23.5686C68.3449 22.8028 68.8662 22.0807 69.6319 21.9584C70.3934 21.8292 71.1198 22.356 71.2421 23.1218L72.5909 31.4913C72.7145 32.2571 72.1932 32.9792 71.4275 33.1015C71.3517 33.1141 71.2772 33.1197 71.2027 33.1197Z" fill="black"/>
<path d="M81.5871 102.315L106.17 33.1492C108.015 27.9578 105.303 22.2535 100.112 20.4087L47.7884 1.81072C44.1733 0.525149 40.2014 2.41487 38.9158 6.02994L15.8513 70.9227C15.2388 74.9831 53.0796 89.8958 81.5871 102.315Z" fill="#EC4242"/>
<path d="M100.191 20.4354L73.0756 96.7241L81.5871 102.315L106.17 33.1492C108.015 27.9578 105.303 22.2535 100.112 20.4087" fill="#EC4242"/>
<path d="M18.6659 74.7499L16.2648 73.8956C15.0537 73.4657 14.42 72.1338 14.8513 70.9227C15.2813 69.7115 16.6132 69.0779 17.8243 69.5092L74.5793 89.6808C79.7272 91.5101 82.4164 97.1666 80.5871 102.315C78.7578 107.462 73.1012 110.152 67.9533 108.322L11.1983 88.1494C9.98724 87.7194 9.35358 86.3875 9.78492 85.1764C10.2148 83.9653 11.5468 83.3316 12.7579 83.7629L15.159 84.6172L18.6659 74.7499Z" fill="#C53232"/>
<path d="M81.5857 103.72C81.4297 103.72 81.2695 103.693 81.115 103.638C80.3844 103.377 80.0022 102.575 80.2622 101.844L104.847 32.6786C106.429 28.2261 104.094 23.3157 99.6413 21.7322L47.3163 3.13424C45.9226 2.63687 44.4178 2.71415 43.0802 3.35061C41.7441 3.98708 40.7339 5.10546 40.2393 6.49922L17.1748 71.392C16.9135 72.1226 16.1099 72.5005 15.3807 72.2448C14.6501 71.9835 14.2679 71.1812 14.5278 70.4506L37.5909 5.55927C38.3384 3.45739 39.86 1.77139 41.8748 0.814588C43.8895 -0.145027 46.1558 -0.260237 48.2577 0.487223L100.581 19.0838C106.494 21.1857 109.594 27.7063 107.494 33.6185L82.9106 102.785C82.7055 103.36 82.1645 103.72 81.5857 103.72Z" fill="black"/>
<path d="M74.1785 59.2654L42.4817 48.0001C40.783 47.396 39.8965 45.5301 40.4992 43.8315L47.2812 24.7488C47.8853 23.0501 49.7512 22.1636 51.4498 22.7663L83.1466 34.0316C84.8452 34.6358 85.7318 36.5016 85.1291 38.2003L78.3457 57.283C77.743 58.9816 75.8757 59.8682 74.1785 59.2654Z" fill="#F8B3B3"/>
<path d="M69.9312 103.728L14.1625 83.9063L17.6694 74.0404L73.4381 93.8621C76.1624 94.8302 77.5856 97.8243 76.6176 100.549C75.6481 103.273 72.6555 104.696 69.9312 103.728Z" fill="#F8B3B3"/>
<path d="M72.255 110.299C71.0018 110.299 69.7288 110.09 68.4826 109.646L11.7276 89.4743C9.78874 88.7859 8.77152 86.6446 9.45997 84.7057C10.036 83.0844 11.6195 82.0939 13.2647 82.2344L15.9174 74.771C14.5671 73.8339 13.9504 72.0734 14.525 70.4534C15.2149 68.5117 17.3533 67.4931 19.2936 68.1858L76.0471 88.3573C81.9172 90.4438 84.9956 96.918 82.9091 102.785C81.2681 107.408 76.9042 110.299 72.255 110.299ZM12.9781 85.0317C12.8432 85.0317 12.7083 85.0612 12.5819 85.1216C12.3585 85.227 12.1913 85.4139 12.1084 85.6457C11.937 86.1262 12.1899 86.6559 12.669 86.8259L69.4226 106.997C71.5568 107.758 73.861 107.64 75.9094 106.666C77.9579 105.692 79.5034 103.98 80.2621 101.843C81.0222 99.7069 80.9042 97.4027 79.9305 95.3556C78.9569 93.3086 77.2442 91.7617 75.1072 91.003L18.3536 70.8328C17.8717 70.66 17.3448 70.9143 17.1748 71.392C17.0048 71.8725 17.2563 72.4022 17.7354 72.5722L18.1373 72.7141C18.4885 72.8391 18.7779 73.0976 18.9381 73.4348C19.0983 73.772 19.1179 74.1598 18.9943 74.5111L15.4874 84.3784C15.3624 84.7296 15.1039 85.0163 14.7667 85.1764C14.4295 85.3366 14.0431 85.3534 13.6918 85.2312L13.2872 85.0865C13.186 85.05 13.0821 85.0317 12.9781 85.0317Z" fill="black"/>
<path d="M75.5779 91.0858C75.4219 91.0858 75.2618 91.0591 75.1072 91.0043C74.3766 90.743 73.9945 89.9407 74.2544 89.2101L92.6641 37.4162C92.924 36.6842 93.7291 36.3021 94.4583 36.5634C95.1889 36.8233 95.5711 37.627 95.3111 38.3576L76.9028 90.1515C76.6977 90.7261 76.1554 91.0858 75.5779 91.0858Z" fill="black"/>
<path d="M71.6776 105.435C70.9414 105.435 70.1925 105.311 69.4605 105.052L13.6919 85.2312C12.9613 84.9698 12.5791 84.1676 12.839 83.437L16.3459 73.5697C16.471 73.2184 16.7295 72.9318 17.0667 72.7716C17.4039 72.6115 17.7903 72.5932 18.1415 72.7168L73.9102 92.5386C77.3595 93.7651 79.1691 97.5713 77.9425 101.021C76.9745 103.735 74.409 105.435 71.6776 105.435ZM15.9567 83.0534L70.4019 102.403C72.3942 103.113 74.586 102.066 75.2927 100.078C76.0008 98.0869 74.9569 95.8937 72.9674 95.1856L18.5223 75.8331L15.9567 83.0534Z" fill="black"/>
<path d="M75.2744 60.8601C74.7476 60.8601 74.2179 60.7701 73.7079 60.5889L42.0111 49.3236C39.586 48.4609 38.3145 45.7858 39.1758 43.3608L45.9577 24.2795C46.819 21.853 49.4955 20.5829 51.9205 21.4428L83.6173 32.7081C84.7919 33.1254 85.7347 33.9754 86.27 35.1022C86.8067 36.2276 86.8713 37.4963 86.454 38.6709L79.6707 57.7536C79.252 58.9282 78.4034 59.8695 77.2766 60.4062C76.6401 60.7083 75.9587 60.8601 75.2744 60.8601ZM50.3596 23.983C49.5953 23.983 48.8759 24.4593 48.6061 25.2194L41.8242 44.3007C41.48 45.266 41.9872 46.331 42.9524 46.6738L74.6492 57.9391C75.1143 58.1049 75.6173 58.081 76.0697 57.866C76.5165 57.6525 76.8565 57.2787 77.0223 56.8109L83.8056 37.7281C83.9714 37.2603 83.9461 36.7559 83.7325 36.3077C83.5204 35.8595 83.1438 35.5209 82.676 35.3551L50.9792 24.0898C50.7755 24.0182 50.5647 23.983 50.3596 23.983Z" fill="black"/>
<path d="M74.2108 70.3227C74.0549 70.3227 73.8947 70.296 73.7401 70.2412L35.8951 56.7898C35.1645 56.5298 34.7823 55.7262 35.0422 54.9956C35.3022 54.265 36.1044 53.8842 36.8364 54.1427L74.6815 67.5942C75.4121 67.8556 75.7943 68.6578 75.5343 69.3884C75.3292 69.9631 74.7883 70.3227 74.2108 70.3227Z" fill="black"/>
<path d="M70.9442 79.5142C70.7883 79.5142 70.6281 79.4875 70.4735 79.4327L32.6271 65.9799C31.8965 65.7185 31.5143 64.9163 31.7742 64.1857C32.0356 63.4537 32.835 63.0715 33.5684 63.3329L71.4149 76.7857C72.1455 77.0471 72.5277 77.8493 72.2677 78.5799C72.064 79.1546 71.5231 79.5142 70.9442 79.5142Z" fill="black"/>
<path d="M97.3512 29.8306C97.1952 29.8306 97.0351 29.8039 96.8805 29.7492C96.1485 29.4892 95.7677 28.6856 96.0277 27.955L98.8658 19.9661C99.1257 19.2341 99.9322 18.8534 100.66 19.1133C101.391 19.3732 101.773 20.1769 101.513 20.9075L98.6747 28.8963C98.471 29.471 97.9286 29.8306 97.3512 29.8306Z" fill="black"/>
</svg>
