<svg width="300" height="191" viewBox="0 0 300 191" fill="none" xmlns="http://www.w3.org/2000/svg">
<path d="M145.785 177.643C175.596 177.643 199.763 173.479 199.763 168.341C199.763 163.204 175.596 159.04 145.785 159.04C115.974 159.04 91.8073 163.204 91.8073 168.341C91.8073 173.479 115.974 177.643 145.785 177.643Z" fill="#E6E6E6"/>
<path d="M194.388 191C215.027 191 231.757 188.117 231.757 184.56C231.757 181.004 215.027 178.12 194.388 178.12C173.75 178.12 157.019 181.004 157.019 184.56C157.019 188.117 173.75 191 194.388 191Z" fill="#E6E6E6"/>
<path d="M105.54 137.248C110.342 131.921 137.211 146.689 137.211 146.689L145.77 147.805L154.344 146.791C154.344 146.791 181.381 132.345 186.12 137.732C190.861 143.116 189.362 154.793 180.028 160.094C170.695 165.394 153.487 171.377 148.962 170.134C147.977 169.862 146.838 168.702 145.659 167.052C144.464 168.687 143.312 169.836 142.323 170.094C137.784 171.283 120.645 165.095 111.375 159.683C102.102 154.27 100.738 142.576 105.54 137.248Z" fill="#24A9C7"/>
<path d="M141.776 166.848C142.161 166.199 142.949 164.897 143.925 163.604C144.644 162.499 145.445 161.463 146.34 160.591C144.848 160.429 143.768 160.322 143.56 160.258C142.728 159.99 139.398 158.39 139.398 158.39L133.752 165.66C133.752 165.66 136.747 168.626 139.468 171.122C140.23 169.421 141.175 167.857 141.776 166.848Z" fill="#995427"/>
<path d="M140.527 161.738C140.959 161.382 141.346 160.998 141.68 160.542C142.086 159.988 142.199 159.509 142.3 158.839C142.319 158.709 142.175 158.594 142.071 158.703C141.909 158.87 141.711 158.993 141.581 159.191C141.411 159.453 141.264 159.726 141.096 159.989C140.803 160.447 140.405 160.844 140.069 161.271C139.808 161.605 140.2 162.006 140.527 161.738Z" fill="#BF8A40"/>
<path d="M143.036 163.208C143.141 162.882 143.428 162.728 143.548 162.425C143.709 162.019 143.927 161.641 144.092 161.236C144.187 161.001 144.427 160.56 144.395 160.288C144.362 160.01 144.305 159.716 144.313 159.438C144.318 159.295 144.117 159.277 144.077 159.405C144.007 159.629 143.802 159.759 143.716 159.984C143.538 160.447 143.214 160.881 143.002 161.339C142.862 161.644 142.762 161.969 142.548 162.228C142.33 162.493 142.232 162.757 142.219 163.095C142.199 163.593 142.894 163.649 143.036 163.208Z" fill="#BF8A40"/>
<path d="M144.893 162.318C144.893 162.318 141.545 163.879 140.708 164.137C139.872 164.396 124.843 165.096 125.661 167.999C126.036 169.329 127.212 172.318 130.328 173.272C133.443 174.226 140.85 175.698 143.102 175.18C147.257 174.225 150.112 170.41 150.112 170.41L144.893 162.318Z" fill="#B1612D"/>
<path d="M139.762 164.101C139.604 164.936 139.939 165.668 140.404 166.339C140.634 166.67 140.889 167.001 141.153 167.303C141.468 167.661 141.98 167.816 142.399 168.006C142.507 168.055 142.635 167.998 142.638 167.866C142.642 167.581 142.569 167.439 142.377 167.231C142.091 166.921 141.858 166.547 141.572 166.247C141.085 165.734 140.502 164.958 140.536 164.209C140.558 163.758 139.847 163.653 139.762 164.101Z" fill="#D79B48"/>
<path d="M142.28 163.624C142.651 164.377 143.124 165.057 143.632 165.718C143.898 166.064 144.178 166.398 144.458 166.732C144.681 166.998 145.062 167.069 145.356 167.215C145.456 167.264 145.617 167.207 145.603 167.07C145.549 166.532 145.12 166.135 144.798 165.73C144.15 164.917 143.485 164.124 142.989 163.201C142.733 162.724 142.044 163.144 142.28 163.624Z" fill="#D79B48"/>
<path d="M145.439 162.3C145.439 162.3 165.067 148.148 173.167 145.604" stroke="#138BA6" stroke-miterlimit="10"/>
<path d="M168.027 144.968C168.027 144.968 165.69 147.035 165.534 149.42" stroke="#138BA6" stroke-miterlimit="10"/>
<path d="M118.021 143.855C118.021 143.855 124.72 147.671 128.303 150.533C131.886 153.395 138.896 158.802 138.896 158.802" stroke="#138BA6" stroke-miterlimit="10"/>
<path d="M120.825 143.855C120.825 143.855 123.941 146.717 124.876 148.148" stroke="#138BA6" stroke-miterlimit="10"/>
<path d="M165.095 140.118C165.095 140.118 168.529 110.321 166.42 105.773C163.585 99.6581 150.88 99.5713 145.785 99.5713C140.691 99.5713 127.985 99.6581 125.151 105.773C123.041 110.321 126.475 140.118 126.475 140.118C126.475 140.118 125.969 142.503 126.437 144.173C126.904 145.842 131.749 146.996 133.836 147.115C136.64 147.274 141.19 148.705 146.143 148.705C151.095 148.705 157.748 147.194 159.384 146.638C161.019 146.081 163.657 145.195 164.524 142.98C164.992 141.788 165.095 140.118 165.095 140.118Z" fill="#7E6870"/>
<path d="M127.02 103.705C125.151 104.341 113 119.606 111.598 124.217C110.196 128.829 109.728 135.348 112.844 137.097C115.959 138.846 130.603 140.118 130.603 140.118L130.447 109.907C130.447 109.907 128.889 103.069 127.02 103.705Z" fill="#7E6870"/>
<path d="M128.042 104.104C128.042 104.104 129.96 106.786 130.778 110.373C131.598 113.961 130.687 117.669 130.687 117.669" stroke="#664B47" stroke-miterlimit="10"/>
<path d="M119.075 121.991C119.075 121.991 121.879 122.946 123.281 126.047" stroke="#664B47" stroke-miterlimit="10"/>
<path d="M117.984 124.376C117.984 124.376 125.696 126.842 128.188 128.909" stroke="#664B47" stroke-miterlimit="10"/>
<path d="M164.55 103.705C166.419 104.341 178.57 119.606 179.972 124.217C181.374 128.829 181.842 135.348 178.726 137.097C175.61 138.846 160.967 140.118 160.967 140.118L161.123 109.907C161.123 109.907 162.681 103.069 164.55 103.705Z" fill="#7E6870"/>
<path d="M163.528 104.104C163.528 104.104 161.611 106.786 160.792 110.373C159.973 113.961 160.883 117.669 160.883 117.669" stroke="#664B47" stroke-miterlimit="10"/>
<path d="M172.495 121.991C172.495 121.991 169.691 122.946 168.289 126.047" stroke="#664B47" stroke-miterlimit="10"/>
<path d="M173.585 124.376C173.585 124.376 165.874 126.842 163.382 128.909" stroke="#664B47" stroke-miterlimit="10"/>
<path d="M129.007 120.719C129.007 120.719 129.007 119.925 129.786 119.606C130.565 119.288 131.033 119.129 131.5 118.652C131.967 118.175 132.59 118.811 132.59 118.811L145.831 125.966L159.696 118.175L160.631 118.811C160.631 118.811 161.487 118.493 161.721 118.811C161.955 119.13 162.422 119.209 162.656 119.448C162.889 119.686 162.5 139.959 162.5 139.959L146.299 147.274L133.369 142.821L129.007 120.719Z" fill="white"/>
<path d="M150.502 93.9192L152.641 104.819C152.641 104.819 150.518 108.053 145.763 108.024C141.005 107.995 139.755 104.915 139.755 104.915L141.622 94.1839L150.502 93.9192Z" fill="#FAC4A8"/>
<path d="M158.941 87.8648C158.177 87.1121 156.628 88.1062 156.368 88.2965C156.332 86.4939 156.211 84.8625 155.988 83.9089C155.141 80.2993 151.862 77.5931 148.722 76.6539C144.096 75.2729 140.238 76.5733 137.465 80.6938C136.034 82.8132 135.141 85.3118 134.829 87.8586C134.392 87.5863 133.895 87.4002 133.384 87.4956C132.54 87.6583 131.192 90.0067 132.062 91.9324C132.925 93.8529 135.416 94.5908 135.685 94.6447C136.599 97.7411 138.186 100.004 141.312 101.641C144.411 103.264 148.167 103.748 150.941 101.811C153.672 99.9053 156.015 95.9537 156.148 94.6524C157.309 94.2426 158.785 92.978 159.294 91.9687C159.958 90.6483 160.06 88.9706 158.941 87.8648Z" fill="#FAC4A8"/>
<path d="M158.399 80.9733C158.33 80.8235 158.247 80.6857 158.15 80.5616C158.692 79.3767 158.298 77.7959 157.331 76.9811C156.519 76.2971 155.636 76.0895 154.621 75.9689C154.476 75.9512 154.329 75.945 154.182 75.9445C153.997 74.8932 153.314 73.8871 152.555 73.2413C151.306 72.1765 148.533 71.3203 147.174 72.5181C146.837 72.344 146.476 72.2238 146.096 72.1847C144.755 72.0468 143.162 72.8172 142.556 73.9721C142.361 73.828 142.146 73.703 141.903 73.6009C141.042 73.237 140.039 73.5141 139.276 73.9859C138.054 74.7405 137.173 76.2417 137.351 77.6752C137.321 77.7162 137.298 77.7544 137.269 77.7949C136.46 77.586 135.602 77.8617 135.107 78.7375C134.614 79.6104 134.451 80.9991 134.964 81.9316C133.248 84.5977 134.166 86.5139 134.828 87.8586C135.743 89.7166 135.743 89.533 136.276 89.1728C136.557 88.981 137.035 86.5187 137.425 84.2356C137.885 84.6602 138.513 84.9235 139.144 85.0428C140.577 85.3137 141.726 84.4856 142.63 83.429C142.739 83.3021 142.851 83.1638 142.962 83.0302C143.175 83.2396 143.399 83.4228 143.624 83.563C145.107 84.4885 146.943 83.9909 148.371 83.0913C149.044 84.1736 150.222 84.9149 151.538 85.0523C152.498 85.153 153.5 84.945 154.403 84.5166C154.783 86.7166 155.234 88.9896 155.504 89.1723C156.036 89.5339 156.036 89.7161 156.951 87.8581C157.365 87.0191 157.873 85.9558 157.782 84.6273C158.136 84.3291 158.41 83.9175 158.588 83.4533C158.917 82.6004 158.767 81.7799 158.399 80.9733Z" fill="#E97045"/>
<path d="M151.719 92.9408C151.719 93.7555 151.072 94.4167 150.273 94.4167C149.475 94.4167 148.828 93.7555 148.828 92.9408C148.828 92.126 149.475 91.4653 150.273 91.4653C151.072 91.4658 151.719 92.126 151.719 92.9408Z" fill="#7C564F"/>
<path d="M142.742 92.9408C142.742 93.7555 142.094 94.4167 141.296 94.4167C140.498 94.4167 139.851 93.7555 139.851 92.9408C139.851 92.126 140.498 91.4653 141.296 91.4653C142.095 91.4658 142.742 92.126 142.742 92.9408Z" fill="#7C564F"/>
<path d="M149.35 89.7553C149.781 89.6446 150.22 89.5554 150.665 89.553C151.037 89.5511 151.431 89.5893 151.795 89.5125C151.903 89.49 151.937 89.3374 151.86 89.2635C151.068 88.4988 150.107 88.712 149.142 88.9825C148.654 89.1194 148.86 89.8812 149.35 89.7553Z" fill="#E97045"/>
<path d="M142.428 88.9825C141.463 88.712 140.502 88.4988 139.71 89.2635C139.633 89.3374 139.667 89.49 139.774 89.5125C140.136 89.5888 140.535 89.5563 140.905 89.553C141.348 89.5487 141.791 89.6451 142.219 89.7553C142.71 89.8812 142.916 89.1194 142.428 88.9825Z" fill="#E97045"/>
<path d="M145.426 91.7764C145.511 92.2076 145.549 92.6331 145.563 93.0557C145.582 93.4789 145.573 93.8982 145.55 94.316L145.537 94.5698L145.23 94.6886C145.087 94.7439 144.918 94.8117 144.777 94.8837C144.633 94.9538 144.497 95.0359 144.415 95.1065L144.369 95.1499C144.371 95.1565 144.355 95.1666 144.359 95.1627C144.37 95.1551 144.357 95.1003 144.355 95.1007C144.342 95.0921 144.372 95.1332 144.394 95.1732C144.427 95.2119 144.503 95.2753 144.521 95.3044L144.749 95.4766C144.822 95.531 144.903 95.6073 144.969 95.6436C145.107 95.7309 145.238 95.8406 145.397 95.9241C145.55 96.0161 145.71 96.0948 145.878 96.1721C145.962 96.2003 146.048 96.2508 146.137 96.2742C146.226 96.3038 146.318 96.34 146.415 96.3577C146.234 96.4455 146.03 96.4812 145.828 96.497C145.725 96.5051 145.625 96.4965 145.521 96.496C145.416 96.4974 145.32 96.4703 145.218 96.455C145.013 96.4311 144.812 96.3548 144.608 96.2833C144.499 96.2465 144.43 96.2027 144.339 96.1626L144.085 96.0343C143.953 95.9503 143.879 95.8935 143.773 95.8048C143.673 95.6984 143.571 95.5987 143.5 95.4032C143.458 95.3249 143.451 95.2019 143.446 95.0936C143.439 94.9815 143.479 94.8842 143.51 94.783C143.548 94.6905 143.598 94.627 143.647 94.5517C143.697 94.4897 143.747 94.4429 143.799 94.39C144.004 94.2106 144.205 94.1119 144.404 94.0246C144.607 93.9411 144.794 93.8815 145.013 93.8338L144.693 94.2058C144.772 93.7956 144.864 93.3863 144.985 92.9813C145.1 92.5759 145.24 92.1732 145.426 91.7764Z" fill="#DC8C7A"/>
<path d="M142.827 97.9233C143.751 98.8864 145.045 99.435 146.352 99.174C147.063 99.0328 149.082 98.2167 148.978 97.2893C148.97 97.223 148.925 97.1515 148.849 97.1581C148.201 97.214 147.614 97.8498 147.056 98.1575C145.536 98.9956 144.448 98.2811 143.109 97.5503C142.877 97.4239 142.638 97.7272 142.827 97.9233Z" fill="#DC8C7A"/>
<path d="M141.311 101.641C144.41 103.264 148.167 103.748 150.941 101.811" stroke="#DC8C7A" stroke-miterlimit="10"/>
<path d="M127.605 119.766L131.967 144.253C131.967 144.253 143.65 148.228 146.454 148.228C149.258 148.228 162.967 140.596 162.967 140.596L163.278 119.607L148.791 126.285C148.791 126.285 147.545 126.602 145.987 126.602C144.245 126.602 143.339 126.125 143.339 126.125L127.605 119.766Z" fill="#CC6A5C"/>
<path d="M143.183 127.079L144.585 146.637" stroke="#A24641" stroke-miterlimit="10"/>
<path d="M148.012 146.955L148.168 127.397" stroke="#A24641" stroke-miterlimit="10"/>
<path d="M151.128 130.737V134.235L159.384 130.578L159.54 126.92L151.128 130.737Z" fill="#FFDDB3"/>
<path d="M127.831 131.214C127.831 131.214 127.676 128.828 129.701 129.306C131.726 129.783 132.349 131.532 132.505 132.645C132.66 133.758 131.57 133.758 131.57 133.758C131.57 133.758 132.816 135.506 132.193 136.143C131.57 136.779 131.57 136.779 131.57 136.779C131.57 136.779 132.816 138.369 132.037 138.846C131.258 139.323 130.48 139.482 130.48 139.482C130.48 139.482 131.414 141.867 130.168 141.39C128.922 140.913 127.208 140.436 127.052 139.005C126.897 137.574 127.987 137.415 127.987 137.415C127.987 137.415 127.052 136.143 127.364 135.03C127.676 133.917 128.454 134.394 128.454 134.394C128.454 134.394 126.429 132.486 127.831 131.214Z" fill="#FAC4A8"/>
<path d="M128.143 131.374C128.143 131.374 131.258 133.121 131.57 133.758" stroke="#DC8C7A" stroke-miterlimit="10"/>
<path d="M128.455 134.394C128.455 134.394 130.713 135.905 131.414 136.7" stroke="#DC8C7A" stroke-miterlimit="10"/>
<path d="M128.299 137.415C128.299 137.415 129.623 138.209 130.48 139.482" stroke="#DC8C7A" stroke-miterlimit="10"/>
<path d="M163.738 131.214C163.738 131.214 163.894 128.828 161.869 129.306C159.844 129.783 159.221 131.532 159.065 132.645C158.909 133.758 160 133.758 160 133.758C160 133.758 158.753 135.506 159.377 136.143C160 136.779 160 136.779 160 136.779C160 136.779 158.753 138.369 159.532 138.846C160.311 139.323 161.09 139.482 161.09 139.482C161.09 139.482 160.156 141.867 161.402 141.39C162.648 140.913 164.361 140.436 164.517 139.005C164.673 137.574 163.583 137.415 163.583 137.415C163.583 137.415 164.517 136.143 164.206 135.03C163.894 133.917 163.115 134.394 163.115 134.394C163.115 134.394 165.14 132.486 163.738 131.214Z" fill="#FAC4A8"/>
<path d="M163.427 131.374C163.427 131.374 160.311 133.121 160 133.758" stroke="#DC8C7A" stroke-miterlimit="10"/>
<path d="M163.115 134.394C163.115 134.394 160.856 135.905 160.155 136.7" stroke="#DC8C7A" stroke-miterlimit="10"/>
<path d="M163.271 137.415C163.271 137.415 161.947 138.209 161.09 139.482" stroke="#DC8C7A" stroke-miterlimit="10"/>
<path d="M56.4148 123.422C57.5789 125.33 56.4148 182.255 56.4148 182.255H4.81024C4.81024 182.255 -4.88939 88.4404 3.25867 83.9884C11.4067 79.5364 39.4046 84.4215 41.1197 94.6994C42.8348 104.977 55.2506 121.514 56.4148 123.422Z" fill="#E6E6E6"/>
<path d="M12.4611 82.3979C5.29815 82.3979 3.24279 91.6202 7.55726 101.479C11.8717 111.337 12.9504 118.333 12.591 121.831C12.2316 125.329 14.0294 129.146 26.2536 130.1C33.5339 130.668 45.559 129.019 48.584 130.792C51.6096 132.564 49.9739 159.039 50.9086 167.148C51.7549 174.492 56.1302 179.11 56.5167 178.597C57.1962 177.695 56.8508 126.169 55.7554 123.661C54.5328 120.861 52.2989 117.917 49.264 116.743C43.5115 114.518 19.6235 82.3979 12.4611 82.3979Z" fill="#C2C2C2"/>
<path d="M69.8354 144.49L70.5364 155.939L78.2475 154.985L78.0138 144.729L69.8354 144.49Z" fill="#FFC5AC"/>
<path d="M54.8805 148.068V162.223L62.5785 163.571L63.8618 149.079L54.8805 148.068Z" fill="#FFC5AC"/>
<path d="M65.162 162.14C66.6 164.764 67.4987 167.864 69.8354 170.726C71.4529 172.708 73.4666 174.215 74.0415 175.974C74.7607 178.172 72.9661 180.489 70.2621 180.339C65.398 180.069 54.8553 172.805 54.3151 170.383C53.7743 167.963 54.6473 161.901 54.6473 161.901L59.4436 162.329C59.4436 162.329 63.7245 159.516 65.162 162.14Z" fill="#41383D"/>
<path d="M31.865 105.718C31.865 105.718 69.6723 116.914 70.5925 121.581C71.514 126.25 66.542 153.57 65.6293 154.507C64.7152 155.442 53.3775 154.052 53.2448 152.838C53.0041 150.625 54.2519 130.924 53.0111 128.51C51.769 126.094 35.7944 128.979 29.4105 128.033C22.7892 127.051 15.6922 122.638 14.0149 118.462C12.4498 114.562 15.8338 104.402 15.8338 104.402L31.865 105.718Z" fill="#36303A"/>
<path d="M35.3555 31.1753C35.3555 31.1753 46.7021 33.901 45.7674 42.8055C44.9841 50.2671 40.1149 52.8306 40.1149 52.8306C40.1149 52.8306 38.612 43.1614 36.6075 40.2621C34.6041 37.3603 35.3555 31.1753 35.3555 31.1753Z" fill="#B3402A"/>
<path d="M81.2852 159.278C80.9188 158.603 80.4314 155.273 79.456 153.698C78.4811 152.123 77.8689 152.382 76.6585 152.358C75.658 152.338 74.6284 152.609 73.8447 153.258C73.303 153.706 73.0273 154.296 72.967 154.936L70.2592 155.296C70.2592 155.296 70.2985 161.852 71.2379 164.049C72.1767 166.249 78.4816 173.59 81.5193 174.067C84.557 174.544 86.9162 171.81 86.6601 169.773C86.3544 167.343 82.9003 162.247 81.2852 159.278Z" fill="#41383D"/>
<path d="M74.9738 112.765C70.192 104.628 45.3164 104.237 45.3164 104.237L34.0115 105.25C38.7255 107.954 51.3596 113.679 55.5446 115.816C60.8513 118.523 61.4331 118.556 63.0174 124.155C64.6017 129.755 67.5249 144.313 67.966 145.444C68.4114 146.578 77.8138 147.528 78.4812 146.398C79.1453 145.265 77.374 116.848 74.9738 112.765Z" fill="#36303A"/>
<path d="M34.863 60.1372C34.863 60.1372 46.1922 61.7548 46.8577 71.2676C47.1217 75.036 46.4413 80.9063 46.3904 87.327C46.3133 97.1207 49.3346 104.687 49.3337 104.687C49.3337 104.687 42.7292 109.668 32.2141 107.998C23.7875 106.66 14.4963 108.087 14.4963 108.087C14.4963 108.087 6.37489 69.6366 13.3649 63.6352C18.9332 58.8531 34.863 60.1372 34.863 60.1372Z" fill="#BD706D"/>
<path d="M27.5243 35.6956C30.7831 32.4929 34.5092 32.0445 38.4461 34.1687C41.1192 35.6107 43.1662 40.3313 43.2751 43.7592C43.3648 46.5392 42.9634 56.7981 35.2359 57.9615C30.6116 58.658 29.7194 57.4368 27.2103 55.3808C21.0713 50.3588 22.2756 40.8574 27.5243 35.6956Z" fill="#FFC5AC"/>
<path d="M35.1784 52.6661L34.9219 62.2886C34.9219 62.2886 34.0232 63.8065 31.1397 63.8065C28.2539 63.8065 25.5157 60.6147 25.5157 60.6147L28.6969 49.7644L35.1784 52.6661Z" fill="#FFC5AC"/>
<path d="M24.5815 47.5759C23.7464 48.2351 25.1895 53.0893 24.7371 53.3001C23.8581 53.7094 21.3886 49.7821 20.3834 47.9971C18.8608 45.2948 19.4585 39.5734 21.111 36.5868C22.7631 33.6011 26.1312 31.9964 29.0511 30.5715C33.3053 28.495 44.1873 34.4373 42.3409 38.0355C40.4939 41.6336 36.7421 44.6985 34.7204 43.9772C32.6968 43.2541 34.7204 37.8738 34.7204 37.8738C34.7204 37.8738 29.4409 42.2929 28.3207 43.6009C27.2 44.9089 27.0392 45.6344 24.5815 47.5759Z" fill="#B3402A"/>
<path d="M22.2546 43.8814C22.6827 43.1601 23.5277 42.633 24.2922 42.8534C24.9512 43.0423 26.7439 45.1765 26.763 47.4404C26.7785 49.1887 25.2489 49.8642 24.3263 50.0545C23.5375 50.2153 22.8827 49.7244 22.4546 49.079C21.5172 47.6694 21.3227 45.4436 22.2546 43.8814Z" fill="#FFC5AC"/>
<path d="M22.8341 25.8871C14.2267 25.6199 11.9554 35.6345 18.435 38.1513C23.308 39.2976 26.7836 37.058 27.6454 33.3777C28.201 30.123 26.1882 26.5802 22.8341 25.8871Z" fill="#B3402A"/>
<path d="M27.2673 96.6308C27.2678 96.6241 27.271 96.6198 27.2729 96.6131C25.3517 95.515 20.26 94.3568 18.6168 93.4963C16.9713 92.6343 18.6841 86.0237 19.1262 83.0929C19.6356 79.7132 20.4212 63.2884 20.4212 63.2884C19.4408 59.8191 12.7186 61.1481 10.2496 68.7236C8.35734 74.5314 5.77062 90.0365 7.41799 95.9844C9.06349 101.93 26.0849 104.28 26.0849 104.28L27.2622 96.7257C27.2673 96.6933 27.2612 96.6661 27.2673 96.6308Z" fill="#BD706D"/>
<path d="M33.3048 47.1779C33.3048 47.9683 32.6772 48.609 31.9028 48.609C31.1284 48.609 30.5013 47.9683 30.5013 47.1779C30.5013 46.388 31.1289 45.7473 31.9028 45.7473C32.6777 45.7473 33.3048 46.388 33.3048 47.1779Z" fill="#7C564F"/>
<path d="M40.8603 47.8935C40.8603 48.6839 40.2327 49.3245 39.4583 49.3245C38.6844 49.3245 38.0568 48.6839 38.0568 47.8935C38.0568 47.1035 38.6844 46.4629 39.4583 46.4629C40.2332 46.4629 40.8603 47.1035 40.8603 47.8935Z" fill="#7C564F"/>
<path d="M36.5767 45.5083C36.6141 45.7587 36.6304 46.0011 36.6449 46.241C36.6557 46.48 36.6702 46.7166 36.673 46.9465C36.6814 47.1764 36.6903 47.4045 36.7033 47.6139C36.7108 47.7188 36.7286 47.8195 36.7449 47.8996C36.7529 47.9392 36.7632 47.9721 36.7711 47.9902C36.7777 48.006 36.7884 47.9984 36.7487 47.9573L36.8599 48.1415C36.9066 48.2669 36.9917 48.4496 37.0632 48.6242C37.1366 48.8036 37.2109 48.9901 37.266 49.1914C37.3184 49.3951 37.3754 49.604 37.3796 49.8554C37.3787 49.9813 37.3698 50.1192 37.3165 50.2733C37.2889 50.3501 37.2492 50.4293 37.1917 50.5008C37.1599 50.5399 37.138 50.56 37.0866 50.6048L37.009 50.6587C36.866 50.746 36.7706 50.767 36.6608 50.7975C36.5557 50.8233 36.4543 50.84 36.3547 50.8514C36.1561 50.8781 35.9607 50.8757 35.7682 50.8743C35.3836 50.87 35.0041 50.8257 34.6298 50.7555C35.0022 50.6783 35.37 50.5948 35.7289 50.5084C35.9079 50.465 36.0832 50.4092 36.25 50.3558C36.3332 50.3281 36.4127 50.2962 36.4851 50.2618C36.5519 50.2313 36.6314 50.1802 36.6431 50.1602L36.6753 50.1254C36.6575 50.1373 36.666 50.1206 36.6618 50.1216C36.6585 50.1144 36.6552 50.1049 36.6524 50.0906C36.6473 50.06 36.636 50.0028 36.616 49.9403C36.5776 49.8115 36.5206 49.6541 36.4458 49.4995L36.2168 49.0111C36.1374 48.8374 36.0589 48.6757 35.9818 48.441L36.093 48.6252C35.9738 48.4964 35.9346 48.38 35.9033 48.2841C35.8762 48.1901 35.8631 48.1071 35.8547 48.0298C35.8392 47.8758 35.8491 47.7393 35.8589 47.6077C35.8771 47.3444 35.9285 47.1006 35.9935 46.8616C36.0528 46.6226 36.1397 46.3922 36.2323 46.1656C36.3295 45.9395 36.437 45.7182 36.5767 45.5083Z" fill="#DC8C7A"/>
<path d="M30.9822 52.046C32.4188 54.5527 35.2709 54.4936 36.9655 52.2654C37.0165 52.1986 36.9954 52.0641 36.8884 52.0746C36.0383 52.1595 35.2233 52.6914 34.4241 52.9848C33.2852 53.4026 32.1575 52.4548 31.5243 51.619C31.2794 51.2966 30.7896 51.7102 30.9822 52.046Z" fill="#DC8C7A"/>
<path d="M34.3961 58.0731C30.9738 58.4466 29.8349 57.577 28.0239 56.0591" stroke="#DC8C7A" stroke-miterlimit="10"/>
<path d="M30.6041 43.9284C30.6219 43.9222 30.6396 43.9165 30.6569 43.9102C30.248 43.8831 30.2433 44.5561 30.6569 44.5619C30.9967 44.5666 31.3103 44.4846 31.6594 44.5151C32.0505 44.5495 32.4127 44.601 32.7959 44.6759C33.1016 44.736 33.4376 44.3219 33.1362 44.0791C32.7889 43.7991 32.3674 43.7667 31.9356 43.7667C31.4378 43.7662 31.0453 43.7643 30.5723 43.9217C30.7069 44.0266 30.842 44.1311 30.9766 44.2361C30.9705 44.2542 30.9649 44.2723 30.9588 44.2904C31.0724 44.0438 30.8443 43.8134 30.6041 43.9284Z" fill="#B3402A"/>
<path d="M38.7045 44.4054C38.7223 44.3992 38.74 44.3935 38.7573 44.3873C38.3489 44.3601 38.3437 45.0332 38.7573 45.0389C39.0971 45.0437 39.4106 44.9616 39.7598 44.9922C40.1509 45.0265 40.5131 45.078 40.8963 45.1529C41.202 45.213 41.538 44.799 41.2365 44.5562C40.8893 44.2762 40.4678 44.2437 40.0359 44.2437C39.5382 44.2432 39.1457 44.2413 38.6727 44.3987C38.8073 44.5037 38.9424 44.6082 39.077 44.7131C39.0709 44.7312 39.0653 44.7494 39.0592 44.7675C39.1732 44.5209 38.9452 44.2905 38.7045 44.4054Z" fill="#B3402A"/>
<path d="M44.9888 79.2181C44.9888 79.2181 44.5219 100.207 48.4163 100.048C52.3106 99.8889 54.3361 98.2985 54.0243 93.3694C53.7126 88.4404 47.7928 78.1047 47.7928 78.1047L44.9888 79.2181Z" fill="#FFC5AC"/>
<path d="M51.247 69.2178L49.5823 69.8603L46.8203 80.6787L55.1862 77.3911L51.247 69.2178Z" fill="#D9D9D9"/>
<path d="M37.4852 72.9021C37.4852 72.9021 36.8758 73.4717 36.8608 73.8289C36.8454 74.1862 36.5917 74.6528 36.5917 74.6528L36.4496 75.2433L36.5253 76.2017L55.181 77.5096L54.5314 76.2866L37.4852 72.9021Z" fill="white"/>
<path d="M50.6048 68.7511L54.7581 77.3714C54.7581 77.3714 55.3119 77.1977 55.5633 76.7708C55.8156 76.3439 51.7143 68.3228 51.7143 68.3228L50.6048 68.7511Z" fill="#3E4A6B"/>
<path d="M54.3795 77.1158L50.4146 69.5388L51.2469 69.2178L55.1862 77.3911L54.3795 77.1158Z" fill="white"/>
<path d="M36.0678 75.2668L30.7878 98.2693L47.6419 99.1785C47.6419 99.1785 49.7127 99.2705 50.7679 98.8403C51.8232 98.41 55.5633 76.7714 55.5633 76.7714L36.0678 75.2668Z" fill="#3E4A6B"/>
<path d="M48.2158 84.0869C47.7059 83.6395 46.9965 83.6075 46.3413 83.557C45.801 83.5155 45.2767 83.3871 44.7336 83.4167C44.0906 83.4511 43.5013 83.5479 42.8839 83.2975C42.5077 83.1448 42.2988 83.7878 42.689 83.9085C43.0638 84.024 43.4087 84.1012 43.8064 84.0383C44.5168 83.9271 45.0145 84.3269 45.6459 84.3956C46.5067 84.491 47.4391 84.8931 48.2036 84.3364C48.2756 84.2859 48.2817 84.1447 48.2158 84.0869Z" fill="#596698"/>
<path d="M48.9584 86.5732C47.5723 86.1104 46.0226 86.4401 44.5878 86.1739C43.5274 85.9778 42.568 85.7589 41.4973 85.6387C41.0113 85.5848 41.0314 86.3595 41.5113 86.4134C42.5815 86.534 43.5302 86.9271 44.5976 86.7067C46.1015 86.3957 47.5381 87.3593 48.9635 86.8508C49.0981 86.8021 49.0916 86.618 48.9584 86.5732Z" fill="#596698"/>
<path d="M38.2185 87.6731C33.704 87.6164 31.721 86.7635 31.721 86.7635C31.721 86.7635 32.802 86.4023 33.6212 85.828C33.6156 85.7297 34.133 83.8541 34.133 83.8541C34.133 83.8541 30.4779 83.1643 28.8347 84.146C26.9135 85.2995 24.8544 85.5036 23.9898 86.4844C23.1243 87.4699 21.2559 89.8918 23.0351 91.4397C23.8758 92.1695 25.8868 93.3554 27.65 93.8572C29.2558 94.3147 34.7531 95.0665 37.6927 94.6987C39.0699 94.526 39.0284 93.353 39.0284 93.353C39.0284 93.353 39.7995 93.2113 40.106 92.9504C40.4126 92.6876 40.3528 92.0727 40.3528 92.0727C40.3528 92.0727 40.8664 91.7941 41.1281 91.0376C41.3893 90.2815 40.9753 89.9209 40.9753 89.9209C40.9753 89.9209 41.5782 89.0865 41.3721 88.7278C41.0286 88.1292 39.6382 87.6913 38.2185 87.6731Z" fill="#FFC5AC"/>
<path d="M32.9081 89.1167C32.9081 89.1167 37.5179 90.7166 40.8818 89.8866" stroke="#DC8C7A" stroke-miterlimit="10"/>
<path d="M32.1692 90.7896C32.1692 90.7896 36.6945 92.6242 40.0953 91.9692" stroke="#DC8C7A" stroke-miterlimit="10"/>
<path d="M31.9108 92.5698C31.9108 92.5698 35.8425 93.9904 38.7998 93.4428" stroke="#DC8C7A" stroke-miterlimit="10"/>
<path d="M24.2698 86.3733C24.2698 86.3733 7.60167 91.4612 7.44558 96.7084C7.28995 101.956 11.6521 104.023 15.2347 103.228C18.8173 102.433 26.6065 91.9382 26.6065 91.9382L24.2698 86.3733Z" fill="#FFC5AC"/>
<path d="M15.2347 66.8154C15.2347 66.8154 18.2645 70.1427 18.8178 73.8114C19.4408 77.9458 18.6617 86.8503 18.6617 86.8503" stroke="#8C4B59" stroke-miterlimit="10"/>
<path d="M9.31494 90.0302C9.31494 90.0302 13.8327 85.5782 19.7525 87.6451" stroke="#8C4B59" stroke-miterlimit="10"/>
<path d="M9.47101 86.3732C9.47101 86.3732 14.1444 85.4192 16.0138 87.0091" stroke="#8C4B59" stroke-miterlimit="10"/>
<path d="M42.496 65.8613C42.496 65.8613 43.898 69.6775 43.2751 73.4937" stroke="#8C4B59" stroke-miterlimit="10"/>
<path d="M41.5613 107.998C41.5613 107.998 63.9936 111.576 66.7977 115.153C68.8619 117.787 69.1344 125.409 68.9007 128.748C68.667 132.088 67.966 143.775 67.966 143.775" stroke="#544A4C" stroke-miterlimit="10"/>
<path d="M24.9708 108.952C24.9708 108.952 23.8024 114.199 16.5587 114.438" stroke="#544A4C" stroke-miterlimit="10"/>
<path d="M17.727 117.777C17.727 117.777 17.8434 117.896 18.0677 118.101" stroke="#544A4C" stroke-miterlimit="10"/>
<path d="M19.1356 119.006C21.5405 120.911 26.842 124.324 33.6166 123.978C42.9634 123.501 56.0489 122.309 56.9836 126.125C57.7878 129.41 56.169 146.299 55.7026 150.941" stroke="#544A4C" stroke-miterlimit="10" stroke-dasharray="1.98 2.98"/>
<path d="M55.6306 151.65C55.5993 151.957 55.5815 152.123 55.5815 152.123" stroke="#544A4C" stroke-miterlimit="10"/>
<path d="M15.8502 32.9595C15.8502 32.9595 16.7783 36.2805 20.4806 35.9103" stroke="#812F06" stroke-miterlimit="10"/>
<path d="M16.8882 29.3745C16.8882 29.3745 16.9653 31.9156 18.7729 33.3328C20.5811 34.7486 21.4251 34.5077 21.4251 34.5077" stroke="#812F06" stroke-miterlimit="10"/>
<path d="M20.3208 37.9246C20.3208 37.9246 21.9237 32.7962 27.0346 31.4419" stroke="#812F06" stroke-miterlimit="10"/>
<path d="M33.9283 34.6958C33.9283 34.6958 28.3202 37.3991 26.7621 41.2152" stroke="#812F06" stroke-miterlimit="10"/>
<path d="M41.094 36.4448C41.094 36.4448 39.2251 41.0557 36.7323 42.3279" stroke="#812F06" stroke-miterlimit="10"/>
<path d="M37.5114 35.0139L34.72 37.8737" stroke="#812F06" stroke-miterlimit="10"/>
<path d="M252.331 186.613C278.658 186.613 300 182.448 300 177.311C300 172.174 278.658 168.009 252.331 168.009C226.005 168.009 204.663 172.174 204.663 177.311C204.663 182.448 226.005 186.613 252.331 186.613Z" fill="#E6E6E6"/>
<path d="M204.579 179.188H172.448V186.165H204.579V179.188Z" fill="#3D2E27"/>
<path d="M175.859 179.015H174.782V185.99H175.859V179.015Z" fill="#A99877"/>
<path d="M179.617 179.015H177.665V185.99H179.617V179.015Z" fill="#A99877"/>
<path d="M206.015 174.761H173.884V179.015H206.015V174.761Z" fill="#952E27"/>
<path d="M201.548 175.775H178.351V178H201.548V175.775Z" fill="#A47A27"/>
<path d="M201.705 161.793L199.577 163.839L220.185 186.166L222.313 184.119L201.705 161.793Z" fill="#616327"/>
<path d="M204.062 165.383L202.949 166.454L217.828 182.573L218.94 181.502L204.062 165.383Z" fill="#8B9F27"/>
<path d="M202.066 174.33C201.782 174.653 201.004 174.742 200.091 174.745C198.467 174.751 196.547 174.761 196.547 174.761H171.73V166.168H196.914C196.914 166.168 199.732 166.145 201.168 166.145C201.959 166.145 202.306 166.992 202.335 167.373C202.471 169.16 202.694 173.614 202.066 174.33Z" fill="#5E8EA4"/>
<path d="M199.732 167.084H171.73V173.837H199.732V167.084Z" fill="#EFECE7"/>
<path d="M199.732 172.331H171.73V173.028H199.732V172.331Z" fill="#D6D3CE"/>
<path d="M199.732 169.373H171.73V170.07H199.732V169.373Z" fill="#D6D3CE"/>
<path d="M199.732 170.852H171.73V171.548H199.732V170.852Z" fill="#D6D3CE"/>
<path d="M199.732 167.895H171.73V168.591H199.732V167.895Z" fill="#D6D3CE"/>
<path d="M200.63 167.084H199.732V173.837H200.63V167.084Z" fill="#CCBF9F"/>
<path d="M220.57 32.9472C220.57 32.9472 220.882 32.152 225.555 31.0391C230.229 29.9262 233.656 29.7673 233.656 29.7673L234.123 33.5835L233.967 49.1659L221.194 48.6889L220.57 32.9472Z" fill="white"/>
<path d="M214.339 27.3821L216.676 26.5869C216.676 26.5869 219.791 29.2902 220.414 30.5619C221.037 31.8337 221.661 35.9685 221.661 35.9685L221.037 46.6218L215.897 44.7137L214.339 27.3821Z" fill="white"/>
<path d="M251.404 2.01086C251.404 2.01086 242.507 -0.00646079 239.731 7.66547C238.503 11.06 238.641 16.7289 239.108 24.2019C239.566 31.5313 239.13 37.3739 240.51 38.0355C242.985 39.2214 251.323 38.2988 252.115 33.8215C252.908 29.3442 254.453 3.00545 251.404 2.01086Z" fill="#955B61"/>
<path d="M249.14 163.109C249.14 163.109 250.842 167.522 249.701 169.842C249.242 170.775 247.405 172.127 246.751 173.612C246.098 175.096 243.105 177.897 241.462 178.698C239.819 179.499 232.202 180.806 231.986 175.963C231.891 173.831 234.041 171.579 236.225 169.295C239.003 166.393 241.883 162.526 243.588 161.863C246.634 160.679 249.14 163.109 249.14 163.109Z" fill="#B38E7F"/>
<path d="M249.009 126.044C249.009 126.044 250.257 135.665 249.222 144.575C248.185 153.483 249.124 163.134 248.773 164.811C248.421 166.491 246.777 168.09 245.572 169.295C244.367 170.501 241.166 172.26 237.861 170.011C236.459 169.057 241.37 164.188 242.389 162.717C243.41 161.247 238.55 127.877 238.55 127.877L249.009 126.044Z" fill="#FFC4A8"/>
<path d="M269.15 175.243C269.073 171.976 267.688 165.021 266.109 164.001C264.529 162.976 261.152 162.579 261.152 162.579C261.152 162.579 258.883 166.91 258.422 172.873C258.148 176.433 257.902 179.615 260.51 180.094C266.718 181.23 269.226 178.508 269.15 175.243Z" fill="#B38E7F"/>
<path d="M258.154 134.999C258.154 134.999 260.808 155.511 260.889 159.08C260.939 161.288 260.551 161.674 260.236 164.602C259.967 167.078 258.023 172.893 263.054 172.999C268.472 173.112 267.452 168.702 267.304 166.433C267.156 164.164 265.949 161.482 266.053 157.946C266.277 150.289 269.205 136.081 269.205 136.081L258.154 134.999Z" fill="#FFC4A8"/>
<path d="M267.07 72.2217C267.07 72.2217 270.859 80.3377 272.211 94.8802C272.665 99.7525 274.489 113.254 274.301 119.569C274.11 125.884 272.912 154.508 272.912 154.508C272.912 154.508 268.238 157.37 264.499 157.37C260.761 157.37 256.788 155.462 256.788 155.462C256.788 155.462 253.942 110.85 253.182 110.787C252.41 110.723 253.05 154.269 253.05 154.269C253.05 154.269 248.844 158.085 244.638 157.608C240.432 157.131 237.16 154.985 237.16 154.985C237.16 154.985 235.891 100.322 236.383 95.1778C236.998 88.749 240.353 72.6987 240.353 72.6987L267.07 72.2217Z" fill="#4D524F"/>
<path d="M276.767 77.0653C275.955 76.4748 256.285 78.6629 255.501 79.0741C254.718 79.4852 255.184 94.3425 256.165 94.8787C257.147 95.4154 259.013 96.4433 260.148 96.191C261.283 95.9382 278.404 92.7383 278.404 92.7383L278.755 79.1819C278.755 79.1819 277.579 77.6559 276.767 77.0653Z" fill="#B6304A"/>
<path d="M258.761 95.1989L258.261 81.4674C258.261 81.4674 258.268 80.4361 257.611 80.1933C256.954 79.9505 255.882 80.3245 255.882 80.3245C255.882 80.3245 255.999 93.8986 256.197 94.6675C256.395 95.4365 258.822 96.4874 258.761 95.1989Z" fill="white"/>
<path d="M258.412 80.6601L258.774 96.087L278.361 93.9103L278.6 79.1904L258.412 80.6601Z" fill="#A41B38"/>
<path d="M247.676 31.3573C243.463 31.5285 237.721 35.5932 236.574 38.0351C235.427 40.477 231.942 54.2543 231.942 54.2543C231.942 54.2543 223.88 51.5906 222.907 51.2333C221.933 50.8761 218.218 52.3763 218.303 53.8717C218.389 55.3672 231.942 68.8831 237.706 67.7698C242.495 66.8443 251.89 31.187 247.676 31.3573Z" fill="#D6AE38"/>
<path d="M242.4 35.8661C241.518 39.3684 239.509 73.4911 239.86 74.2482C240.211 75.0062 248.341 77.4084 253.208 77.2615C258.075 77.1155 268.076 75.1101 268.083 74.1299C268.089 73.1482 268.974 37.1622 266.135 34.2986C263.293 31.4336 257.987 31.2924 253.559 31.2633C248.541 31.2299 243.743 30.5339 242.4 35.8661Z" fill="#D6AE38"/>
<path d="M254.935 31.8081C254.619 31.6879 254.201 31.8806 254.047 32.1769C253.81 32.6334 253.732 33.118 253.689 33.6179C253.681 33.6289 253.673 33.6394 253.664 33.6504C253.674 33.6499 253.678 33.6499 253.687 33.6494V33.6547C253.197 33.6962 252.727 34.0239 252.61 34.5343C252.584 34.6502 252.567 34.7595 252.554 34.8668C252.447 34.8587 252.299 34.8687 252.194 34.8768C251.757 34.9092 251.431 34.9794 251.104 35.2975C250.825 35.5685 250.707 35.9615 250.59 36.3222C250.59 36.3222 250.59 36.3227 250.59 36.3236C250.497 36.3284 250.403 36.3255 250.324 36.3207C250.191 36.3126 250.079 36.3441 249.982 36.3952C249.94 36.3947 249.898 36.3942 249.857 36.3942C249.712 36.3932 249.577 36.4238 249.452 36.4734C249.291 36.2893 249.144 36.1795 248.994 36.1113C249.075 35.7521 249.06 35.3352 248.878 35.0175C248.708 34.7203 248.463 34.5372 248.188 34.405C248.219 34.3444 248.253 34.2858 248.28 34.2218C248.633 33.5144 248.313 32.5909 247.585 32.3691C247.602 32.3376 247.624 32.309 247.641 32.2775C248.033 31.6016 247.393 30.7959 246.668 30.9857C245.655 31.2505 244.658 31.9288 244.927 33.1819C245.023 33.6313 245.219 33.9686 245.484 34.2195C245.354 34.5624 245.294 34.9245 245.407 35.3452C245.507 35.714 245.762 36.1118 246.087 36.3069C246.126 36.3303 246.228 36.367 246.349 36.4052C246.298 36.7491 246.346 37.2629 246.532 37.5157C246.751 37.811 246.96 38.1282 247.343 38.2112C247.37 38.2169 247.393 38.2231 247.418 38.2298C247.487 39.1542 247.82 39.9723 249.046 39.9723C250.018 39.9723 250.595 39.3131 250.846 38.4998C251.082 38.5594 251.334 38.567 251.593 38.4941C251.986 38.3839 252.375 38.0261 252.571 37.6664C252.598 37.6173 252.626 37.5481 252.655 37.4727C252.735 37.4861 252.815 37.4966 252.895 37.5004C253.271 37.5176 253.724 37.2457 254.047 37.0682C254.369 36.8913 254.587 36.5659 254.783 36.2649C254.877 36.1204 254.903 35.92 254.906 35.7283C255.413 35.4402 255.821 34.9803 255.983 34.3812C256.238 33.431 255.871 32.163 254.935 31.8081Z" fill="white"/>
<path d="M253.553 4.00815C247.066 1.91928 241.23 8.59233 240.26 11.9148C239.29 15.2377 239.517 28.6992 245.727 29.5832C254.372 30.8139 259.808 24.1656 260.102 18.5253C260.396 12.885 260.406 6.2139 253.553 4.00815Z" fill="#FFC4A8"/>
<path d="M246.536 26.0586L246.741 33.5831C246.741 33.5831 247.832 38.194 249.545 38.0351C251.259 37.8763 256.4 32.3109 256.4 32.3109L254.686 23.3267L246.536 26.0586Z" fill="#FFC4A8"/>
<path d="M263.709 86.3779C265.829 83.0721 269.335 80.5086 270.346 80.6469C271.486 80.8034 274.928 80.6856 274.937 81.1264C275.003 83.5496 274.484 88.0899 274.287 90.5222C274.125 92.5243 273.377 93.0819 272.818 94.244C272.342 95.2357 270.983 96.3715 269.982 96.8633C269.133 97.2802 269.172 96.7087 269.172 96.7087C269.172 96.7087 268.238 97.5034 267.303 97.3446C266.368 97.1857 265.901 96.8676 265.901 96.8676C265.901 96.8676 264.341 97.0417 263.409 96.8676C262.477 96.6935 261.283 96.7583 261.526 95.7771C261.77 94.7959 264.365 94.6995 264.365 94.6995C264.365 94.6995 265.594 92.3511 265.885 91.5197C266.175 90.6887 265.254 89.3669 265.254 89.3669C265.254 89.3669 262.666 92.0788 262.156 91.5569C261.126 90.506 262.646 88.037 263.709 86.3779Z" fill="#FFC4A8"/>
<path d="M266.214 96.55C266.214 96.55 268.083 94.1644 268.394 93.0515C268.706 91.9386 268.862 89.2354 268.862 89.2354" stroke="#DC8C7A" stroke-miterlimit="10"/>
<path d="M265.255 89.3669L266.5 87.4307" stroke="#DC8C7A" stroke-miterlimit="10"/>
<path d="M271.51 89.7124C271.51 89.7124 271.438 92.0002 270.887 93.5286C270.335 95.0569 269.017 96.7089 269.017 96.7089" stroke="#DC8C7A" stroke-miterlimit="10"/>
<path d="M273.424 89.5525C273.424 89.5525 273.346 91.9257 272.764 93.5881" stroke="#DC8C7A" stroke-miterlimit="10"/>
<path d="M263.875 32.9943C268.27 33.3512 275.029 48.7022 275.482 56.0025C275.936 63.3028 275.405 82.0798 275.405 82.0798C275.405 82.0798 274.158 82.875 272.582 82.9299C270.539 83.0009 268.239 80.9669 268.239 80.9669C268.239 80.9669 265.933 63.7651 264.266 58.6261C262.597 53.4853 260.088 43.0447 260.107 40.0824C260.123 37.1201 259.295 32.6223 263.875 32.9943Z" fill="#D6AE38"/>
<path d="M250.856 22.7107L245.234 23.6819C245.234 23.6819 245.865 26.753 248.937 26.1152C251.259 25.6329 250.856 22.7107 250.856 22.7107Z" fill="white"/>
<path d="M246.041 16.2871C246.041 16.2871 246.156 16.7722 246.189 17.5021C246.208 17.8689 246.206 18.2925 246.163 18.7624C246.124 19.0057 246.114 19.2232 245.972 19.5595C245.943 19.611 245.928 19.6511 245.865 19.7245C245.784 19.8113 245.787 19.8042 245.761 19.8299L245.637 19.944C245.558 20.0184 245.488 20.0933 245.419 20.1653C245.286 20.3122 245.18 20.461 245.13 20.586C245.075 20.7129 245.078 20.7892 245.106 20.9075C245.115 20.9614 245.168 21.0373 245.19 21.0836C245.257 21.1666 245.318 21.2529 245.376 21.3378C245.495 21.5091 245.597 21.6092 245.701 21.7476C245.813 21.8702 245.919 21.9842 246.019 22.081C246.117 22.1826 246.213 22.2556 246.29 22.3291C246.449 22.4598 246.553 22.5323 246.553 22.5323C246.553 22.5323 246.428 22.5509 246.209 22.5208C246.103 22.5017 245.967 22.4808 245.824 22.4259C245.672 22.3844 245.519 22.3047 245.347 22.2165C245.183 22.1273 244.985 21.9837 244.831 21.8549C244.753 21.7896 244.673 21.7213 244.596 21.6464C244.488 21.5253 244.403 21.4275 244.327 21.2744C244.166 20.991 244.14 20.5674 244.263 20.2578C244.378 19.943 244.561 19.7035 244.751 19.508C244.846 19.4102 244.946 19.321 245.044 19.2413L245.188 19.1263C245.273 19.0534 245.169 19.1607 245.203 19.1335C245.263 19.0467 245.338 18.8034 245.388 18.6102C245.507 18.2009 245.599 17.794 245.693 17.4491C245.872 16.7551 246.041 16.2871 246.041 16.2871Z" fill="#DC8C7A"/>
<path d="M251.57 17.3647C251.57 18.1551 250.942 18.7957 250.168 18.7957C249.394 18.7957 248.766 18.1551 248.766 17.3647C248.766 16.5747 249.394 15.9341 250.168 15.9341C250.942 15.9341 251.57 16.5742 251.57 17.3647Z" fill="#7C564F"/>
<path d="M244.249 18.477C244.249 19.2674 243.621 19.908 242.847 19.908C242.073 19.908 241.445 19.2674 241.445 18.477C241.445 17.687 242.073 17.0464 242.847 17.0464C243.621 17.0464 244.249 17.687 244.249 18.477Z" fill="#7C564F"/>
<path d="M241.801 15.9898C241.825 15.8906 241.877 15.8009 241.901 15.6998C241.828 15.7737 241.756 15.8482 241.683 15.9221C242.249 15.8081 242.901 15.4141 243.437 15.7847C243.835 16.059 244.22 15.3907 243.814 15.1283C243.048 14.6341 242.279 15.0353 241.517 15.3086C241.354 15.3673 241.256 15.5228 241.299 15.6998C241.324 15.8009 241.375 15.8906 241.399 15.9898C241.448 16.193 241.752 16.193 241.801 15.9898Z" fill="#955B61"/>
<path d="M249.011 15.0358C249.031 14.9371 249.08 14.8431 249.103 14.7439C249.006 14.8202 248.908 14.896 248.81 14.9723C249.523 14.8746 250.346 14.4347 251.027 14.8307C251.445 15.074 251.825 14.4047 251.403 14.1743C250.519 13.6925 249.61 14.0646 248.729 14.3618C248.568 14.4161 248.475 14.5731 248.517 14.7443C248.54 14.8436 248.589 14.9375 248.61 15.0363C248.652 15.2395 248.968 15.2395 249.011 15.0358Z" fill="#955B61"/>
<path d="M247.365 29.6083C247.365 29.6083 252.194 29.449 254.53 26.1099" stroke="#DC8C7A" stroke-miterlimit="10"/>
<path d="M243.459 5.79652C243.65 1.02487 252.447 0.522093 256.421 1.29439C263.513 2.67394 265.246 13.1274 264.997 19.7389C264.894 22.4765 266.806 33.7896 264.723 35.6738C262.927 37.2971 257.704 39.3903 255.585 38.575C255.094 38.3876 254.394 33.4594 254.061 30.7471C253.729 28.0338 254.607 24.687 254.684 22.4913C254.798 19.2695 254.902 17.504 253.662 14.5308C252.945 12.8106 250.477 10.1732 250.4 10.1226C247.071 10.1985 243.35 8.52889 243.459 5.79652Z" fill="#955B61"/>
<path d="M240.198 40.7388C240.198 40.7388 239.264 45.986 238.796 48.8481C238.416 51.1798 239.419 54.0954 239.731 56.0035C240.043 57.9115 240.043 64.1128 240.043 64.1128" stroke="#AE9238" stroke-miterlimit="10"/>
<path d="M261.929 40.2612C261.929 40.2612 261.929 45.1106 262.63 47.0984C263.331 49.0861 265.434 56.1618 265.902 59.0239C266.369 61.886 266.681 70.4724 266.681 70.4724" stroke="#AE9238" stroke-miterlimit="10"/>
<path d="M250.713 87.0093C250.713 87.0093 250.947 93.2106 251.414 95.3571C251.882 97.5037 253.05 108.475 253.05 108.475" stroke="#394339" stroke-miterlimit="10"/>
<path d="M247.909 86.2939C247.909 86.2939 249.779 93.2108 251.181 94.8803" stroke="#394339" stroke-miterlimit="10"/>
<path d="M259.359 41.9309C259.359 41.9309 260.293 45.5086 262.63 47.0985" stroke="#AE9238" stroke-miterlimit="10"/>
<path d="M220.57 32.6294C221.349 32.9471 222.584 32.8932 222.584 32.8932L234.5 30.8019L235.093 51.3196L220.264 52.4525L215.096 46.6882L213.757 26.4038L218.752 31.1912C218.752 31.1912 219.791 32.3117 220.57 32.6294Z" fill="#3E52A1"/>
<path d="M224.198 46.5885C223.9 46.4874 222.364 46.5212 222.364 46.5212C222.364 46.5212 222.818 46.039 223.412 45.9192C223.703 45.861 224.263 45.7861 225.049 45.7189C225.835 45.6521 226.424 45.7861 226.555 45.1841C226.686 44.5831 225.694 43.931 224.937 43.838C224.042 43.7283 222.712 43.7421 222.233 43.714C222.539 43.5561 223.622 43.0156 224.198 42.9789C225.245 42.9116 226.043 42.6221 225.835 41.8426C225.638 41.1075 223.281 40.9067 222.168 41.1743C221.549 41.3236 220.007 41.8426 220.007 41.8426C220.007 41.8426 220.948 40.9215 221.342 40.6634C222.299 40.038 223.054 39.6106 222.757 38.9018C222.459 38.1944 220.874 38.6738 220.138 39.0358C219.402 39.3974 217.889 40.5265 217.478 40.8995C217.145 41.2001 214.834 44.5268 215.115 47.0126C215.397 49.4983 218.036 53.4934 219.622 54.9106C221.208 56.3269 222.979 55.1529 223.524 54.1526C224.724 51.9516 222.405 49.4659 222.405 49.4659C222.405 49.4659 223.694 48.7947 224.492 48.9932C225.276 49.1878 225.67 49.5327 225.883 49.2298C226.097 48.9264 226.097 48.2585 225.704 47.7906C225.293 47.3016 224.792 46.7903 224.198 46.5885Z" fill="#FFC4A8"/>
<path d="M216.668 44.2486C216.668 44.2486 218.027 42.3119 219.876 41.8425" stroke="#DC8C7A" stroke-miterlimit="10"/>
<path d="M217.716 46.5885C217.716 46.5885 219.025 44.316 221.906 43.7812" stroke="#DC8C7A" stroke-miterlimit="10"/>
<path d="M219.745 48.3258C219.745 48.3258 220.924 46.6548 222.365 46.5212" stroke="#DC8C7A" stroke-miterlimit="10"/>
<path d="M219.292 32.5952L219.47 38.9549" stroke="#6179AC" stroke-miterlimit="10"/>
<path d="M221.537 33.7466L221.614 38.2005" stroke="#6179AC" stroke-miterlimit="10"/>
<path d="M224.153 36.2863L224.309 38.9896L232.565 37.7174V35.3323L224.153 36.2863Z" fill="#8193BD"/>
<path d="M226.879 40.108L226.957 40.805L231.085 40.3131L231.008 39.6577L226.879 40.108Z" fill="#D3B886"/>
<path d="M245.806 4.84253C245.806 4.84253 246.858 6.86987 249.311 7.46615C251.765 8.06242 252.7 7.70466 253.868 9.61274C255.036 11.5208 257.607 15.5755 257.023 18.1991C256.438 20.8227 255.737 26.547 256.322 29.1706C256.906 31.7942 257.957 34.1793 257.84 36.4452" stroke="#814A5A" stroke-miterlimit="10"/>
<path d="M243.703 6.51204C243.703 6.51204 244.872 3.05364 248.961 1.98034C250.549 1.56342 252.011 1.3979 253.148 1.34399" stroke="#814A5A" stroke-miterlimit="10"/>
<path d="M248.26 3.88843C248.26 3.88843 249.896 5.43875 252.7 6.03502C255.504 6.6313 257.023 9.13566 257.724 10.686C258.425 12.2363 259.593 14.9792 258.892 18.4376C258.191 21.896 258.658 25.5929 259.359 27.501C260.06 29.4091 260.878 33.3445 260.294 35.1333" stroke="#814A5A" stroke-miterlimit="10"/>
<path d="M242.886 5.31958C242.886 5.31958 240.549 7.22766 239.965 10.209" stroke="#814A5A" stroke-miterlimit="10"/>
</svg>
