<svg width="238" height="211" viewBox="0 0 238 211" fill="none" xmlns="http://www.w3.org/2000/svg">
<path opacity="0.2" d="M51.7903 38.006C51.7903 38.006 91.163 -6.79908 136.884 14.9466C182.604 36.6923 143.591 56.458 151.715 55.8825C159.839 55.307 200.151 23.1816 216.904 73.1113C233.656 123.041 223.028 150.479 189.58 154.397C156.133 158.316 203.653 174.007 183.967 187.815C164.281 201.622 90.1391 218.619 72.8335 195.69C55.5279 172.761 72.9691 144.019 72.9691 144.019C72.9691 144.019 51.3325 180.922 32.7275 161.062C14.1224 141.202 14.0973 90.3478 32.9338 82.3657C51.7703 74.3837 65.5697 65.0089 56.3389 65.675C47.1075 66.3422 39.1295 52.0507 51.7903 38.006Z" fill="#6A8185"/>
<path d="M101.598 97.1528C101.598 97.1528 86.9032 96.1104 82.244 80.1836C77.5848 64.2568 61.2571 50.6975 58.6285 44.8453C55.9999 38.9932 76.6688 37.5928 88.2646 47.987C99.8604 58.3811 108.924 85.2048 101.598 97.1528Z" fill="#3E2D4A"/>
<path d="M99.6126 95.7525C99.0392 95.154 98.455 93.1183 97.5707 90.0366C95.214 81.8251 90.8272 66.5399 79.8509 56.0413C72.1755 48.7002 67.4498 45.6661 64.837 44.4138C62.0021 43.0549 60.976 43.441 60.9663 43.4451L60.866 43.2095C61.0313 43.1374 65.1289 41.6065 80.0276 55.8565C91.054 66.4031 95.4531 81.7314 97.8165 89.9664C98.6592 92.9017 99.2675 95.0224 99.7974 95.5759L99.6126 95.7525Z" fill="#FEFADA"/>
<path d="M77.2961 53.5565C77.1015 53.5565 76.8854 53.3876 76.7257 53.2447C74.2333 51.0139 64.2068 51.2208 64.1064 51.2244L64.1003 50.9684C64.517 50.9592 74.3295 50.7559 76.8962 53.0543C77.1609 53.2913 77.2904 53.3164 77.3196 53.2939C77.8541 52.9314 75.8241 47.3905 74.8482 44.7281C74.2625 43.1307 73.9302 42.2147 73.9015 41.9674L74.156 41.9382C74.1821 42.1676 74.6019 43.3135 75.0883 44.6401C77.0826 50.0821 78.0518 53.107 77.4635 53.5058C77.4113 53.5412 77.3544 53.5565 77.2961 53.5565Z" fill="#FEFADA"/>
<path d="M86.6744 64.686C86.5044 64.686 86.3037 64.6148 86.0682 64.472C82.9552 62.5863 74.5768 63.771 74.4923 63.7833L74.456 63.5299C74.8036 63.4797 83.0105 62.3195 86.2008 64.2528C86.4916 64.4289 86.7005 64.473 86.8223 64.3844C87.4055 63.96 86.6913 60.9376 85.935 57.7376C85.081 54.1219 84.1123 50.0243 84.3038 47.259L84.5593 47.2764C84.3709 50.0034 85.3345 54.0809 86.1844 57.6787C87.1485 61.7589 87.6605 64.0915 86.9734 64.5913C86.8863 64.6547 86.7875 64.686 86.6744 64.686Z" fill="#FEFADA"/>
<path d="M93.4599 77.9502C93.2218 77.9502 93.0324 77.6702 92.9064 77.45C91.0407 74.1834 80.0194 71.6664 79.9083 71.6414L79.9646 71.392C80.4228 71.4954 91.2076 73.9597 93.1286 77.323C93.3478 77.707 93.4599 77.6952 93.4722 77.6927C93.958 77.578 94.1547 74.0836 94.3446 70.7039C94.5986 66.1906 94.914 60.5735 96.0137 57.4963L96.2549 57.5824C95.1674 60.6252 94.853 66.2218 94.6001 70.7187C94.339 75.3616 94.1731 77.791 93.531 77.9425C93.507 77.9472 93.4834 77.9502 93.4599 77.9502Z" fill="#FEFADA"/>
<path d="M97.1386 90.4368C95.9149 90.4368 93.4194 88.906 90.5845 87.1667C87.9564 85.5549 85.2392 83.8878 83.418 83.3907L83.4856 83.1439C85.3416 83.6503 88.0752 85.3271 90.7186 86.9491C93.6186 88.7283 96.6174 90.5664 97.455 90.1179C97.5968 90.0416 97.6695 89.891 97.6777 89.6576C97.7827 86.6885 102.347 76.1674 102.541 75.7214L102.775 75.8233C102.728 75.9324 98.0367 86.7458 97.9337 89.6668C97.922 89.995 97.8016 90.2223 97.5758 90.3436C97.4566 90.4066 97.3101 90.4368 97.1386 90.4368Z" fill="#FEFADA"/>
<path d="M106.949 118.893C106.949 118.893 120.506 113.129 119.733 96.5527C118.959 79.9762 129.99 61.8448 130.573 55.4555C131.155 49.0668 111.154 54.4638 103.569 68.0635C95.9835 81.6633 96.135 109.977 106.949 118.893Z" fill="#CA9661"/>
<path d="M108.371 116.923L108.138 116.816C108.459 116.121 108.346 113.917 108.188 110.868C107.745 102.312 106.92 86.3859 113.918 72.8271C123.381 54.4904 127.74 54.6204 127.926 54.6363L127.908 54.8918C127.873 54.8959 123.483 54.8513 114.146 72.9449C107.18 86.4417 108.002 102.322 108.444 110.854C108.609 114.055 108.718 116.171 108.371 116.923Z" fill="#FEFADA"/>
<path d="M115.655 69.7808C115.629 69.7808 115.604 69.7777 115.578 69.7701C114.892 69.5842 114.824 66.4093 114.94 60.615C114.968 59.2014 114.993 57.9807 114.943 57.7555L115.193 57.7007C115.247 57.9439 115.23 58.9187 115.196 60.6201C115.139 63.455 115.021 69.3543 115.644 69.5233C115.68 69.5304 115.793 69.469 115.966 69.1587C117.647 66.1507 126.992 63.1519 127.389 63.0255L127.466 63.2697C127.37 63.3004 117.821 66.3637 116.19 69.2842C116.068 69.5028 115.884 69.7808 115.655 69.7808Z" fill="#FEFADA"/>
<path d="M110.333 83.3676C110.285 83.3676 110.238 83.3605 110.19 83.3461C109.378 83.0968 109.103 80.7242 108.688 76.5524C108.322 72.8737 107.907 68.7045 106.842 66.187L107.079 66.0876C108.158 68.6405 108.575 72.8302 108.943 76.5273C109.269 79.7995 109.577 82.8899 110.266 83.1014C110.41 83.1444 110.593 83.0354 110.81 82.7747C113.199 79.9091 121.337 78.3372 121.682 78.2722L121.73 78.5236C121.646 78.5395 113.337 80.1436 111.007 82.9391C110.767 83.2258 110.545 83.3676 110.333 83.3676Z" fill="#FEFADA"/>
<path d="M108.302 98.1045C107.647 98.1045 106.702 95.864 104.97 91.6195C103.269 87.4492 101.151 82.2591 99.1333 79.7355L99.3335 79.5752C101.374 82.128 103.5 87.3371 105.207 91.5227C106.476 94.6331 107.788 97.8485 108.293 97.8485C108.297 97.8485 108.301 97.8485 108.304 97.848C108.317 97.8469 108.426 97.8234 108.509 97.3866C109.232 93.581 118.629 87.7436 119.029 87.4969L119.163 87.715C119.067 87.7749 109.462 93.7397 108.76 97.4348C108.708 97.7082 108.607 98.0753 108.329 98.1029C108.321 98.104 108.311 98.1045 108.302 98.1045Z" fill="#FEFADA"/>
<path d="M108.649 111.154C108.611 111.154 108.574 111.151 108.538 111.145C108.285 111.104 108.098 110.928 107.98 110.621C106.933 107.893 98.9797 99.1925 98.8998 99.1049L99.0888 98.9319C99.4175 99.2908 107.154 107.756 108.219 110.529C108.303 110.748 108.421 110.866 108.58 110.892C109.511 111.04 111.755 108.331 113.919 105.706C115.892 103.313 117.931 100.838 119.522 99.7552L119.666 99.9666C118.105 101.029 116.078 103.489 114.117 105.868C111.784 108.697 109.76 111.154 108.649 111.154Z" fill="#FEFADA"/>
<path d="M68.1215 169.045C68.1215 169.045 56.347 160.192 42.3822 169.157C28.4174 178.122 7.19964 177.645 1.37615 180.337C-4.44683 183.03 10.2348 197.646 25.8052 197.407C41.3762 197.168 65.8129 182.869 68.1215 169.045Z" fill="#CA9661"/>
<path d="M18.4519 186.224C3.70883 186.224 2.06121 183.184 1.99158 183.039L2.22198 182.926C2.24195 182.965 4.41999 186.78 24.7387 185.807C39.9098 185.084 53.2474 176.426 60.4128 171.774C63.1019 170.028 64.879 168.875 65.7043 168.799L65.7279 169.054C64.965 169.123 63.1141 170.325 60.5526 171.988C53.3667 176.653 39.9912 185.336 24.751 186.063C22.4224 186.175 20.3309 186.224 18.4519 186.224Z" fill="#FEFADA"/>
<path d="M11.1886 192.717L11.0156 192.529C11.1994 192.361 12.0514 191.887 13.5418 191.065C16.025 189.696 21.1916 186.846 21.0262 186.222C21.0165 186.187 20.9079 186.125 20.549 186.125C20.5362 186.125 20.5229 186.126 20.5096 186.126C17.0485 186.126 9.82927 179.585 9.52258 179.305L9.69513 179.116C9.76937 179.184 17.1473 185.87 20.5091 185.87C20.5378 185.87 20.5649 185.869 20.5946 185.869C20.867 185.869 21.2074 185.906 21.274 186.157C21.4563 186.844 18.7406 188.491 13.6662 191.29C12.4277 191.972 11.3586 192.561 11.1886 192.717Z" fill="#FEFADA"/>
<path d="M22.5427 195.511L22.3384 195.357C24.0086 193.144 27.4272 190.687 30.4439 188.519C33.1135 186.6 35.6356 184.787 35.4738 184.085C35.44 183.938 35.2531 183.834 34.9183 183.776C31.2421 183.142 25.8088 176.883 25.5794 176.617L25.7734 176.45C25.8287 176.515 31.3758 182.905 34.9618 183.524C35.4139 183.602 35.6632 183.767 35.7231 184.027C35.9141 184.855 33.9972 186.28 30.5934 188.726C27.591 190.885 24.1888 193.33 22.5427 195.511Z" fill="#FEFADA"/>
<path d="M38.1301 195.407L37.8915 195.314C39.0803 192.27 42.5266 187.822 45.296 184.25C47.3696 181.574 49.5139 178.808 49.2225 178.403C49.2154 178.392 49.1406 178.309 48.7203 178.456C45.0615 179.733 35.3069 174.52 34.8932 174.297L35.0145 174.072C35.1149 174.125 45.0851 179.456 48.6358 178.214C48.899 178.123 49.2671 178.027 49.4304 178.253C49.8154 178.788 48.347 180.731 45.4982 184.407C42.7396 187.967 39.3056 192.397 38.1301 195.407Z" fill="#FEFADA"/>
<path d="M55.0169 185.917L54.7726 185.84C54.9191 185.375 58.3761 174.441 60.2444 172.131C60.3913 171.949 60.4354 171.787 60.378 171.637C60.0411 170.749 56.5713 170.17 53.2156 169.61C50.1564 169.1 46.9933 168.573 45.2602 167.737L45.3713 167.507C47.0717 168.326 50.2164 168.851 53.2576 169.358C56.9978 169.982 60.228 170.521 60.6176 171.546C60.7083 171.786 60.6499 172.037 60.4436 172.292C58.606 174.563 55.0527 185.803 55.0169 185.917Z" fill="#FEFADA"/>
<path d="M142.029 178.07C142.029 178.07 129.446 170.409 116.424 180.694C103.401 190.979 82.2373 192.575 76.7051 195.824C71.173 199.073 87.2109 212.185 102.684 210.428C118.157 208.67 141.081 192.054 142.029 178.07Z" fill="#6E6C7B"/>
<path d="M86.917 200.419C78.8996 200.419 77.6478 198.563 77.5807 198.452L77.7998 198.319L77.6903 198.386L77.7988 198.318C77.8223 198.355 80.3629 201.935 100.489 198.988C115.517 196.787 127.946 186.868 134.623 181.539C137.129 179.539 138.785 178.218 139.599 178.062L139.647 178.313C138.895 178.457 137.17 179.834 134.783 181.739C128.087 187.083 115.623 197.03 100.526 199.241C94.6057 200.108 90.1948 200.419 86.917 200.419Z" fill="#FEFADA"/>
<path d="M87.6789 207.187L87.4884 207.016C87.6548 206.831 88.4566 206.277 89.859 205.314C92.1962 203.708 97.0607 200.367 96.835 199.762C96.8222 199.728 96.7049 199.673 96.3506 199.712C92.932 200.102 85.0451 194.251 84.7113 194.001L84.8644 193.796C84.9453 193.857 93.0037 199.822 96.3219 199.459C96.5984 199.427 96.9783 199.416 97.0746 199.673C97.3229 200.339 94.7813 202.244 90.0033 205.525C88.8385 206.325 87.833 207.016 87.6789 207.187Z" fill="#FEFADA"/>
<path d="M99.2511 208.86L99.0325 208.726C100.478 206.361 103.641 203.581 106.432 201.129C108.901 198.958 111.234 196.908 111.005 196.224C110.956 196.082 110.76 195.997 110.422 195.972C106.701 195.7 100.683 190.001 100.429 189.758L100.605 189.573C100.667 189.632 106.811 195.451 110.44 195.717C110.899 195.75 111.162 195.889 111.247 196.143C111.518 196.948 109.75 198.553 106.601 201.321C103.824 203.761 100.677 206.528 99.2511 208.86Z" fill="#FEFADA"/>
<path d="M114.754 207.233L114.508 207.164C115.394 204.018 118.39 199.256 120.797 195.43C122.6 192.564 124.463 189.602 124.134 189.228C124.126 189.218 124.044 189.143 123.64 189.33C120.125 190.961 109.906 186.721 109.473 186.54L109.571 186.304C109.676 186.348 120.119 190.678 123.532 189.098C123.785 188.98 124.141 188.849 124.326 189.059C124.762 189.554 123.49 191.63 121.014 195.566C118.615 199.379 115.63 204.123 114.754 207.233Z" fill="#FEFADA"/>
<path d="M130.635 196.14L130.384 196.086C130.484 195.61 132.857 184.39 134.491 181.91C134.62 181.714 134.648 181.549 134.576 181.405C134.154 180.554 130.643 180.316 127.249 180.087C124.155 179.878 120.956 179.661 119.149 178.999L119.238 178.759C121.01 179.408 124.19 179.624 127.266 179.831C131.05 180.087 134.317 180.309 134.806 181.292C134.92 181.522 134.886 181.777 134.706 182.051C133.097 184.491 130.659 196.023 130.635 196.14Z" fill="#FEFADA"/>
<path d="M171.333 178.07C171.333 178.07 183.915 170.409 196.938 180.694C209.96 190.979 231.124 192.575 236.656 195.824C242.188 199.073 226.15 212.185 210.677 210.428C195.204 208.67 172.28 192.054 171.333 178.07Z" fill="#3E2D4A"/>
<path d="M226.445 200.419C223.166 200.419 218.758 200.109 212.835 199.241C197.738 197.03 185.274 187.082 178.578 181.738C176.191 179.833 174.466 178.457 173.714 178.313L173.762 178.062C174.577 178.218 176.232 179.539 178.738 181.538C185.415 186.867 197.844 196.787 212.873 198.988C233 201.935 235.54 198.355 235.563 198.318L235.781 198.452C235.713 198.563 234.46 200.419 226.445 200.419Z" fill="#FEFADA"/>
<path d="M225.683 207.187C225.528 207.016 224.523 206.325 223.359 205.526C218.58 202.244 216.038 200.339 216.287 199.673C216.383 199.415 216.761 199.426 217.04 199.458C220.365 199.822 228.416 193.857 228.497 193.796L228.65 194.001C228.317 194.25 220.427 200.104 217.011 199.712C216.661 199.673 216.54 199.726 216.527 199.762C216.302 200.367 221.167 203.709 223.505 205.314C224.906 206.277 225.707 206.83 225.874 207.016L225.683 207.187Z" fill="#FEFADA"/>
<path d="M214.111 208.86C212.685 206.528 209.537 203.761 206.761 201.321C203.612 198.553 201.844 196.948 202.114 196.143C202.199 195.889 202.464 195.75 202.921 195.717C206.551 195.451 212.694 189.632 212.756 189.573L212.933 189.758C212.679 190.001 206.661 195.699 202.94 195.972C202.601 195.997 202.405 196.082 202.357 196.224C202.127 196.908 204.459 198.958 206.93 201.129C209.72 203.581 212.883 206.361 214.329 208.726L214.111 208.86Z" fill="#FEFADA"/>
<path d="M198.607 207.233C197.731 204.123 194.746 199.378 192.347 195.566C189.871 191.63 188.6 189.553 189.035 189.059C189.22 188.849 189.577 188.98 189.83 189.098C193.244 190.681 203.685 186.348 203.79 186.304L203.889 186.54C203.455 186.721 193.237 190.961 189.721 189.33C189.317 189.142 189.236 189.217 189.227 189.228C188.897 189.602 190.761 192.565 192.564 195.43C194.972 199.256 197.968 204.018 198.853 207.164L198.607 207.233Z" fill="#FEFADA"/>
<path d="M182.727 196.14C182.703 196.023 180.263 184.491 178.657 182.05C178.476 181.776 178.442 181.521 178.556 181.292C179.044 180.308 182.312 180.087 186.096 179.831C189.172 179.623 192.352 179.408 194.124 178.759L194.212 178.999C192.406 179.661 189.207 179.878 186.113 180.086C182.719 180.316 179.209 180.553 178.786 181.405C178.715 181.549 178.742 181.714 178.871 181.909C180.504 184.39 182.878 195.61 182.978 196.086L182.727 196.14Z" fill="#FEFADA"/>
<path d="M162.843 83.3407C162.843 83.3407 177.293 86.2043 185.981 72.0659C194.669 57.9276 213.991 49.1458 218.068 44.1922C222.144 39.2386 202.574 32.4453 188.65 39.4198C174.727 46.3943 158.921 69.8848 162.843 83.3407Z" fill="#6A8185"/>
<path d="M165.127 82.5122L164.995 82.2926C165.652 81.8983 166.798 80.0126 168.383 77.4024C172.831 70.0808 181.111 56.4519 194.525 49.1805C212.652 39.3547 216.2 41.9116 216.341 42.0248L216.182 42.226C216.172 42.2193 215.286 41.5763 212.193 42.141C209.342 42.6617 203.984 44.3441 194.646 49.4053C181.293 56.6434 173.037 70.2339 168.601 77.5351C166.937 80.2758 165.838 82.0857 165.127 82.5122Z" fill="#FEFADA"/>
<path d="M211.105 48.9041C211.008 48.8749 201.392 46.0348 198.398 47.5304C198.15 47.6553 197.797 47.7971 197.619 47.5877C197.156 47.0476 198.887 44.3852 202.243 39.6604C203.062 38.5084 203.769 37.5131 203.854 37.2986L204.092 37.3938C204 37.6252 203.437 38.4214 202.452 39.8089C200.809 42.1206 197.392 46.9308 197.812 47.4213C197.836 47.4485 197.964 47.4613 198.284 47.3015C201.363 45.7604 210.778 48.539 211.178 48.6583L211.105 48.9041Z" fill="#FEFADA"/>
<path d="M197.778 58.2855C197.7 58.2512 189.929 54.9022 186.429 55.9017C185.986 56.0286 185.692 55.9872 185.525 55.7788C184.993 55.1158 186.101 53.0002 188.106 49.3179C189.873 46.0713 191.876 42.391 192.412 39.7107L192.663 39.7609C192.119 42.4791 190.107 46.1773 188.33 49.4402C186.759 52.3284 185.273 55.0558 185.724 55.6185C185.818 55.7363 186.032 55.7486 186.358 55.6554C189.944 54.6309 197.557 57.9102 197.879 58.0505L197.778 58.2855Z" fill="#FEFADA"/>
<path d="M175.832 66.969C175.781 66.969 175.732 66.9577 175.683 66.9311C175.103 66.6162 175.583 64.2283 176.553 59.6807C177.493 55.2759 178.663 49.7939 178.416 46.5724L178.671 46.553C178.922 49.8113 177.747 55.3133 176.804 59.7339C176.098 63.0445 175.367 66.4677 175.805 66.7063C175.817 66.7125 175.919 66.7565 176.235 66.4401C178.974 63.7009 190.027 64.1617 190.496 64.1842L190.485 64.4397C190.37 64.4351 179.076 63.961 176.416 66.6208C176.257 66.779 176.039 66.969 175.832 66.969Z" fill="#FEFADA"/>
<path d="M169.557 78.1065C169.077 78.1065 168.72 78.0225 168.516 77.8295C168.331 77.6534 168.274 77.402 168.35 77.0825C169.019 74.2373 167.34 62.5704 167.324 62.4526L167.576 62.4163C167.647 62.8981 169.279 74.2496 168.598 77.1414C168.545 77.3692 168.575 77.5336 168.693 77.6442C169.382 78.297 172.759 77.3134 176.026 76.3611C179.002 75.4927 182.081 74.5947 184.005 74.5947V74.8507C182.117 74.8507 179.057 75.7436 176.097 76.6069C173.388 77.3969 170.953 78.1065 169.557 78.1065Z" fill="#FEFADA"/>
<path d="M52.4097 141.759C52.4097 141.759 37.6805 141.986 31.6671 126.519C25.6536 111.052 8.21952 98.9493 5.09683 93.345C1.97414 87.7406 22.4459 84.5662 34.8932 93.9235C47.3404 103.281 58.6802 129.224 52.4097 141.759Z" fill="#6A8185"/>
<path d="M50.311 140.535C49.6884 139.988 48.9312 138.01 47.7843 135.017C44.7292 127.038 39.0429 112.187 27.2034 102.673C18.9249 96.0192 13.9554 93.4034 11.2444 92.3804C8.30245 91.2704 7.3148 91.744 7.30507 91.7486L7.18475 91.5228C7.34501 91.4368 11.2915 89.5562 27.3642 102.473C39.2575 112.031 44.9601 126.924 48.0239 134.925C49.116 137.776 49.905 139.837 50.48 140.343L50.311 140.535Z" fill="#FEFADA"/>
<path d="M24.4146 100.418C24.2272 100.418 24.0127 100.277 23.8499 100.155C21.1731 98.1466 11.2035 99.2172 11.1031 99.2284L11.075 98.974C11.4892 98.9284 21.2479 97.8814 24.003 99.9504C24.2876 100.164 24.4177 100.177 24.4453 100.153C24.9466 99.7456 22.447 94.4013 21.2458 91.8326C20.5249 90.291 20.1143 89.4067 20.0646 89.1625L20.3155 89.1113C20.3611 89.3376 20.8787 90.4436 21.4778 91.7241C23.9323 96.9736 25.1585 99.9033 24.6066 100.351C24.5493 100.398 24.4842 100.418 24.4146 100.418Z" fill="#FEFADA"/>
<path d="M22.5325 110.847L22.4741 110.598C22.8161 110.518 30.8924 108.657 34.2378 110.307C34.5425 110.457 34.7534 110.483 34.8681 110.385C35.4124 109.912 34.4406 106.962 33.4115 103.839C32.2487 100.311 30.9313 96.3115 30.8837 93.54L31.1397 93.5354C31.1863 96.2679 32.4975 100.248 33.6547 103.759C34.9664 107.741 35.6771 110.021 35.0355 110.578C34.8333 110.753 34.5353 110.74 34.1237 110.537C30.8617 108.926 22.6154 110.828 22.5325 110.847Z" fill="#FEFADA"/>
<path d="M42.6223 123.329C42.3955 123.329 42.1933 123.078 42.054 122.877C39.9138 119.783 28.7169 118.224 28.6038 118.209L28.6381 117.955C29.1035 118.019 40.0603 119.546 42.2639 122.731C42.5168 123.097 42.6269 123.073 42.6382 123.07C43.1123 122.914 43.0073 119.416 42.9055 116.032C42.7698 111.514 42.6008 105.89 43.4313 102.729L43.6786 102.795C42.8573 105.92 43.0258 111.522 43.1609 116.024C43.3002 120.672 43.3442 123.107 42.7175 123.313C42.6863 123.325 42.6541 123.329 42.6223 123.329Z" fill="#FEFADA"/>
<path d="M47.2447 135.458C45.9713 135.458 43.439 134.19 40.5774 132.758C37.8208 131.379 34.9695 129.952 33.113 129.613L33.1591 129.361C35.0519 129.706 37.9191 131.141 40.6921 132.53C43.7344 134.052 46.8801 135.628 47.6763 135.106C47.811 135.018 47.8704 134.862 47.8586 134.628C47.7075 131.662 51.3484 120.786 51.5035 120.324L51.7462 120.406C51.7083 120.519 47.9656 131.696 48.1141 134.615C48.131 134.943 48.0306 135.18 47.8161 135.32C47.6727 135.414 47.4802 135.458 47.2447 135.458Z" fill="#FEFADA"/>
<path d="M175.131 164.749C175.131 164.749 189.581 167.612 198.269 153.474C206.957 139.336 226.279 130.554 230.356 125.6C234.432 120.647 214.862 113.853 200.938 120.828C187.015 127.802 171.209 151.293 175.131 164.749Z" fill="#3E2D4A"/>
<path d="M177.415 163.921L177.283 163.701C177.94 163.306 179.086 161.421 180.671 158.811C185.119 151.488 193.399 137.859 206.813 130.588C224.941 120.762 228.487 123.319 228.629 123.433L228.47 123.634C228.461 123.627 227.573 122.984 224.481 123.549C221.63 124.07 216.272 125.752 206.934 130.813C193.581 138.051 185.325 151.642 180.889 158.943C179.225 161.684 178.126 163.494 177.415 163.921Z" fill="#FEFADA"/>
<path d="M223.393 130.312C223.296 130.283 213.68 127.442 210.686 128.938C210.438 129.062 210.085 129.205 209.907 128.995C209.444 128.455 211.175 125.792 214.532 121.067C215.351 119.915 216.057 118.921 216.143 118.707L216.381 118.802C216.288 119.033 215.726 119.829 214.741 121.216C213.099 123.528 209.681 128.339 210.101 128.829C210.125 128.856 210.253 128.869 210.573 128.709C213.655 127.167 223.067 129.947 223.467 130.067L223.393 130.312Z" fill="#FEFADA"/>
<path d="M210.066 139.693C209.988 139.659 202.219 136.312 198.717 137.31C198.275 137.437 197.98 137.395 197.813 137.187C197.281 136.524 198.389 134.408 200.394 130.726C202.161 127.479 204.164 123.799 204.7 121.119L204.951 121.169C204.407 123.888 202.395 127.586 200.618 130.849C199.046 133.737 197.561 136.464 198.012 137.027C198.106 137.144 198.32 137.156 198.646 137.063C202.232 136.037 209.845 139.318 210.167 139.458L210.066 139.693Z" fill="#FEFADA"/>
<path d="M188.12 148.377C188.069 148.377 188.02 148.366 187.971 148.339C187.391 148.024 187.871 145.636 188.841 141.089C189.781 136.683 190.951 131.202 190.704 127.98L190.959 127.96C191.21 131.219 190.035 136.721 189.092 141.141C188.386 144.452 187.655 147.875 188.094 148.114C188.105 148.12 188.21 148.161 188.523 147.848C191.262 145.108 202.316 145.57 202.784 145.591L202.773 145.847C202.658 145.841 191.364 145.368 188.704 148.029C188.545 148.187 188.327 148.377 188.12 148.377Z" fill="#FEFADA"/>
<path d="M181.845 159.514C181.365 159.514 181.008 159.43 180.804 159.237C180.619 159.061 180.562 158.809 180.638 158.49C181.307 155.645 179.628 143.978 179.612 143.861L179.864 143.824C179.935 144.306 181.567 155.658 180.886 158.549C180.833 158.777 180.863 158.942 180.981 159.052C181.671 159.705 185.048 158.721 188.314 157.769C191.291 156.901 194.369 156.003 196.293 156.003V156.259C194.405 156.259 191.345 157.151 188.386 158.014C185.676 158.805 183.242 159.514 181.845 159.514Z" fill="#FEFADA"/>
<path d="M74.4033 108.939C74.4033 108.939 72.3522 84.6397 87.5448 82.134C100.442 80.0066 110.722 85.763 115.78 98.7817C120.837 111.8 77.7569 112.871 74.4033 108.939Z" fill="#6A8185"/>
<path d="M42.82 68.8608C42.82 68.8608 47.5115 78.0584 51.8235 77.3769C56.1356 76.6955 57.9266 70.7547 64.8959 73.2067C71.8653 75.6582 78.2356 90.2901 84.9433 92.3662C91.651 94.4424 80.5775 109.844 80.5775 109.844C80.5775 109.844 26.6598 113.238 24.4653 109.282C22.2709 105.327 39.0292 85.378 40.6635 84.142C44.4344 81.2896 39.0317 76.3816 39.0317 76.3816L42.82 68.8608Z" fill="#E7BD9F"/>
<path d="M42.8093 62.5616C42.8093 62.5616 48.6072 74.2578 42.3761 76.6053C38.0902 78.2201 33.3465 71.5749 33.305 67.7236C33.2636 63.8724 39.2964 60.7364 42.8093 62.5616Z" fill="#E7BD9F"/>
<path d="M38.021 71.0574C38.2305 70.9783 38.3177 70.695 38.2156 70.4246C38.1136 70.1543 37.861 69.9992 37.6515 70.0783C37.442 70.1573 37.3548 70.4406 37.4569 70.711C37.5589 70.9814 37.8115 71.1365 38.021 71.0574Z" fill="#34263B"/>
<path d="M41.9854 69.5613C42.1949 69.4822 42.282 69.1989 42.18 68.9285C42.078 68.6582 41.8254 68.5031 41.6158 68.5822C41.4063 68.6612 41.3192 68.9445 41.4212 69.2149C41.5233 69.4853 41.7758 69.6404 41.9854 69.5613Z" fill="#34263B"/>
<path d="M44.4876 68.6129C44.4876 68.6129 44.4159 66.2726 45.6734 66.8327C46.9309 67.3928 46.8443 70.2677 45.9576 70.5867C45.0718 70.9051 44.3888 69.6159 44.4876 68.6129Z" fill="#E7BD9F"/>
<path d="M40.7613 67.1445C40.7613 67.1445 41.5497 66.5183 42.4903 67.3708C43.0386 67.8685 39.8586 67.7922 40.7613 67.1445Z" fill="#A0444E"/>
<path d="M37.3754 68.3298C37.3754 68.3298 36.3749 68.2187 36.0309 69.4403C35.8307 70.153 38.4838 68.3984 37.3754 68.3298Z" fill="#A0444E"/>
<path d="M35.5363 72.0838C35.5363 72.0838 34.053 70.2718 33.4724 71.5206C32.8918 72.7694 34.8461 74.8798 35.7237 74.5378C36.6018 74.1963 36.27 72.7755 35.5363 72.0838Z" fill="#E7BD9F"/>
<path d="M33.5943 64.6431C33.5943 64.6431 35.8036 69.2582 34.607 71.636C34.607 71.636 27.7181 69.7748 33.5943 64.6431Z" fill="#A0444E"/>
<path d="M40.8611 72.6173C40.5221 72.6173 39.8233 72.3515 39.47 71.8887L39.6732 71.733C39.9825 72.138 40.5866 72.3413 40.8206 72.3618C40.7469 72.0162 40.2467 70.7951 39.7557 69.7009L39.9891 69.5959C40.7802 71.3598 41.1442 72.3423 41.0705 72.5169L40.985 72.5998C40.9532 72.6116 40.9112 72.6173 40.8611 72.6173Z" fill="#C87D79"/>
<path d="M40.8468 74.1191C39.9451 74.1191 39.0041 73.4285 38.9554 73.3926L39.108 73.1873C39.1218 73.1975 40.4597 74.178 41.348 73.7592C41.8416 73.5257 42.1176 72.8914 42.1677 71.874L42.4232 71.8863C42.3679 73.0061 42.0428 73.7142 41.4566 73.9906C41.2635 74.0818 41.0562 74.1191 40.8468 74.1191Z" fill="#C87D79"/>
<path d="M35.4861 73.7508C34.8988 72.3111 34.2307 72.3735 34.2245 72.3715L34.1882 72.1181C34.2215 72.1119 35.0509 72.0075 35.7237 73.6541L35.4861 73.7508Z" fill="#C87D79"/>
<path d="M45.4537 69.982C44.87 68.3006 45.5617 67.8336 45.5919 67.8147L45.7317 68.0287C45.7261 68.0323 45.1854 68.4281 45.6959 69.8975L45.4537 69.982Z" fill="#C87D79"/>
<path d="M34.2071 81.5539C34.2071 81.5539 34.0822 79.4373 32.3731 77.9576C30.6641 76.4779 28.8178 74.2661 29.872 74.7684C30.9262 75.2706 32.259 76.1036 32.259 76.1036C32.259 76.1036 30.3472 74.2528 30.6467 73.9978C30.9462 73.7428 33.54 74.9829 33.54 74.9829C33.54 74.9829 31.2432 73.6696 32.1648 73.2324C33.0858 72.7946 39.2836 78.1527 38.256 80.0696C36.9975 82.4161 37.0574 82.5339 34.2071 81.5539Z" fill="#E7BD9F"/>
<path d="M76.9991 107.858C76.9991 107.858 78.9933 94.1234 82.8262 92.3662C86.659 90.6095 124.148 102.409 128.939 102.888C133.73 103.366 136.864 107.702 136.514 108.537C136.164 109.372 130.302 109.669 127.863 110.148C125.425 110.627 76.6822 116.961 76.9991 107.858Z" fill="#6A8185"/>
<path d="M80.5411 92.8962C80.5411 92.8962 78.6477 87.1096 81.8431 84.3591C93.1271 74.6455 123.841 95.553 129.15 100.424C132.699 103.679 140.224 107.14 139.726 107.896C139.228 108.653 132.025 104.729 129.54 104.752C127.055 104.774 78.5561 101.786 80.5411 92.8962Z" fill="#6A8185"/>
<path d="M33.092 78.7292C33.092 78.7292 37.7538 78.3759 38.4439 78.6964C39.1346 79.0169 39.92 108.474 36.8337 110.148C33.7474 111.822 25.9133 112.153 23.214 110.284C20.5147 108.416 31.0532 77.5895 33.092 78.7292Z" fill="#C87D79"/>
<path d="M41.668 83.0021C41.668 83.0021 50.7232 89.5962 51.8235 77.3768C51.8235 77.3768 58.5261 71.6736 63.6231 71.6352C71.8069 71.5738 74.1093 83.5915 81.8431 84.3584C84.9965 84.6713 80.7925 111.245 80.7925 111.245C80.7925 111.245 33.0577 112.282 30.6165 111.586C28.1753 110.89 29.6795 93.6456 31.3174 91.2848C32.9553 88.9245 40.2498 82.5383 41.668 83.0021Z" fill="#C87D79"/>
<path d="M39.0317 76.3811C39.0317 76.3811 41.8104 79.9297 43.9055 79.6107C46.0006 79.2913 46.1992 73.9905 46.1992 73.9905L45.2623 72.7827C45.2623 72.7827 45.2623 78.9344 39.0317 76.3811Z" fill="#C87D79"/>
<path d="M32.0014 63.1925C32.0014 63.1925 32.8816 60.8316 36.2495 59.4185C39.6174 58.0059 44.2188 55.8299 44.4779 56.8539C44.7369 57.8779 43.675 60.2024 43.675 60.2024C43.675 60.2024 46.2376 58.3305 46.0174 59.7339C45.7973 61.1373 44.9919 64.3245 39.9779 65.8139C34.9639 67.3033 29.7497 67.2112 32.0014 63.1925Z" fill="#A0444E"/>
<path d="M41.3757 61.9605C41.3757 61.9605 43.1794 68.0891 44.6919 67.6944C44.6919 67.6944 45.4348 64.584 44.4779 62.8698C43.521 61.1556 41.3757 61.9605 41.3757 61.9605Z" fill="#A0444E"/>
<path d="M36.502 108.005L36.3663 107.787C39.0737 106.102 38.8525 85.3399 38.85 85.1305L39.106 85.1274C39.1167 85.9886 39.3308 106.243 36.502 108.005Z" fill="#A34D5B"/>
<path d="M47.3246 85.9165C43.9909 85.9165 40.6414 84.2734 40.6066 84.256L40.7208 84.0267C40.7556 84.0441 44.2981 85.7797 47.6768 85.6538C50.8497 85.5365 52.3606 80.0827 52.675 77.9912L52.9279 78.0291C52.7979 78.8933 52.3642 80.8082 51.5629 82.4999C50.5184 84.7056 49.2144 85.853 47.6861 85.9098C47.5657 85.9144 47.4449 85.9165 47.3246 85.9165Z" fill="#A34D5B"/>
<path d="M48.7546 90.796C48.7546 90.796 48.9942 84.0873 56.3558 80.3057C60.6479 78.101 61.5101 82.6312 61.7676 83.2973C62.0251 83.9634 50.6864 92.4646 49.0541 92.2947C47.4219 92.1242 32.5042 93.4067 32.1889 93.2378C31.874 93.0693 30.8152 90.5779 32.4182 89.3752C34.0213 88.172 45.7435 86.7605 48.7546 90.796Z" fill="#FEFADA"/>
<path d="M36.2859 109.418C36.2859 109.418 29.8608 92.0683 31.4849 91.4319C33.6931 90.5666 46.4322 90.6229 48.7546 90.796C48.7546 90.796 58.072 80.3835 60.9914 81.0352C63.9113 81.687 70.169 100.932 68.9699 101.014C67.7708 101.097 60.2741 107.091 54.253 109.716C54.253 109.716 37.934 110.15 36.2859 109.418Z" fill="#6A8185"/>
<path d="M64.3696 102.088C64.3696 102.088 60.9878 100.216 58.7304 100.107C56.4725 99.9975 53.6094 100.323 54.7194 100.688C55.8294 101.052 57.3685 101.369 57.3685 101.369C57.3685 101.369 54.7076 101.388 54.7481 101.78C54.7885 102.171 57.5216 103.064 57.5216 103.064C57.5216 103.064 54.9534 102.429 55.3179 103.382C55.6825 104.335 60.4461 104.589 62.2944 106.506C64.1423 108.422 67.1083 103.347 64.3696 102.088Z" fill="#E7BD9F"/>
<path d="M62.5555 83.2773C59.0217 79.2955 61.6211 73.8673 61.6478 73.813L61.8776 73.9256C61.8515 73.9789 59.3284 79.2555 62.747 83.1073L62.5555 83.2773Z" fill="#A34D5B"/>
<path d="M59.9756 98.0704C59.9756 98.0704 57.9338 104.66 59.9756 106.933C62.0175 109.206 79.1828 103.446 81.0014 98.3765C82.82 93.3067 80.0696 88.8129 76.9976 88.8385C73.9256 88.8641 69.0575 95.4243 59.9756 98.0704Z" fill="#C87D79"/>
<path d="M65.3818 108.366C64.4034 108.366 63.4178 108.258 62.4342 108.021L62.4941 107.772C68.1374 109.136 73.9179 106.156 77.4455 102.912C79.9211 100.636 81.371 98.1937 81.1386 96.691C80.5564 92.9237 75.5235 82.9873 75.4728 82.8875L75.7006 82.7712C75.909 83.1808 80.8032 92.8438 81.3915 96.6516C81.6368 98.2362 80.1555 100.768 77.6186 103.1C74.6551 105.826 70.1173 108.366 65.3818 108.366Z" fill="#A34D5B"/>
<path d="M67.6955 94.4823L67.5117 94.3041C67.9874 93.812 72.5012 90.2086 74.2711 89.5374L74.3618 89.777C72.6194 90.4375 68.1655 93.9959 67.6955 94.4823Z" fill="#A34D5B"/>
<path d="M34.2302 90.3079L34.1836 90.0565C34.5707 89.9848 43.7032 88.3249 47.3809 90.0668L47.2713 90.2982C43.6663 88.5912 34.3239 90.29 34.2302 90.3079Z" fill="#FEFADA"/>
<path d="M52.1614 91.3986C52.1614 91.3986 61.3052 86.0385 61.7717 85.1425C61.9355 84.8276 63.6231 90.1826 63.6231 90.1826C63.6231 90.1826 54.9908 94.9867 54.4721 95.0569C53.9534 95.127 52.4174 92.4073 52.1614 91.3986Z" fill="#FEFADA"/>
<path d="M63.5089 106.991C61.7901 103.572 62.3139 97.4607 62.3369 97.2021L62.5919 97.2252C62.5863 97.2877 62.0517 103.522 63.7373 106.875L63.5089 106.991Z" fill="#A34D5B"/>
<path d="M38.7004 82.7627C36.8726 82.0592 31.6128 82.2594 31.5591 82.2615L31.5488 82.0055C31.7664 81.9968 36.9156 81.8017 38.7921 82.5236L38.7004 82.7627Z" fill="#A34D5B"/>
<path d="M32.3711 76.165L32.1464 76.0421C32.1607 76.016 32.5068 75.3949 33.4791 74.8696L33.6004 75.0949C32.7003 75.5813 32.3747 76.1594 32.3711 76.165Z" fill="#C87D79"/>
<path d="M108.313 87.387C103.1 84.8987 94.1368 83.5998 87.7921 86.0942L87.6984 85.8561C94.1091 83.3356 103.161 84.6448 108.423 87.1566L108.313 87.387Z" fill="#515562"/>
<path d="M127.755 99.2434C127.755 99.2434 126.428 105.553 127.957 106.043C129.486 106.532 136.964 104.435 139.016 105.479C141.068 106.522 142.529 108.324 142.311 105.759C142.092 103.193 139.429 100.828 136.792 100.091C134.156 99.354 127.755 99.2434 127.755 99.2434Z" fill="#44324E"/>
<path d="M127.767 105.601C127.767 105.601 127.213 109.354 128.742 109.844C130.271 110.333 135.837 108.8 137.889 109.844C139.941 110.887 143.607 112.778 143.389 110.213C143.17 107.648 140.507 105.282 137.87 104.545C135.234 103.808 127.767 105.601 127.767 105.601Z" fill="#44324E"/>
<path d="M85.1854 86.4788C85.1854 86.4788 78.915 104.077 79.256 111.245C79.3881 114.02 90.4427 113.072 94.0901 112.89C97.7376 112.708 86.5387 89.4438 85.1854 86.4788Z" fill="#6A8185"/>
<path d="M81.9101 99.3422C81.1421 98.7068 81.7914 95.8565 82.3643 93.3415C82.5967 92.3211 82.8164 91.3575 82.8824 90.76C83.1031 88.7627 85.0067 86.4915 85.0881 86.3958L85.2837 86.5611C85.2643 86.5837 83.3489 88.8687 83.1374 90.7877C83.0698 91.3995 82.8589 92.3252 82.6147 93.3979C82.1134 95.5974 81.4273 98.6095 82.074 99.144L81.9101 99.3422Z" fill="#515562"/>
<path d="M33.4089 65.7551L33.2825 65.5324C33.4125 65.4581 36.4845 63.7235 37.8685 63.7235C40.8253 63.7235 42.52 62.6821 42.9055 60.6279L43.1569 60.675C42.7458 62.8679 40.9666 63.9795 37.8685 63.9795C36.5511 63.9795 33.4402 65.7372 33.4089 65.7551Z" fill="#863A42"/>
<path d="M32.6025 64.8553L32.3818 64.7253C32.451 64.608 34.0986 61.857 36.3416 61.2534C37.2392 61.0112 37.9534 61.0834 38.5284 61.1418C39.4152 61.2304 39.9502 61.2851 40.5298 60.2473L40.7535 60.3722C40.0926 61.5565 39.3906 61.4853 38.5028 61.3962C37.9201 61.3374 37.2602 61.2708 36.4087 61.5002C34.2665 62.0772 32.6189 64.8277 32.6025 64.8553Z" fill="#863A42"/>
<path d="M33.4791 70.5883C33.4437 70.4747 32.6158 67.799 33.0592 66.8687L33.2901 66.9787C32.8897 67.8194 33.7151 70.4854 33.7233 70.5121L33.4791 70.5883Z" fill="#863A42"/>
<path d="M44.228 66.607C43.9438 65.1851 43.2977 64.6383 43.291 64.6332L43.4528 64.4351C43.482 64.4586 44.1747 65.0361 44.4789 66.5573L44.228 66.607Z" fill="#863A42"/>
<path d="M132.318 105.447C132.221 105.109 131.498 103.831 131.13 103.203L131.351 103.074C131.395 103.149 132.434 104.924 132.564 105.377L132.318 105.447Z" fill="#FEFADA"/>
<path d="M134.587 105.556L134.334 105.52C134.453 104.692 133.478 103.095 133.468 103.079L133.686 102.945C133.729 103.013 134.719 104.637 134.587 105.556Z" fill="#FEFADA"/>
<path d="M132.949 110.056C132.853 109.719 132.13 108.441 131.762 107.813L131.983 107.683C132.027 107.758 133.066 109.533 133.195 109.986L132.949 110.056Z" fill="#FEFADA"/>
<path d="M135.219 110.165L134.966 110.13C135.084 109.302 134.11 107.705 134.1 107.688L134.318 107.554C134.36 107.623 135.351 109.247 135.219 110.165Z" fill="#FEFADA"/>
<path d="M127.764 105.729C127.533 105.724 104.509 105.192 94.0707 103.568C85.0794 102.169 83.0048 100.258 82.9208 100.177L83.098 99.9919C83.1185 100.011 85.23 101.933 94.1101 103.315C104.532 104.936 127.539 105.468 127.771 105.473L127.764 105.729Z" fill="#515562"/>
<path d="M48.4489 90.8424C43.6264 89.0391 33.4642 90.2398 33.3623 90.2521L33.3316 89.9981C33.4345 89.9858 43.6592 88.7785 48.5385 90.6023L48.4489 90.8424Z" fill="#D3D0B1"/>
<path d="M49.8508 88.8897L49.6107 88.8006C51.2721 84.3272 57.1621 81.0847 57.2215 81.0525L57.3439 81.2773C57.2855 81.3095 51.4789 84.507 49.8508 88.8897Z" fill="#D3D0B1"/>
<path d="M54.2473 109.844C54.0983 109.844 53.892 109.689 50.7191 100.798C49.1376 96.3666 47.578 91.8763 47.5621 91.8318L47.8043 91.7478C50.2199 98.7043 53.9504 109.204 54.3251 109.615L54.2519 109.682L54.255 109.844C54.2524 109.844 54.2499 109.844 54.2473 109.844Z" fill="#515562"/>
<path d="M56.9062 108.984C56.1474 106.833 50.1831 90.4622 50.1227 90.2968L50.3633 90.2092C50.4237 90.3741 56.3885 106.747 57.1478 108.898L56.9062 108.984Z" fill="#515562"/>
<path d="M20.1778 142.56C20.1778 142.56 108.034 143.418 111.729 142.56C115.423 141.701 124.161 141.201 125.215 142.952C126.27 144.704 129.933 173.173 124.657 174.89C119.38 176.607 18.5952 175.462 16.4842 175.462C14.3733 175.462 15.6927 146.279 16.7479 144.849C17.8037 143.418 16.7484 143.131 20.1778 142.56Z" fill="#68818D"/>
<path d="M43.0729 150.513C43.0729 150.513 42.863 164.234 44.333 166.258C45.8029 168.282 107.545 168.057 109.645 167.608C111.745 167.158 110.485 150.063 110.485 150.063C110.485 150.063 42.8625 148.264 43.0729 150.513Z" fill="#493558"/>
<path d="M23.875 142.493L23.363 176.014C23.363 176.014 27.715 176.278 28.483 176.278C29.251 176.278 28.995 141.966 28.995 141.966L23.875 142.493Z" fill="#493558"/>
<path d="M33.347 142.477L32.835 174.989C32.835 174.989 37.187 175.245 37.955 175.245C38.723 175.245 38.467 141.965 38.467 141.965L33.347 142.477Z" fill="#493558"/>
<path d="M20.1778 110.792C20.1778 110.792 107.942 110.827 111.729 110.792C118.083 110.733 124.708 111.594 125.763 113.293C126.818 114.992 129.933 140.485 124.657 142.15C119.38 143.815 18.5952 142.705 16.4842 142.705C14.3733 142.705 15.6927 114.399 16.7479 113.012C17.8037 111.624 16.7484 111.347 20.1778 110.792Z" fill="#493558"/>
<path d="M15.939 116.621C15.939 116.621 109.123 116.877 110.147 118.669C111.171 120.461 112.451 136.845 107.843 138.381C103.235 139.917 17.219 140.429 14.915 138.893C12.611 137.357 12.611 117.133 15.939 116.621Z" fill="#FEFADA"/>
<path d="M78.4731 122.394C73.157 122.394 68.037 122.21 63.7628 122.057C60.1251 121.926 57.2512 121.824 55.366 121.869C44.9893 122.122 16.2298 122.378 15.9405 122.381L15.9379 122.125C16.2272 122.122 44.9852 121.866 55.3604 121.613C57.2522 121.567 60.1302 121.67 63.7726 121.801C69.0451 121.99 75.6064 122.227 82.2317 122.106C96.195 121.851 109.889 121.613 109.889 121.613L109.894 121.869C109.894 121.869 96.1996 122.107 82.2363 122.362C80.9768 122.385 79.7193 122.394 78.4731 122.394Z" fill="#D3D0B1"/>
<path d="M49.5666 127.676C36.7989 127.676 14.9498 127.251 14.6564 127.245L14.6616 126.989C15.0532 126.997 53.8705 127.751 58.1641 127.246C60.25 127.001 71.301 126.589 83.0002 126.152C95.4306 125.688 108.284 125.208 109.61 124.944L109.66 125.194C108.314 125.463 95.4505 125.944 83.01 126.407C71.3159 126.844 60.27 127.256 58.1944 127.5C57.1115 127.628 53.849 127.676 49.5666 127.676Z" fill="#D3D0B1"/>
<path d="M39.7321 131.567C27.609 131.567 14.5965 131.344 14.4009 131.341L14.4055 131.085C14.6994 131.091 43.9766 131.591 55.6139 131.085C65.6813 130.648 109.348 129.02 110.188 129.3L110.107 129.543C109.189 129.308 68.782 130.77 55.6251 131.341C51.7232 131.51 45.8398 131.567 39.7321 131.567Z" fill="#D3D0B1"/>
<path d="M39.6144 135.858C27.8112 135.858 16.1422 135.696 15.9374 135.693L15.941 135.437C16.302 135.443 52.1425 135.94 61.7533 135.182C65.4028 134.893 72.5815 134.784 80.1817 134.669C92.9397 134.474 107.4 134.254 110.098 133.143L110.196 133.38C107.452 134.509 92.9663 134.73 80.1853 134.925C72.5892 135.041 65.4141 135.149 61.7727 135.437C57.6194 135.765 48.578 135.858 39.6144 135.858Z" fill="#D3D0B1"/>
<path d="M89.4109 134.541C89.4109 134.541 80.195 122.509 81.219 121.997C82.243 121.485 98.6269 119.949 98.3709 121.485C98.1149 123.021 90.4349 134.541 89.4109 134.541Z" fill="#6A8185"/>
<path d="M75.587 143.245C75.587 143.245 66.371 131.213 67.395 130.701C68.419 130.189 84.803 128.653 84.547 130.189C84.291 131.725 76.611 143.245 75.587 143.245Z" fill="#CA9661"/>
<path d="M41.027 116.365C41.027 116.365 44.099 147.597 44.099 149.389C44.099 151.181 47.683 141.197 47.683 141.197C47.683 141.197 50.7652 149.434 51.715 149.047C52.6642 148.66 54.339 117.645 52.803 116.621C51.267 115.597 41.027 116.365 41.027 116.365Z" fill="#B94D59"/>
<path d="M216.553 72.3163C216.553 72.3163 228.468 161.065 229.768 164.849C231.067 168.632 231.657 183.385 222.761 183.664C220.685 183.729 203.294 190.978 200.83 177.54C199.777 171.796 185.244 74.2752 184.989 72.0572C184.734 69.8392 211.202 66.7386 212.751 67.6837C214.3 68.6289 215.57 68.7773 216.553 72.3163Z" fill="#CA9661"/>
<path d="M197.589 158.788C197.589 158.788 225.253 153.322 227.283 154.191C229.312 155.059 230.324 167.477 230.876 172.416C231.427 177.356 228.267 183.719 219.937 184.892C211.607 186.065 201.352 187.482 200.052 175.883C199.079 167.211 197.589 158.788 197.589 158.788Z" fill="#C37E59"/>
<path d="M189.94 71.4642C189.94 71.4642 204.627 176.689 206.936 178.502C209.246 180.316 224.231 177.712 224.497 175.543C225.04 171.126 210.507 70.0086 208.879 68.2263C207.252 66.444 188.731 67.9923 189.94 71.4642Z" fill="#FEFADA"/>
<path d="M211.127 179.617C208.607 176.391 192.633 73.9469 191.953 69.5878L192.206 69.5483C192.373 70.6153 208.849 176.287 211.328 179.459L211.127 179.617Z" fill="#D3D0B1"/>
<path d="M217.472 176.724C217.345 175.749 204.769 79.1226 202.631 68.0091L202.882 67.9604C205.022 79.0821 217.599 175.715 217.726 176.69L217.472 176.724Z" fill="#D3D0B1"/>
<path d="M221.671 178.23L221.416 178.218C221.675 172.51 208.883 69.2836 208.754 68.2412L209.007 68.2095C209.136 69.2524 221.932 172.501 221.671 178.23Z" fill="#D3D0B1"/>
<path d="M215.729 178.005C215.542 177.001 197.026 77.4361 197.467 67.7439L197.723 67.7557C197.283 77.4186 215.794 176.954 215.98 177.959L215.729 178.005Z" fill="#D3D0B1"/>
<path d="M188.365 75.6442C188.365 75.6442 188.909 165.187 189.718 169.106C190.526 173.024 189.238 187.733 180.378 186.879C178.311 186.68 160.139 191.661 159.402 178.019C159.088 172.187 157.061 73.6106 157.09 71.3777C157.118 69.1449 183.766 69.4316 185.182 70.5662C186.598 71.7013 187.84 72.009 188.365 75.6442Z" fill="#6E6C7B"/>
<path d="M158.571 159.006C158.571 159.006 186.705 157.099 188.607 158.218C190.51 159.337 189.229 171.178 189.149 176.147C189.069 181.117 185.832 187.633 177.421 187.738C169.01 187.843 158.773 187.892 159.755 176.26C160.498 167.455 158.571 159.006 158.571 159.006Z" fill="#57495B"/>
<path d="M162.076 71.418C162.076 71.418 163.278 177.656 165.338 179.748C167.398 181.84 182.592 181.161 183.133 179.043C184.232 174.731 182.662 72.5869 181.275 70.6121C179.886 68.6373 161.318 67.8207 162.076 71.418Z" fill="#FEFADA"/>
<path d="M169.353 181.387C167.263 177.867 164.432 74.2229 164.312 69.8131L164.568 69.8059C164.597 70.8852 167.517 177.794 169.572 181.256L169.353 181.387Z" fill="#D3D0B1"/>
<path d="M176.014 179.323C176.012 178.34 175.812 80.8988 175.103 69.603L175.358 69.5872C176.069 80.8901 176.268 178.339 176.27 179.322L176.014 179.323Z" fill="#D3D0B1"/>
<path d="M179.987 181.35L179.735 181.306C180.718 175.678 181.142 71.6619 181.146 70.6118L181.402 70.6128C181.398 71.663 180.974 175.7 179.987 181.35Z" fill="#D3D0B1"/>
<path d="M174.121 180.373C174.064 179.352 168.345 78.2426 170.015 68.6846L170.267 68.7286C168.603 78.2579 174.32 179.339 174.377 180.358L174.121 180.373Z" fill="#D3D0B1"/>
<path d="M157.867 73.3899C157.867 73.3899 158.647 166.331 159.627 170.223C160.607 174.115 161.305 183.349 159.47 184.494C157.635 185.64 127.545 190.003 125.625 184.451C123.705 178.899 122.98 72.2794 122.94 70.0471C122.899 67.8148 153.841 68.7092 155.376 69.8013C156.912 70.8934 157.195 69.7721 157.867 73.3899Z" fill="#493558"/>
<path d="M122.874 76.9412C122.874 76.9412 153.977 76.9412 156.508 76.9412C156.508 76.9412 156.87 81.4442 156.508 81.4442C156.147 81.4442 124.501 81.8195 123.416 81.5691C122.332 81.3193 122.874 76.9412 122.874 76.9412Z" fill="#B94D59"/>
<path d="M122.874 84.9734C122.874 84.9734 153.977 84.9734 156.508 84.9734C156.508 84.9734 156.87 89.4764 156.508 89.4764C156.147 89.4764 124.501 89.8517 123.416 89.6014C122.332 89.3515 122.874 84.9734 122.874 84.9734Z" fill="#B94D59"/>
<path d="M132.646 98.3115C132.646 98.3115 148.375 98.3115 149.655 98.3115C149.655 98.3115 150.181 160.397 149.998 160.397C149.816 160.397 133.47 162.328 132.921 159.045C132.372 155.763 132.646 98.3115 132.646 98.3115Z" fill="#B94D59"/>
<path d="M113.874 39.4494C113.874 39.4494 116.408 44.4542 122.749 48.6782C129.091 52.9022 136.515 44.0636 136.515 44.0636C136.515 44.0636 116.577 37.5166 113.874 39.4494Z" fill="#E7BD9F"/>
<path d="M157.482 14.5508C157.482 14.5508 155.898 20.512 156.528 22.5395C157.158 24.567 164.624 25.1164 167.068 28.0998C169.511 31.0833 162.602 58.145 162.558 60.0246C162.515 61.9041 136.146 58.4916 132.888 56.9178C129.63 55.3439 138.489 28.0041 141.633 25.5603C144.777 23.1171 147.859 25.3985 149.387 22.539C150.914 19.6795 150.259 16.5573 150.259 16.5573L157.482 14.5508Z" fill="#E7BD9F"/>
<path d="M161.472 8.33466C161.472 8.33466 158.583 21.0655 152.269 18.9515C147.926 17.4974 148.443 9.34944 150.843 6.33683C153.242 3.32423 159.901 4.70151 161.472 8.33466Z" fill="#E7BD9F"/>
<path d="M152.935 11.5382C153.027 11.2641 152.929 10.9844 152.717 10.9134C152.504 10.8425 152.258 11.0071 152.166 11.2812C152.075 11.5553 152.173 11.835 152.385 11.906C152.597 11.9769 152.844 11.8123 152.935 11.5382Z" fill="#34263B"/>
<path d="M156.954 12.881C157.046 12.6069 156.948 12.3272 156.735 12.2562C156.523 12.1852 156.277 12.3499 156.185 12.624C156.093 12.8981 156.191 13.1778 156.404 13.2487C156.616 13.3197 156.863 13.1551 156.954 12.881Z" fill="#34263B"/>
<path d="M158.953 14.0869C158.953 14.0869 160.375 12.2268 160.997 13.4551C161.618 14.6834 159.736 16.8579 158.847 16.5456C157.958 16.2337 158.243 14.8027 158.953 14.0869Z" fill="#E7BD9F"/>
<path d="M156.99 10.5956C156.99 10.5956 157.996 10.6079 158.187 11.8628C158.299 12.5955 155.881 10.528 156.99 10.5956Z" fill="#34263B"/>
<path d="M153.616 9.37705C153.616 9.37705 152.911 8.65872 151.873 9.38934C151.267 9.81532 154.432 10.1302 153.616 9.37705Z" fill="#34263B"/>
<path d="M149.82 11.1271C149.82 11.1271 149.814 8.78569 148.575 9.38729C147.337 9.98889 147.519 12.8592 148.416 13.1484C149.312 13.4377 149.952 12.1265 149.82 11.1271Z" fill="#E7BD9F"/>
<path d="M153.012 4.13062C153.012 4.13062 151.812 9.10418 149.382 10.1927C149.382 10.1927 145.215 4.39993 153.012 4.13062Z" fill="#323044"/>
<path d="M160.437 6.61169C160.437 6.61169 158.407 11.3083 159.694 13.6384C159.694 13.6384 166.506 11.5146 160.437 6.61169Z" fill="#323044"/>
<path d="M161.991 7.63115C161.991 7.63115 163.681 4.13214 161.228 2.11947C158.775 0.106793 153.384 2.97553 153.082 0.764714C152.891 -0.633047 151.287 2.96836 153.602 3.77527C153.602 3.77527 151.283 1.74878 151.184 2.19473C150.22 6.51243 159.402 10.9776 161.991 7.63115Z" fill="#323044"/>
<path d="M155.577 6.24261C155.475 6.20882 155.372 6.17298 155.267 6.13509C153.436 5.47102 152.8 4.73989 152.589 4.24376C152.391 3.77835 152.529 3.45682 152.535 3.44299L152.694 3.51416L152.615 3.47883L152.695 3.51365C152.69 3.5244 152.581 3.78808 152.753 4.18437C152.953 4.64619 153.562 5.33176 155.327 5.97176C156.756 6.49093 157.865 6.60511 158.676 6.68856C159.724 6.79711 160.357 6.86264 160.481 7.74533L160.309 7.76939C160.203 7.02187 159.719 6.97119 158.658 6.86162C157.898 6.78277 156.876 6.6773 155.577 6.24261Z" fill="#493558"/>
<path d="M161.275 6.91995C161.275 6.9051 161.258 5.46689 158.934 4.38043C157.959 3.92577 157.191 4.08807 156.572 4.21915C156.11 4.31643 155.71 4.40039 155.38 4.18279C155.054 3.96827 154.833 3.48647 154.662 2.62171L154.832 2.5874C154.992 3.39227 155.196 3.85255 155.475 4.03687C155.744 4.21505 156.094 4.14183 156.536 4.04814C157.179 3.91246 157.982 3.7435 159.007 4.22222C161.442 5.35988 161.45 6.85799 161.449 6.92097L161.275 6.91995Z" fill="#493558"/>
<path d="M153.72 14.9676C153.468 14.8806 152.973 14.1269 152.994 13.4592L153.25 13.4674C153.234 13.9769 153.574 14.5155 153.742 14.6793C153.903 14.365 154.286 13.1019 154.597 11.9437L154.844 12.0098C154.344 13.877 154.005 14.8688 153.839 14.9574L153.72 14.9676Z" fill="#C87D79"/>
<path d="M153.507 16.3796C153.405 16.3796 153.305 16.3679 153.207 16.3433C152.106 16.0709 151.663 14.3721 151.645 14.3004L151.893 14.2374C151.897 14.2538 152.316 15.86 153.269 16.095C153.8 16.226 154.413 15.9081 155.095 15.1508L155.285 15.3218C154.653 16.0248 154.056 16.3796 153.507 16.3796Z" fill="#C87D79"/>
<path d="M148.973 12.4624L148.728 12.3876C149.181 10.8993 148.626 10.525 148.62 10.5214L148.752 10.3018C148.783 10.3197 149.492 10.76 148.973 12.4624Z" fill="#C87D79"/>
<path d="M159.078 15.8462L158.837 15.7586C159.446 14.0849 160.277 14.1617 160.313 14.1648L160.284 14.4192L160.298 14.2917L160.286 14.4192C160.288 14.4238 159.612 14.3783 159.078 15.8462Z" fill="#C87D79"/>
<path d="M168.242 100.731C168.242 100.731 165.609 108.144 166.934 111.009C168.259 113.873 171.501 115.312 173.293 115.019C175.085 114.726 171.029 110.594 170.648 107.894C170.267 105.193 171.842 100.731 171.842 100.731L168.242 100.731Z" fill="#44324E"/>
<path d="M161.427 101.308C161.427 101.308 158.794 108.721 160.119 111.585C161.444 114.45 164.687 115.889 166.479 115.596C168.271 115.303 164.215 111.171 163.833 108.47C163.452 105.77 165.028 101.308 165.028 101.308L161.427 101.308Z" fill="#44324E"/>
<path d="M144.6 67.316C144.6 67.316 148.202 57.4718 158.072 59.7988C167.942 62.1259 171.081 101.958 166.014 105.442C164.029 106.808 157.121 105.77 156.994 103.974C155.629 84.6267 143.921 75.4645 144.6 67.316Z" fill="#CA9661"/>
<path d="M153.671 60.2534C153.671 60.2534 169.766 57.953 176.963 65.0969C184.16 72.2409 179.106 103.039 172.952 105.754C170.631 106.778 166.561 105.169 166.561 105.169C165.041 103.106 148.832 66.8439 153.671 60.2534Z" fill="#CA9661"/>
<path d="M166.681 105.212L166.44 105.125C167.592 101.962 170.736 80.9879 168.242 69.2647C166.934 63.1212 164.956 60.9713 163.527 60.2494C162.201 59.5797 161.161 60.0369 161.15 60.042L161.044 59.8091C161.09 59.7876 162.197 59.2955 163.633 60.0164C165.116 60.7609 167.162 62.9599 168.491 69.2114C170.996 80.9782 167.838 102.036 166.681 105.212Z" fill="#A36E4C"/>
<path d="M151.769 69.3537C151.769 69.3537 135.019 70.1022 132.228 67.8509C127.429 63.9807 132.888 56.9182 132.888 56.9182L158.073 59.7987C158.073 59.7987 157.776 69.263 151.769 69.3537Z" fill="#CA9661"/>
<path d="M147.692 23.6628C147.692 23.6628 147.746 28.1976 152.977 28.6743C157.544 29.0906 157.127 23.4109 160.298 24.6833C163.47 25.9556 165.728 25.0995 167.591 29.9768C169.453 34.8541 166.71 61.2349 165.198 61.0834C163.687 60.9318 148.063 59.0543 142.507 62.7008C137.88 65.7375 129.216 68.3272 129.942 64.4513C130.668 60.5755 132.518 31.6992 135.169 27.5551C136.861 24.9126 146.369 23.7852 147.692 23.6628Z" fill="#B94D59"/>
<path d="M108.991 35.3231C108.991 35.3231 138.266 31.4887 139.401 34.3636C140.536 37.2385 140.662 43.5039 139.401 43.9647C138.14 44.4255 110.352 46.3111 109.393 44.8893C108.435 43.467 108.991 35.3231 108.991 35.3231Z" fill="#CA9661"/>
<path d="M108.191 26.7128L139.414 26.6724C140.302 29.6768 140.59 35.1741 139.25 35.2525C130.507 35.7639 120.147 36.2836 113.874 36.2719C110.41 36.2657 108.191 36.0973 108.179 35.6764C108.131 33.9356 108.191 26.7128 108.191 26.7128Z" fill="#C87D79"/>
<path d="M107.489 17.4442C107.489 17.4442 138.757 14.9113 139.648 17.8707C140.54 20.83 140.199 26.2224 138.904 26.5767C137.61 26.931 116.462 26.6622 108.18 26.8558C106.465 26.8962 107.489 17.4442 107.489 17.4442Z" fill="#493558"/>
<path d="M105.272 36.7057C105.272 36.7057 105.253 33.9301 105.5 33.2947C106.319 31.1878 107.997 29.1153 107.857 30.2749C107.716 31.4346 107.352 32.9629 107.352 32.9629C107.352 32.9629 108.497 30.5606 108.834 30.7634C109.171 30.9661 108.822 33.8195 108.822 33.8195C108.822 33.8195 109.335 31.2242 110.044 31.9579C110.752 32.6916 108.967 34.5353 108.832 38.1684C108.731 40.8298 105.822 40.0362 105.272 36.7057Z" fill="#E7BD9F"/>
<path d="M145.633 70.0761C145.255 70.0761 144.961 70.0188 144.778 69.8811C144.645 69.7817 144.573 69.6461 144.562 69.4776C144.468 68.0159 150.011 66.2802 150.643 66.0872L150.717 66.3324C149.053 66.8408 144.749 68.3937 144.817 69.4612C144.823 69.5539 144.86 69.622 144.932 69.6763C145.422 70.0434 147.22 69.643 148.959 69.2559C150.33 68.9508 151.746 68.6349 152.732 68.6349C152.745 68.6349 152.76 68.6349 152.774 68.6349L152.771 68.8909C152.758 68.8909 152.744 68.8909 152.731 68.8909C151.774 68.8909 150.372 69.2032 149.014 69.5058C147.671 69.8043 146.453 70.0756 145.633 70.0761Z" fill="#A36E4C"/>
<path d="M158.418 104.844L158.164 104.811C158.446 102.649 158.694 96.2713 154.926 83.78C152.605 76.0867 149.711 69.552 147.89 67.8885C147.556 67.5844 147.274 67.4554 147.052 67.5056C143.928 68.2055 135.5 66.4109 135.142 66.3341L135.196 66.0837C135.283 66.1027 143.926 67.9438 146.996 67.2557C147.304 67.1871 147.664 67.3356 148.062 67.6996C149.914 69.3907 152.838 75.9725 155.171 83.7058C156.431 87.8832 159.27 98.3044 158.418 104.844Z" fill="#A36E4C"/>
<path d="M162.954 32.3535C162.954 32.3535 168.387 36.7403 169.965 40.8978C171.543 45.0552 161.575 55.6444 157.308 56.1666C153.04 56.6889 130.059 44.2416 129.9 43.1762C129.741 42.1107 129.932 38.5968 131.358 38.754C133.44 38.9839 148.547 44.2386 153.921 45.0332C156.693 45.4433 159.527 31.3464 162.954 32.3535Z" fill="#E7BD9F"/>
<path d="M154.72 40.0413C154.72 40.0413 166.893 42.6208 169.299 45.7399C170.495 47.2897 172.525 40.3419 172.355 34.6966C172.184 29.0513 161.959 24.1775 160.298 24.6834C158.638 25.1892 154.72 40.0413 154.72 40.0413Z" fill="#B94D59"/>
<path d="M157.929 37.8776L157.675 37.8443C157.708 37.5934 158.508 31.6778 160.205 29.8888C161.902 28.1009 165.04 27.4563 165.173 27.4297L165.223 27.6806C165.192 27.6867 162.032 28.3364 160.391 30.0644C158.751 31.794 157.937 37.8171 157.929 37.8776Z" fill="#9B434C"/>
<path d="M132.325 63.2401L132.085 63.152C132.149 62.9774 133.768 58.8635 144.156 58.3182C149.584 58.0325 154.026 58.2921 157.595 58.5C160.842 58.6894 163.188 58.8256 164.642 58.4457L164.707 58.693C163.213 59.0837 160.85 58.9459 157.58 58.7555C154.018 58.5481 149.585 58.2901 144.169 58.5737C133.976 59.1088 132.341 63.1991 132.325 63.2401Z" fill="#9B434C"/>
<path d="M153.443 31.5795C150.534 31.5795 146.073 25.5861 145.884 25.3301L146.09 25.178C146.135 25.2399 150.663 31.3235 153.442 31.3235C153.453 31.3235 153.465 31.3235 153.476 31.3235C155.308 31.2897 157.363 28.5767 158.721 26.7811C159.621 25.5937 160.036 25.0705 160.322 25.1283L160.274 25.3797C160.099 25.3854 159.476 26.2087 158.926 26.9352C157.536 28.7702 155.437 31.5432 153.481 31.579C153.469 31.5795 153.456 31.5795 153.443 31.5795Z" fill="#9B434C"/>
<path d="M170.061 43.6642C169.984 43.6114 162.241 38.4126 157.021 39.4786L156.97 39.2277C162.298 38.1453 170.127 43.3989 170.205 43.4522L170.061 43.6642Z" fill="#9B434C"/>
<path d="M150.378 17.5819C150.378 17.5819 151.794 19.4435 153.48 19.4133C155.166 19.3831 156.755 17.862 156.755 17.862C156.755 17.862 156.553 18.9735 156.544 19.4251C156.536 19.8767 154.31 21.6293 151.872 21.6247C150.86 21.6226 150.27 19.7712 150.319 19.5132C150.367 19.2551 150.565 18.2229 150.378 17.5819Z" fill="#C87D79"/>
<path d="M106.638 19.6033C106.638 19.6033 134.628 18.5178 135.708 19.6033C136.787 20.6887 136.787 24.2538 135.708 24.647C134.628 25.0402 106.97 25.2071 106.638 25.2517C106.306 25.2967 105.996 19.6273 106.638 19.6033Z" fill="#FEFADA"/>
<path d="M111.598 28.8003C111.598 28.8003 138.854 27.8275 139.905 28.8003C140.957 29.7731 140.957 32.9695 139.905 33.3217C138.854 33.6745 111.922 33.824 111.598 33.864C111.275 33.9039 110.974 28.8218 111.598 28.8003Z" fill="#FEFADA"/>
<path d="M113.342 45.4105L113.022 36.2754C113.022 36.2754 111.517 35.9826 111.179 36.2754C110.84 36.5683 110.843 45.2769 111.179 45.3051C111.514 45.3332 112.406 45.411 113.342 45.4105Z" fill="#493558"/>
<path d="M117.144 45.4105L116.824 36.2754C116.824 36.2754 115.319 35.9826 114.981 36.2754C114.642 36.5683 114.645 45.2769 114.981 45.3051C115.316 45.3332 116.209 45.411 117.144 45.4105Z" fill="#493558"/>
<path d="M133.769 44.3866L133.565 35.2479C133.565 35.2479 132.064 34.9355 131.722 35.2243C131.381 35.5131 131.272 44.2207 131.607 44.2534C131.942 44.2862 132.833 44.3748 133.769 44.3866Z" fill="#493558"/>
<path d="M137.571 44.4351L137.367 35.2964C137.367 35.2964 135.866 34.9841 135.525 35.2729C135.183 35.5617 135.075 44.2692 135.41 44.302C135.744 44.3348 136.635 44.4234 137.571 44.4351Z" fill="#493558"/>
<path d="M138.467 40.7781C138.467 40.7781 131.754 38.5366 129.527 38.1511C127.299 37.7655 124.418 37.7363 125.475 38.2345C126.531 38.7327 128.02 39.2365 128.02 39.2365C128.02 39.2365 125.377 38.9283 125.369 39.322C125.362 39.7152 127.964 40.9374 127.964 40.9374C127.964 40.9374 124.95 39.7802 125.195 40.7705C125.439 41.7607 131.126 44.0862 133.108 45.4107C135.322 46.8904 141.03 42.3638 138.467 40.7781Z" fill="#E7BD9F"/>
<path d="M163.314 110.036C162.292 110.036 161.14 109.748 161.066 109.73L161.129 109.482C161.861 109.668 163.892 110.033 164.491 109.51L164.659 109.703C164.372 109.953 163.861 110.036 163.314 110.036Z" fill="#FEFADA"/>
<path d="M163.797 111.381C163.046 111.381 162.317 111.146 162.272 111.13L162.352 110.887C162.368 110.893 163.974 111.41 164.77 110.901L164.908 111.117C164.597 111.316 164.194 111.381 163.797 111.381Z" fill="#FEFADA"/>
<path d="M170.5 109.516C169.478 109.516 168.326 109.228 168.252 109.21L168.315 108.962C169.047 109.148 171.079 109.513 171.678 108.99L171.846 109.183C171.559 109.433 171.048 109.516 170.5 109.516Z" fill="#FEFADA"/>
<path d="M170.983 110.861C170.233 110.861 169.504 110.626 169.458 110.61L169.538 110.367C169.554 110.373 171.159 110.891 171.957 110.38L172.095 110.596C171.783 110.795 171.381 110.861 170.983 110.861Z" fill="#FEFADA"/>
<path d="M175.006 103.426C174.782 103.417 169.514 103.199 167.76 102.128L167.893 101.909C169.591 102.946 174.962 103.168 175.016 103.169L175.006 103.426Z" fill="#A36E4C"/>
<path d="M163.685 102.051C161.155 102.051 157.768 101.981 156.793 101.959L156.799 101.703C160.504 101.784 166.147 101.854 166.504 101.717L166.622 101.944C166.477 102.024 165.243 102.051 163.685 102.051Z" fill="#A36E4C"/>
<path d="M106.228 21.3461L106.216 21.0906C106.291 21.0871 113.682 20.7491 117.059 20.7491C119.465 20.7491 127.645 20.6647 132.532 20.614C134.56 20.593 135.998 20.5781 136.173 20.5781V20.8341C135.997 20.8341 134.561 20.849 132.534 20.87C127.647 20.9207 119.467 21.0051 117.059 21.0051C113.688 21.0051 106.302 21.3431 106.228 21.3461Z" fill="#D3D0B1"/>
<path d="M116.656 23.9645C112.459 23.9645 106.638 23.8231 106.56 23.8211L106.567 23.5651C106.67 23.5677 117.006 23.8191 120.039 23.6506C123.074 23.4822 135.863 22.3819 135.992 22.3706L136.014 22.6256C135.885 22.6368 123.092 23.7371 120.053 23.9056C119.289 23.9486 118.063 23.9645 116.656 23.9645Z" fill="#D3D0B1"/>
<path d="M118.811 31.054C115.294 31.054 111.227 30.9055 111.166 30.9035L111.176 30.6475C111.268 30.6511 120.414 30.9849 123.102 30.6485C125.809 30.3101 140.293 30.137 140.439 30.1355L140.442 30.3915C140.296 30.393 125.826 30.5656 123.133 30.9025C122.224 31.0167 120.587 31.054 118.811 31.054Z" fill="#D3D0B1"/>
<path d="M111.598 32.7811L111.597 32.5251C111.738 32.5246 125.775 32.435 127.957 32.0152C130.164 31.5913 140.106 31.7505 140.527 31.7571L140.523 32.0131C140.42 32.0116 130.187 31.8473 128.005 32.2671C125.801 32.691 112.178 32.7776 111.598 32.7811Z" fill="#D3D0B1"/>
<path d="M129.603 20.6211C129.603 20.6211 129.773 28.7276 129.859 29.4106C129.944 30.0931 131.565 26.4241 131.565 26.4241L133.443 29.5816L133.784 20.4511C133.784 20.4511 129.859 20.2796 129.603 20.6211Z" fill="#B94D59"/>
<path d="M118.495 107.116C118.495 107.116 112.632 104.627 110.241 112.903C107.849 121.18 107.95 124.582 111.72 125.766C115.49 126.951 116.198 123.864 119.144 125.022C122.09 126.181 127.288 126.696 128.131 123.135C128.975 119.574 126.433 103.239 118.495 107.116Z" fill="#B94D59"/>
<path d="M122.537 112.108C122.537 112.108 121.213 124.629 123.336 126.498C125.458 128.367 134.047 125.528 136.331 129.129C138.615 132.73 137.933 159.466 137.933 159.466H101.71C101.71 159.466 102.322 128.666 104.202 127.32C106.083 125.973 114.9 129.214 115.361 123.932C115.581 121.403 115.819 114.251 115.819 114.251L122.537 112.108Z" fill="#E7BD9F"/>
<path d="M115.554 121.51C115.554 121.51 119.371 124.535 122.133 119.879C122.133 119.879 122.07 122.695 122.161 123.143C122.252 123.591 119.449 126.021 119.014 126.021C117.856 126.021 115.459 123.27 115.459 123.27L115.554 121.51Z" fill="#C87D79"/>
<path d="M112.277 127.029C112.277 127.029 114.467 134.44 118.412 135.016C122.358 135.592 123.325 126.772 124.454 127.029C125.582 127.286 131.7 124.24 134.439 128.589C137.178 132.939 136.939 166.997 136.939 166.997H101.71C101.71 166.997 102.388 134.925 103.295 131.191C104.202 127.456 110.219 126.531 112.277 127.029Z" fill="#7F6873"/>
<path d="M124.009 110.859C124.009 110.859 124.592 123.9 117.944 123.533C113.371 123.28 111.713 115.285 113.23 111.745C114.747 108.205 121.532 107.771 124.009 110.859Z" fill="#E7BD9F"/>
<path d="M116.386 117.223C116.402 116.934 116.234 116.69 116.01 116.678C115.786 116.666 115.592 116.89 115.576 117.178C115.561 117.467 115.729 117.711 115.953 117.723C116.176 117.735 116.37 117.511 116.386 117.223Z" fill="#44324E"/>
<path d="M120.854 117.223C120.87 116.934 120.701 116.69 120.478 116.678C120.254 116.666 120.06 116.89 120.044 117.178C120.028 117.467 120.197 117.711 120.421 117.723C120.644 117.735 120.838 117.511 120.854 117.223Z" fill="#44324E"/>
<path d="M123.102 117.073C123.102 117.073 123.981 114.903 124.906 115.923C125.831 116.944 124.591 119.538 123.651 119.472C122.71 119.406 122.607 117.951 123.102 117.073Z" fill="#E7BD9F"/>
<path d="M120.285 114.225C120.285 114.225 121.259 113.971 121.776 115.131C122.077 115.807 119.198 114.453 120.285 114.225Z" fill="#B94D59"/>
<path d="M116.585 114.368C116.585 114.368 115.715 113.862 114.907 114.841C114.435 115.413 117.571 114.879 116.585 114.368Z" fill="#B94D59"/>
<path d="M113.511 116.635C113.511 116.635 112.886 114.379 111.85 115.286C110.815 116.194 111.751 118.914 112.692 118.956C113.634 118.998 113.903 117.564 113.511 116.635Z" fill="#E7BD9F"/>
<path d="M118.528 119.459L118.477 119.457C118.234 119.447 117.59 119.423 117.429 118.756L117.677 118.696C117.776 119.105 118.121 119.183 118.456 119.199C118.501 118.852 118.409 117.354 118.285 115.991L118.54 115.968C118.737 118.122 118.771 119.281 118.641 119.414L118.528 119.459Z" fill="#C87D79"/>
<path d="M118.127 120.769C117.007 120.769 116.148 119.277 116.111 119.212L116.334 119.086C116.342 119.1 117.156 120.513 118.127 120.513C118.135 120.513 118.143 120.513 118.153 120.513C118.698 120.499 119.207 120.03 119.664 119.119L119.892 119.234C119.39 120.236 118.806 120.752 118.158 120.769C118.148 120.769 118.137 120.769 118.127 120.769Z" fill="#C87D79"/>
<path d="M113.048 118.147L112.792 118.14C112.835 116.584 112.201 116.37 112.194 116.368L112.263 116.122C112.297 116.131 113.098 116.368 113.048 118.147Z" fill="#C87D79"/>
<path d="M123.688 118.737L123.433 118.716C123.578 116.942 124.4 116.794 124.434 116.788L124.476 117.041C124.469 117.042 123.815 117.185 123.688 118.737Z" fill="#C87D79"/>
<path d="M111.777 114.663C111.777 114.663 112.438 115.521 114.017 114.76C118 112.839 118.817 108.487 118.817 108.487C118.817 108.487 119.203 111.495 119.778 112.519C120.353 113.543 123.154 115.493 123.801 115.318C124.449 115.143 126.163 111.401 122.81 108.791C119.457 106.183 118.605 107.198 116.631 108.002C114.657 108.807 110.177 111.942 111.777 114.663Z" fill="#B94D59"/>
<path d="M119.074 108.426C121.137 108.426 122.81 106.753 122.81 104.69C122.81 102.627 121.137 100.954 119.074 100.954C117.01 100.954 115.338 102.627 115.338 104.69C115.338 106.753 117.01 108.426 119.074 108.426Z" fill="#B94D59"/>
<path d="M118.412 135.123C118.412 135.123 115.092 126.16 112.922 127.314C110.752 128.467 108.986 134.993 110.766 136.147C112.546 137.3 118.412 135.123 118.412 135.123Z" fill="#FEFADA"/>
<path d="M119.073 135.123C119.073 135.123 122.393 126.16 124.563 127.314C126.734 128.467 128.499 134.993 126.719 136.147C124.939 137.3 119.073 135.123 119.073 135.123Z" fill="#FEFADA"/>
<path d="M126.719 126.585C126.719 126.585 125.764 156.205 127.45 159.466C129.136 162.727 137.122 161.326 138.028 158.76C138.935 156.194 137.557 132.709 136.945 130.919C136.331 129.129 134.251 125.036 126.719 126.585Z" fill="#CA9661"/>
<path d="M112.381 126.585C112.381 126.585 113.337 156.205 111.651 159.466C109.965 162.727 101.979 161.326 101.072 158.76C100.166 156.194 101.543 132.709 102.156 130.919C102.77 129.129 104.85 125.036 112.381 126.585Z" fill="#CA9661"/>
<path d="M83.2015 170.864C83.2015 170.864 78.8141 151.089 91.2711 150.725C103.728 150.361 130.892 172.904 122.164 181.013C113.435 189.122 83.8107 186.306 83.2015 170.864Z" fill="#6A8185"/>
<path d="M156.876 170.864C156.876 170.864 159.33 151.043 146.873 150.679C134.416 150.316 104.194 172.905 112.923 181.014C121.651 189.123 156.267 186.306 156.876 170.864Z" fill="#6A8185"/>
<path d="M31.493 184.757H121.567C121.567 184.757 112.942 154.319 86.5914 154.527C60.2403 154.735 49.2205 179.19 29.5766 165.724C29.5766 165.724 24.3066 178.366 31.493 184.757Z" fill="#FEFADA"/>
<path d="M204.507 184.757H114.433C114.433 184.757 123.058 154.319 149.409 154.527C175.76 154.735 186.78 179.19 206.423 165.724C206.423 165.724 211.694 178.366 204.507 184.757Z" fill="#FEFADA"/>
<path d="M110.304 126.873C110.304 126.873 110.298 123.493 109.624 121.335C108.949 119.178 108.544 116.325 109.176 117.307C109.808 118.29 110.503 119.699 110.503 119.699C110.503 119.699 109.852 117.119 110.24 117.06C110.629 117.001 112.181 119.421 112.181 119.421C112.181 119.421 110.92 117.095 111.933 117.208C112.947 117.322 117.943 123.533 115.126 129.233C113.947 131.62 112.211 129.208 110.304 126.873Z" fill="#DC9A8E"/>
<path d="M110.036 125.282C110.036 125.282 114.894 125.834 116.336 128.448C117.778 131.06 105.017 156.018 99.181 156.164C93.3447 156.311 90.3152 151.703 89.3977 150.679C88.4802 149.655 104.967 123.181 110.036 125.282Z" fill="#CA9661"/>
<path d="M126.235 126.873C126.235 126.873 126.241 123.493 126.915 121.335C127.59 119.178 127.995 116.325 127.363 117.307C126.731 118.29 126.036 119.699 126.036 119.699C126.036 119.699 126.688 117.119 126.299 117.06C125.91 117.001 124.358 119.421 124.358 119.421C124.358 119.421 125.619 117.095 124.605 117.208C123.592 117.322 118.64 124.61 121.413 129.233C122.783 131.516 124.328 129.208 126.235 126.873Z" fill="#DC9A8E"/>
<path d="M126.235 125.282C126.235 125.282 121.377 125.834 119.935 128.448C118.493 131.06 131.254 156.018 137.09 156.164C142.926 156.311 145.956 151.703 146.873 150.679C147.79 149.655 131.304 123.181 126.235 125.282Z" fill="#CA9661"/>
<path d="M108.568 126.585C108.568 126.585 106.15 147.464 104.464 150.725C102.778 153.987 90.3044 153.245 89.3977 150.679C88.4909 148.114 97.7294 132.709 98.3428 130.919C98.9562 129.129 101.036 125.036 108.568 126.585Z" fill="#CA9661"/>
<path d="M129.717 126.585C129.717 126.585 132.135 147.464 133.821 150.725C135.507 153.987 145.967 153.245 146.873 150.679C147.78 148.114 138.947 132.853 138.335 131.064C137.722 129.274 136.481 125.163 129.717 126.585Z" fill="#CA9661"/>
<path d="M143.53 145.196C139.528 135.564 131.955 127.216 129.69 126.71L129.745 126.46C132.352 127.043 139.984 135.995 143.766 145.098L143.53 145.196Z" fill="#A36E4C"/>
<path d="M131.514 152.058C131.472 151.986 127.253 144.888 126.355 143.89L126.545 143.719C127.46 144.735 131.56 151.634 131.734 151.927L131.514 152.058Z" fill="#A36E4C"/>
<path d="M109.684 120.016L109.594 119.776C109.687 119.741 111.886 118.932 112.74 119.359L112.625 119.588C111.998 119.274 110.289 119.789 109.684 120.016Z" fill="#C87D79"/>
<path d="M115.538 132.442C114.198 130.336 105.923 126.885 105.84 126.849L105.937 126.613C106.281 126.756 114.37 130.13 115.754 132.305L115.538 132.442Z" fill="#A36E4C"/>
<path d="M92.2618 144.976L92.0262 144.875C94.1377 139.938 103.649 129.187 103.744 129.079L103.936 129.249C103.841 129.356 94.3574 140.077 92.2618 144.976Z" fill="#A36E4C"/>
<path d="M103.936 152.982L103.745 152.812C103.817 152.731 110.916 144.733 112.105 139.541L112.355 139.598C111.151 144.855 104.008 152.901 103.936 152.982Z" fill="#A36E4C"/>
<path d="M205.871 184.757H31.493V193.889H205.871V184.757Z" fill="#C87D79"/>
<path d="M97.5661 155.403C95.0097 155.403 91.9188 154.48 90.222 150.6C90.178 150.499 90.223 150.432 90.2445 150.407C90.373 150.263 90.6971 150.35 92.0524 150.75C94.4306 151.45 98.8569 152.756 103.841 152.769L103.84 153.025C98.8195 153.012 94.3702 151.699 91.9802 150.995C91.3228 150.801 90.7417 150.63 90.5021 150.599C93.6519 157.6 101.581 154.441 101.661 154.408L101.758 154.645C101.719 154.661 99.8573 155.403 97.5661 155.403Z" fill="#A36E4C"/>
<path d="M120.644 131.739L120.515 131.518C120.79 131.356 127.286 127.575 129.73 127.81L129.704 128.065C127.353 127.831 120.711 131.7 120.644 131.739Z" fill="#A36E4C"/>
<path d="M137.511 153.685C135.152 153.685 133.358 153.014 133.32 152.999L133.412 152.76C133.494 152.792 141.62 155.826 145.963 148.704L146.183 148.837C143.783 152.772 140.263 153.685 137.511 153.685Z" fill="#A36E4C"/>
<path d="M115.928 118.854C114.918 118.854 114.096 118.032 114.096 117.022C114.096 116.012 114.918 115.19 115.928 115.19C116.938 115.19 117.76 116.012 117.76 117.022C117.76 118.032 116.938 118.854 115.928 118.854ZM115.928 115.446C115.059 115.446 114.352 116.153 114.352 117.022C114.352 117.891 115.059 118.598 115.928 118.598C116.797 118.598 117.504 117.891 117.504 117.022C117.504 116.153 116.797 115.446 115.928 115.446Z" fill="#FEFADA"/>
<path d="M120.579 118.854C119.569 118.854 118.748 118.032 118.748 117.022C118.748 116.012 119.569 115.19 120.579 115.19C121.59 115.19 122.411 116.012 122.411 117.022C122.411 118.032 121.589 118.854 120.579 118.854ZM120.579 115.446C119.711 115.446 119.004 116.153 119.004 117.022C119.004 117.891 119.711 118.598 120.579 118.598C121.448 118.598 122.155 117.891 122.155 117.022C122.155 116.153 121.448 115.446 120.579 115.446Z" fill="#FEFADA"/>
<path d="M119.073 116.688H117.553V116.944H119.073V116.688Z" fill="#FEFADA"/>
<path d="M112.761 115.078L112.62 115.292L114.315 116.409L114.456 116.195L112.761 115.078Z" fill="#FEFADA"/>
<path d="M122.329 116.429L122.237 116.19L123.962 115.531L124.053 115.77L122.329 116.429Z" fill="#FEFADA"/>
<path d="M116.267 184.811C109.364 169.92 102.991 162.95 94.9585 161.505C87.2432 160.116 78.3467 163.806 66.0325 168.91C63.0722 170.137 60.0109 171.406 56.6983 172.717C43.8937 177.783 35.2808 178.599 31.0998 175.142C27.8635 172.465 28.6494 168.102 28.6576 168.058L28.909 168.106C28.9008 168.148 28.1445 172.368 31.2652 174.946C34.0868 177.277 40.773 178.741 56.6041 172.479C59.9141 171.169 62.9749 169.901 65.9342 168.674C78.2893 163.553 87.216 159.853 95.0036 161.254C103.127 162.715 109.556 169.728 116.499 184.703L116.267 184.811Z" fill="#D3D0B1"/>
<path d="M112.128 185.133C112.027 184.999 101.794 171.683 85.3334 173.049C79.791 173.507 72.6225 175.528 65.0326 177.667C49.603 182.016 33.6485 186.512 28.0247 179.016L28.2295 178.862C33.7473 186.219 49.6163 181.746 64.963 177.421C72.5651 175.278 79.7454 173.254 85.3124 172.794C101.92 171.417 112.23 184.844 112.332 184.98L112.128 185.133Z" fill="#D3D0B1"/>
<path d="M63.8632 184.877L63.7746 184.637C72.0629 181.577 83.9796 178.397 93.6728 180.616C99.4943 181.949 101.716 184.564 101.808 184.675L101.611 184.839C101.589 184.811 99.3361 182.168 93.5873 180.859C88.2733 179.649 78.8018 179.363 63.8632 184.877Z" fill="#D3D0B1"/>
<path d="M119.894 184.811L119.662 184.703C126.605 169.728 133.033 162.715 141.158 161.254C148.942 159.851 157.873 163.553 170.227 168.674C173.186 169.901 176.247 171.17 179.557 172.479C188.295 175.936 199.783 179.17 204.896 174.946C208.016 172.368 207.26 168.148 207.252 168.106L207.504 168.058C207.512 168.102 208.298 172.465 205.061 175.142C200.881 178.599 192.267 177.783 179.463 172.717C176.15 171.407 173.089 170.138 170.129 168.911C157.814 163.806 148.916 160.118 141.203 161.505C133.171 162.95 126.798 169.92 119.894 184.811Z" fill="#D3D0B1"/>
<path d="M124.033 185.133L123.829 184.979C123.931 184.844 134.243 171.418 150.848 172.794C156.415 173.254 163.596 175.278 171.198 177.421C186.545 181.746 202.414 186.219 207.931 178.861L208.136 179.016C202.512 186.512 186.557 182.015 171.128 177.666C163.538 175.527 156.37 173.507 150.827 173.048C134.364 171.689 124.134 184.999 124.033 185.133Z" fill="#D3D0B1"/>
<path d="M172.297 184.877C164.041 181.829 152.178 178.659 142.545 180.865C136.808 182.179 134.572 184.812 134.55 184.838L134.353 184.676C134.444 184.564 136.667 181.949 142.488 180.616C147.838 179.392 157.369 179.093 172.387 184.637L172.297 184.877Z" fill="#D3D0B1"/>
<path d="M113.556 115.079L113.513 114.828C113.739 114.789 119.05 113.816 118.684 108.052L118.939 108.036C119.139 111.169 117.663 112.918 116.39 113.835C115.015 114.824 113.615 115.07 113.556 115.079Z" fill="#B94D59"/>
<path d="M116.408 107.238C115.56 106.956 115.063 106.497 114.931 105.875C114.579 104.222 116.964 102.026 117.066 101.933L117.238 102.122C117.215 102.143 114.86 104.312 115.18 105.822C115.293 106.349 115.733 106.743 116.489 106.994L116.408 107.238Z" fill="#B94D59"/>
<path d="M121.274 107.852L121.214 107.603C121.228 107.6 122.543 107.271 122.921 106.249C123.188 105.528 122.938 104.628 122.179 103.574L122.387 103.424C123.199 104.553 123.46 105.533 123.16 106.339C122.733 107.489 121.334 107.838 121.274 107.852Z" fill="#B94D59"/>
<path d="M109.174 123.612C109.158 123.587 107.528 121.114 108.051 118.121C108.321 116.577 108.967 115.838 109.486 115.244C110.048 114.601 110.454 114.136 110.117 112.937C109.712 111.493 110.855 109.259 112.145 108.019C113.107 107.094 114.085 106.73 114.898 106.994L114.819 107.238C114.1 107.006 113.214 107.348 112.323 108.204C110.904 109.568 110.025 111.66 110.364 112.868C110.738 114.201 110.271 114.735 109.679 115.412C109.181 115.982 108.561 116.692 108.303 118.165C107.798 121.054 109.371 123.445 109.387 123.468L109.174 123.612Z" fill="#B94D59"/>
<path d="M114.411 113.544L114.353 113.295C116.649 112.763 117.567 110.701 117.655 109.097C117.695 108.369 117.535 108.005 117.44 107.971C117.406 107.96 117.34 108.001 117.257 108.118C116.299 109.46 112.04 113.046 111.859 113.198L111.695 113.002C111.739 112.965 116.109 109.285 117.049 107.969C117.24 107.701 117.412 107.691 117.526 107.73C117.86 107.847 117.944 108.52 117.911 109.111C117.818 110.803 116.845 112.98 114.411 113.544Z" fill="#934048"/>
<path d="M118.789 106.217C117.78 105.281 118.172 103.544 118.189 103.47L118.438 103.528C118.434 103.544 118.064 105.195 118.962 106.029L118.789 106.217Z" fill="#934048"/>
<path d="M119.482 106.261C119.381 106.261 119.315 106.251 119.306 106.25L119.126 106.221L119.214 106.061C120.025 104.597 120.315 102.856 120.318 102.839L120.571 102.88C120.56 102.95 120.294 104.544 119.536 106.003C119.724 105.995 120.018 105.943 120.263 105.727C120.59 105.437 120.744 104.937 120.722 104.24L120.978 104.232C121.003 105.011 120.818 105.578 120.429 105.921C120.098 106.213 119.705 106.261 119.482 106.261Z" fill="#934048"/>
<path d="M123.455 113.748C123.339 113.578 120.604 109.561 119.973 108.094L120.208 107.993C120.829 109.437 123.638 113.562 123.666 113.604L123.455 113.748Z" fill="#934048"/>
<path d="M125.408 116.172C125.221 112.348 122.734 109.179 122.709 109.147L122.91 108.988C122.936 109.02 125.472 112.255 125.664 116.159L125.408 116.172Z" fill="#934048"/>
<path d="M127.599 116.31C127.573 113.22 126.704 111.372 125.98 110.365C125.197 109.278 124.409 108.912 124.402 108.908L124.507 108.675C124.641 108.735 127.805 110.226 127.855 116.308L127.599 116.31Z" fill="#B94D59"/>
<path d="M126.346 119.971C125.769 119.171 123.698 119.593 123.677 119.597L123.624 119.346C123.716 119.328 125.88 118.888 126.553 119.821L126.346 119.971Z" fill="#C87D79"/>
</svg>
