<svg width="200" height="200" viewBox="0 0 200 200" fill="none" xmlns="http://www.w3.org/2000/svg">
<path d="M163.6 102.036C128.236 81.6363 71.0885 81.6363 35.9525 102.036C0.816485 122.436 1.02049 155.56 36.4005 175.976C71.7805 196.392 128.912 196.396 164.048 175.976C199.184 155.556 198.98 122.456 163.6 102.036Z" fill="#FAFAFA"/>
<path d="M175.921 156.86C177.057 157.516 177.061 158.58 175.921 159.236L171.281 161.912C170.646 162.236 169.945 162.404 169.233 162.404C168.521 162.404 167.819 162.236 167.185 161.912L116.325 132.54C115.189 131.888 115.181 130.824 116.325 130.168L120.961 127.492C121.596 127.169 122.298 127 123.011 127C123.723 127 124.426 127.169 125.061 127.492L175.921 156.86Z" fill="#F0F0F0"/>
<path d="M161.648 161.076C162.788 161.736 162.792 162.796 161.648 163.452L157.008 166.128C156.373 166.452 155.671 166.62 154.958 166.62C154.246 166.62 153.543 166.452 152.908 166.128L109.468 141.036C108.332 140.38 108.324 139.316 109.468 138.66L114.108 135.984C114.743 135.661 115.446 135.492 116.158 135.492C116.871 135.492 117.573 135.661 118.208 135.984L161.648 161.076Z" fill="#F0F0F0"/>
<path d="M36.0886 159.104C32.9726 157.304 27.9326 157.304 24.8326 159.104C21.7326 160.904 21.7526 163.824 24.8686 165.624C27.9846 167.424 33.0286 167.424 36.1246 165.624C39.2206 163.824 39.2006 160.904 36.0886 159.104Z" fill="#F0F0F0"/>
<path d="M51.7161 154.88C61.3441 149.32 76.9161 149.32 86.4761 154.88C96.0361 160.44 95.9921 169.456 86.3601 175.016C76.7281 180.576 61.1601 180.576 51.6001 175.016C42.0401 169.456 42.0841 160.44 51.7161 154.88Z" fill="#F0F0F0"/>
<path d="M40.2643 137.04L60.9523 125.096C61.0947 125.016 61.2134 124.9 61.296 124.76C61.3786 124.619 61.4221 124.459 61.4221 124.296C61.4221 124.133 61.3786 123.972 61.296 123.832C61.2134 123.691 61.0947 123.575 60.9523 123.496L42.7203 112.916C42.581 112.835 42.4231 112.793 42.2623 112.793C42.1015 112.793 41.9435 112.835 41.8043 112.916L20.6603 125.124C20.5178 125.203 20.3992 125.319 20.3166 125.46C20.234 125.6 20.1904 125.761 20.1904 125.924C20.1904 126.087 20.234 126.247 20.3166 126.388C20.3992 126.528 20.5178 126.644 20.6603 126.724L38.4323 137.052C38.712 137.21 39.0284 137.293 39.3499 137.291C39.6714 137.288 39.9867 137.202 40.2643 137.04Z" fill="#F0F0F0"/>
<path d="M104.66 97.1762C99.7803 94.3762 91.8923 94.3762 87.0603 97.1762C82.2283 99.9762 82.2363 104.564 87.1163 107.38C91.9963 110.196 99.8843 110.2 104.716 107.38C109.548 104.56 109.54 100 104.66 97.1762Z" fill="#F0F0F0"/>
<path d="M64.0519 34.7567L62.4839 33.8447L45.9199 43.3727V45.1847L64.0519 34.7567Z" fill="#F5F5F5"/>
<path d="M64.0519 34.7559L45.9199 45.1839V47.2559L64.0559 36.8359L64.0519 34.7559Z" fill="#E0E0E0"/>
<path d="M36.4475 50.6366L34.8795 49.7246L18.3115 59.2526V61.0686L36.4475 50.6366Z" fill="#F5F5F5"/>
<path d="M36.4475 50.6367L18.3115 61.0687V63.1367L36.4515 52.7167L36.4475 50.6367Z" fill="#E0E0E0"/>
<path d="M63.9635 17.3446L62.3955 16.4326L62.4875 63.3406L64.0555 64.2526L63.9635 17.3446Z" fill="#F0F0F0"/>
<path d="M64.0554 64.2518L62.4874 63.3398L44.4434 73.6998L46.0114 74.6118L64.0554 64.2518Z" fill="#F5F5F5"/>
<path d="M65.8634 65.2845L44.2114 77.7245L44.1074 26.6725L65.7594 14.2285L65.8634 65.2845ZM45.9994 74.6125L64.0434 64.2525L63.9514 17.3445L45.9194 27.7005L45.9994 74.6125Z" fill="#E0E0E0"/>
<path d="M65.7591 14.2283L64.1951 13.3203L42.5391 25.7603L44.1071 26.6723L65.7591 14.2283Z" fill="#F5F5F5"/>
<path d="M44.1071 26.6727L42.5391 25.7607L42.6431 76.8127L44.2111 77.7247L44.1071 26.6727Z" fill="#F0F0F0"/>
<path d="M36.36 33.2245L34.792 32.3125L34.884 79.2245L36.452 80.1365L36.36 33.2245Z" fill="#F0F0F0"/>
<path d="M36.4518 80.1366L34.8838 79.2246L16.8398 89.5806L18.4038 90.4926L36.4518 80.1366Z" fill="#F5F5F5"/>
<path d="M38.2599 81.1644L16.6079 93.6004L16.5039 42.5484L38.1559 30.1084L38.2599 81.1644ZM18.3999 90.4924L36.4479 80.1364L36.3599 33.2244L18.3119 43.6004L18.3999 90.4924Z" fill="#E0E0E0"/>
<path d="M38.1555 30.1122L36.5875 29.2002L14.9355 41.6402L16.5035 42.5522L38.1555 30.1122Z" fill="#F5F5F5"/>
<path d="M16.5035 42.5526L14.9355 41.6406L15.0395 92.6966L16.6075 93.6046L16.5035 42.5526Z" fill="#F0F0F0"/>
<path d="M56.3477 123.587L58.1117 124.615L58.1077 122.571L56.3477 123.587Z" fill="#E6E6E6"/>
<path d="M58.0357 102.735L40.8438 112.663L58.0357 102.735Z" fill="#CFCFCF"/>
<path d="M58.1075 122.572V124.616L59.9475 123.552L59.8795 99.5518L38.9795 111.6L39.0475 135.62L40.8875 134.556V132.512L56.3475 123.6L58.1075 122.572ZM40.8435 112.664L58.0435 102.736L58.0675 110.528L40.8675 120.456L40.8435 112.664ZM40.8715 122.588L58.0715 112.66V112.684L58.0955 120.448L40.8955 130.376L40.8715 122.588Z" fill="#E6E6E6"/>
<path d="M58.0871 120.448L58.0631 112.68V112.66L40.8711 122.588L40.8911 130.376L58.0871 120.448Z" fill="#E0E0E0"/>
<path d="M58.0597 110.527L58.0357 102.735L40.8438 112.663L40.8638 120.455L58.0597 110.527Z" fill="#E0E0E0"/>
<path d="M38.9795 111.604L20.7275 100.996L20.7955 125.016L39.0475 135.624L38.9795 111.604Z" fill="#E0E0E0"/>
<path d="M38.9795 111.604L59.8835 99.5317L41.6355 88.9277L20.7275 100.996L38.9795 111.604Z" fill="#E0E0E0"/>
<path d="M56.3477 123.587L58.1117 124.615L58.1077 122.571L56.3477 123.587Z" fill="#E6E6E6"/>
<path d="M58.0357 102.735L40.8438 112.663L58.0357 102.735Z" fill="#CFCFCF"/>
<path opacity="0.8" d="M58.0871 120.448L58.0631 112.68V112.66L40.8711 122.588L40.8911 130.376L58.0871 120.448Z" fill="white"/>
<path opacity="0.8" d="M58.0597 110.527L58.0357 102.735L40.8438 112.663L40.8638 120.455L58.0597 110.527Z" fill="white"/>
<path d="M52.4318 108.872L52.4238 107.796L46.4678 111.232L46.4758 112.308L52.4318 108.872Z" fill="#E0E0E0"/>
<path d="M52.4318 118.656L52.4238 117.58L46.4678 121.016L46.4758 122.092L52.4318 118.656Z" fill="#E0E0E0"/>
<path d="M38.9795 111.604L20.7275 100.996L20.7955 125.016L39.0475 135.624L38.9795 111.604Z" fill="#EBEBEB"/>
<path d="M38.9795 111.604L59.8835 99.5317L41.6355 88.9277L20.7275 100.996L38.9795 111.604Z" fill="#F0F0F0"/>
<path opacity="0.1" d="M100.66 35.2956C100.363 34.774 99.9231 34.348 99.3923 34.0676C97.4402 32.9436 94.2843 32.9436 92.3443 34.0676C91.8176 34.3481 91.3829 34.7744 91.0922 35.2956C90.6042 36.2756 91.0283 37.3796 92.3683 38.1516C94.3203 39.2796 97.4762 39.2796 99.4162 38.1516C100.748 37.3796 101.16 36.2756 100.66 35.2956Z" fill="black"/>
<path d="M100.86 101.792C100.828 102.5 100.348 103.204 99.4164 103.744C97.4764 104.872 94.3204 104.872 92.3684 103.744C91.4284 103.204 90.9444 102.5 90.9004 101.792V103.364C90.9004 104.104 91.3924 104.844 92.3684 105.408C94.3204 106.532 97.4764 106.532 99.4164 105.408C100.388 104.844 100.868 104.104 100.86 103.364V101.792Z" fill="#E0E0E0"/>
<path d="M92.3684 103.743C94.3204 104.871 97.4764 104.871 99.4164 103.743C100.348 103.203 100.828 102.499 100.86 101.791C100.874 101.478 100.805 101.166 100.66 100.887C100.363 100.366 99.9233 99.9398 99.3924 99.6594C97.4404 98.5354 94.2844 98.5354 92.3444 99.6594C91.8172 99.9373 91.3822 100.363 91.0924 100.883C90.952 101.163 90.8859 101.475 90.9004 101.787C90.9444 102.499 91.4284 103.199 92.3684 103.743Z" fill="#F0F0F0"/>
<path d="M92.1197 49.8193H91.9717V62.9593H92.1197V49.8193Z" fill="#E0E0E0"/>
<path d="M92.3999 63.1033C92.3999 63.1752 92.3785 63.2456 92.3385 63.3055C92.2985 63.3653 92.2417 63.412 92.1752 63.4395C92.1087 63.4671 92.0355 63.4743 91.9649 63.4603C91.8943 63.4462 91.8294 63.4116 91.7785 63.3606C91.7276 63.3097 91.6929 63.2449 91.6789 63.1743C91.6648 63.1037 91.672 63.0305 91.6996 62.964C91.7271 62.8974 91.7738 62.8406 91.8336 62.8006C91.8935 62.7606 91.9639 62.7393 92.0359 62.7393C92.1324 62.7393 92.225 62.7776 92.2933 62.8459C92.3615 62.9141 92.3999 63.0067 92.3999 63.1033Z" fill="#F0F0F0"/>
<path d="M96.7764 45.084H94.9844V101.272C94.9909 101.351 95.0185 101.427 95.0642 101.491C95.1099 101.556 95.1721 101.607 95.2444 101.64C95.4406 101.74 95.6579 101.793 95.8784 101.793C96.0988 101.793 96.3161 101.74 96.5124 101.64C96.5846 101.608 96.6467 101.557 96.6918 101.492C96.737 101.427 96.7635 101.351 96.7684 101.272L96.7764 45.084Z" fill="#E0E0E0"/>
<path d="M106.172 47.5038C105.024 43.5038 100.652 35.2998 100.652 35.2998C101.152 36.2798 100.74 37.3838 99.408 38.1558C97.468 39.2838 94.312 39.2838 92.36 38.1558C91.02 37.3838 90.596 36.2798 91.084 35.2998C91.084 35.2998 86.712 43.5238 85.568 47.5038C84.792 49.5038 85.744 51.6638 88.424 53.2118C92.564 55.6118 99.256 55.6118 103.372 53.2118C106.04 51.6598 106.968 49.4878 106.172 47.5038Z" fill="#F0F0F0"/>
<path d="M100.66 35.2956C100.363 34.774 99.9231 34.348 99.3923 34.0676C97.4402 32.9436 94.2843 32.9436 92.3443 34.0676C91.8176 34.3481 91.3829 34.7744 91.0922 35.2956C90.6042 36.2756 91.0283 37.3796 92.3683 38.1516C94.3203 39.2796 97.4762 39.2796 99.4162 38.1516C100.748 37.3796 101.16 36.2756 100.66 35.2956Z" fill="#E0E0E0"/>
<path opacity="0.05" d="M36.552 96.4884C38.876 95.1484 42.624 95.1484 44.952 96.4884C47.28 97.8284 47.244 100 44.924 101.34C42.604 102.68 38.852 102.68 36.524 101.34C34.196 100 34.232 97.8284 36.552 96.4884Z" fill="black"/>
<path d="M34.5403 88.0518L40.9083 88.2398L47.2763 88.0518C47.5523 92.3558 46.7123 96.7358 45.5523 98.8758C45.279 99.4265 44.8378 99.8761 44.2923 100.16C42.4123 101.244 39.3763 101.244 37.4923 100.16C36.9405 99.8709 36.4991 99.4084 36.2363 98.8438C35.0963 96.6918 34.2683 92.3318 34.5403 88.0518Z" fill="white"/>
<path d="M36.4201 85.4437C33.9241 86.8877 33.9121 89.2197 36.3921 90.6437C38.8721 92.0677 42.9001 92.0877 45.3961 90.6437C47.8921 89.1997 47.9041 86.8677 45.4241 85.4437C42.9441 84.0197 38.9161 83.9997 36.4201 85.4437Z" fill="#EBEBEB"/>
<path d="M37.408 86.0198C35.46 87.1438 35.448 88.9638 37.384 90.0878C39.32 91.2118 42.464 91.2118 44.408 90.0878C46.352 88.9638 46.368 87.1438 44.432 86.0198C42.496 84.8958 39.352 84.8958 37.408 86.0198Z" fill="#E0E0E0"/>
<g opacity="0.15">
<path d="M37.408 86.0198C35.46 87.1438 35.448 88.9638 37.384 90.0878C39.32 91.2118 42.464 91.2118 44.408 90.0878C46.352 88.9638 46.368 87.1438 44.432 86.0198C42.496 84.8958 39.352 84.8958 37.408 86.0198Z" fill="black"/>
</g>
<path d="M41.44 88.2322C40.9297 88.6606 40.3246 88.9614 39.6749 89.1095C39.0253 89.2577 38.3496 89.249 37.704 89.0842C37.0823 88.8948 36.5176 88.5536 36.0609 88.0912C35.6041 87.6289 35.2698 87.0601 35.088 86.4362C35.8421 86.0774 36.5326 85.5977 37.132 85.0162C36.176 84.7788 35.1725 84.8148 34.236 85.1202C33.9771 84.7128 33.822 84.2482 33.7844 83.767C33.7467 83.2859 33.8276 82.8028 34.02 82.3602C35.1066 81.8766 36.3289 81.7917 37.472 82.1202C36.9991 81.7093 36.4471 81.3997 35.8499 81.2105C35.2528 81.0213 34.6232 80.9566 34 81.0202C33.9098 79.1948 34.1957 77.3704 34.84 75.6602C37.212 75.7802 39.516 76.8042 40.292 77.5402C40.3284 78.3899 40.2394 79.2403 40.028 80.0642C40.3344 79.9069 40.5962 79.6749 40.7892 79.3896C40.9821 79.1044 41.1 78.7751 41.132 78.4322C42.616 78.8042 43.252 79.5442 43.484 80.1122C43.2698 81.1676 42.7846 82.1491 42.076 82.9602C43.472 82.5402 44.04 80.9842 44.04 80.9842C45.392 84.2362 45.128 87.9162 41.44 88.2322Z" fill="#B5EB2E"/>
<path opacity="0.2" d="M41.44 88.2322C40.9297 88.6606 40.3246 88.9614 39.6749 89.1095C39.0253 89.2577 38.3496 89.249 37.704 89.0842C37.0823 88.8948 36.5176 88.5536 36.0609 88.0912C35.6041 87.6289 35.2698 87.0601 35.088 86.4362C35.8421 86.0774 36.5326 85.5977 37.132 85.0162C36.176 84.7788 35.1725 84.8148 34.236 85.1202C33.9771 84.7128 33.822 84.2482 33.7844 83.767C33.7467 83.2859 33.8276 82.8028 34.02 82.3602C35.1066 81.8766 36.3289 81.7917 37.472 82.1202C36.9991 81.7093 36.4471 81.3997 35.8499 81.2105C35.2528 81.0213 34.6232 80.9566 34 81.0202C33.9098 79.1948 34.1957 77.3704 34.84 75.6602C37.212 75.7802 39.516 76.8042 40.292 77.5402C40.3284 78.3899 40.2394 79.2403 40.028 80.0642C40.3344 79.9069 40.5962 79.6749 40.7892 79.3896C40.9821 79.1044 41.1 78.7751 41.132 78.4322C42.616 78.8042 43.252 79.5442 43.484 80.1122C43.2698 81.1676 42.7846 82.1491 42.076 82.9602C43.472 82.5402 44.04 80.9842 44.04 80.9842C45.392 84.2362 45.128 87.9162 41.44 88.2322Z" fill="black"/>
<path opacity="0.3" d="M41.44 88.2322C40.9297 88.6606 40.3246 88.9614 39.6749 89.1095C39.0253 89.2577 38.3496 89.249 37.704 89.0842C37.0823 88.8948 36.5176 88.5536 36.0609 88.0912C35.6041 87.6289 35.2698 87.0601 35.088 86.4362C35.8421 86.0774 36.5326 85.5977 37.132 85.0162C36.176 84.7788 35.1725 84.8148 34.236 85.1202C33.9771 84.7128 33.822 84.2482 33.7844 83.767C33.7467 83.2859 33.8276 82.8028 34.02 82.3602C35.1066 81.8766 36.3289 81.7917 37.472 82.1202C36.9991 81.7093 36.4471 81.3997 35.8499 81.2105C35.2528 81.0213 34.6232 80.9566 34 81.0202C33.9098 79.1948 34.1957 77.3704 34.84 75.6602C37.212 75.7802 39.516 76.8042 40.292 77.5402C40.3284 78.3899 40.2394 79.2403 40.028 80.0642C40.3344 79.9069 40.5962 79.6749 40.7892 79.3896C40.9821 79.1044 41.1 78.7751 41.132 78.4322C42.616 78.8042 43.252 79.5442 43.484 80.1122C43.2698 81.1676 42.7846 82.1491 42.076 82.9602C43.472 82.5402 44.04 80.9842 44.04 80.9842C45.392 84.2362 45.128 87.9162 41.44 88.2322Z" fill="white"/>
<path d="M41.5242 88.5845C41.542 88.5835 41.5595 88.579 41.5756 88.5712C41.5918 88.5634 41.6062 88.5525 41.6181 88.5391C41.63 88.5257 41.6391 88.5101 41.6449 88.4932C41.6508 88.4763 41.6532 88.4584 41.6522 88.4405C41.4242 85.4405 39.7082 80.4925 35.6202 76.4085C35.6081 76.3925 35.5928 76.3792 35.5752 76.3696C35.5576 76.36 35.5381 76.3543 35.5181 76.3529C35.4981 76.3515 35.478 76.3544 35.4592 76.3614C35.4404 76.3684 35.4234 76.3794 35.4092 76.3935C35.395 76.4077 35.384 76.4248 35.377 76.4436C35.37 76.4624 35.3671 76.4825 35.3685 76.5025C35.3699 76.5225 35.3756 76.5419 35.3852 76.5595C35.3948 76.5772 35.4081 76.5925 35.4242 76.6045C39.4642 80.6325 41.1562 85.5085 41.3762 88.4605C41.3802 88.4963 41.3978 88.529 41.4254 88.5521C41.4529 88.5752 41.4883 88.5868 41.5242 88.5845Z" fill="#F5F5F5"/>
<path d="M40.4005 89.8404C40.8766 90.2286 41.4377 90.4989 42.038 90.6292C42.6384 90.7595 43.261 90.7461 43.8552 90.5901C44.4494 90.4342 44.9984 90.1401 45.4574 89.7317C45.9164 89.3234 46.2724 88.8124 46.4965 88.2404C45.8145 87.9302 45.1908 87.5054 44.6525 86.9844C45.5555 86.7686 46.4996 86.7962 47.3885 87.0644C47.6595 86.7226 47.8386 86.3171 47.9086 85.8865C47.9786 85.4559 47.9373 85.0145 47.7885 84.6044C46.7537 84.179 45.6068 84.1101 44.5285 84.4084C45.4876 83.6585 46.6958 83.301 47.9085 83.4084C48.116 81.7944 47.9602 80.1544 47.4525 78.6084C45.1885 78.7444 42.9485 79.6804 42.1725 80.3444C42.0844 81.0912 42.1154 81.8473 42.2645 82.5844C41.9901 82.4545 41.7571 82.2513 41.5912 81.9971C41.4253 81.7429 41.333 81.4478 41.3245 81.1444C39.9085 81.4884 39.2685 82.1524 39.0165 82.6524C39.1526 83.5823 39.5492 84.4546 40.1605 85.1684C38.8805 84.8044 38.4445 83.4324 38.4445 83.4324C36.9565 86.3204 36.9765 89.5644 40.4005 89.8404Z" fill="#B5EB2E"/>
<path opacity="0.3" d="M40.4005 89.8404C40.8766 90.2286 41.4377 90.4989 42.038 90.6292C42.6384 90.7595 43.261 90.7461 43.8552 90.5901C44.4494 90.4342 44.9984 90.1401 45.4574 89.7317C45.9164 89.3234 46.2724 88.8124 46.4965 88.2404C45.8145 87.9302 45.1908 87.5054 44.6525 86.9844C45.5555 86.7686 46.4996 86.7962 47.3885 87.0644C47.6595 86.7226 47.8386 86.3171 47.9086 85.8865C47.9786 85.4559 47.9373 85.0145 47.7885 84.6044C46.7537 84.179 45.6068 84.1101 44.5285 84.4084C45.4876 83.6585 46.6958 83.301 47.9085 83.4084C48.116 81.7944 47.9602 80.1544 47.4525 78.6084C45.1885 78.7444 42.9485 79.6804 42.1725 80.3444C42.0844 81.0912 42.1154 81.8473 42.2645 82.5844C41.9901 82.4545 41.7571 82.2513 41.5912 81.9971C41.4253 81.7429 41.333 81.4478 41.3245 81.1444C39.9085 81.4884 39.2685 82.1524 39.0165 82.6524C39.1526 83.5823 39.5492 84.4546 40.1605 85.1684C38.8805 84.8044 38.4445 83.4324 38.4445 83.4324C36.9565 86.3204 36.9765 89.5644 40.4005 89.8404Z" fill="white"/>
<path d="M40.3079 90.1641C40.3407 90.1644 40.3726 90.1529 40.3976 90.1315C40.4226 90.1102 40.439 90.0806 40.4439 90.0481C40.8439 87.4361 42.7319 83.1041 46.7959 79.4841C46.8206 79.4574 46.8344 79.4224 46.8344 79.3861C46.8344 79.3497 46.8206 79.3147 46.7959 79.2881C46.7697 79.2624 46.7345 79.248 46.6979 79.248C46.6612 79.248 46.626 79.2624 46.5999 79.2881C42.4839 82.9561 40.5599 87.3601 40.1639 90.0161C40.1581 90.0516 40.1666 90.088 40.1876 90.1172C40.2086 90.1465 40.2404 90.1662 40.2759 90.1721L40.3079 90.1641Z" fill="white"/>
<path d="M38.0277 148.744L30.4797 148.964L22.9277 148.744C22.6037 153.844 23.5997 159.036 24.9717 161.576C25.2975 162.228 25.8211 162.76 26.4677 163.096C28.6957 164.384 32.2957 164.384 34.5077 163.096C35.1641 162.754 35.6897 162.206 36.0037 161.536C37.3677 158.984 38.3517 153.816 38.0277 148.744Z" fill="white"/>
<path d="M35.8003 145.652C38.7563 147.36 38.7723 150.128 35.8363 151.836C32.9003 153.544 28.1163 153.544 25.1563 151.836C22.1963 150.128 22.1843 147.36 25.1243 145.652C28.0643 143.944 32.8443 143.944 35.8003 145.652Z" fill="#EBEBEB"/>
<path d="M34.6325 146.332C36.9405 147.664 36.9525 149.824 34.6565 151.156C32.3605 152.488 28.6565 152.488 26.3285 151.156C24.0005 149.824 24.0085 147.664 26.3005 146.332C28.5925 145 32.3245 145 34.6325 146.332Z" fill="#E0E0E0"/>
<g opacity="0.15">
<path d="M34.6325 146.332C36.9405 147.664 36.9525 149.824 34.6565 151.156C32.3605 152.488 28.6565 152.488 26.3285 151.156C24.0005 149.824 24.0085 147.664 26.3005 146.332C28.5925 145 32.3245 145 34.6325 146.332Z" fill="black"/>
</g>
<path d="M42.8922 116.528C25.8802 122.1 25.7242 133.48 29.5602 141.6C30.5282 143.244 33.4562 144.124 36.0042 134.044L31.5322 134.6L36.7322 131.96L38.0882 127.916L33.7442 128.24L39.2562 125.92C40.2746 122.718 41.4889 119.582 42.8922 116.528Z" fill="#91BC25"/>
<path opacity="0.2" d="M42.8922 116.528C25.8802 122.1 25.7242 133.48 29.5602 141.6C30.5282 143.244 33.4562 144.124 36.0042 134.044L31.5322 134.6L36.7322 131.96L38.0882 127.916L33.7442 128.24L39.2562 125.92C40.2746 122.718 41.4889 119.582 42.8922 116.528Z" fill="black"/>
<path opacity="0.2" d="M42.8922 116.528C25.8802 122.1 25.7242 133.48 29.5602 141.6C30.5282 143.244 33.4562 144.124 36.0042 134.044L31.5322 134.6L36.7322 131.96L38.0882 127.916L33.7442 128.24L39.2562 125.92C40.2746 122.718 41.4889 119.582 42.8922 116.528Z" fill="white"/>
<path d="M38.0799 119.376C29.1079 126.176 28.2959 133.992 30.8319 142.14C29.9359 134.964 28.9679 127.708 38.0799 119.376Z" fill="white"/>
<path d="M14.0762 128.088C30.8442 130.452 32.8762 141.024 30.6562 149.212C30.0282 150.9 27.4562 152.208 23.4002 143.244L27.6562 143.032L22.3682 141.432L20.4362 137.892L24.5322 137.472L19.0162 136.228C17.5383 133.416 15.8885 130.697 14.0762 128.088Z" fill="#91BC25"/>
<path opacity="0.2" d="M14.0762 128.088C30.8442 130.452 32.8762 141.024 30.6562 149.212C30.0282 150.9 27.4562 152.208 23.4002 143.244L27.6562 143.032L22.3682 141.432L20.4362 137.892L24.5322 137.472L19.0162 136.228C17.5383 133.416 15.8885 130.697 14.0762 128.088Z" fill="white"/>
<path d="M19.0283 129.94C28.5163 134.792 30.5683 141.94 29.5603 149.94C29.2003 143.108 28.9003 136.188 19.0283 129.94Z" fill="white"/>
<path opacity="0.1" d="M14.0762 128.088C30.8442 130.452 32.8762 141.024 30.6562 149.212C30.0282 150.9 27.4562 152.208 23.4002 143.244L27.6562 143.032L22.3682 141.432L20.4362 137.892L24.5322 137.472L19.0162 136.228C17.5383 133.416 15.8885 130.697 14.0762 128.088Z" fill="black"/>
<path d="M47.8003 132.053C32.4203 132.305 29.4003 141.609 30.4923 149.253C30.8683 150.853 33.0483 152.309 37.6923 144.685L33.8883 144.001L38.8323 143.157L40.9683 140.185L37.3243 139.345L42.4363 138.841C44.0836 136.47 45.875 134.203 47.8003 132.053Z" fill="#91BC25"/>
<path d="M43.1285 133.168C34.0325 136.476 31.3885 142.68 31.3965 150C32.4845 143.896 33.5325 137.692 43.1285 133.168Z" fill="white"/>
<path opacity="0.2" d="M47.8003 132.053C32.4203 132.305 29.4003 141.609 30.4923 149.253C30.8683 150.853 33.0483 152.309 37.6923 144.685L33.8883 144.001L38.8323 143.157L40.9683 140.185L37.3243 139.345L42.4363 138.841C44.0836 136.47 45.875 134.203 47.8003 132.053Z" fill="white"/>
<path d="M176.696 41.9999C176.285 41.1593 175.629 40.4623 174.816 39.9999L125.916 12.1799C125.687 12.0926 125.445 12.0452 125.2 12.0399C122.68 11.9879 120.152 14.3599 119.796 15.6039C119.715 15.7611 119.673 15.9352 119.672 16.1119V121.848C119.672 122.673 119.89 123.484 120.304 124.198C120.719 124.912 121.315 125.503 122.032 125.912L170.936 153.78C170.997 153.809 171.06 153.835 171.124 153.856C174.04 155.092 177.148 152.52 177.148 149.828V44.0639C177.157 43.3504 177.002 42.6444 176.696 41.9999Z" fill="#37474F"/>
<path d="M119.812 15.5996C120.168 14.3556 122.696 11.9996 125.216 12.0356C125.456 12.0423 125.694 12.0896 125.92 12.1756L174.8 39.9996C175.519 40.4089 176.119 40.9993 176.54 41.7122C176.961 42.4251 177.189 43.2357 177.2 44.0636V149.84C177.2 152.532 174.092 155.104 171.176 153.868C171.111 153.846 171.048 153.821 170.988 153.792L122.048 125.912C121.33 125.503 120.734 124.911 120.32 124.198C119.905 123.484 119.687 122.673 119.688 121.848V16.1156C119.687 15.9361 119.729 15.7591 119.812 15.5996Z" fill="#455A64"/>
<path d="M170.36 55.2438C170.364 54.8311 170.259 54.4248 170.055 54.0659C169.851 53.707 169.557 53.4082 169.2 53.1998L123.776 27.3798C123.598 27.2779 123.396 27.2247 123.191 27.2256C122.986 27.2265 122.785 27.2814 122.608 27.3848C122.43 27.4882 122.284 27.6364 122.182 27.8146C122.08 27.9928 122.027 28.1946 122.028 28.3998V113.688C122.027 114.1 122.135 114.505 122.341 114.862C122.547 115.218 122.843 115.514 123.2 115.72L168.612 141.6C168.79 141.701 168.992 141.755 169.196 141.754C169.401 141.753 169.602 141.699 169.779 141.596C169.956 141.493 170.103 141.345 170.205 141.168C170.307 140.99 170.361 140.789 170.36 140.584V55.2438Z" fill="#BADBF7"/>
<path opacity="0.2" d="M170.36 55.2438C170.364 54.8311 170.259 54.4248 170.055 54.0659C169.851 53.707 169.557 53.4082 169.2 53.1998L123.776 27.3798C123.598 27.2779 123.396 27.2247 123.191 27.2256C122.986 27.2265 122.785 27.2814 122.608 27.3848C122.43 27.4882 122.284 27.6364 122.182 27.8146C122.08 27.9928 122.027 28.1946 122.028 28.3998V113.688C122.027 114.1 122.135 114.505 122.341 114.862C122.547 115.218 122.843 115.514 123.2 115.72L168.612 141.6C168.79 141.701 168.992 141.755 169.196 141.754C169.401 141.753 169.602 141.699 169.779 141.596C169.956 141.493 170.103 141.345 170.205 141.168C170.307 140.99 170.361 140.789 170.36 140.584V55.2438Z" fill="black"/>
<path opacity="0.3" d="M177.2 44.0639V149.84C177.2 152.532 174.092 155.104 171.176 153.868C171.351 153.931 171.54 153.952 171.725 153.927C171.91 153.903 172.086 153.834 172.239 153.727C172.392 153.62 172.517 153.478 172.604 153.312C172.69 153.147 172.735 152.963 172.736 152.776V46.9879C172.731 46.0664 172.452 45.1671 171.936 44.4039L176.736 42.0039C177.045 42.6463 177.204 43.3509 177.2 44.0639Z" fill="black"/>
<path opacity="0.1" d="M125.2 12.0396C125.44 12.0463 125.678 12.0936 125.904 12.1796L174.8 39.9996C175.613 40.462 176.268 41.159 176.68 41.9996L171.88 44.3996C171.48 43.7888 170.941 43.2816 170.308 42.9196L121.436 15.0996C121.297 15.0211 121.144 14.9717 120.986 14.9544C120.828 14.9372 120.668 14.9525 120.516 14.9993C120.364 15.0461 120.223 15.1235 120.102 15.2267C119.981 15.3299 119.882 15.4568 119.812 15.5996C120.164 14.3596 122.692 11.9996 125.2 12.0396Z" fill="white"/>
<path d="M140.168 32.5675C139.824 32.3675 139.54 32.5235 139.536 32.9195C139.549 33.1361 139.613 33.3466 139.722 33.5342C139.831 33.7217 139.982 33.8811 140.164 33.9995L149.764 39.5395C150.108 39.7395 150.384 39.5715 150.388 39.1755C150.376 38.9612 150.314 38.7527 150.206 38.5671C150.099 38.3815 149.948 38.224 149.768 38.1075L140.168 32.5675Z" fill="#263238"/>
<path d="M152.224 39.5278C151.88 39.3318 151.604 39.4878 151.604 39.8838C151.613 40.0998 151.674 40.3103 151.781 40.4981C151.888 40.6859 152.039 40.8455 152.22 40.9638C152.564 41.1598 152.848 40.9998 152.848 40.6038C152.836 40.3879 152.773 40.1778 152.665 39.9908C152.556 39.8037 152.405 39.6451 152.224 39.5278Z" fill="#263238"/>
<path d="M146.084 31.7631C145.396 31.3631 144.844 31.6791 144.84 32.4711C144.862 32.9017 144.985 33.3211 145.2 33.695C145.415 34.069 145.715 34.3869 146.076 34.6231C146.76 35.0231 147.332 34.6951 147.332 33.9071C147.307 33.4767 147.181 33.0583 146.964 32.6857C146.748 32.3132 146.446 31.9971 146.084 31.7631Z" fill="#263238"/>
<path d="M146.08 131.339C144.684 130.539 143.556 131.175 143.552 132.779C143.593 133.659 143.842 134.516 144.279 135.281C144.715 136.046 145.327 136.697 146.064 137.179C147.46 137.979 148.62 137.323 148.624 135.719C148.574 134.841 148.317 133.986 147.875 133.225C147.433 132.464 146.818 131.818 146.08 131.339Z" fill="#263238"/>
<path d="M162.684 58.1603C162.628 58.0123 162.564 57.8643 162.496 57.7203C162.217 57.1513 161.817 56.6502 161.324 56.2523C161.154 56.1196 160.975 55.9993 160.788 55.8923L116.4 30.6403C116.327 30.6075 116.25 30.5833 116.172 30.5683C116.04 30.5407 115.906 30.5234 115.772 30.5163C114.344 30.4883 112.912 31.3163 111.96 32.2163C111.479 32.634 111.104 33.1606 110.868 33.7523C110.835 33.8234 110.809 33.8969 110.788 33.9723C110.767 34.052 110.756 34.134 110.756 34.2163V130.188C110.756 130.937 110.954 131.673 111.332 132.32C111.425 132.48 111.528 132.634 111.64 132.78C111.984 133.225 112.412 133.597 112.9 133.876L157.3 159.168C157.354 159.196 157.41 159.22 157.468 159.24C157.468 159.24 157.468 159.24 157.488 159.24C160.136 160.36 162.956 158.04 162.956 155.58V59.6003C162.949 59.1082 162.857 58.6209 162.684 58.1603Z" fill="#0C5DAC"/>
<path d="M110.86 33.7524C111.184 32.6204 113.48 30.4684 115.764 30.5164C115.984 30.5207 116.202 30.5626 116.408 30.6404L160.808 55.8924C161.457 56.2673 161.996 56.8053 162.373 57.4528C162.75 58.1004 162.951 58.8352 162.956 59.5844V155.6C162.956 158.048 160.156 160.38 157.488 159.26C157.488 159.26 157.488 159.26 157.468 159.26C157.411 159.24 157.354 159.216 157.3 159.188L112.9 133.896C112.249 133.525 111.708 132.988 111.332 132.341C110.955 131.693 110.757 130.958 110.756 130.208V34.2164C110.754 34.0558 110.79 33.897 110.86 33.7524Z" fill="#0C5DAC"/>
<path opacity="0.2" d="M162.936 59.6V155.6C162.936 158.048 160.136 160.38 157.468 159.26C157.468 159.26 157.468 159.26 157.448 159.26C157.608 159.318 157.779 159.336 157.947 159.314C158.116 159.292 158.276 159.229 158.415 159.132C158.554 159.035 158.668 158.905 158.747 158.755C158.826 158.605 158.867 158.438 158.868 158.268V62.268C158.865 61.4327 158.614 60.6171 158.148 59.9239L162.496 57.752C162.781 58.3267 162.932 58.9586 162.936 59.6Z" fill="white"/>
<path opacity="0.4" d="M115.76 30.5164C115.981 30.5207 116.198 30.5626 116.404 30.6404L160.804 55.8924C161.544 56.3165 162.139 56.9534 162.512 57.7204L158.164 59.8924C157.802 59.3376 157.312 58.877 156.736 58.5484L112.336 33.2924C112.21 33.2216 112.071 33.1773 111.927 33.1622C111.783 33.1471 111.637 33.1616 111.499 33.2046C111.361 33.2477 111.233 33.3185 111.123 33.4127C111.014 33.5068 110.924 33.6225 110.86 33.7524C111.2 32.6204 113.476 30.4684 115.76 30.5164Z" fill="white"/>
<path opacity="0.3" d="M110.86 33.7524C111.184 32.6204 113.48 30.4684 115.764 30.5164C115.984 30.5207 116.202 30.5626 116.408 30.6404L160.808 55.8924C161.457 56.2673 161.996 56.8053 162.373 57.4528C162.75 58.1004 162.951 58.8352 162.956 59.5844V155.6C162.956 158.048 160.156 160.38 157.488 159.26C157.488 159.26 157.488 159.26 157.468 159.26C157.411 159.24 157.354 159.216 157.3 159.188L112.9 133.896C112.249 133.525 111.708 132.988 111.332 132.341C110.955 131.693 110.757 130.958 110.756 130.208V34.2164C110.754 34.0558 110.79 33.897 110.86 33.7524Z" fill="white"/>
<path d="M154.312 79.6447L114.752 56.8007C114.372 56.5807 114.064 56.7567 114.064 57.2007L114 101.789C114.012 102.029 114.08 102.263 114.2 102.471C114.319 102.68 114.487 102.857 114.688 102.989L154.244 125.829C154.624 126.045 154.932 125.873 154.936 125.429L154.992 80.8367C154.981 80.5984 154.914 80.3661 154.795 80.1588C154.677 79.9516 154.512 79.7754 154.312 79.6447Z" fill="#0C5DAC"/>
<path d="M116.563 41.9848L117.035 42.2568L117.039 40.2368L116.571 39.9648L116.563 41.9848Z" fill="white"/>
<path d="M115.756 41.5168L116.224 41.7888L116.232 40.1528L115.76 39.8848L115.756 41.5168Z" fill="white"/>
<path d="M114.948 41.0479L115.416 41.3199L115.42 40.1079L114.952 39.8359L114.948 41.0479Z" fill="white"/>
<path d="M114.14 40.5846L114.608 40.8526L114.612 40.0366L114.14 39.7646V40.5846Z" fill="white"/>
<path d="M118.315 42.9929L121.191 44.6569L121.195 42.9609L118.319 41.2969L118.315 42.9929Z" fill="white"/>
<path d="M122.624 45.4801L124.064 46.3121L124.068 44.6161L122.628 43.7881L122.624 45.4801Z" fill="white"/>
<path d="M152.328 62.4207L152.332 61.0527L153.876 61.9447L152.332 61.0527L152.328 62.4207Z" fill="white"/>
<path d="M152.328 62.4207L153.876 63.3127V61.9447L152.332 61.0527L152.328 62.4207Z" fill="#0C5DAC"/>
<path d="M154.964 62.8001V62.2641L152.048 60.5801V62.5801L154.964 64.2641V63.7321L155.336 63.9481V62.9961L154.964 62.8001ZM153.876 63.3321L152.328 62.4401V61.0721L153.876 61.9641V63.3321Z" fill="white"/>
<path d="M147.868 60.0241L150.744 61.6841L150.752 59.9881L147.872 58.3281L147.868 60.0241Z" fill="white"/>
<path d="M134.132 51.9929L137.008 53.6569L137.016 51.9609L134.136 50.2969L134.132 51.9929Z" fill="white"/>
<path d="M127.4 124.097L127.396 125.789L134.772 130.049L134.78 128.357L127.4 124.097Z" fill="#0C5DAC"/>
<path d="M138.16 124.781L130.568 120.393L130.56 122.085L138.156 126.469L138.16 124.781Z" fill="#0C5DAC"/>
<path d="M114.696 115.56L124.02 120.98L124.024 119.292L114.7 113.872L114.696 115.56Z" fill="#0C5DAC"/>
<path d="M128.524 119.216L114.708 111.2L114.704 112.888L128.52 120.904L128.524 119.216Z" fill="#0C5DAC"/>
<path d="M126.056 122.157L142.88 131.869L142.884 130.181L126.064 120.469L126.056 122.157Z" fill="#0C5DAC"/>
<path d="M125.608 123.064L114.708 116.772L114.704 118.46L125.604 124.752L125.608 123.064Z" fill="#0C5DAC"/>
<path d="M140.116 127.6L153.56 135.364L153.568 133.672L140.12 125.908L140.116 127.6Z" fill="#0C5DAC"/>
<path d="M144.84 133.001L153.556 138.032L153.56 136.344L144.848 131.312L144.84 133.001Z" fill="#0C5DAC"/>
<path d="M114.704 124.268L131.528 133.98L131.532 132.292L114.708 122.576L114.704 124.268Z" fill="#0C5DAC"/>
<path d="M114.708 126.568L114.704 128.26L125.608 134.552V132.86L114.708 126.568Z" fill="#0C5DAC"/>
<path d="M134.024 137.717L127.376 133.881V135.573L134.02 139.409L134.024 137.717Z" fill="#0C5DAC"/>
<path d="M115.712 105.873C115.61 105.798 115.49 105.752 115.364 105.739C115.238 105.726 115.111 105.748 114.996 105.801C114.596 106.025 114.596 106.757 114.996 107.437L115.224 107.837L116.648 110.301L118.08 109.501L118.312 109.369C118.712 109.145 118.712 108.409 118.312 107.729C118.144 107.416 117.899 107.152 117.6 106.961C117.497 106.888 117.377 106.843 117.252 106.83C117.126 106.817 117 106.838 116.884 106.889L116.652 107.021L116.424 106.621C116.255 106.314 116.01 106.057 115.712 105.873Z" fill="white"/>
<path d="M121.648 109.381C122.159 109.713 122.585 110.162 122.89 110.69C123.195 111.219 123.371 111.811 123.404 112.421C123.415 112.729 123.331 113.034 123.164 113.293L123.396 114.441L122.516 113.665C122.205 113.676 121.899 113.593 121.636 113.429C121.125 113.096 120.7 112.647 120.396 112.119C120.091 111.59 119.916 110.998 119.884 110.389C119.888 109.269 120.676 108.821 121.648 109.381Z" fill="white"/>
<path d="M136.716 73.5008L138.76 77.2368L141.732 78.2728L142.988 82.1608L145.992 84.3048L146.34 87.9608L149.084 91.0048L148.48 94.0728L150.696 97.7128L149.208 99.8928L150.68 103.781L148.452 104.857L149.032 108.609L146.28 108.477L145.916 111.725L142.908 110.397L141.636 112.825L138.668 110.429L136.608 111.801L133.972 108.577L131.328 108.753L129.28 105.013L126.312 103.981L125.056 100.089L122.052 97.9488L121.708 94.2888L118.964 91.2488L119.564 88.1768L117.348 84.5368L118.836 82.3568L117.364 78.4688L119.596 77.3928L119.012 73.6408L121.764 73.7768L122.128 70.5288L125.136 71.8528L126.412 69.4248L129.376 71.8208L131.436 70.4528L134.072 73.6768L136.716 73.5008Z" fill="#0C5DAC"/>
<g opacity="0.4">
<path d="M136.716 73.5008L138.76 77.2368L141.732 78.2728L142.988 82.1608L145.992 84.3048L146.34 87.9608L149.084 91.0048L148.48 94.0728L150.696 97.7128L149.208 99.8928L150.68 103.781L148.452 104.857L149.032 108.609L146.28 108.477L145.916 111.725L142.908 110.397L141.636 112.825L138.668 110.429L136.608 111.801L133.972 108.577L131.328 108.753L129.28 105.013L126.312 103.981L125.056 100.089L122.052 97.9488L121.708 94.2888L118.964 91.2488L119.564 88.1768L117.348 84.5368L118.836 82.3568L117.364 78.4688L119.596 77.3928L119.012 73.6408L121.764 73.7768L122.128 70.5288L125.136 71.8528L126.412 69.4248L129.376 71.8208L131.436 70.4528L134.072 73.6768L136.716 73.5008Z" fill="white"/>
</g>
<path d="M134.064 76.5247C141.08 80.5767 146.748 90.3967 146.724 98.4607C146.7 106.525 140.996 109.773 134 105.725C127.004 101.677 121.316 91.8527 121.336 83.7887C121.356 75.7247 127.044 72.4767 134.064 76.5247Z" fill="#0C5DAC"/>
<g opacity="0.2">
<path d="M134.064 76.5247C141.08 80.5767 146.748 90.3967 146.724 98.4607C146.7 106.525 140.996 109.773 134 105.725C127.004 101.677 121.316 91.8527 121.336 83.7887C121.356 75.7247 127.044 72.4767 134.064 76.5247Z" fill="white"/>
</g>
<path d="M142.704 89.2006C143.012 89.3766 143.196 89.9566 142.92 90.0566C140.396 90.9766 135.048 93.1806 131.784 96.3486C131.669 96.4368 131.529 96.4846 131.384 96.4846C131.239 96.4846 131.099 96.4368 130.984 96.3486C130.636 96.137 130.358 95.8283 130.184 95.4606C128.685 92.4437 127.006 89.5197 125.156 86.7046C124.82 86.1926 125.036 85.7086 125.436 85.9406C125.469 85.9587 125.5 85.9802 125.528 86.0046C127.544 87.7 129.31 89.673 130.772 91.8646C135.716 88.6886 140.204 88.7726 142.572 89.1526C142.618 89.1607 142.663 89.1769 142.704 89.2006Z" fill="white"/>
<path d="M117.384 50.4719C118.128 50.9561 118.747 51.6092 119.19 52.378C119.634 53.1468 119.889 54.0096 119.936 54.8959C119.936 56.5199 118.78 57.1759 117.368 56.3599C116.621 55.8776 115.999 55.2252 115.553 54.4563C115.106 53.6874 114.848 52.8237 114.8 51.9359C114.82 50.3119 115.968 49.6559 117.384 50.4719Z" fill="white"/>
<path d="M136.088 63.1683L122.272 55.1523L122.268 56.8443L136.084 64.8603L136.088 63.1683Z" fill="white"/>
<path d="M74.4443 66.0205H74.8443C77.4443 66.0525 80.7283 67.8205 82.3363 72.3565L88.5803 84.4445L81.4403 87.6005L77.5403 76.1885L74.4443 66.0205Z" fill="#F9D9BA"/>
<path d="M79.448 74.0485C79.944 75.4765 79.976 77.0165 80.056 78.5245C80.136 80.0325 80.308 81.8605 81 83.2045C81.7618 82.6774 82.6736 82.4109 83.5993 82.4448C84.525 82.4786 85.4149 82.8111 86.136 83.3925C86.6538 83.8261 87.0518 84.3853 87.292 85.0165L81.44 87.6005L77.54 76.1885L75.624 69.8965C76.5057 70.2991 77.2982 70.8738 77.9548 71.5868C78.6115 72.2998 79.1191 73.1367 79.448 74.0485Z" fill="#FCBAB1"/>
<path d="M81.3764 85.4284C81.6471 84.7551 82.0854 84.1621 82.6496 83.7057C83.2139 83.2493 83.8853 82.9445 84.6004 82.8204C86.0244 82.5924 87.6444 83.3364 88.5684 84.4484C89.3444 85.3884 89.2244 86.6604 88.7324 87.7764C88.3224 88.644 87.6244 89.3425 86.7572 89.7532C85.89 90.1638 84.9073 90.2611 83.9764 90.0284C82.1364 89.5164 80.6804 87.2004 81.3764 85.4284Z" fill="#F9D9BA"/>
<path d="M58.6843 163.376C58.5254 163.696 58.2782 163.963 57.9719 164.147C57.6656 164.331 57.3132 164.423 56.9563 164.412C56.6394 164.352 56.344 164.209 56.0997 163.998C55.8554 163.788 55.6707 163.517 55.5643 163.212C55.3535 162.607 55.2572 161.968 55.2803 161.328C55.2376 159.195 55.2883 157.069 55.4323 154.952C56.8961 155.261 58.3882 155.416 59.8843 155.416L59.2003 161.316C59.164 162.03 58.9887 162.73 58.6843 163.376Z" fill="#F9D9BA"/>
<path d="M54.0363 160.316C54.5883 158.544 55.1923 156.716 55.0643 154.88L55.4323 154.968C55.2883 157.088 55.2376 159.213 55.2803 161.344C55.2572 161.984 55.3535 162.623 55.5643 163.228C55.6707 163.532 55.8554 163.804 56.0997 164.014C56.344 164.225 56.6394 164.367 56.9563 164.428C57.3132 164.438 57.6656 164.346 57.9719 164.163C58.2782 163.979 58.5254 163.712 58.6843 163.392C58.9887 162.745 59.164 162.046 59.2003 161.332L59.8843 155.448H60.3563C59.9563 157.648 60.2403 159.908 60.3803 162.144C60.5203 164.38 60.4963 166.708 59.5363 168.728C59.3144 169.274 58.9358 169.741 58.4483 170.072C58.1799 170.217 57.8847 170.306 57.5807 170.334C57.2768 170.361 56.9704 170.327 56.6803 170.232C56.1016 170.037 55.5759 169.712 55.1443 169.28C54.1657 168.342 53.5137 167.116 53.2843 165.78C52.9723 163.944 53.4843 162.084 54.0363 160.316Z" fill="#455A64"/>
<path d="M77.232 158.62L76.868 160.812C75.128 159.98 74.568 159.048 74.568 159.048C74.524 157.368 74.544 155.636 74.568 154.792C75.032 155.816 76.044 156.508 76.676 157.452C76.9087 157.817 77.0955 158.209 77.232 158.62Z" fill="#455A64"/>
<path d="M77.7922 160.572L76.8682 160.812L77.2322 158.62C77.4602 159.248 77.6002 159.92 77.7922 160.572Z" fill="#455A64"/>
<path opacity="0.2" d="M77.232 158.62L76.868 160.812C75.128 159.98 74.568 159.048 74.568 159.048C74.524 157.368 74.544 155.636 74.568 154.792C75.032 155.816 76.044 156.508 76.676 157.452C76.9087 157.817 77.0955 158.209 77.232 158.62Z" fill="black"/>
<path opacity="0.3" d="M77.7922 160.572L76.8682 160.812L77.2322 158.62C77.4602 159.248 77.6002 159.92 77.7922 160.572Z" fill="black"/>
<path d="M74.4724 152.36C74.6566 151.781 74.8977 151.221 75.1924 150.688C75.2177 151.589 75.4949 152.465 75.9924 153.216C76.6164 154.224 77.4524 155.092 78.0564 156.12C78.7884 157.368 79.1684 158.836 80.1284 159.916C80.6021 160.439 81.1909 160.845 81.8483 161.101C82.5058 161.357 83.2138 161.457 83.9164 161.392C84.4439 161.373 84.9431 161.149 85.3084 160.768C85.4546 160.579 85.5347 160.347 85.5364 160.108C86.0098 160.617 86.5339 161.075 87.1004 161.476C87.7324 161.916 88.4924 162.38 88.5964 163.144C88.613 163.464 88.5358 163.782 88.3745 164.058C88.2133 164.334 87.9748 164.558 87.6884 164.7C87.1084 164.969 86.4758 165.106 85.8364 165.1C84.4679 165.22 83.0889 165.102 81.7604 164.752C80.4259 164.389 79.2706 163.549 78.5124 162.392C78.187 161.817 77.9421 161.199 77.7844 160.556C77.6044 159.904 77.4524 159.232 77.2244 158.604C77.0841 158.193 76.8933 157.801 76.6564 157.436C76.0244 156.492 75.0124 155.8 74.5484 154.776C74.5244 154.72 74.4964 154.668 74.4724 154.612C74.2358 153.88 74.2358 153.092 74.4724 152.36Z" fill="#455A64"/>
<path d="M83.9242 161.393C83.2216 161.457 82.5135 161.358 81.8561 161.101C81.1987 160.845 80.6098 160.44 80.1362 159.917C79.1762 158.837 78.7962 157.369 78.0642 156.121C77.4602 155.093 76.6242 154.225 76.0002 153.217C75.5026 152.465 75.2255 151.589 75.2002 150.689L75.4282 150.265C77.3202 150.601 79.3922 150.721 81.2122 151.337C81.7733 153.25 82.4876 155.114 83.3482 156.913C83.9315 158.076 84.6732 159.153 85.5522 160.113C85.5505 160.352 85.4704 160.584 85.3242 160.773C84.9562 161.154 84.4539 161.376 83.9242 161.393Z" fill="#F9D9BA"/>
<path d="M78.8007 82.4403C78.9047 84.0403 79.0074 85.6403 79.1087 87.2403C82.7287 102.164 81.6487 124.46 81.6487 124.46L81.5367 151.66C81.0238 151.997 80.4491 152.228 79.846 152.34C79.2429 152.452 78.6235 152.442 78.0241 152.312C77.4246 152.182 76.857 151.934 76.3544 151.583C75.8518 151.231 75.4243 150.783 75.0967 150.264C74.4807 143.58 71.3727 133.064 72.2967 124.868C71.0447 118.4 70.1127 109.2 70.1127 109.2L67.0687 125.112L60.7287 155.82C57.9287 157.02 55.4447 156.196 54.6367 155.108C55.2847 138.168 55.0087 130.024 57.6207 122.192C56.8207 101.18 56.5647 91.6843 61.6847 84.4643L61.6207 81.7363L78.8007 82.4403Z" fill="#0C5DAC"/>
<path opacity="0.3" d="M78.8007 82.4403C78.9047 84.0403 79.0074 85.6403 79.1087 87.2403C82.7287 102.164 81.6487 124.46 81.6487 124.46L81.5367 151.66C81.0238 151.997 80.4491 152.228 79.846 152.34C79.2429 152.452 78.6235 152.442 78.0241 152.312C77.4246 152.182 76.857 151.934 76.3544 151.583C75.8518 151.231 75.4243 150.783 75.0967 150.264C74.4807 143.58 71.3727 133.064 72.2967 124.868C71.0447 118.4 70.1127 109.2 70.1127 109.2L67.0687 125.112L60.7287 155.82C57.9287 157.02 55.4447 156.196 54.6367 155.108C55.2847 138.168 55.0087 130.024 57.6207 122.192C56.8207 101.18 56.5647 91.6843 61.6847 84.4643L61.6207 81.7363L78.8007 82.4403Z" fill="black"/>
<path opacity="0.2" d="M70.8 105.652C72.6956 105.309 74.4798 104.511 76 103.328C75.7089 104.17 75.2072 104.923 74.5428 105.516C73.8783 106.109 73.0732 106.522 72.204 106.716L70.604 113.348L70.124 109.244L70.8 105.652Z" fill="black"/>
<path d="M72.4805 65.7402L74.3165 65.8762C74.6693 65.9024 75.0117 66.0081 75.3179 66.1855C75.6241 66.3628 75.8862 66.6072 76.0845 66.9002L80.3245 73.1802C80.9483 74.0987 81.2543 75.196 81.1958 76.3048C81.1373 77.4135 80.7175 78.4726 80.0005 79.3202C79.7323 79.6361 79.5332 80.0047 79.4161 80.4022C79.299 80.7997 79.2664 81.2174 79.3205 81.6282L80.7685 95.9602C72.4325 102.148 61.0645 98.4362 57.2725 96.4162C57.4165 93.3082 58.7325 89.2562 60.3085 86.4882C60.8133 85.6082 61.138 84.6365 61.2637 83.6298C61.3894 82.623 61.3135 81.6014 61.0405 80.6242L59.8405 76.3162L61.5765 66.0602L72.4805 65.7402Z" fill="#455A64"/>
<path d="M79.4201 51.2002C79.5641 51.9722 80.1721 54.2962 79.5641 55.6002C79.2721 56.2202 78.9441 56.5962 79.1641 57.2482C79.3841 57.9002 80.3001 58.2762 80.4241 58.9962C80.5281 59.5762 80.0721 60.0802 79.7921 60.5962C79.5954 60.9637 79.4823 61.3702 79.461 61.7865C79.4397 62.2029 79.5107 62.6188 79.669 63.0045C79.8272 63.3901 80.0688 63.7361 80.3764 64.0175C80.684 64.2989 81.0499 64.5088 81.4481 64.6322C80.914 64.5983 80.3939 64.4475 79.9246 64.1903C79.4553 63.9332 79.0482 63.5761 78.7321 63.1442C78.449 62.7109 78.2686 62.2185 78.2048 61.7048C78.141 61.1911 78.1955 60.6696 78.3641 60.1802C78.4883 59.9028 78.5783 59.6113 78.6321 59.3122C78.6801 58.7202 78.2841 58.1962 77.9721 57.6882C77.2697 56.5875 76.974 55.2759 77.1361 53.9802C77.3161 52.6802 78.2721 51.7842 79.4201 51.2002Z" fill="#263238"/>
<path d="M79.5644 52.6599C79.5591 51.4136 79.2458 50.1879 78.6524 49.0919C77.0524 45.9919 73.7804 43.7359 70.2964 43.6839C68.6513 43.6357 67.0361 44.1305 65.7004 45.0919C64.2444 46.1799 63.3004 47.8479 62.7764 49.5879C62.2156 51.2378 62.1461 53.0152 62.5764 54.7039C63.0604 56.3639 64.2764 57.8639 65.9164 58.4159C66.9947 58.7193 68.1258 58.7862 69.2324 58.6119C71.6101 58.3588 73.9461 57.8051 76.1844 56.9639C77.0244 56.6479 77.8764 56.4039 78.4484 55.6879C79.1451 54.8298 79.5376 53.7649 79.5644 52.6599Z" fill="#263238"/>
<path d="M72.4806 61.9999V66.0719C72.4806 66.0719 75.8046 68.1959 74.4046 69.3199C71.7646 71.4439 66.1006 66.0479 66.1006 66.0479V59.2559L72.4806 61.9999Z" fill="#F9D9BA"/>
<path d="M66.1006 59.2559C66.8806 62.8239 70.6486 65.0199 72.4806 65.4639V61.9999L66.1006 59.2559Z" fill="#FCBAB1"/>
<path d="M61.8283 55.3002C62.0671 54.8512 62.468 54.5099 62.9494 54.3459C63.4308 54.1819 63.9567 54.2075 64.4199 54.4175C64.8832 54.6274 65.249 55.006 65.443 55.4761C65.637 55.9463 65.6447 56.4727 65.4643 56.9482C65.6382 57.0193 65.8269 57.0466 66.0138 57.0278C66.2007 57.009 66.3801 56.9446 66.5363 56.8402C66.8574 56.6178 67.0986 56.2981 67.2243 55.9282C67.3436 55.4308 67.4278 54.9255 67.4763 54.4162C68.4923 54.2562 69.0763 52.5842 69.0763 52.4162C69.3243 52.4642 74.0363 52.6802 75.5563 49.9482C77.6083 50.2962 78.3043 52.7002 78.3563 52.6882C78.5114 53.535 78.5771 54.3957 78.5523 55.2562C78.4767 57.0236 78.1632 58.7727 77.6203 60.4562C77.2203 61.7882 76.8683 63.1482 75.5163 63.8402C74.7283 64.214 73.8492 64.3529 72.9843 64.2402C69.8123 63.9162 66.8203 61.4722 65.3843 58.6922C65.1323 58.9971 64.7814 59.2041 64.3927 59.2772C64.0039 59.3503 63.6018 59.2848 63.2563 59.0922C62.6695 58.6503 62.1954 58.076 61.8723 57.4162C61.7109 57.0881 61.6234 56.7287 61.6158 56.3631C61.6082 55.9976 61.6807 55.6348 61.8283 55.3002Z" fill="#F9D9BA"/>
<path d="M74.1723 55.5361L75.8123 58.5721L73.6963 58.8801L74.1723 55.5361Z" fill="#FCBAB1"/>
<path d="M71.6327 59.8203L73.1967 60.6603C73.0527 60.8362 72.8553 60.9602 72.6344 61.0136C72.4135 61.0671 72.1811 61.0469 71.9727 60.9563C71.7942 60.8348 71.6629 60.6556 71.601 60.4487C71.5391 60.2418 71.5503 60.0199 71.6327 59.8203Z" fill="#FCBAB1"/>
<path opacity="0.3" d="M71.6327 59.8203L73.1967 60.6603C73.0527 60.8362 72.8553 60.9602 72.6344 61.0136C72.4135 61.0671 72.1811 61.0469 71.9727 60.9563C71.7942 60.8348 71.6629 60.6556 71.601 60.4487C71.5391 60.2418 71.5503 60.0199 71.6327 59.8203Z" fill="black"/>
<path d="M72.5239 61.0326C72.3364 61.061 72.1447 61.0346 71.9719 60.9566C71.8274 60.8701 71.7122 60.7423 71.6409 60.5898C71.5696 60.4373 71.5456 60.2669 71.5719 60.1006C71.8189 60.1046 72.0549 60.2037 72.2308 60.3773C72.4066 60.5509 72.5087 60.7856 72.5159 61.0326H72.5239Z" fill="#FCBAB1"/>
<path d="M71.1243 55.5279C71.1073 55.6462 71.1258 55.7668 71.1774 55.8745C71.2289 55.9823 71.3113 56.0723 71.414 56.1332C71.5167 56.1942 71.6352 56.2233 71.7545 56.2169C71.8738 56.2105 71.9885 56.1689 72.0841 56.0973C72.1797 56.0257 72.252 55.9274 72.2917 55.8148C72.3315 55.7021 72.337 55.5802 72.3074 55.4645C72.2779 55.3487 72.2147 55.2444 72.1259 55.1645C72.037 55.0847 71.9265 55.033 71.8083 55.0159C71.7298 55.0046 71.6498 55.0089 71.5729 55.0285C71.496 55.0481 71.4237 55.0827 71.3602 55.1302C71.2967 55.1778 71.2432 55.2374 71.2027 55.3056C71.1622 55.3739 71.1356 55.4494 71.1243 55.5279Z" fill="#263238"/>
<path d="M76.1687 56.0485C76.1525 56.1667 76.1717 56.287 76.2238 56.3943C76.2759 56.5016 76.3587 56.5911 76.4616 56.6514C76.5645 56.7118 76.683 56.7403 76.8021 56.7334C76.9212 56.7264 77.0356 56.6844 77.1308 56.6126C77.2261 56.5407 77.2979 56.4423 77.3373 56.3296C77.3766 56.217 77.3818 56.0953 77.352 55.9797C77.3222 55.8642 77.2589 55.7601 77.1701 55.6805C77.0812 55.6009 76.9708 55.5494 76.8527 55.5325C76.7738 55.5212 76.6936 55.5256 76.6164 55.5455C76.5393 55.5653 76.4669 55.6002 76.4033 55.6482C76.3398 55.6961 76.2863 55.7562 76.246 55.8249C76.2058 55.8936 76.1795 55.9696 76.1687 56.0485Z" fill="#263238"/>
<path d="M77.0879 53.7478L78.2879 54.8518C78.3692 54.6964 78.4006 54.5195 78.3777 54.3456C78.3548 54.1716 78.2787 54.0089 78.1599 53.8798C78.0113 53.7601 77.8321 53.6843 77.6427 53.661C77.4533 53.6377 77.2611 53.6677 77.0879 53.7478Z" fill="#263238"/>
<path d="M72.0003 52.952L70.5443 53.684C70.5117 53.5106 70.5324 53.3313 70.6039 53.1699C70.6753 53.0085 70.794 52.8725 70.9443 52.78C71.1193 52.7095 71.3102 52.6882 71.4964 52.7185C71.6826 52.7488 71.8569 52.8296 72.0003 52.952Z" fill="#263238"/>
<path d="M67.4126 54.0886C67.6446 54.9366 67.8726 55.8766 67.4766 56.6646C67.2366 57.1406 66.7886 57.4926 66.5486 57.9686C66.312 58.5222 66.2506 59.135 66.3726 59.7246C66.494 60.3098 66.5702 60.9036 66.6006 61.5006C66.5923 61.9452 66.494 62.3835 66.3116 62.7891C66.1293 63.1947 65.8666 63.5592 65.5395 63.8605C65.2124 64.1618 64.8277 64.3937 64.4085 64.5422C63.9893 64.6907 63.5444 64.7527 63.1006 64.7246C63.7806 64.8206 64.6046 64.2006 64.9566 63.6086C65.2831 62.9961 65.4077 62.2961 65.3126 61.6086C65.2486 60.9246 65.0606 60.2566 64.9406 59.5806C64.7825 58.9084 64.7825 58.2087 64.9406 57.5366C65.1366 56.8526 65.5966 56.1966 65.4566 55.5006C65.3806 55.1206 65.1326 54.7886 65.0926 54.4046C65.0739 54.1533 65.1436 53.9034 65.2897 53.6982C65.4358 53.4929 65.6491 53.3452 65.8926 53.2806C66.4006 53.1686 67.2766 53.6006 67.4126 54.0886Z" fill="#263238"/>
<path opacity="0.3" d="M72.8646 45.9197C72.4985 46.3457 72.0562 46.6997 71.5605 46.9637C69.7893 47.9731 67.7693 48.4625 65.7326 48.3757C65.3214 48.3804 64.9134 48.3029 64.5326 48.1477C64.2727 48.0175 64.0485 47.826 63.8791 47.5898C63.7098 47.3535 63.6004 47.0797 63.5605 46.7917C64.0832 45.8303 64.8279 45.0075 65.7326 44.3917C67.0479 43.5646 68.5794 43.1469 70.1326 43.1917C71.0539 43.2083 71.9677 43.3606 72.8446 43.6437C73.0553 43.8674 73.2018 44.1438 73.2685 44.4437C73.3105 44.7044 73.2962 44.9709 73.2265 45.2255C73.1568 45.4801 73.0334 45.7168 72.8646 45.9197Z" fill="black"/>
<path d="M74.0806 41.9442C73.8846 40.3162 72.5326 38.9962 70.9846 38.4402C69.4315 37.9144 67.7413 37.9626 66.2206 38.5762C64.7102 39.1984 63.3998 40.2237 62.4326 41.5402C61.7286 42.4722 61.1646 43.6082 61.3006 44.7722C61.4526 46.1242 62.5686 47.2402 63.8686 47.6562C65.2011 48.0316 66.6134 48.0149 67.9366 47.6082C68.8086 47.3522 71.5966 46.2322 72.2966 45.4882C73.2006 44.5202 74.2366 43.2402 74.0806 41.9442Z" fill="#263238"/>
<path opacity="0.2" d="M65.0078 77.4277C65.8814 78.6806 67.1561 79.598 68.6216 80.0286C70.087 80.4591 71.6554 80.377 73.0678 79.7957C72.4692 80.3767 71.7345 80.7983 70.9309 81.0219C70.1273 81.2455 69.2804 81.264 68.4678 81.0757C66.8638 80.6637 65.4878 79.0117 65.0078 77.4277Z" fill="black"/>
<path d="M76.0326 95.5441C76.0303 95.5533 76.0303 95.5629 76.0326 95.5721C76.0284 95.5837 76.0284 95.5965 76.0326 95.6081L76.6726 96.3401C76.6703 96.3242 76.6703 96.3081 76.6726 96.2921C76.6966 96.4041 76.8646 96.4001 77.1406 96.2441L82.5046 93.2281C82.9197 92.9887 83.272 92.6542 83.5326 92.2521L88.1966 83.5681C88.2726 83.4241 88.2686 83.3401 88.1966 83.3001H88.2166L87.6006 82.5681C87.5773 82.548 87.5475 82.5366 87.5166 82.5361H87.4806H87.4486H87.4166H87.3886H87.3606H87.3326H87.3046H87.2766H87.2446H87.2166H87.1886H87.1566L81.7926 85.5521H81.7646H81.7326L81.7046 85.5721H81.6806H81.6566H81.6366L81.5686 85.6321V85.6521V85.6721L81.5486 85.6961L81.5286 85.7201V85.7481L81.5086 85.7761V85.8041L81.4886 85.8321L81.4686 85.8601V85.8881V85.9121V85.9361L76.8046 94.6201V94.6441C76.8029 94.652 76.8029 94.6602 76.8046 94.6681V94.6921C76.8029 94.7 76.8029 94.7082 76.8046 94.7161C76.8033 94.7241 76.8033 94.7322 76.8046 94.7401C76.698 94.6378 76.5551 94.5819 76.4073 94.5849C76.2596 94.5879 76.119 94.6495 76.0166 94.7561C75.9143 94.8628 75.8584 95.0057 75.8614 95.1534C75.8644 95.3012 75.926 95.4418 76.0326 95.5441ZM88.0726 83.2841C88.0726 83.2841 88.0926 83.2841 88.1086 83.2841C88.0967 83.2833 88.0846 83.2833 88.0726 83.2841ZM81.8326 86.8841C81.8766 86.8401 81.9286 86.8001 81.9806 86.7561C81.9286 86.8001 81.8766 86.8281 81.8326 86.8721V86.8841ZM76.6766 96.2561C76.6751 96.2469 76.6751 96.2374 76.6766 96.2281C76.6748 96.2427 76.6748 96.2575 76.6766 96.2721C76.6766 96.2721 76.6766 96.2481 76.6766 96.2441V96.2561Z" fill="#E0E0E0"/>
<path opacity="0.2" d="M76.0326 95.5441C76.0303 95.5533 76.0303 95.5629 76.0326 95.5721C76.0284 95.5837 76.0284 95.5965 76.0326 95.6081L76.6726 96.3401C76.6703 96.3242 76.6703 96.3081 76.6726 96.2921C76.6966 96.4041 76.8646 96.4001 77.1406 96.2441L82.5046 93.2281C82.9197 92.9887 83.272 92.6542 83.5326 92.2521L88.1966 83.5681C88.2726 83.4241 88.2686 83.3401 88.1966 83.3001H88.2166L87.6006 82.5681C87.5773 82.548 87.5475 82.5366 87.5166 82.5361H87.4806H87.4486H87.4166H87.3886H87.3606H87.3326H87.3046H87.2766H87.2446H87.2166H87.1886H87.1566L81.7926 85.5521H81.7646H81.7326L81.7046 85.5721H81.6806H81.6566H81.6366L81.5686 85.6321V85.6521V85.6721L81.5486 85.6961L81.5286 85.7201V85.7481L81.5086 85.7761V85.8041L81.4886 85.8321L81.4686 85.8601V85.8881V85.9121V85.9361L76.8046 94.6201V94.6441C76.8029 94.652 76.8029 94.6602 76.8046 94.6681V94.6921C76.8029 94.7 76.8029 94.7082 76.8046 94.7161C76.8033 94.7241 76.8033 94.7322 76.8046 94.7401C76.698 94.6378 76.5551 94.5819 76.4073 94.5849C76.2596 94.5879 76.119 94.6495 76.0166 94.7561C75.9143 94.8628 75.8584 95.0057 75.8614 95.1534C75.8644 95.3012 75.926 95.4418 76.0326 95.5441ZM88.0726 83.2841C88.0726 83.2841 88.0926 83.2841 88.1086 83.2841C88.0967 83.2833 88.0846 83.2833 88.0726 83.2841ZM81.8326 86.8841C81.8766 86.8401 81.9286 86.8001 81.9806 86.7561C81.9286 86.8001 81.8766 86.8281 81.8326 86.8721V86.8841ZM76.6766 96.2561C76.6751 96.2469 76.6751 96.2374 76.6766 96.2281C76.6748 96.2427 76.6748 96.2575 76.6766 96.2721C76.6766 96.2721 76.6766 96.2481 76.6766 96.2441V96.2561Z" fill="black"/>
<path opacity="0.15" d="M76.0365 95.5198C76.0351 95.5119 76.0351 95.5038 76.0365 95.4958C76.0347 95.4879 76.0347 95.4797 76.0365 95.4718V95.4478C76.0347 95.4399 76.0347 95.4317 76.0365 95.4238V95.3998L80.7005 86.7158L81.3405 87.4478L76.7365 96.0798C76.7075 96.1294 76.6872 96.1835 76.6765 96.2398C76.672 96.2563 76.6715 96.2735 76.6749 96.2902C76.6784 96.3069 76.6858 96.3225 76.6965 96.3358L76.0565 95.6038C76.0522 95.5922 76.0522 95.5794 76.0565 95.5678C76.0541 95.5586 76.0541 95.549 76.0565 95.5398C76.0481 95.5351 76.0411 95.5282 76.0365 95.5198Z" fill="white"/>
<path opacity="0.2" d="M80.7726 86.6406V86.6166V86.5886L80.7926 86.5606L80.8126 86.5326V86.5046L80.8326 86.4766V86.4486L80.8526 86.4246L80.8726 86.4006V86.3806V86.3606L80.9406 86.3006H80.9606H80.9846H81.0086L81.0366 86.2806H81.0686H81.0966L86.4606 83.2646H86.4926H86.5206H86.5486H86.5806H86.6086H86.6366H86.6646H86.6926H86.7206H86.7526H86.7846H86.8206C86.8515 83.2652 86.8813 83.2765 86.9046 83.2966L87.5406 84.0286C87.514 83.9966 87.462 83.9886 87.3846 84.0046C87.2815 84.0306 87.183 84.0725 87.0926 84.1286L82.4326 86.4006C82.3259 86.4603 82.2243 86.5285 82.1286 86.6046C82.0267 86.6832 81.9292 86.7673 81.8366 86.8566C81.7462 86.9409 81.6607 87.0304 81.5806 87.1246C81.5153 87.2052 81.4565 87.2908 81.4046 87.3806L80.7646 86.6486L80.7726 86.6406Z" fill="white"/>
<path d="M57.3885 70.0365C57.8325 66.8365 60.0485 66.1765 61.5565 66.0605C61.5565 66.0605 63.4485 67.3606 63.4485 73.1526L63.2885 87.6446L64.3525 88.0886C67.3448 89.3672 70.471 90.3064 73.6725 90.8885C75.3432 89.5637 77.4205 88.8571 79.5525 88.8885L78.7525 90.3646C80.2525 91.3246 83.6405 89.5925 83.6405 89.5925C83.8885 91.7045 82.5205 93.8966 80.7045 95.0086C78.8885 96.1206 61.5645 94.4886 57.9045 92.1086C55.4805 90.5646 56.4525 76.8365 57.3885 70.0365Z" fill="#F9D9BA"/>
<path d="M87.3043 85.2402C87.4208 85.8106 87.4864 86.3902 87.5003 86.9722C87.3673 88.3569 86.781 89.6589 85.8323 90.6762C85.6348 90.899 85.3883 91.0729 85.1123 91.1842C84.9736 91.2374 84.8233 91.2532 84.6766 91.23C84.5299 91.2068 84.3919 91.1455 84.2763 91.0522C84.0733 90.8085 83.9704 90.4969 83.9883 90.1802C83.9434 89.7111 83.969 89.2378 84.0643 88.7762C84.1584 88.3078 84.42 87.8896 84.8003 87.6002C85.096 87.4317 85.4101 87.2975 85.7363 87.2002C86.0578 87.0641 86.3448 86.8577 86.5763 86.5962L87.3043 85.2402Z" fill="#F9D9BA"/>
<path d="M88.4722 51.6358L99.3843 45.3718C100.34 44.8238 102.584 45.5678 102.584 47.1038C102.584 46.9795 102.551 46.8574 102.488 46.7498C102.426 46.6422 102.337 46.5528 102.229 46.4905C102.121 46.4282 101.999 46.3952 101.875 46.3947C101.751 46.3942 101.628 46.4263 101.52 46.4878L90.6042 52.7518C90.2461 52.9607 89.958 53.2711 89.7763 53.6438L87.6562 52.4438C87.8481 52.104 88.1306 51.8243 88.4722 51.6358Z" fill="#0CA678"/>
<path d="M89.796 53.6435C89.6419 53.9388 89.5596 54.2663 89.556 54.5995V62.7034C89.5557 62.8277 89.5881 62.9498 89.6499 63.0576C89.7118 63.1653 89.8009 63.2549 89.9083 63.3173C90.0157 63.3797 90.1376 63.4128 90.2619 63.4132C90.3861 63.4135 90.5082 63.3812 90.616 63.3195C90.3017 63.5115 89.9424 63.6177 89.5741 63.6273C89.2059 63.637 88.8415 63.5497 88.5176 63.3744C88.1936 63.199 87.9213 62.9417 87.728 62.6281C87.5347 62.3145 87.4271 61.9557 87.416 61.5875V53.4835C87.4164 53.1175 87.5114 52.7578 87.692 52.4395L89.796 53.6435Z" fill="#0CA678"/>
<path opacity="0.4" d="M88.4722 51.6358L99.3843 45.3718C100.34 44.8238 102.584 45.5678 102.584 47.1038C102.584 46.9795 102.551 46.8574 102.488 46.7498C102.426 46.6422 102.337 46.5528 102.229 46.4905C102.121 46.4282 101.999 46.3952 101.875 46.3947C101.751 46.3942 101.628 46.4263 101.52 46.4878L90.6042 52.7518C90.2461 52.9607 89.958 53.2711 89.7763 53.6438L87.6562 52.4438C87.8481 52.104 88.1306 51.8243 88.4722 51.6358Z" fill="white"/>
<path opacity="0.2" d="M89.796 53.6435C89.6419 53.9388 89.5596 54.2663 89.556 54.5995V62.7034C89.5557 62.8277 89.5881 62.9498 89.6499 63.0576C89.7118 63.1653 89.8009 63.2549 89.9083 63.3173C90.0157 63.3797 90.1376 63.4128 90.2619 63.4132C90.3861 63.4135 90.5082 63.3812 90.616 63.3195C90.3017 63.5115 89.9424 63.6177 89.5741 63.6273C89.2059 63.637 88.8415 63.5497 88.5176 63.3744C88.1936 63.199 87.9213 62.9417 87.728 62.6281C87.5347 62.3145 87.4271 61.9557 87.416 61.5875V53.4835C87.4164 53.1175 87.5114 52.7578 87.692 52.4395L89.796 53.6435Z" fill="white"/>
<path d="M101.541 46.4876L90.6246 52.7516C90.2999 52.9386 90.0302 53.2079 89.8427 53.5324C89.6552 53.8568 89.5566 54.2249 89.5566 54.5996V62.7036C89.5563 62.8279 89.5887 62.95 89.6506 63.0577C89.7124 63.1655 89.8015 63.2551 89.9089 63.3175C90.0163 63.3799 90.1383 63.413 90.2625 63.4133C90.3867 63.4137 90.5089 63.3814 90.6166 63.3196L101.533 57.0836C101.858 56.8968 102.128 56.6277 102.316 56.3033C102.504 55.9789 102.604 55.6107 102.605 55.2356V47.1036C102.604 46.9793 102.571 46.8572 102.509 46.7496C102.446 46.642 102.357 46.5527 102.249 46.4903C102.142 46.428 102.02 46.395 101.895 46.3945C101.771 46.3941 101.649 46.4262 101.541 46.4876Z" fill="#0CA678"/>
<path d="M86.9286 58.7314L89.5526 59.2234V55.8594L86.8366 58.4234C86.8124 58.4463 86.795 58.4754 86.7864 58.5076C86.7778 58.5398 86.7783 58.5738 86.7878 58.6057C86.7973 58.6376 86.8156 58.6663 86.8404 58.6885C86.8653 58.7107 86.8958 58.7255 86.9286 58.7314Z" fill="#0CA678"/>
<path d="M89.5522 55.8599L87.4002 54.6279L84.6882 57.2199C84.6676 57.2393 84.652 57.2633 84.6424 57.2899C84.6329 57.3165 84.6297 57.345 84.6332 57.373C84.6367 57.4011 84.6468 57.4279 84.6626 57.4513C84.6784 57.4748 84.6995 57.4942 84.7242 57.5079L86.8682 58.7079L89.5522 55.8599Z" fill="#0CA678"/>
<path opacity="0.2" d="M89.5522 55.8599L87.4002 54.6279L84.6882 57.2199C84.6676 57.2393 84.652 57.2633 84.6424 57.2899C84.6329 57.3165 84.6297 57.345 84.6332 57.373C84.6367 57.4011 84.6468 57.4279 84.6626 57.4513C84.6784 57.4748 84.6995 57.4942 84.7242 57.5079L86.8682 58.7079L89.5522 55.8599Z" fill="white"/>
<path d="M99.8805 49.1078C100.148 48.9518 100.336 49.2598 100.092 49.6478C98.3368 52.4192 96.8014 55.3241 95.5005 58.3358C95.367 58.6757 95.1289 58.9643 94.8205 59.1598C94.7259 59.2344 94.609 59.275 94.4885 59.275C94.368 59.275 94.2511 59.2344 94.1565 59.1598C93.509 58.5441 92.8014 57.9947 92.0445 57.5198C91.8365 57.3878 92.0085 56.9038 92.2765 56.7478C92.3086 56.7286 92.3438 56.7151 92.3805 56.7078C93.171 56.551 93.9823 56.528 94.7805 56.6398C96.1112 53.9805 97.7679 51.4974 99.7125 49.2478C99.7597 49.1915 99.8166 49.1441 99.8805 49.1078Z" fill="white"/>
</svg>
