<svg width="25" height="24" viewBox="0 0 25 24" fill="none" xmlns="http://www.w3.org/2000/svg">
<path d="M21.5 4.5H3.5C3.30109 4.5 3.11032 4.57902 2.96967 4.71967C2.82902 4.86032 2.75 5.05109 2.75 5.25V18C2.75 18.3978 2.90804 18.7794 3.18934 19.0607C3.47064 19.342 3.85218 19.5 4.25 19.5H20.75C21.1478 19.5 21.5294 19.342 21.8107 19.0607C22.092 18.7794 22.25 18.3978 22.25 18V5.25C22.25 5.05109 22.171 4.86032 22.0303 4.71967C21.8897 4.57902 21.6989 4.5 21.5 4.5ZM19.5716 6L12.5 12.4828L5.42844 6H19.5716ZM20.75 18H4.25V6.95531L11.9928 14.0531C12.1312 14.1801 12.3122 14.2506 12.5 14.2506C12.6878 14.2506 12.8688 14.1801 13.0072 14.0531L20.75 6.95531V18Z" fill="#D4D4D4"/>
</svg>
