<svg width="58" height="58" viewBox="0 0 58 58" fill="none" xmlns="http://www.w3.org/2000/svg">
<g opacity="0.8">
<g clip-path="url(#clip0_251_660)">
<mask id="path-1-inside-1_251_660" fill="white">
<path d="M0 4C0 1.79086 1.79086 0 4 0H54C56.2091 0 58 1.79086 58 4V54C58 56.2091 56.2091 58 54 58H4C1.79086 58 0 56.2091 0 54V4Z"/>
</mask>
<path d="M0 4C0 1.79086 1.79086 0 4 0H54C56.2091 0 58 1.79086 58 4V54C58 56.2091 56.2091 58 54 58H4C1.79086 58 0 56.2091 0 54V4Z" fill="white"/>
<path d="M9.58398 10L9.58398 9.9374e-08L-0.416016 10L9.58398 10Z" fill="#EC4242"/>
<path d="M-0.416015 -5.24537e-07L-0.416015 10L9.58398 0L-0.416015 -5.24537e-07Z" fill="#FAFAFA"/>
</g>
<path d="M0 0H58H0ZM59 54C59 56.7614 56.7614 59 54 59H5C2.23858 59 0 56.7614 0 54C0 55.6569 1.79086 57 4 57H54C55.6569 57 57 55.6569 57 54H59ZM0 58V0V58ZM54 0C56.7614 0 59 2.23858 59 5V54C59 56.7614 56.7614 59 54 59V57C55.6569 57 57 55.6569 57 54V4C57 1.79086 55.6569 0 54 0Z" fill="#EEF2F6" mask="url(#path-1-inside-1_251_660)"/>
</g>
<defs>
<clipPath id="clip0_251_660">
<path d="M0 4C0 1.79086 1.79086 0 4 0H54C56.2091 0 58 1.79086 58 4V54C58 56.2091 56.2091 58 54 58H4C1.79086 58 0 56.2091 0 54V4Z" fill="white"/>
</clipPath>
</defs>
</svg>
