<svg width="25" height="24" viewBox="0 0 25 24" fill="none" xmlns="http://www.w3.org/2000/svg">
<path fill-rule="evenodd" clip-rule="evenodd" d="M20.979 7.57827L15.593 3.12502C13.7787 1.62499 11.2213 1.62499 9.40703 3.12502L4.02097 7.57827C3.05059 8.38059 2.5 9.59705 2.5 10.8663V17.8109C2.5 20.066 4.23415 22 6.5 22H8.5C9.60457 22 10.5 21.1046 10.5 20V16.7478C10.5 15.4803 11.4521 14.5587 12.5 14.5587C13.5479 14.5587 14.5 15.4803 14.5 16.7478V20C14.5 21.1046 15.3954 22 16.5 22H18.5C20.7659 22 22.5 20.066 22.5 17.8109V10.8663C22.5 9.59706 21.9494 8.38059 20.979 7.57827Z" fill="#EC4242"/>
</svg>
