<svg width="80" height="54" viewBox="0 0 80 54" fill="none" xmlns="http://www.w3.org/2000/svg">
<g clip-path="url(#clip0_92_14976)">
<path d="M59.4055 53.5696H16.4733C12.2614 53.5815 7.99716 50.6338 5.97762 46.9378C3.95808 43.2419 4.13441 38.4474 6.41965 34.904C8.15324 32.2196 11.0557 30.0511 11.431 26.8771C11.7014 24.5942 10.56 22.415 9.9464 20.2048C8.70847 15.7333 9.72955 10.7017 12.6117 7.06056C15.4939 3.41943 20.1621 1.27836 24.7981 1.46066C31.1951 1.71325 36.9713 6.05496 43.3719 5.93581C50.784 5.7976 57.3573 -0.307485 64.7266 0.506289C68.4666 0.918537 71.9445 3.24667 73.746 6.55419C75.5475 9.8617 75.6273 14.0426 73.9497 17.4109C72.9882 19.3434 71.4941 21.0115 70.8126 23.0608C69.3352 27.505 72.0279 32.1624 72.5998 36.8115C73.0528 40.6412 72.0515 44.5013 69.7939 47.6277C67.5456 50.71 63.2182 53.5696 59.4055 53.5696Z" fill="#B9F3FF"/>
<path d="M58.0865 40.9403C55.482 42.0269 53.4731 44.1418 51.195 45.8075C48.917 47.4731 45.9621 48.7325 43.3135 47.7591C40.9711 46.8988 39.3912 44.4635 36.9594 43.8963C34.8576 43.4066 32.7225 44.4528 30.8912 45.593C29.0599 46.7332 27.1846 48.0438 25.0292 48.1558C22.1315 48.306 19.6104 46.265 16.8188 45.4929C13.3349 44.5326 9.37329 45.7967 6.99274 48.4906C9.23508 51.4252 12.8726 53.5782 16.4733 53.5687H59.4055C63.2182 53.5687 67.5492 50.7092 69.7951 47.6256C72.0526 44.4992 73.054 40.6391 72.601 36.8095C72.5783 36.6296 72.5521 36.452 72.5247 36.2686C70.6845 37.6978 68.5611 38.7189 66.2957 39.2639C63.5756 39.9121 60.6684 39.8632 58.0865 40.9403Z" fill="#96E4FF"/>
<path d="M40.3276 10.248H13.5244V38.437H40.3276V10.248Z" fill="#96E4FF"/>
<path d="M39.0444 37.1547V11.5298L14.8064 11.5298V37.1547H39.0444Z" fill="#5BA8FF"/>
<path d="M39.0444 11.5298H38.0829V37.1547H39.0444V11.5298Z" fill="#6BC5FF"/>
<path d="M13.5232 10.248H12.5616V38.437H13.5232V10.248Z" fill="#6BC5FF"/>
<path d="M38.0829 11.5298H14.8064V17.0999H38.0829V11.5298Z" fill="#D1F3FF"/>
<path d="M68.8288 10.248H57.287V19.0077H68.8288V10.248Z" fill="#96E4FF"/>
<path d="M67.5456 17.7242V11.5298H58.569V17.7242H67.5456Z" fill="#5BA8FF"/>
<path d="M67.5456 11.5298H66.584V17.7242H67.5456V11.5298Z" fill="#6BC5FF"/>
<path d="M57.287 10.248H56.3255V19.0077H57.287V10.248Z" fill="#6BC5FF"/>
<path d="M68.8288 21.8633H57.287V30.623H68.8288V21.8633Z" fill="#96E4FF"/>
<path d="M67.5468 29.34V23.1455H58.5702V29.34H67.5468Z" fill="#5BA8FF"/>
<path d="M67.5456 23.1455H66.584V29.34H67.5456V23.1455Z" fill="#6BC5FF"/>
<path d="M57.287 21.8633H56.3255V30.623H57.287V21.8633Z" fill="#6BC5FF"/>
<path d="M19.9226 52.5224C18.0197 53.1939 15.9747 53.3581 13.989 52.999C10.728 52.4032 7.85178 50.4135 5.60705 47.9733C3.36233 45.5332 1.67521 42.6463 0 39.7844C6.6901 39.0588 13.7591 41.6276 18.4451 46.4566C19.1481 47.181 19.8118 47.9698 20.2085 48.8979C20.6053 49.8261 20.336 51.6025 19.9226 52.5224Z" fill="#56438C"/>
<path d="M19.7677 51.9684C17.4801 49.9301 15.0427 48.0666 12.4759 46.3935C11.8003 44.9376 10.2764 43.0372 10.2609 43.0181C10.252 43.0037 10.2402 42.9913 10.2261 42.9819C10.2121 42.9724 10.1962 42.9661 10.1795 42.9632C10.1628 42.9604 10.1457 42.9612 10.1293 42.9655C10.1129 42.9698 10.0976 42.9775 10.0845 42.9882C10.0713 42.9989 10.0606 43.0122 10.053 43.0274C10.0454 43.0425 10.0412 43.0591 10.0405 43.076C10.0398 43.093 10.0428 43.1098 10.0492 43.1255C10.0555 43.1412 10.0652 43.1554 10.0774 43.167C10.0917 43.1837 11.3654 44.7731 12.0863 46.1398C10.9147 45.3891 9.71802 44.679 8.49637 44.0094C8.16156 42.999 7.18575 42.0125 7.14882 41.9708C7.13867 41.9571 7.1257 41.9457 7.11077 41.9374C7.09584 41.9291 7.07931 41.9242 7.06229 41.9228C7.04528 41.9215 7.02817 41.9239 7.01214 41.9297C6.9961 41.9356 6.98152 41.9448 6.96936 41.9568C6.95721 41.9688 6.94777 41.9832 6.94168 41.9992C6.9356 42.0151 6.93301 42.0322 6.9341 42.0492C6.93519 42.0663 6.93992 42.0829 6.94798 42.0979C6.95604 42.1129 6.96724 42.1261 6.98082 42.1364C6.99035 42.146 7.79579 42.9645 8.17229 43.8367C6.5511 42.9629 4.889 42.1587 3.186 41.4239C3.17145 41.4153 3.15524 41.4099 3.13843 41.408C3.12162 41.4061 3.1046 41.4078 3.08851 41.413C3.07241 41.4182 3.05761 41.4268 3.04508 41.4381C3.03256 41.4495 3.0226 41.4634 3.01586 41.4789C3.00913 41.4944 3.00578 41.5112 3.00602 41.5281C3.00627 41.545 3.01012 41.5617 3.01731 41.577C3.0245 41.5923 3.03487 41.6059 3.04772 41.6169C3.06058 41.6279 3.07563 41.636 3.09187 41.6408C4.88622 42.4097 6.63371 43.2612 8.33433 44.1953L8.39867 44.2298C7.7243 44.1858 6.56142 44.1846 5.46885 44.5444C5.44319 44.5571 5.42299 44.5787 5.41195 44.6052C5.40091 44.6316 5.39977 44.6612 5.40875 44.6884C5.41773 44.7156 5.43621 44.7387 5.46082 44.7534C5.48542 44.7681 5.5145 44.7734 5.54272 44.7684C7.03444 44.2775 8.71798 44.4908 8.91696 44.5194C10.8473 45.6023 12.7167 46.7904 14.5169 48.0783C13.0478 47.8638 10.7542 48.0783 8.82998 48.9421C8.80148 48.9553 8.77935 48.9793 8.76842 49.0087C8.75748 49.0382 8.75863 49.0708 8.7716 49.0994C8.78483 49.1276 8.80856 49.1495 8.83774 49.1604C8.86691 49.1713 8.8992 49.1704 8.92769 49.1578C11.0473 48.2046 13.6197 48.0592 14.9756 48.4095C16.5745 49.5756 18.1171 50.8206 19.6032 52.1448C19.6227 52.1618 19.6471 52.1721 19.6729 52.174C19.6987 52.176 19.7245 52.1695 19.7462 52.1555C19.755 52.1498 19.763 52.1429 19.7701 52.1352C19.7916 52.1127 19.8034 52.0825 19.8029 52.0513C19.8025 52.0202 19.7898 51.9904 19.7677 51.9684Z" fill="#6C6FC3"/>
<path opacity="0.4" d="M11.68 51.1391C13.6364 52.2948 15.9442 52.7476 18.2164 52.7881C18.5047 52.7929 18.7922 52.7929 19.079 52.7881C19.3637 52.7107 19.6449 52.6249 19.9225 52.5272C20.336 51.605 20.6053 49.8273 20.2085 48.8991C19.8117 47.971 19.1481 47.1822 18.4451 46.4578C14.891 42.7964 9.96663 40.435 4.87668 39.8237C5.34731 41.7575 5.91326 43.6698 6.77469 45.4606C7.87441 47.7458 9.49481 49.8464 11.68 51.1391Z" fill="#422C4F"/>
<path d="M17.5646 52.8131C15.3519 52.2851 13.3151 51.1895 11.6549 49.6342C8.93125 47.075 7.42285 43.4386 6.7878 39.751C6.15274 36.0634 6.31121 32.3007 6.48278 28.5679C13.2622 31.9695 18.3868 38.724 19.8737 46.1611C20.0965 47.2775 20.2431 48.4249 20.0524 49.552C19.8618 50.6792 18.519 52.1923 17.5646 52.8131Z" fill="#6C6FC3"/>
<path d="M17.1858 50.8543C16.3201 47.6426 15.214 44.5005 13.877 41.4548C14.1284 39.7319 13.877 37.0999 13.877 37.0737C13.877 37.0558 13.8732 37.0381 13.8659 37.0217C13.8586 37.0053 13.848 36.9907 13.8347 36.9786C13.8214 36.9666 13.8057 36.9575 13.7887 36.9519C13.7716 36.9463 13.7536 36.9443 13.7358 36.946C13.718 36.9478 13.7007 36.9532 13.6851 36.9621C13.6695 36.9709 13.6559 36.9829 13.6452 36.9972C13.6345 37.0116 13.6269 37.0281 13.6229 37.0455C13.6189 37.063 13.6186 37.0811 13.6221 37.0987C13.6221 37.1226 13.8365 39.3232 13.6781 40.9937C13.0609 39.6147 12.3964 38.258 11.6847 36.9236C11.9814 35.8072 11.6847 34.3345 11.674 34.2714C11.6718 34.2538 11.6661 34.2368 11.657 34.2215C11.648 34.2063 11.6358 34.193 11.6214 34.1827C11.607 34.1723 11.5906 34.165 11.5733 34.1613C11.5559 34.1576 11.538 34.1575 11.5206 34.161C11.5032 34.1646 11.4868 34.1717 11.4722 34.1819C11.4577 34.1921 11.4455 34.2052 11.4363 34.2204C11.4271 34.2356 11.4211 34.2525 11.4188 34.2701C11.4164 34.2877 11.4177 34.3056 11.4226 34.3226C11.4226 34.3357 11.6704 35.5582 11.4977 36.5769C10.5445 34.8175 9.5119 33.0986 8.39986 31.4202C8.38095 31.3921 8.35169 31.3725 8.31845 31.3658C8.2852 31.3591 8.25066 31.3658 8.22233 31.3845C8.19391 31.4034 8.17409 31.4328 8.16718 31.4662C8.16026 31.4997 8.16681 31.5345 8.18539 31.5632C9.3578 33.3281 10.4401 35.1412 11.4321 37.0022L11.4703 37.0725C10.8829 36.6305 9.82844 35.9383 8.62267 35.6154C8.60596 35.6095 8.58822 35.6072 8.57057 35.6085C8.55292 35.6098 8.53573 35.6147 8.52007 35.623C8.50442 35.6312 8.49063 35.6426 8.47957 35.6565C8.46852 35.6703 8.46045 35.6863 8.45585 35.7033C8.45124 35.7204 8.45022 35.7383 8.45283 35.7558C8.45545 35.7733 8.46164 35.7901 8.47104 35.8051C8.48043 35.8201 8.49283 35.833 8.50743 35.843C8.52204 35.853 8.53855 35.8599 8.55594 35.8632C10.2025 36.304 11.6049 37.4991 11.7729 37.6421C12.8809 39.7734 13.8713 41.9638 14.7397 44.2035C13.5339 43.1311 11.3261 41.9623 9.06231 41.6073C9.02867 41.6021 8.99437 41.6105 8.9669 41.6306C8.93944 41.6507 8.92105 41.6809 8.91577 41.7145C8.91305 41.7311 8.91364 41.7481 8.9175 41.7644C8.92137 41.7808 8.92844 41.7962 8.93829 41.8098C8.94815 41.8235 8.9606 41.835 8.97493 41.8438C8.98926 41.8526 9.0052 41.8584 9.02181 41.861C11.5167 42.2518 13.9366 43.6482 14.9613 44.7778C15.7191 46.7866 16.3795 48.8339 16.9427 50.9198C16.9496 50.9464 16.965 50.9701 16.9864 50.9872C17.0079 51.0044 17.0344 51.0142 17.0618 51.0151C17.0729 51.0167 17.0841 51.0167 17.0952 51.0151C17.1119 51.0109 17.1276 51.0033 17.1413 50.9928C17.155 50.9823 17.1665 50.9691 17.1749 50.9541C17.1834 50.939 17.1887 50.9224 17.1906 50.9053C17.1924 50.8881 17.1908 50.8708 17.1858 50.8543Z" fill="#56438C"/>
<path d="M60.0774 52.5224C61.9807 53.1939 64.0261 53.3581 66.0121 52.999C69.2732 52.4032 72.1482 50.4135 74.393 47.9733C76.6377 45.5332 78.3248 42.6463 80 39.7844C73.3111 39.0588 66.2421 41.6276 61.5561 46.4566C60.8531 47.181 60.1894 47.9698 59.7915 48.8979C59.3935 49.8261 59.664 51.6025 60.0774 52.5224Z" fill="#A34262"/>
<path d="M60.2395 51.9684C62.5268 49.9298 64.9643 48.0662 67.5313 46.3935C68.2068 44.9375 69.7295 43.0371 69.745 43.018C69.7539 43.0036 69.7658 42.9913 69.7798 42.9818C69.7939 42.9723 69.8098 42.966 69.8265 42.9632C69.8432 42.9603 69.8603 42.9611 69.8767 42.9654C69.8931 42.9697 69.9083 42.9774 69.9215 42.9881C69.9346 42.9988 69.9454 43.0122 69.9529 43.0273C69.9605 43.0424 69.9648 43.059 69.9655 43.076C69.9661 43.0929 69.9632 43.1098 69.9568 43.1254C69.9504 43.1411 69.9408 43.1553 69.9285 43.167C69.9154 43.1837 68.6417 44.7731 67.9209 46.1397C69.0917 45.3891 70.2883 44.6789 71.5108 44.0093C71.8444 42.999 72.8214 42.0124 72.8571 41.9707C72.8795 41.9485 72.9097 41.9361 72.9411 41.9361C72.9726 41.9361 73.0028 41.9485 73.0251 41.9707C73.047 41.993 73.0592 42.023 73.0592 42.0541C73.0592 42.0853 73.047 42.1153 73.0251 42.1375C73.0168 42.1471 72.2102 42.9656 71.8337 43.8378C73.4565 42.964 75.1189 42.1598 76.8212 41.425C76.8357 41.4162 76.8521 41.4106 76.869 41.4085C76.8859 41.4065 76.9031 41.4082 76.9194 41.4134C76.9356 41.4186 76.9506 41.4272 76.9632 41.4387C76.9758 41.4502 76.9858 41.4642 76.9925 41.4799C76.9993 41.4956 77.0025 41.5126 77.0021 41.5296C77.0018 41.5467 76.9977 41.5634 76.9903 41.5788C76.9828 41.5942 76.9722 41.6077 76.959 41.6186C76.9459 41.6295 76.9306 41.6374 76.9141 41.6419C75.1197 42.4108 73.3722 43.2623 71.6716 44.1964L71.6085 44.231C72.2829 44.1869 73.4445 44.1857 74.5371 44.5455C74.5628 44.5583 74.583 44.5798 74.594 44.6063C74.605 44.6327 74.6062 44.6623 74.5972 44.6895C74.5882 44.7167 74.5697 44.7398 74.5451 44.7545C74.5205 44.7692 74.4915 44.7745 74.4632 44.7695C72.9727 44.2786 71.2892 44.4919 71.089 44.5205C69.1586 45.6034 67.2892 46.7915 65.4891 48.0794C66.957 47.8649 69.2506 48.0794 71.1748 48.9432C71.2035 48.9562 71.2259 48.9801 71.237 49.0095C71.2482 49.039 71.2473 49.0717 71.2344 49.1005C71.2211 49.129 71.1972 49.1511 71.1677 49.162C71.1383 49.173 71.1057 49.1718 71.0771 49.1589C68.9575 48.2057 66.3863 48.0603 65.0292 48.4106C63.4318 49.5767 61.8897 50.8218 60.4027 52.1459C60.3833 52.1629 60.3588 52.1732 60.333 52.1752C60.3072 52.1771 60.2815 52.1706 60.2597 52.1566C60.2508 52.1512 60.2427 52.1443 60.2359 52.1364C60.2142 52.1136 60.2024 52.0831 60.203 52.0516C60.2037 52.0201 60.2168 51.9902 60.2395 51.9684Z" fill="#CC6164"/>
<path opacity="0.4" d="M68.32 51.1391C66.3648 52.2948 64.0557 52.7476 61.7836 52.7881C61.4965 52.7881 61.2081 52.7881 60.921 52.7881C60.6362 52.7107 60.355 52.6249 60.0774 52.5272C59.664 51.605 59.3947 49.8273 59.7915 48.8991C60.1882 47.971 60.8531 47.1822 61.5561 46.4578C65.109 42.7964 70.0334 40.435 75.1233 39.8237C74.6467 41.7575 74.0867 43.6698 73.2265 45.4606C72.1256 47.7458 70.5052 49.8464 68.32 51.1391Z" fill="#422C4F"/>
<path d="M62.4365 52.8131C64.6491 52.2848 66.6859 51.1892 68.3462 49.6342C71.0699 47.075 72.5771 43.4386 73.2122 39.751C73.8472 36.0634 73.6888 32.3007 73.5172 28.5679C66.7377 31.9695 61.6132 38.724 60.1263 46.1611C59.9035 47.2775 59.7569 48.4249 59.9488 49.552C60.1406 50.6792 61.4822 52.1923 62.4365 52.8131Z" fill="#CC6164"/>
<path d="M62.8154 50.8542C63.6807 47.6426 64.7864 44.5005 66.123 41.4547C65.8716 39.7319 66.123 37.0999 66.123 37.0737C66.123 37.0558 66.1268 37.038 66.1341 37.0217C66.1414 37.0053 66.152 36.9906 66.1653 36.9786C66.1786 36.9666 66.1943 36.9575 66.2113 36.9519C66.2283 36.9462 66.2464 36.9443 66.2642 36.946C66.282 36.9478 66.2993 36.9532 66.3149 36.962C66.3305 36.9708 66.3441 36.9828 66.3548 36.9972C66.3655 37.0116 66.3731 37.028 66.3771 37.0455C66.3811 37.063 66.3814 37.0811 66.3779 37.0987C66.3779 37.1225 66.1635 39.3232 66.3219 40.9936C66.9391 39.6147 67.6036 38.258 68.3153 36.9236C68.0186 35.8072 68.3153 34.3345 68.3272 34.2714C68.3361 34.2402 68.3564 34.2136 68.3841 34.1968C68.4118 34.18 68.4448 34.1743 68.4766 34.1808C68.5083 34.1872 68.5364 34.2054 68.5553 34.2317C68.5742 34.258 68.5825 34.2904 68.5786 34.3226C68.5786 34.3357 68.3296 35.5581 68.5023 36.5768C69.4555 34.8174 70.4881 33.0986 71.6001 31.4202C71.6094 31.4061 71.6213 31.394 71.6353 31.3846C71.6493 31.3752 71.6649 31.3686 71.6814 31.3653C71.698 31.362 71.715 31.362 71.7315 31.3652C71.748 31.3685 71.7637 31.375 71.7777 31.3844C71.8059 31.4036 71.8255 31.433 71.8322 31.4665C71.8388 31.4999 71.8321 31.5346 71.8134 31.5631C70.641 33.3281 69.5588 35.1411 68.5667 37.0022L68.5297 37.0725C69.1159 36.6305 70.1704 35.9382 71.3761 35.6153C71.3928 35.6095 71.4106 35.6071 71.4282 35.6084C71.4459 35.6098 71.4631 35.6147 71.4787 35.623C71.4944 35.6312 71.5082 35.6426 71.5192 35.6564C71.5303 35.6703 71.5384 35.6862 71.543 35.7033C71.5476 35.7204 71.5486 35.7383 71.546 35.7558C71.5434 35.7733 71.5372 35.7901 71.5278 35.8051C71.5184 35.8201 71.506 35.833 71.4914 35.843C71.4768 35.853 71.4603 35.8598 71.4429 35.8632C69.7974 36.304 68.3939 37.499 68.2259 37.642C67.118 39.7734 66.1275 41.9638 65.2591 44.2034C66.4649 43.1311 68.6739 41.9623 70.9377 41.6072C70.9702 41.6043 71.0027 41.6139 71.0284 41.6341C71.0541 41.6542 71.0712 41.6834 71.0762 41.7157C71.0812 41.748 71.0737 41.781 71.0553 41.808C71.0369 41.835 71.0089 41.8539 70.977 41.861C68.4821 42.2518 66.0622 43.6482 65.0387 44.7777C64.2809 46.7865 63.6205 48.8339 63.0573 50.9198C63.0504 50.9464 63.035 50.97 63.0136 50.9872C62.9921 51.0044 62.9656 51.0142 62.9382 51.0151C62.9271 51.0168 62.9158 51.0168 62.9048 51.0151C62.8881 51.0108 62.8724 51.0032 62.8587 50.9927C62.8451 50.9822 62.8337 50.969 62.8254 50.954C62.817 50.9389 62.8118 50.9223 62.8101 50.9051C62.8084 50.888 62.8102 50.8706 62.8154 50.8542Z" fill="#A34262"/>
<path d="M64.8207 37.4111H50.5004L47.8077 53.5698H54.0439L57.0881 43.2291L58.1949 53.5734H64.1797L65.2186 43.1254C65.408 41.213 65.2735 39.2824 64.8207 37.4147V37.4111Z" fill="#984058"/>
<path d="M57.0881 43.2287L53.5363 41.9038L53.6149 42.0956C53.7966 42.5368 54.0878 42.9243 54.461 43.2216C54.8342 43.5189 55.277 43.7162 55.7477 43.7947L54.3512 52.5424L57.0881 43.2287Z" fill="#472948"/>
<path opacity="0.4" d="M64.8207 37.4111H50.5004L49.2661 44.8161L55.4236 42.6036L55.7608 37.964L64.8207 37.4111Z" fill="#422C4F"/>
<path d="M60.6339 22.0624C61.8481 18.0232 62.1684 13.768 61.5727 9.59252C61.4178 8.50709 61.1962 7.41809 60.7185 6.43155C60.2407 5.44502 59.4841 4.56095 58.4857 4.11057C57.4872 3.6602 56.0431 3.58156 55.1793 4.25593C54.1654 3.51126 52.7106 3.53033 51.6049 4.12964C50.4992 4.72894 49.7248 5.83105 49.3197 7.02252C48.9146 8.21399 48.8431 9.49363 48.8907 10.7506C48.9384 12.0076 49.0826 13.2599 49.0981 14.5181C49.1351 18.3232 47.9507 22.0399 45.7191 25.1221C50.7339 25.2615 56.0979 24.2083 60.6339 22.0624Z" fill="#6A3649"/>
<path d="M59.384 12.6918C58.3581 13.3745 57.2179 13.8833 56.0622 14.3122C54.5252 13.8797 53.1812 13.0838 51.9218 12.1021C52.1614 16.5462 51.3021 20.981 49.4197 25.014C52.3502 24.768 55.2362 24.1424 58.0055 23.1529C59.0357 19.7651 59.5014 16.2309 59.384 12.6918Z" fill="#422C4F"/>
<path d="M62.128 18.3652H51.7706L49.5365 24.1093C49.3521 24.5842 49.3071 25.1018 49.4067 25.6014C49.5063 26.1009 49.7465 26.5617 50.0989 26.9295C50.3476 27.189 50.5414 27.4961 50.6688 27.8322C50.7961 28.1684 50.8543 28.5267 50.84 28.8859L50.5004 37.4109H64.8207C64.3513 33.5207 60.8031 32.2387 61.8289 26.0407C62.8548 19.8427 62.128 18.3652 62.128 18.3652Z" fill="#6CA8BF"/>
<path d="M57.4467 27.5158H51.0128C51.4893 27.5158 51.8468 27.0702 52.2662 26.8486C52.6856 26.627 53.1812 26.372 53.6602 26.4828C54.1094 26.5805 54.4513 26.9594 54.8922 27.0869C55.3116 27.206 55.7572 27.0869 56.1897 27.0309C56.6222 26.9749 57.1822 27.1679 57.4467 27.5158Z" fill="#468097"/>
<path d="M59.9083 20.4351L61.8646 30.0586L61.3785 33.6044C61.3184 34.0453 61.167 34.4689 60.9339 34.848C60.7009 35.2271 60.3913 35.5535 60.025 35.8062L57.704 37.4111H54.8183V32.5702L56.5543 31.6408L57.7708 27.516L57.4407 26.9941L59.9083 20.4351Z" fill="#468097"/>
<path d="M57.7195 12.5809C57.7205 12.2234 57.8257 11.874 58.0222 11.5753C58.1216 11.4276 58.2513 11.3028 58.4027 11.2091C58.5541 11.1155 58.7237 11.0551 58.9003 11.032C59.0773 11.0118 59.2564 11.0417 59.4173 11.1181C59.5782 11.1946 59.7144 11.3146 59.8106 11.4645C59.9881 11.7624 59.9631 12.1377 59.8964 12.4773C59.8456 12.786 59.7343 13.0816 59.5687 13.347C59.4852 13.4794 59.3765 13.5941 59.2488 13.6844C59.121 13.7748 58.9767 13.8391 58.824 13.8737C58.6641 13.8969 58.501 13.8839 58.3467 13.8356C58.1925 13.7874 58.051 13.7051 57.9328 13.5949C57.7172 13.3566 57.7136 12.8788 57.7195 12.5809Z" fill="#F2C9AD"/>
<path d="M59.1552 11.5083C59.0062 11.5504 58.8671 11.6216 58.7457 11.7178C58.6244 11.814 58.5234 11.9333 58.4485 12.0688C58.3736 12.2044 58.3263 12.3534 58.3094 12.5073C58.2924 12.6612 58.3062 12.8169 58.3498 12.9655C58.3638 13.0315 58.3925 13.0935 58.4337 13.147C58.475 13.2004 58.5277 13.2438 58.5881 13.2741C58.6603 13.2944 58.7369 13.2929 58.8082 13.2695C58.8795 13.2462 58.9423 13.2021 58.9884 13.143C59.058 13.0647 59.1049 12.9689 59.1241 12.8659C59.1432 12.763 59.1339 12.6567 59.0971 12.5586C59.0604 12.4606 58.9975 12.3744 58.9154 12.3094C58.8332 12.2444 58.7349 12.2031 58.631 12.1898C58.6653 12.0457 58.7298 11.9104 58.8201 11.7929C58.9105 11.6755 59.0247 11.5785 59.1552 11.5083Z" fill="#EBA58E"/>
<path d="M51.7705 18.3652C51.169 18.3654 50.5815 18.5465 50.0843 18.8849C49.5871 19.2234 49.2032 19.7037 48.9825 20.2632L47.6099 23.7316L49.5318 24.1093L51.7705 18.3652Z" fill="#6CA8BF"/>
<path d="M49.5365 24.1094L51.0187 20.3003L48.7668 23.9581L49.5365 24.1094Z" fill="#468097"/>
<path d="M54.947 16.2838V18.3653H54.1964L54.4096 19.1827C54.5037 19.5416 54.7141 19.8592 55.008 20.0858C55.3018 20.3124 55.6625 20.4352 56.0336 20.4349C56.3498 20.4346 56.6595 20.3449 56.927 20.1763C57.1945 20.0076 57.4089 19.7669 57.5456 19.4817L58.0841 18.3618L57.9054 13.7627L54.947 16.2838Z" fill="#F2C9AD"/>
<path d="M57.9054 13.7661L54.947 16.2837V18.1591C56.4053 18.1591 56.9141 16.6292 57.9483 14.8885L57.9054 13.7661Z" fill="#EBA58E"/>
<path d="M50.3026 10.9844L51.0652 13.8642C51.3693 15.0116 52.0668 16.0157 53.0359 16.7011L53.1991 16.8203C53.4728 17.0139 53.7825 17.1507 54.1099 17.2227C54.4373 17.2948 54.7758 17.3005 55.1055 17.2397C55.7273 17.1249 56.2832 16.7804 56.6627 16.2746L57.7112 14.8722C57.8715 14.6583 57.9843 14.4127 58.0423 14.1518C58.1002 13.8909 58.1019 13.6207 58.0472 13.359C57.783 13.2144 57.5565 13.0097 57.3862 12.7613C57.2158 12.5129 57.1063 12.2278 57.0666 11.9293L56.9725 11.1882C56.3319 10.9895 55.7432 10.6514 55.2488 10.1982C54.7544 9.74499 54.3665 9.1879 54.113 8.56695L53.976 8.23096C52.993 10.0575 51.1569 10.8963 50.3026 10.9844Z" fill="#F2C9AD"/>
<path d="M55.9192 11.2166L53.8556 10.9545C54.0838 10.7778 54.3555 10.6658 54.642 10.6304C54.8741 10.6238 55.1037 10.6798 55.3068 10.7924C55.5226 10.9162 55.7275 11.0581 55.9192 11.2166Z" fill="#6A3649"/>
<path d="M55.0065 11.984C55.0065 12.2127 54.8874 12.3998 54.7242 12.3998C54.5609 12.3998 54.4394 12.2151 54.4394 11.9852C54.4394 11.7552 54.5585 11.5693 54.7218 11.5693C54.885 11.5693 55.0053 11.754 55.0065 11.984Z" fill="#422C4F"/>
<path d="M50.7494 11.2871L52.1637 11.0154C52.0052 10.8546 51.8146 10.7104 51.6228 10.6949C51.4558 10.6922 51.2938 10.7512 51.1676 10.8605C51.0162 10.9904 50.8763 11.1331 50.7494 11.2871Z" fill="#6A3649"/>
<path d="M51.3821 12.0408C51.3821 12.2696 51.4691 12.4566 51.5763 12.4566C51.6836 12.4566 51.7705 12.2696 51.7705 12.0408C51.7705 11.8121 51.6836 11.625 51.5763 11.625C51.4691 11.625 51.3821 11.8109 51.3821 12.0408Z" fill="#422C4F"/>
<path d="M53.4934 14.1442L52.1828 14.0918C52.3475 14.2455 52.5289 14.3802 52.7237 14.4933C52.9584 14.3956 53.2527 14.2431 53.4934 14.1442Z" fill="#EBA58E"/>
<path d="M55.3759 14.5039L52.8667 15.3153C53.0208 15.5772 53.2666 15.7725 53.5565 15.8634C53.8443 15.9456 54.1525 15.9158 54.4192 15.78C54.8779 15.5441 55.1567 14.9722 55.3759 14.5039Z" fill="white"/>
<path d="M52.6665 11.9185C52.6564 11.919 52.6463 11.9169 52.6372 11.9125C52.628 11.9082 52.6201 11.9016 52.6141 11.8935L52.209 11.4169C52.1982 11.4038 52.193 11.3871 52.1943 11.3702C52.1957 11.3533 52.2035 11.3376 52.2161 11.3264C52.2293 11.3155 52.2462 11.3102 52.2631 11.3118C52.2801 11.3134 52.2958 11.3216 52.3067 11.3347L52.7118 11.8113C52.7225 11.8244 52.7278 11.8411 52.7264 11.858C52.7251 11.8749 52.7173 11.8906 52.7046 11.9018C52.694 11.9113 52.6806 11.9171 52.6665 11.9185Z" fill="#EBA58E"/>
<path d="M52.1828 14.1573C52.1728 14.1572 52.163 14.1548 52.1542 14.1502C52.1391 14.1425 52.1276 14.1292 52.1223 14.1132C52.1169 14.0971 52.1181 14.0796 52.1256 14.0644C52.3817 13.5473 52.8238 12.4428 52.8285 12.4321C52.8357 12.4175 52.8481 12.4061 52.8632 12.4003C52.8784 12.3945 52.8952 12.3946 52.9102 12.4006C52.9253 12.4066 52.9376 12.4181 52.9445 12.4328C52.9515 12.4475 52.9526 12.4643 52.9477 12.4797C52.9477 12.4917 52.4985 13.5997 52.24 14.1216C52.2348 14.1323 52.2267 14.1414 52.2165 14.1477C52.2064 14.1541 52.1947 14.1574 52.1828 14.1573Z" fill="#EBA58E"/>
<path d="M58.3236 27.1943L57.1691 31.9829L50.9734 38.7373C50.135 38.2297 49.2315 37.8381 48.2879 37.5732C48.223 37.5557 48.1551 37.5521 48.0887 37.5626C48.0223 37.5732 47.9589 37.5976 47.9026 37.6344C47.8464 37.6712 47.7985 37.7195 47.7622 37.7761C47.726 37.8327 47.7021 37.8963 47.6921 37.9628C47.6777 38.0618 47.6948 38.1629 47.741 38.2516C47.7872 38.3404 47.8601 38.4123 47.9495 38.4573C48.3665 38.6646 49.0897 39.053 49.3709 39.3783L46.7759 42.0472C46.7259 42.0984 46.6874 42.1597 46.6629 42.2269C46.6384 42.2942 46.6284 42.3658 46.6335 42.4372C46.6387 42.5086 46.659 42.578 46.6929 42.641C46.7269 42.704 46.7739 42.7591 46.8307 42.8026C46.9115 42.8644 47.009 42.9005 47.1105 42.9062C47.2121 42.912 47.313 42.8871 47.4002 42.8348L48.0662 42.4344L49.4293 42.7919C49.6816 42.858 49.9473 42.8529 50.1968 42.7769C50.4463 42.701 50.6698 42.5572 50.8424 42.3617L52.576 40.4042L59.415 35.17C60.1789 34.585 60.7348 33.7702 61.0008 32.8455L62.259 28.4668L58.3236 27.1943Z" fill="#F2C9AD"/>
<path d="M58.3236 27.1943L62.2567 28.4668L61.9493 29.5344L58.2593 27.4612L58.3236 27.1943Z" fill="#422C4F"/>
<path d="M62.8929 28.6727L57.9054 27.0595L60.05 19.9714C60.1377 19.6835 60.2819 19.416 60.4742 19.1845C60.6665 18.953 60.903 18.7622 61.17 18.6231C61.4369 18.4841 61.7289 18.3997 62.0288 18.3749C62.3287 18.3501 62.6306 18.3853 62.9167 18.4785C63.4405 18.6521 63.8828 19.011 64.1606 19.4877C64.4383 19.9645 64.5324 20.5263 64.4251 21.0676L62.8929 28.6727Z" fill="#6CA8BF"/>
<path d="M11.7717 42.1553L12.1137 53.5695H20L20.6184 46.864L21.3976 53.5695H28.1866L26.8605 42.1553H11.7717Z" fill="#454F6B"/>
<path d="M20.6184 46.8642L24.2535 45.1616L21.7312 47.8627L22.1589 53.5698H21.3976L20.6184 46.8642Z" fill="#422C4F"/>
<path opacity="0.4" d="M27.455 47.2667L26.8605 42.1553H23.4839H11.7717L11.7979 43.0381H24.169L27.455 47.2667Z" fill="#422C4F"/>
<path d="M28.1866 22.0649L31.5203 27.5147L28.1866 31.4692L25.7929 28.5191L26.8605 22.0649H28.1866Z" fill="#CC6164"/>
<path d="M27.2358 25.7263C27.2715 25.1187 27.3371 24.4872 27.1167 23.9189C27.0145 23.6623 26.8636 23.4281 26.6722 23.229L25.7965 28.5203L27.7291 30.9033C27.2998 29.2132 27.1334 27.4671 27.2358 25.7263Z" fill="#A34262"/>
<path d="M31.2058 27.8887L33.6149 31.469L36.6079 33.6494V37.1976L32.1208 34.7801C31.5191 34.4572 30.9829 34.0248 30.5397 33.5053L28.494 31.1092L31.2058 27.8887Z" fill="#EBA58E"/>
<path d="M31.2058 27.8887L31.3821 28.1508L29.3447 32.11L28.4892 31.1092L31.2058 27.8887Z" fill="#422C4F"/>
<path d="M20.7852 19.1206H20.2216C19.3301 19.1193 18.4542 19.3553 17.6841 19.8045C16.9139 20.2536 16.2772 20.8997 15.8394 21.6763C13.0216 26.6948 11.3011 35.2114 11.3011 42.1565H26.8617C25.9204 33.2645 26.3481 25.8262 28.1866 22.0647C26.7115 19.1206 25.8287 19.2469 24.5395 19.2469C23.2503 19.2469 20.7852 19.1206 20.7852 19.1206Z" fill="#CC6164"/>
<path d="M26.092 38.7373L26.4864 37.497L23.9116 32.8074L23.304 29.2687L23.6614 29.0304L21.0402 22.021L15.9335 23.4639L17.3633 31.7636C17.7305 33.8944 18.6168 35.902 19.944 37.609L23.4839 42.1568H26.8617L26.092 38.7373Z" fill="#A34262"/>
<path d="M18.4821 30.5721L22.6713 29.0327L23.5267 33.0944L29.6187 42.1567C31.1891 42.2533 31.9266 44.0166 32.2793 44.4003H34.2785C34.4382 44.4004 34.5935 44.4527 34.7206 44.5493C34.8477 44.6459 34.9398 44.7815 34.9827 44.9353C35.1986 44.9351 35.4087 45.0046 35.5819 45.1334C35.7551 45.2622 35.8822 45.4434 35.9442 45.6501L35.9669 45.724H35.5177L35.688 46.2149L31.1259 46.8511C30.9271 46.8785 30.7246 46.8537 30.5382 46.7791C30.3519 46.7045 30.1882 46.5828 30.0631 46.4258L27.9935 43.8248L20.5326 35.4845C20.0547 34.9503 19.6939 34.3221 19.4734 33.6401L18.4821 30.5721Z" fill="#EBA58E"/>
<path d="M28.8812 43.6636L30.118 45.5938C30.2639 45.8205 30.4636 46.0076 30.6994 46.1383L32.7761 47.2857C32.8719 47.0036 32.8688 46.6973 32.7672 46.4173C32.6656 46.1372 32.4717 45.9002 32.2173 45.7451L31.4619 45.2816C32.1673 43.7113 30.8853 43.1656 30.5159 43.0381L28.8812 43.6636Z" fill="#EBA58E"/>
<path d="M32.7761 47.3502C32.7652 47.3504 32.7545 47.3475 32.7451 47.3419L30.6684 46.1945C30.4232 46.0589 30.2156 45.8644 30.0643 45.6285L28.8276 43.6983C28.8229 43.6912 28.8197 43.6833 28.8182 43.6749C28.8166 43.6666 28.8167 43.658 28.8185 43.6497C28.8203 43.6414 28.8237 43.6335 28.8285 43.6265C28.8333 43.6195 28.8395 43.6136 28.8466 43.609C28.8537 43.6044 28.8617 43.6013 28.87 43.5999C28.8783 43.5984 28.8868 43.5986 28.895 43.6005C28.9032 43.6024 28.911 43.6059 28.9178 43.6108C28.9247 43.6158 28.9304 43.622 28.9348 43.6292L30.1716 45.5594C30.3118 45.7773 30.5037 45.957 30.7304 46.0825L32.738 47.1917C32.81 46.9309 32.7949 46.6537 32.6949 46.4023C32.5949 46.1508 32.4155 45.939 32.184 45.7989L31.4286 45.3366C31.4153 45.3284 31.4054 45.3157 31.4008 45.3008C31.3962 45.2859 31.3972 45.2698 31.4035 45.2556C31.6311 44.748 31.6669 44.3024 31.5084 43.9354C31.2951 43.4398 30.7816 43.1979 30.4944 43.1014C30.4852 43.0998 30.4763 43.0963 30.4686 43.0909C30.4608 43.0856 30.4544 43.0786 30.4496 43.0704C30.4449 43.0623 30.4419 43.0532 30.4411 43.0439C30.4402 43.0345 30.4414 43.025 30.4446 43.0162C30.4478 43.0073 30.4529 42.9993 30.4595 42.9926C30.4662 42.9859 30.4742 42.9808 30.483 42.9775C30.4919 42.9743 30.5013 42.9731 30.5107 42.9739C30.5201 42.9747 30.5292 42.9776 30.5373 42.9823C30.8435 43.0895 31.3928 43.3492 31.6263 43.8902C31.7943 44.2786 31.7657 44.7397 31.5429 45.2615L32.2507 45.6952C32.5184 45.857 32.7226 46.1055 32.8292 46.3995C32.9359 46.6935 32.9386 47.0151 32.8369 47.3109C32.8343 47.3199 32.8297 47.3282 32.8232 47.3351C32.8168 47.3419 32.8088 47.3471 32.7999 47.3502C32.7921 47.3519 32.784 47.3519 32.7761 47.3502Z" fill="#E78882"/>
<path d="M35.2854 45.7857L33.2301 45.7475C33.2132 45.7469 33.1973 45.7397 33.1857 45.7274C33.1741 45.7152 33.1678 45.6989 33.1681 45.682C33.1676 45.6735 33.1689 45.6649 33.1719 45.6569C33.175 45.6489 33.1797 45.6417 33.1858 45.6357C33.1919 45.6297 33.1993 45.6251 33.2073 45.6222C33.2154 45.6193 33.2239 45.6182 33.2324 45.6189L35.2877 45.657C35.3048 45.657 35.3212 45.6638 35.3332 45.6758C35.3453 45.6879 35.3521 45.7043 35.3521 45.7213C35.3521 45.7384 35.3453 45.7547 35.3332 45.7668C35.3212 45.7789 35.3048 45.7857 35.2877 45.7857H35.2854Z" fill="#E78882"/>
<path d="M33.1348 45.0842C33.1194 45.0821 33.1052 45.0745 33.095 45.0628C33.0848 45.0511 33.0792 45.036 33.0792 45.0205C33.0792 45.0049 33.0848 44.9899 33.095 44.9782C33.1052 44.9665 33.1194 44.9589 33.1348 44.9568L34.8243 44.8781C34.8328 44.8775 34.8414 44.8786 34.8494 44.8814C34.8575 44.8842 34.8649 44.8887 34.8712 44.8945C34.8775 44.9003 34.8824 44.9074 34.8859 44.9152C34.8893 44.9231 34.891 44.9315 34.891 44.9401C34.8916 44.9569 34.8856 44.9734 34.8743 44.9859C34.8629 44.9984 34.8471 45.0059 34.8302 45.0068L33.1407 45.0842H33.1348Z" fill="#E78882"/>
<path d="M22.6713 29.0327L18.4821 30.5709L18.9015 31.8684L22.7535 29.4223L22.6713 29.0327Z" fill="#422C4F"/>
<path d="M23.0573 28.8909L17.9209 30.7782L15.9335 23.459C15.7519 22.7912 15.8385 22.0788 16.1749 21.474C16.5113 20.8692 17.0707 20.4198 17.7338 20.2218C18.069 20.1217 18.4207 20.0889 18.7687 20.1252C19.1166 20.1615 19.4539 20.2663 19.7612 20.4335C20.0685 20.6008 20.3397 20.8271 20.5592 21.0995C20.7787 21.3719 20.9421 21.6851 21.0401 22.0209L23.0573 28.8909Z" fill="#CC6164"/>
<path d="M21.4107 15.1294C21.4107 15.1294 21.0259 18.5763 20.7852 19.1208C21.3964 19.2471 21.9469 19.6427 22.4211 20.0478C22.8953 20.4529 23.4124 20.8675 24.0307 20.9509C24.3608 20.995 24.7397 20.9164 24.9303 20.6435C24.9992 20.5312 25.0401 20.404 25.0499 20.2726C25.0596 20.1412 25.0378 20.0094 24.9863 19.8881C24.881 19.6472 24.7291 19.4293 24.5395 19.2471C24.6968 18.3511 25.0506 16.4758 25.0506 16.4758L21.4107 15.1294Z" fill="#EBA58E"/>
<path d="M23.634 18.4524C23.9641 18.5567 24.309 18.6066 24.6551 18.6001C24.8266 17.6636 25.0506 16.4758 25.0506 16.4758L21.4107 15.1294C21.4107 15.1294 21.3821 15.3891 21.3344 15.7776C21.459 16.3024 21.6774 16.8005 21.979 17.2478C22.3862 17.8175 22.9668 18.2401 23.634 18.4524Z" fill="#E78882"/>
<path d="M28.0508 8.40948L28.5273 12.1638L28.7978 11.2988C28.9508 10.8109 29.0056 10.2976 28.9592 9.78837C28.9128 9.27918 28.766 8.78422 28.5273 8.33203L28.0508 8.40948Z" fill="#422C4F"/>
<path d="M24.5776 17.7578C23.7997 17.7578 23.0391 17.5283 22.391 17.0981C21.7429 16.6679 21.2361 16.056 20.9341 15.3391L20.5457 14.4121V10.3039C20.5457 9.24533 20.9662 8.2301 21.7147 7.48156C22.4633 6.73302 23.4785 6.3125 24.5371 6.3125C25.5957 6.3125 26.6109 6.73302 27.3595 7.48156C28.108 8.2301 28.5285 9.24533 28.5285 10.3039V13.8068C28.5285 14.8547 28.1123 15.8596 27.3713 16.6006C26.6304 17.3415 25.6255 17.7578 24.5776 17.7578Z" fill="#EBA58E"/>
<path d="M25.2008 10.7588L23.3528 11.7918C23.4687 11.5176 23.6179 11.2587 23.7972 11.021C23.8675 10.9062 23.9611 10.8074 24.0719 10.7311C24.1828 10.6548 24.3084 10.6026 24.4407 10.5779C24.573 10.5532 24.709 10.5565 24.8399 10.5877C24.9709 10.6188 25.0938 10.6772 25.2008 10.7588Z" fill="#422C4F"/>
<path d="M25.3378 12.259C25.3378 12.5164 25.1889 12.7249 25.0054 12.7249C24.8219 12.7249 24.6729 12.5164 24.6729 12.259C24.6729 12.0017 24.8219 11.792 25.0054 11.792C25.1889 11.792 25.3378 12.0017 25.3378 12.259Z" fill="#422C4F"/>
<path d="M27.5992 10.7593L28.4535 11.7923C28.4037 11.5307 28.3353 11.2731 28.2485 11.0214C28.1663 10.7938 28.0495 10.6067 27.9173 10.5674C27.8208 10.5388 27.679 10.6389 27.5992 10.7593Z" fill="#422C4F"/>
<path d="M27.536 12.259C27.536 12.5164 27.604 12.7249 27.6897 12.7249C27.7755 12.7249 27.8434 12.5164 27.8434 12.259C27.8434 12.0017 27.7743 11.792 27.6897 11.792C27.6052 11.792 27.536 12.0017 27.536 12.259Z" fill="#422C4F"/>
<path d="M27.3955 14.0903C26.9367 14.0853 26.4786 14.1252 26.0276 14.2094C26.142 14.3101 26.2662 14.3991 26.3982 14.4751C26.5295 14.5401 26.6779 14.5621 26.8224 14.5383C27.0452 14.4906 27.2477 14.2618 27.3955 14.0903Z" fill="#E78882"/>
<path d="M27.5241 15.0483L24.6646 15.6095C24.9029 15.7811 25.1055 15.9991 25.3795 16.1171C25.6367 16.2492 25.9313 16.2897 26.2146 16.2319C26.4979 16.174 26.7531 16.0213 26.9379 15.799C27.1541 15.5657 27.3502 15.3146 27.5241 15.0483Z" fill="white"/>
<path d="M20.7375 14.4396L20.8888 14.3491C21.1412 14.1958 21.3499 13.9801 21.4947 13.7228C21.6395 13.4655 21.7156 13.1753 21.7157 12.88V12.5488C22.174 12.1456 22.5411 11.6495 22.7926 11.0933C23.0441 10.5372 23.1741 9.93382 23.1741 9.32346V8.78134H28.2271C28.6236 8.58777 28.9602 8.29031 29.201 7.92063C29.4419 7.55095 29.578 7.12287 29.5949 6.68197L29.6187 6.05526C29.4235 6.15405 29.2085 6.2077 28.9897 6.21223C28.7708 6.21677 28.5538 6.17208 28.3546 6.08147C27.9471 5.90037 27.6004 5.61084 27.2418 5.34514C26.49 4.78873 25.6571 4.32048 24.7492 4.09291C23.8413 3.86534 22.8512 3.89274 22.0017 4.28593C21.1522 4.67911 20.4671 5.46787 20.3098 6.39006C19.5949 6.43891 18.9229 6.9298 18.5309 7.53745C18.1389 8.1451 17.9864 8.88142 17.984 9.60345C17.9769 11.5193 19.0945 13.459 20.7375 14.4396Z" fill="#422C4F"/>
<path d="M21.0032 13.6041C20.9158 13.2572 20.7286 12.9436 20.4647 12.7021C20.3322 12.5832 20.1759 12.4938 20.0062 12.44C19.8365 12.3862 19.6573 12.3691 19.4805 12.39C19.304 12.4137 19.1376 12.4865 19.0003 12.6C18.863 12.7135 18.7602 12.8632 18.7037 13.0322C18.6048 13.3646 18.7204 13.722 18.8681 14.0354C18.9931 14.3219 19.1733 14.581 19.3983 14.7979C19.6267 15.0157 19.9323 15.134 20.2478 15.1268C20.4083 15.1088 20.5628 15.0552 20.6999 14.9699C20.8369 14.8845 20.9532 14.7696 21.0402 14.6335C21.195 14.3547 21.083 13.89 21.0032 13.6041Z" fill="#EBA58E"/>
<path d="M19.3495 12.9146C19.5047 12.9187 19.6575 12.9537 19.7991 13.0175C19.9407 13.0813 20.0681 13.1726 20.174 13.2862C20.2799 13.3997 20.3622 13.5332 20.416 13.6789C20.4698 13.8246 20.494 13.9795 20.4873 14.1346C20.4909 14.2018 20.4791 14.2689 20.4529 14.3308C20.4266 14.3927 20.3867 14.4479 20.336 14.4921C20.2711 14.5292 20.1966 14.5463 20.122 14.5413C20.0473 14.5362 19.9759 14.5091 19.9166 14.4635C19.8303 14.4045 19.7617 14.3232 19.7181 14.2282C19.6746 14.1332 19.6577 14.0281 19.6694 13.9242C19.681 13.8204 19.7207 13.7217 19.7842 13.6386C19.8477 13.5556 19.9326 13.4915 20.0298 13.4531C19.9611 13.3202 19.865 13.2034 19.7477 13.1105C19.6303 13.0177 19.4946 12.9508 19.3495 12.9146Z" fill="#E78882"/>
<path d="M49.129 39.8807L48.5405 39.4935C47.797 38.9323 48.7025 36.3587 48.7025 36.3587L41.1545 37.3905L29.3387 32.5317C28.7085 34.0056 28.743 36.074 28.743 36.074L39.6247 40.8399V40.8518L40.5779 41.2569C49.3971 40.0332 49.129 39.8807 49.129 39.8807Z" fill="#DE6C6B"/>
<path d="M41.3059 37.4622L49.7975 36.2326L37.928 31.8135L29.3399 32.5272L41.3059 37.4622Z" fill="#DE6C6B"/>
<path opacity="0.37" d="M29.0051 35.9992C28.9833 35.7452 28.9793 35.49 28.9932 35.2354C29.0052 34.9802 29.0326 34.726 29.0754 34.4741C29.1193 34.2224 29.1819 33.9743 29.2625 33.7318C29.3454 33.4901 29.454 33.258 29.5866 33.0396C29.5389 33.1587 29.4805 33.2707 29.4412 33.397C29.4019 33.5233 29.359 33.6353 29.3221 33.7544C29.2553 33.9927 29.2029 34.2429 29.1541 34.492C29.1052 34.741 29.0802 34.9912 29.0552 35.2438C29.0421 35.3689 29.0325 35.4952 29.0254 35.6215C29.0182 35.7478 29.0099 35.8717 29.0051 35.9992Z" fill="#2B3448"/>
<path opacity="0.37" d="M40.0036 40.7636C39.9807 40.5097 39.9764 40.2544 39.9905 39.9999C40.0023 39.745 40.0298 39.4912 40.0727 39.2397C40.1166 38.9876 40.1791 38.7391 40.2597 38.4962C40.3426 38.2549 40.4513 38.0232 40.5838 37.8052C40.5362 37.9243 40.4778 38.0351 40.4385 38.1567C40.3991 38.2782 40.3563 38.395 40.3193 38.5141C40.2526 38.7524 40.2002 39.0026 40.1513 39.2516C40.1025 39.5006 40.0774 39.7508 40.0524 40.0034C40.0393 40.1285 40.0298 40.2548 40.0226 40.3823C40.0155 40.5098 40.0071 40.6361 40.0036 40.7636Z" fill="#2B3448"/>
<path opacity="0.37" d="M29.9619 33.0288C30.815 33.3783 31.6653 33.7326 32.5128 34.0916L35.0554 35.1735L37.5909 36.272L38.8562 36.8272L40.118 37.3896L38.8407 36.863L37.567 36.328L35.0244 35.2461L32.489 34.1476C31.6442 33.7782 30.8019 33.4077 29.9619 33.0288Z" fill="#2B3448"/>
<g opacity="0.41">
<path d="M31.6836 37.1277L29.3578 36.0553L29.9071 33.2959L32.2042 34.2801L31.6836 37.1277ZM29.4448 36.0446L31.6133 37.0395L32.1161 34.2991L29.9714 33.3805L29.4448 36.0446Z" fill="white"/>
<path d="M30.7685 35.2319L29.7879 34.0404L31.0366 33.8271L32.0446 35.0258L30.7685 35.2319ZM29.8952 34.0845L30.7816 35.1628L31.9326 34.9745L31.0235 33.8927L29.8952 34.0845Z" fill="white"/>
<path d="M30.5874 35.961L29.6057 34.7505L30.8591 34.542L31.8683 35.7585L30.5874 35.961ZM29.7141 34.7993L30.6017 35.8919L31.7562 35.7072L30.846 34.6111L29.7141 34.7993Z" fill="white"/>
<path d="M30.4719 36.5628L29.4889 35.338L30.7459 35.1318L31.7574 36.3626L30.4719 36.5628ZM29.5973 35.3868L30.4862 36.4925L31.6443 36.3114L30.7328 35.2009L29.5973 35.3868Z" fill="white"/>
</g>
<g opacity="0.41">
<path d="M34.25 38.2963L31.9254 37.224L32.4735 34.4634L34.7706 35.4487L34.25 38.2963ZM32.0112 37.2133L34.1797 38.2094L34.6825 35.469L32.5378 34.5492L32.0112 37.2133Z" fill="white"/>
<path d="M33.3349 36.4018L32.3543 35.2103L33.603 34.9971L34.611 36.1993L33.3349 36.4018ZM32.4616 35.2544L33.348 36.3268L34.499 36.1397L33.5899 35.0578L32.4616 35.2544Z" fill="white"/>
<path d="M33.155 37.1275L32.1732 35.917L33.4255 35.7085L34.4359 36.9238L33.155 37.1275ZM32.2805 35.9647L33.1681 37.0584L34.3227 36.8738L33.4124 35.7764L32.2805 35.9647Z" fill="white"/>
<path d="M33.0394 37.7315L32.0553 36.5067L33.3123 36.3018L34.3238 37.5325L33.0394 37.7315ZM32.1637 36.5555L33.0525 37.6612L34.2106 37.4813L33.2992 36.3709L32.1637 36.5555Z" fill="white"/>
</g>
<g opacity="0.41">
<path d="M36.8938 39.4782L34.5681 38.4059L35.1174 35.6465L37.4145 36.6306L36.8938 39.4782ZM34.6551 38.3952L36.8223 39.3901L37.3263 36.6497L35.1817 35.7311L34.6551 38.3952Z" fill="white"/>
<path d="M35.9776 37.5825L34.997 36.391L36.2469 36.1777L37.2548 37.3764L35.9776 37.5825ZM35.1054 36.4351L35.9907 37.5074L37.1417 37.3192L36.2338 36.2373L35.1054 36.4351Z" fill="white"/>
<path d="M35.7977 38.3082L34.8159 37.0977L36.0693 36.8892L37.0785 38.1045L35.7977 38.3082ZM34.9243 37.1465L35.8108 38.2391L36.9653 38.0544L36.0562 36.9571L34.9243 37.1465Z" fill="white"/>
<path d="M35.6821 38.9134L34.6992 37.6885L35.9561 37.4824L36.9665 38.7132L35.6821 38.9134ZM34.8064 37.7374L35.6952 38.8431L36.8545 38.662L35.9419 37.5515L34.8064 37.7374Z" fill="white"/>
</g>
<g opacity="0.41">
<path d="M39.546 40.6199L37.2203 39.5475L37.7684 36.7881L40.0667 37.7722L39.546 40.6199ZM37.3061 39.5368L39.4746 40.5329L39.9785 37.7925L37.8339 36.8727L37.3061 39.5368Z" fill="white"/>
<path d="M38.6298 38.7241L37.6492 37.5326L38.8991 37.3193L39.9059 38.518L38.6298 38.7241ZM37.7565 37.5767L38.6429 38.655L39.7939 38.4667L38.886 37.3849L37.7565 37.5767Z" fill="white"/>
<path d="M38.4499 39.4498L37.4681 38.2393L38.7216 38.0308L39.7307 39.2473L38.4499 39.4498ZM37.5754 38.2881L38.463 39.3807L39.6176 39.1972L38.7085 38.0999L37.5754 38.2881Z" fill="white"/>
<path d="M38.3343 40.055L37.3502 38.8301L38.6071 38.624L39.6187 39.8548L38.3343 40.055ZM37.4586 38.879L38.3474 39.9847L39.5055 39.8036L38.594 38.6931L37.4586 38.879Z" fill="white"/>
</g>
<mask id="mask0_92_14976" style="mask-type:luminance" maskUnits="userSpaceOnUse" x="40" y="36" width="10" height="6">
<path d="M41.3928 37.3454C41.3928 37.3454 40.1466 39.1326 40.5386 41.0484L48.8097 39.6544C48.676 39.1907 48.6394 38.7043 48.7024 38.2258C48.7653 37.7473 48.9264 37.2869 49.1755 36.8735L41.3928 37.3454Z" fill="white"/>
</mask>
<g mask="url(#mask0_92_14976)">
<path d="M41.3928 37.3454C41.3928 37.3454 40.1466 39.1326 40.5386 41.0485L48.8097 39.6544C48.8097 39.6544 48.5524 37.8375 49.4055 36.397L41.3928 37.3454Z" fill="white"/>
<path opacity="0.1" d="M47.2108 39.6364C46.0598 39.8926 44.9244 40.0629 43.7424 39.9772C42.5605 39.8914 41.4298 39.4315 40.8579 38.3794C40.5779 39.074 40.3324 40.0475 40.5386 41.0483L48.8097 39.6543C48.8097 39.6543 48.7907 39.5149 48.7799 39.2837C48.2545 39.3921 47.7291 39.5196 47.2108 39.6364Z" fill="#74471B"/>
<g opacity="0.22">
<path d="M49.3995 37.3299L40.5527 37.9609L40.5569 38.0204L49.4037 37.3893L49.3995 37.3299Z" fill="#74471B"/>
<path d="M49.3262 37.8015L40.491 38.5776L40.4962 38.637L49.3314 37.8609L49.3262 37.8015Z" fill="#74471B"/>
<path d="M49.1643 38.4187L40.329 39.1948L40.3343 39.2542L49.1695 38.4781L49.1643 38.4187Z" fill="#74471B"/>
<path d="M48.2657 39.1624L39.4851 40.0493L39.4911 40.1083L48.2717 39.2214L48.2657 39.1624Z" fill="#74471B"/>
<path d="M49.0093 39.28L40.2225 40.4868L40.2306 40.5458L49.0174 39.3391L49.0093 39.28Z" fill="#74471B"/>
</g>
</g>
<path opacity="0.11" d="M40.865 37.6291L29.272 32.7119C29.272 32.7119 28.9586 33.4971 29.0063 33.9796L40.5874 38.9743L41.1307 37.7077L40.865 37.6291Z" fill="white"/>
<path opacity="0.1" d="M28.7418 36.0692L40.5743 41.2521C40.5743 41.2521 40.4671 40.0702 40.4837 39.9534L28.8407 35.1089C28.8407 35.1089 28.6656 35.8416 28.7418 36.0692Z" fill="#2B3448"/>
<path d="M31.979 29.8392C31.979 29.8392 31.5572 31.1677 31.6109 32.078C31.6109 32.078 38.6524 37.3645 39.1826 37.5933C39.7128 37.822 50.5731 37.355 50.5731 37.355L49.2232 36.8176L49.5246 34.3156L50.8352 34.2703L42.4556 29.3853L31.979 29.8392Z" fill="#ECB751"/>
<path d="M49.9714 34.293L39.8022 34.4121C39.8022 34.4121 38.9551 36.1552 39.384 37.2454L49.8546 37.0214C49.8294 36.1103 49.8684 35.1986 49.9714 34.293Z" fill="white"/>
<path opacity="0.1" d="M44.4608 36.8496C42.7332 36.6614 40.8626 36.3242 39.4567 35.3281C39.2839 35.9143 39.1552 36.6709 39.3816 37.2464L49.8522 37.0224C49.8522 37.0224 49.8522 37.0021 49.8522 36.964C48.0549 37.0684 46.2521 37.0301 44.4608 36.8496Z" fill="#74471B"/>
<g opacity="0.35">
<path d="M32.7201 30.4454L32.3091 30.2095L31.9612 31.0781L32.0005 32.1694L32.3913 32.4518L32.7618 31.5975L32.7201 30.4454Z" stroke="#2B3448" stroke-miterlimit="10"/>
<path d="M32.5116 30.9423L32.3317 30.8315L32.1744 31.2164L32.1923 31.7097L32.3686 31.83L32.5307 31.4475L32.5116 30.9423Z" fill="#2B3448"/>
<path d="M32.6153 32.6153L31.811 32.0326L32.1137 30.0786L32.9584 30.5623L32.6153 32.6153Z" stroke="#2B3448" stroke-miterlimit="10"/>
<path d="M35.2484 31.8957L34.6896 31.5752L34.213 32.5403L34.2595 33.8056L34.7873 34.1869L35.2985 33.2444L35.2484 31.8957Z" stroke="#2B3448" stroke-miterlimit="10"/>
<path d="M34.9613 32.4506L34.717 32.2993L34.5002 32.7259L34.5216 33.299L34.7599 33.4622L34.9827 33.0392L34.9613 32.4506Z" fill="#2B3448"/>
<path d="M35.0912 34.4086L34.0057 33.6211L34.4251 31.4014L35.5761 32.0591L35.0912 34.4086Z" stroke="#2B3448" stroke-miterlimit="10"/>
<path d="M38.8097 33.9377L38.0055 33.4766L37.3168 34.5537L37.374 36.0609L38.1246 36.6042L38.8717 35.5628L38.8097 33.9377Z" stroke="#2B3448" stroke-miterlimit="10"/>
<path d="M38.3891 34.5599L38.0377 34.3442L37.7255 34.8196L37.7517 35.5035L38.0913 35.7359L38.4165 35.2676L38.3891 34.5599Z" fill="#2B3448"/>
<path d="M38.5619 36.9212L37.0154 35.8012L37.6266 33.2324L39.2863 34.182L38.5619 36.9212Z" stroke="#2B3448" stroke-miterlimit="10"/>
<path d="M33.3576 33.1621L33.1812 33.0346L33.5565 30.9043L33.7424 31.0103L33.3576 33.1621Z" fill="#2B3448"/>
<path d="M36.0503 35.1139L35.8192 34.9459L36.3529 32.5034L36.5996 32.6452L36.0503 35.1139Z" fill="#2B3448"/>
</g>
<path opacity="0.11" d="M31.979 29.8394L39.8022 34.4122C39.8022 34.4122 39.3852 35.3868 39.3709 35.6287L31.7634 30.6329C31.7634 30.6329 31.9183 29.918 31.979 29.8394Z" fill="white"/>
<path opacity="0.26" d="M31.6109 32.078L39.1827 37.5933C39.1827 37.5933 38.9181 37.0441 39.0706 36.1529L31.6621 31.3477C31.6621 31.3477 31.5799 31.9791 31.6109 32.078Z" fill="#DC903C"/>
<mask id="mask1_92_14976" style="mask-type:luminance" maskUnits="userSpaceOnUse" x="39" y="34" width="11" height="4">
<path d="M49.9714 34.293L39.8022 34.4121C39.8022 34.4121 38.9551 36.1552 39.384 37.2454L49.8546 37.0214C49.8294 36.1103 49.8684 35.1986 49.9714 34.293Z" fill="white"/>
</mask>
<g mask="url(#mask1_92_14976)">
<g opacity="0.44">
<path d="M50.1848 34.6387L39.293 34.8364L39.2937 34.8757L50.1855 34.678L50.1848 34.6387Z" fill="#74471B"/>
</g>
<g opacity="0.44">
<path d="M50.156 35.086L39.2642 35.2837L39.2649 35.323L50.1567 35.1253L50.156 35.086Z" fill="#74471B"/>
</g>
<g opacity="0.44">
<path d="M50.1218 35.3031L39.2282 35.521L39.229 35.5603L50.1226 35.3424L50.1218 35.3031Z" fill="#74471B"/>
</g>
<g opacity="0.44">
<path d="M49.9914 36.0616L39.0996 36.2612L39.1004 36.3005L49.9921 36.1009L49.9914 36.0616Z" fill="#74471B"/>
</g>
<g opacity="0.44">
<path d="M49.9321 36.6012L39.0403 36.8008L39.0411 36.8401L49.9328 36.6405L49.9321 36.6012Z" fill="#74471B"/>
</g>
</g>
<path d="M31.2761 25.675C30.9585 26.1851 30.7465 26.7537 30.6525 27.3472C30.5586 27.9407 30.5847 28.547 30.7292 29.1302L41.1236 34.1213L49.7021 33.0752L49.0325 32.7988L49.334 29.6855L50.1418 29.5854L40.2931 24.9756L31.2761 25.675Z" fill="#5CA28B"/>
<path d="M49.4722 29.665L41.5203 30.1547C41.5203 30.1547 40.0167 32.1886 41.3249 33.7732L49.0993 32.8129L49.4722 29.665Z" fill="white"/>
<path opacity="0.1" d="M46.1599 29.8916C46.4411 29.9321 46.7235 29.9643 47.007 29.9834C47.1345 29.9917 47.262 29.9965 47.3895 30.0012H47.5277C48.0138 29.9893 48.4964 29.9595 48.9801 29.9059C49.1362 29.8893 49.2935 29.869 49.4567 29.8475L49.4781 29.6641L46.061 29.875L46.1599 29.8916Z" fill="#74471B"/>
<path opacity="0.1" d="M45.6011 32.6105C44.499 32.4377 43.4124 32.1589 42.3222 31.9206C41.8372 31.8199 41.3595 31.6865 40.8924 31.5215C40.7185 32.203 40.7185 33.037 41.3273 33.7734L49.1016 32.813L49.1195 32.6581C47.9495 32.7925 46.7671 32.7765 45.6011 32.6105Z" fill="#74471B"/>
<path opacity="0.38" d="M30.8996 28.9823C30.8241 28.722 30.784 28.4527 30.7804 28.1816C30.7746 27.9103 30.7945 27.639 30.84 27.3714C30.8507 27.3047 30.8674 27.238 30.8805 27.1713L30.9007 27.0724L30.927 26.9747L30.9818 26.7781L31.0485 26.5863C31.0902 26.4576 31.1486 26.3349 31.1998 26.211C31.251 26.087 31.3189 25.9727 31.3845 25.8535C31.2832 26.1037 31.1819 26.3527 31.1057 26.6089L31.0485 26.8019L30.9996 26.9961L30.9746 27.0926L30.9555 27.1915C30.9436 27.2571 30.9282 27.3226 30.9174 27.3881C30.8735 27.6517 30.848 27.9181 30.8412 28.1852C30.8412 28.3187 30.8412 28.4521 30.8495 28.5856C30.8579 28.7187 30.8747 28.8512 30.8996 28.9823Z" fill="#2B3448"/>
<path opacity="0.38" d="M40.3836 33.4718C40.3082 33.211 40.2681 32.9413 40.2645 32.6699C40.2587 32.399 40.2787 32.1281 40.3241 31.8609C40.3348 31.793 40.3503 31.7275 40.3634 31.6608L40.3848 31.5619L40.411 31.463L40.4647 31.2676L40.5314 31.0757C40.5731 30.9471 40.6327 30.8243 40.6839 30.6992C40.7351 30.5741 40.8031 30.4609 40.8686 30.3418C40.7673 30.592 40.666 30.841 40.5898 31.0972L40.5314 31.289L40.4837 31.4844L40.4587 31.5809L40.4396 31.6798C40.4265 31.7453 40.4122 31.8097 40.4015 31.8764C40.3571 32.1395 40.3316 32.4055 40.3253 32.6723C40.3205 32.8062 40.3229 32.9402 40.3324 33.0738C40.3413 33.2074 40.3584 33.3403 40.3836 33.4718Z" fill="#2B3448"/>
<g opacity="0.23">
<path d="M31.9194 28.3728L33.4231 28.8601L32.2304 27.6043L31.4786 27.5947L31.9194 28.3728Z" fill="#2B3448"/>
<path d="M32.2578 27.5576L33.5506 28.9147L32.8691 27.0333L32.1387 26.5913L32.2578 27.5576Z" fill="#2B3448"/>
<path d="M31.9016 28.4521L33.5113 28.9454L31.9731 29.279L31.3261 28.8572L31.9016 28.4521Z" fill="#2B3448"/>
</g>
<path opacity="0.23" d="M34.4716 27.4277C34.4716 27.4277 33.5589 28.9195 33.7757 30.5184L35.3985 31.3596C35.3985 31.3596 35.3985 28.7384 36.2469 28.2618L34.4716 27.4277Z" fill="#2B3448"/>
<path opacity="0.23" d="M38.1056 29.1372C38.1056 29.1372 37.1417 30.7731 37.4002 32.2875L37.9006 32.571C37.9006 32.571 38.1091 30.1321 38.7573 29.4148L38.1056 29.1372Z" fill="#2B3448"/>
<mask id="mask2_92_14976" style="mask-type:luminance" maskUnits="userSpaceOnUse" x="40" y="29" width="10" height="5">
<path d="M49.4722 29.665L41.5203 30.1547C41.5203 30.1547 40.0167 32.1886 41.3249 33.7732L49.0993 32.8129L49.4722 29.665Z" fill="white"/>
</mask>
<g mask="url(#mask2_92_14976)">
<g opacity="0.27">
<path d="M50.2575 29.806L41.1201 30.4146L41.1227 30.4538L50.2601 29.8453L50.2575 29.806Z" fill="#74471B"/>
<path d="M50.3528 30.8287L41.1951 31.4697L41.1979 31.509L50.3555 30.868L50.3528 30.8287Z" fill="#74471B"/>
<path d="M49.8856 30.5732L40.7652 31.3984L40.7687 31.4376L49.8891 30.6124L49.8856 30.5732Z" fill="#74471B"/>
<path d="M49.7804 31.0196L40.6599 31.8433L40.6634 31.8824L49.784 31.0588L49.7804 31.0196Z" fill="#74471B"/>
<path d="M49.7278 31.4528L40.6073 32.2764L40.6108 32.3155L49.7313 31.4919L49.7278 31.4528Z" fill="#74471B"/>
<path d="M49.7303 31.8644L40.6098 32.688L40.6133 32.7271L49.7338 31.9035L49.7303 31.8644Z" fill="#74471B"/>
<path d="M40.8912 33.5335L40.8865 33.4942L49.9953 32.541L49.9988 32.5815L40.8912 33.5335Z" fill="#74471B"/>
<path d="M49.8661 32.2345L40.7456 33.0581L40.7491 33.0973L49.8696 32.2737L49.8661 32.2345Z" fill="#74471B"/>
</g>
</g>
<path opacity="0.11" d="M31.2761 25.6748L41.5227 30.1547C41.5227 30.1547 40.9472 31.1222 40.815 31.6155L30.7387 26.8162C30.7387 26.8162 31.0485 25.8333 31.2761 25.6748Z" fill="white"/>
<path opacity="0.1" d="M30.6422 29.0924L41.1271 34.1192C41.1271 34.1192 40.5481 33.7903 40.5076 32.6894L30.5659 28.001C30.5659 28.001 30.5802 28.9029 30.6422 29.0924Z" fill="#2B3448"/>
<path d="M32.6546 22.1935C32.6546 22.1935 32.0708 24.3631 32.2054 24.9839L39.9178 29.5424L50.0727 29.272L49.1112 28.905L49.3495 26.5078L50.2323 26.5399L40.7804 22.1875L32.6546 22.1935Z" fill="#2B3448"/>
<path d="M49.6104 26.5355L40.6481 26.3794C40.6481 26.3794 39.3292 28.1773 40.498 29.177L49.3149 29.0483C49.3149 29.0483 49.6271 26.4294 49.6104 26.5355Z" fill="white"/>
<path opacity="0.1" d="M45.7179 28.9852C44.6456 28.8219 43.5589 28.5669 42.5009 28.3155C41.8694 28.1654 41.2189 27.995 40.6827 27.6126C40.5123 27.4879 40.3561 27.3448 40.2169 27.186C39.9786 27.7925 39.8415 28.6158 40.5016 29.177L46.5185 29.0888C46.2481 29.059 45.9824 29.0257 45.7179 28.9852Z" fill="#74471B"/>
<g opacity="0.54">
<path d="M33.074 23.9927C33.074 24.0165 33.0371 24.0201 33.0025 23.9999C32.968 23.9796 32.9441 23.9462 32.9489 23.9224C32.9536 23.8986 32.9846 23.895 33.0192 23.9141C33.0537 23.9331 33.074 23.9689 33.074 23.9927Z" fill="#ECB751"/>
<path d="M34.1701 23.858C34.1701 23.8818 34.1308 23.8866 34.0939 23.8663C34.057 23.8461 34.0307 23.8092 34.0355 23.7841C34.0403 23.7591 34.0748 23.7555 34.1118 23.7758C34.1487 23.7961 34.1761 23.833 34.1701 23.858Z" fill="#ECB751"/>
<path d="M33.8937 25.2162C33.8878 25.2412 33.8544 25.2424 33.8175 25.2162C33.7805 25.19 33.7555 25.1578 33.7615 25.134C33.7674 25.1102 33.7996 25.1066 33.8353 25.134C33.8711 25.1614 33.8985 25.1924 33.8937 25.2162Z" fill="#ECB751"/>
<path d="M35.0542 25.1186C35.0542 25.1437 35.0125 25.146 34.9732 25.1186C34.9339 25.0912 34.9053 25.0579 34.9112 25.0329C34.9172 25.0078 34.9529 25.0054 34.9923 25.0329C35.0316 25.0603 35.0602 25.0984 35.0542 25.1186Z" fill="#ECB751"/>
<path d="M32.9036 22.6855L32.6927 23.7853H32.682L32.6892 23.7984L32.489 24.8421L35.1364 26.4506L35.6428 24.1129L32.9036 22.6855ZM34.2643 23.4957L34.7051 24.2881L34.026 24.4489L34.1094 24.0379L34.0308 23.9938L33.9497 24.3941L33.5208 23.6685L34.2643 23.4957ZM33.4815 23.6006L33.0049 22.7952L34.2142 23.429L33.4815 23.6006ZM34.3298 23.4886L35.4974 24.101L34.7671 24.2738L34.3298 23.4886ZM34.051 24.5228L34.7444 24.3608L35.2615 25.2889L34.5467 25.4081L34.0617 24.5871L34.7432 24.9732L34.754 24.9196L34.051 24.5228ZM33.914 24.4453L33.211 24.0486L33.2015 24.0998L33.8794 24.4835L33.2468 24.6336L32.7702 23.8413L33.4588 23.6816L33.914 24.4453ZM33.914 24.555L33.8199 25.0184L33.8985 25.0637L33.995 24.5871L34.4859 25.4212L33.7829 25.5403L33.2849 24.7063L33.914 24.555ZM33.7174 25.5355L32.6046 24.8612L33.2301 24.7146L33.7174 25.5355ZM34.5276 25.4926L35.0173 26.3267L33.8353 25.6118L34.5276 25.4926ZM34.5895 25.4819L35.2734 25.3628L35.0721 26.2933L34.5895 25.4819ZM34.8052 24.3465L35.5296 24.1761L35.3008 25.2365L34.8052 24.3465ZM32.9549 22.8226L33.4219 23.6137L32.7726 23.7662L32.9549 22.8226ZM33.1931 24.6467L32.5783 24.7921L32.7499 23.902L33.1931 24.6467Z" fill="#ECB751"/>
</g>
<g opacity="0.54">
<path d="M37.069 26.1529C37.069 26.1767 37.0321 26.1803 36.9975 26.16C36.9629 26.1398 36.9391 26.1064 36.9439 26.0826C36.9486 26.0587 36.9796 26.0552 37.0142 26.0742C37.0487 26.0933 37.0738 26.129 37.069 26.1529Z" fill="#ECB751"/>
<path d="M38.1699 26.0182C38.1699 26.042 38.1306 26.0468 38.0936 26.0265C38.0567 26.0062 38.0305 25.9693 38.0353 25.9443C38.04 25.9193 38.0746 25.9157 38.1115 25.936C38.1484 25.9562 38.1759 25.9931 38.1699 26.0182Z" fill="#ECB751"/>
<path d="M37.8935 27.3821C37.8935 27.4072 37.8542 27.4084 37.8184 27.3821C37.7827 27.3559 37.7553 27.3238 37.7612 27.2999C37.7672 27.2761 37.7994 27.2725 37.8363 27.294C37.8732 27.3154 37.8982 27.3524 37.8935 27.3821Z" fill="#ECB751"/>
<path d="M39.054 27.2837C39.054 27.3087 39.0123 27.3111 38.973 27.2837C38.9336 27.2563 38.905 27.2229 38.911 27.1979C38.917 27.1729 38.9527 27.1705 38.992 27.1979C39.0313 27.2253 39.0599 27.2634 39.054 27.2837Z" fill="#ECB751"/>
<path d="M36.9034 24.8457L36.6925 25.9454H36.6818L36.6889 25.9585L36.4887 27.0023L39.1362 28.6107L39.6426 26.2731L36.9034 24.8457ZM38.264 25.6559L38.7049 26.4482L38.0257 26.6091L38.1091 26.198L38.0305 26.1539L37.9495 26.5543L37.5205 25.8287L38.264 25.6559ZM37.4812 25.7608L37.0046 24.9553L38.214 25.5892L37.4812 25.7608ZM38.3296 25.6488L39.4972 26.2612L38.7668 26.4339L38.3296 25.6488ZM38.0508 26.6829L38.7442 26.5209L39.2613 27.4491L38.5464 27.5682L38.0615 26.7473L38.743 27.1333L38.7537 27.0797L38.0508 26.6829ZM37.9137 26.6055L37.2108 26.2087L37.2012 26.26L37.8792 26.6436L37.2465 26.7938L36.7699 26.0014L37.4586 25.8418L37.9137 26.6055ZM37.9137 26.7151L37.8184 27.1786L37.897 27.2239L37.9936 26.7473L38.4844 27.5813L37.7815 27.7005L37.2834 26.8664L37.9137 26.7151ZM37.7171 27.6957L36.6031 27.0213L37.2286 26.8748L37.7171 27.6957ZM38.5261 27.6528L39.0158 28.4868L37.8339 27.772L38.5261 27.6528ZM38.5881 27.6421L39.272 27.5229L39.0706 28.4535L38.5881 27.6421ZM38.8038 26.5066L39.5282 26.3362L39.2994 27.3966L38.8038 26.5066ZM36.9534 24.9827L37.4205 25.7739L36.7723 25.9264L36.9534 24.9827ZM37.1917 26.8069L36.5769 26.9522L36.7497 26.0622L37.1917 26.8069Z" fill="#ECB751"/>
</g>
<mask id="mask3_92_14976" style="mask-type:luminance" maskUnits="userSpaceOnUse" x="40" y="26" width="10" height="4">
<path d="M49.6104 26.5355L40.6481 26.3794C40.6481 26.3794 39.3292 28.1773 40.498 29.177L49.3149 29.0483C49.3149 29.0483 49.6271 26.4294 49.6104 26.5355Z" fill="white"/>
</mask>
<g mask="url(#mask3_92_14976)">
<g opacity="0.31">
<path d="M39.941 27.428L39.9405 27.4673L50.1076 27.6004L50.1081 27.5611L39.941 27.428Z" fill="#74471B"/>
</g>
<g opacity="0.31">
<path d="M39.8491 28.052L39.8486 28.0913L50.0158 28.2244L50.0163 28.1851L39.8491 28.052Z" fill="#74471B"/>
</g>
<g opacity="0.31">
<path d="M39.7677 28.7683V28.729L49.9369 28.7564V28.7969L39.7677 28.7683Z" fill="#74471B"/>
</g>
<g opacity="0.31">
<path d="M40.0369 26.7258L40.0358 26.7651L50.1995 27.0579L50.2007 27.0186L40.0369 26.7258Z" fill="#74471B"/>
</g>
</g>
<path d="M42.5092 26.8047C42.5092 26.8047 43.3861 28.6312 42.8309 30.6722L43.4374 30.2945L43.7948 30.7711C43.7948 30.7711 44.2523 27.9521 43.6459 26.8869L42.5092 26.8047Z" fill="#ECB751"/>
<path opacity="0.11" d="M32.6546 22.1934C32.6546 22.1934 40.4992 26.0406 40.4802 26.1657C40.4611 26.2908 39.7939 27.0831 39.7963 27.9327L32.3591 23.6529L32.6546 22.1934Z" fill="white"/>
<path d="M49.6358 24.5198L34.6586 22.3135L34.3063 24.7052L49.2835 26.9115L49.6358 24.5198Z" fill="#DC903C"/>
<path opacity="0.11" d="M49.3595 26.4001L34.3823 24.1938L34.3068 24.7066L49.284 26.9129L49.3595 26.4001Z" fill="#2B3448"/>
<path opacity="0.11" d="M49.6358 24.5207L34.6586 22.3145L34.5286 23.1973L49.5057 25.4036L49.6358 24.5207Z" fill="white"/>
<path opacity="0.26" d="M36.0352 22.4246L35.6726 24.8179L36.9902 25.0175L37.3528 22.6242L36.0352 22.4246Z" fill="#74471B"/>
<path opacity="0.26" d="M37.7128 22.7753L37.3605 25.167L37.5833 25.1998L37.9356 22.8081L37.7128 22.7753Z" fill="#74471B"/>
<path opacity="0.26" d="M39.4805 22.9143L39.1179 25.3076L46.6175 26.4439L46.9801 24.0506L39.4805 22.9143Z" fill="#74471B"/>
<path opacity="0.26" d="M47.9392 24.1711L47.5765 26.5645L48.5072 26.7055L48.8698 24.3121L47.9392 24.1711Z" fill="#74471B"/>
<path d="M34.6562 22.3247L34.8219 20.4326L48.6024 22.3497L49.6342 24.5325L34.6562 22.3247Z" fill="#DC903C"/>
<path d="M35.8215 19.2638L35.507 21.3977L44.8493 23.8271L48.6238 23.2183L48.1735 22.9645L48.4642 21.2393L48.855 21.1463L40.1048 19.0303L35.8215 19.2638Z" fill="#DE6C6B"/>
<path d="M48.6608 21.1831L45.1388 21.6144L44.8779 23.3802L44.8457 23.6006L48.3391 23.0358L48.6608 21.1831Z" fill="white"/>
<path d="M36.1276 19.7106L36.1075 19.7866L44.3592 21.9792L44.3794 21.9032L36.1276 19.7106Z" fill="#ECB751"/>
<path d="M36.0127 20.2023L35.9925 20.2783L44.2442 22.4709L44.2644 22.3949L36.0127 20.2023Z" fill="#ECB751"/>
<path d="M35.94 20.7023L35.9198 20.7783L44.1716 22.9709L44.1918 22.8949L35.94 20.7023Z" fill="#ECB751"/>
<path d="M35.8715 21.1593L35.8513 21.2354L44.1031 23.4279L44.1233 23.3519L35.8715 21.1593Z" fill="#ECB751"/>
<mask id="mask4_92_14976" style="mask-type:luminance" maskUnits="userSpaceOnUse" x="44" y="21" width="5" height="3">
<path d="M48.6608 21.1831L45.1388 21.6144L44.8779 23.3814L44.8457 23.6018L48.3391 23.0358L48.6608 21.1831Z" fill="white"/>
</mask>
<g mask="url(#mask4_92_14976)">
<g opacity="0.37">
<path d="M44.9005 21.8957L44.8957 21.8563L49.1147 21.3643L49.1183 21.4036L44.9005 21.8957Z" fill="#74471B"/>
</g>
<g opacity="0.37">
<path d="M44.8683 22.401L44.8636 22.3617L49.0825 21.8696L49.0873 21.9078L44.8683 22.401Z" fill="#74471B"/>
</g>
<g opacity="0.37">
<path d="M44.8099 22.8429L44.8052 22.8036L49.0242 22.3115L49.0289 22.3508L44.8099 22.8429Z" fill="#74471B"/>
</g>
<g opacity="0.37">
<path d="M44.7837 23.3065L44.779 23.2672L48.998 22.7739L49.0027 22.8132L44.7837 23.3065Z" fill="#74471B"/>
</g>
</g>
<path opacity="0.1" d="M35.507 21.3975L44.8493 23.8269L44.9434 22.9596L35.6535 20.6147L35.507 21.3975Z" fill="#2B3448"/>
<path opacity="0.11" d="M35.8215 19.2637L45.1388 21.6144L45.0661 22.1292L35.7572 19.9083L35.8215 19.2637Z" fill="white"/>
<path opacity="0.1" d="M45.1388 21.6143L44.8457 23.6016L47.984 23.069C47.984 23.069 44.8969 23.5147 45.1388 21.6143Z" fill="#74471B"/>
<path d="M34.7945 16.7594C34.7945 16.7594 34.2297 17.5815 34.4835 18.487L42.147 21.15L48.9777 21.0666L48.4845 20.9021L48.8312 19.1793L49.2422 19.1471L41.5859 16.6879C41.5859 16.6879 35.1186 16.4377 34.7945 16.7594Z" fill="#4D82A3"/>
<mask id="mask5_92_14976" style="mask-type:luminance" maskUnits="userSpaceOnUse" x="42" y="19" width="7" height="3">
<path d="M42.7916 19.3602C42.7916 19.3602 42.0767 20.1037 42.4175 21.0283L48.5679 20.9187L48.9134 19.1958L42.7916 19.3602Z" fill="white"/>
</mask>
<g mask="url(#mask5_92_14976)">
<path d="M42.7916 19.3602C42.7916 19.3602 42.0767 20.1037 42.4175 21.0283L48.5679 20.9187L48.9134 19.1958L42.7916 19.3602Z" fill="white"/>
<path opacity="0.1" d="M45.6809 20.9626C45.0006 20.8434 44.2655 20.7243 43.6292 20.4455C43.2324 20.2532 42.8701 19.9968 42.5569 19.6865C42.4351 19.8847 42.3594 20.1077 42.3353 20.3391C42.3112 20.5705 42.3393 20.8043 42.4175 21.0234L45.6988 20.965L45.6809 20.9626Z" fill="#74471B"/>
<g opacity="0.4">
<path d="M49.4432 19.4852L42.0843 19.5918L42.0849 19.6311L49.4438 19.5245L49.4432 19.4852Z" fill="#74471B"/>
</g>
<g opacity="0.4">
<path d="M49.3813 19.9017L42.0224 20.0083L42.023 20.0476L49.3819 19.941L49.3813 19.9017Z" fill="#74471B"/>
</g>
<g opacity="0.4">
<path d="M49.3195 20.3172L41.9605 20.4238L41.9611 20.4631L49.32 20.3565L49.3195 20.3172Z" fill="#74471B"/>
</g>
<g opacity="0.4">
<path d="M49.2707 20.6492L41.9117 20.7559L41.9123 20.7952L49.2712 20.6886L49.2707 20.6492Z" fill="#74471B"/>
</g>
</g>
<path d="M42.869 17.8876C43.242 18.0068 43.2789 18.1093 42.9513 18.114C42.5204 18.1017 42.0931 18.0311 41.6811 17.9043C41.3082 17.7852 41.2713 17.6815 41.5989 17.6768C42.03 17.6887 42.4573 17.7597 42.869 17.8876Z" fill="#ECB751"/>
<path d="M41.2439 17.6121C41.0657 17.5935 40.8888 17.5653 40.7137 17.5275C40.6255 17.5085 40.5385 17.487 40.4754 17.4656C40.371 17.4342 40.2747 17.3805 40.193 17.3083C40.0405 17.2035 39.6163 17.07 39.1338 16.9688C39.5591 17.0155 39.9812 17.0875 40.3979 17.1844C40.672 17.2513 40.9343 17.3594 41.176 17.5049C41.2486 17.5454 41.3273 17.5847 41.3976 17.6241L41.2439 17.6121Z" fill="#ECB751"/>
<path d="M43.1836 18.1868C43.3613 18.2064 43.5379 18.235 43.7126 18.2726C43.8008 18.2917 43.8866 18.3119 43.9509 18.3346C44.0549 18.3647 44.1506 18.4181 44.2309 18.4906C44.3834 18.5955 44.804 18.7289 45.2818 18.8278C44.8596 18.7817 44.4407 18.7101 44.0272 18.6134C43.7517 18.5462 43.4884 18.4364 43.2468 18.2881C43.1753 18.2488 43.0966 18.2083 43.0263 18.1689L43.1836 18.1868Z" fill="#ECB751"/>
<path d="M42.0279 17.6661C41.8876 17.6338 41.7502 17.5904 41.6168 17.5362C41.5818 17.5247 41.5503 17.5047 41.5251 17.4778C41.5048 17.435 41.6716 17.4302 41.7789 17.4135C41.9969 17.379 41.9528 17.2777 41.6693 17.1621C42.047 17.2634 42.4556 17.3766 42.5926 17.4683C42.7297 17.5601 42.5223 17.6089 42.3544 17.6518C42.2912 17.6685 42.2352 17.6875 42.1732 17.703L42.0279 17.6661Z" fill="#ECB751"/>
<path d="M42.4008 18.1294C42.5412 18.1606 42.6787 18.2037 42.8119 18.2581C42.8468 18.2696 42.8784 18.2897 42.9036 18.3165C42.9239 18.3594 42.7571 18.3642 42.651 18.3808C42.433 18.4154 42.4759 18.5167 42.7594 18.6322C42.3829 18.531 41.9743 18.419 41.836 18.326C41.6978 18.2331 41.9075 18.1866 42.0743 18.1425L42.2554 18.0913L42.4008 18.1294Z" fill="#ECB751"/>
<path d="M42.8095 17.8278C42.7177 17.7849 42.6784 17.7468 42.6987 17.7206C42.7189 17.6944 42.7344 17.6968 42.7845 17.6932C42.987 17.6968 43.1891 17.7127 43.3897 17.7408C43.8306 17.7849 44.1415 17.7635 44.1666 17.686C44.3322 17.7814 44.5002 17.8862 44.3536 17.9243C44.2071 17.9625 43.7305 17.9243 43.3302 17.8945L42.881 17.8612L42.8095 17.8278Z" fill="#ECB751"/>
<path d="M41.6192 17.97C41.711 18.0117 41.7503 18.0498 41.73 18.076C41.7098 18.1022 41.6943 18.0998 41.6443 18.1034C41.4417 18.1004 41.2395 18.0845 41.039 18.0558C40.5958 18.0117 40.2836 18.0343 40.2586 18.1118C40.0918 18.0152 39.9226 17.9116 40.0703 17.8735C40.2181 17.8353 40.6958 17.8735 41.0974 17.9021L41.5489 17.9366L41.6192 17.97Z" fill="#ECB751"/>
<path d="M43.3885 18.0614C43.4914 18.039 43.5973 18.0338 43.7019 18.0459C43.7746 18.0459 43.858 18.0579 43.9473 18.071C44.1856 18.1067 44.3953 18.1711 44.6122 18.2247C45.0616 18.3363 45.5202 18.4068 45.9824 18.4356C45.7191 18.4847 45.4497 18.492 45.1841 18.457C44.7284 18.3931 44.2766 18.3044 43.8306 18.1913L43.3266 18.0722L43.3885 18.0614Z" fill="#ECB751"/>
<path d="M41.039 17.7313C40.9357 17.7539 40.8294 17.7591 40.7244 17.7468C40.6505 17.7468 40.5672 17.7349 40.4778 17.7218C40.2395 17.686 40.0274 17.6217 39.8094 17.5669C39.3556 17.4548 38.8926 17.3838 38.4261 17.3548C38.6922 17.3056 38.9644 17.2988 39.2327 17.3345C39.6913 17.3981 40.1459 17.4872 40.5946 17.6014L41.1009 17.7206L41.039 17.7313Z" fill="#ECB751"/>
<path d="M35.7143 17.0688C35.7143 17.0688 35.0304 18.0327 35.4939 18.8441L36.1444 19.0598C36.1444 19.0598 35.9728 17.7694 36.5626 17.3143L35.7143 17.0688Z" fill="#ECB751"/>
<path d="M40.2776 18.6729C40.2776 18.6729 39.5937 19.6368 40.0572 20.4481L40.7077 20.6638C40.7077 20.6638 40.5362 19.3734 41.1259 18.9183L40.2776 18.6729Z" fill="#ECB751"/>
<path opacity="0.11" d="M34.7945 16.7593L42.7916 19.3603C42.7916 19.3603 42.3949 19.8094 42.3079 20.1943L34.4525 17.5397C34.4525 17.5397 34.6062 16.8772 34.7945 16.7593Z" fill="white"/>
<g opacity="0.4">
<path d="M35.2842 16.8282L35.2593 16.9028L42.3399 19.2623L42.3647 19.1877L35.2842 16.8282Z" fill="#2B3448"/>
</g>
<path opacity="0.18" d="M42.153 20.859C42.1446 20.7851 42.1387 20.7125 42.1351 20.6398L34.3906 18.1377L34.4787 18.4832L42.1423 21.1462C42.1162 21.0516 42.1199 20.9513 42.153 20.859Z" fill="#2B3448"/>
<path opacity="0.11" d="M35.9013 16.6236C35.9013 16.6236 39.0242 16.5462 41.5858 16.688L46.1241 18.1297L35.9013 16.6236Z" fill="white"/>
</g>
<defs>
<clipPath id="clip0_92_14976">
<rect width="80" height="53.1395" fill="white" transform="translate(0 0.430176)"/>
</clipPath>
</defs>
</svg>
