<svg width="256" height="256" viewBox="0 0 256 256" fill="none" xmlns="http://www.w3.org/2000/svg">
<path d="M197.783 209.583L174.418 64.6428C172.665 53.7653 162.425 46.3666 151.545 48.12L41.9015 65.7949C34.3257 67.0173 29.175 74.1463 30.3945 81.722L52.3154 217.706C55.145 225.42 135.848 215.203 197.783 209.583Z" fill="#1F9F85"/>
<path d="M151.711 48.0947L177.481 207.958L197.783 209.583L174.418 64.6428C172.665 53.7653 162.425 46.3666 151.545 48.12" fill="#258371"/>
<path d="M62.6871 220.752L57.6544 221.564C55.1141 221.975 52.7256 220.247 52.3154 217.709C51.9051 215.169 53.6333 212.78 56.1707 212.37L175.101 193.198C185.889 191.458 196.041 198.795 197.781 209.58C199.52 220.367 192.183 230.52 181.398 232.259L62.4679 251.435C59.9277 251.845 57.5392 250.117 57.1289 247.579C56.7187 245.039 58.4468 242.651 60.9842 242.24L66.0169 241.428L62.6871 220.752Z" fill="#258371"/>
<path d="M52.3125 220.519C50.9581 220.519 49.7639 219.536 49.5419 218.156L27.6211 82.1716C26.9129 77.7655 27.9583 73.3482 30.5716 69.7318C33.1849 66.1153 37.0486 63.7324 41.4547 63.0215L151.098 45.3466C157.095 44.3799 163.119 45.8046 168.051 49.3677C172.98 52.928 176.225 58.1939 177.195 64.1961L200.557 209.133C200.804 210.665 199.762 212.109 198.23 212.353C196.69 212.603 195.254 211.558 195.01 210.027L171.648 65.0896C170.92 60.5683 168.472 56.6034 164.763 53.9199C161.051 51.2391 156.524 50.1601 151.994 50.8935L42.3511 68.5684C39.4259 69.0377 36.8631 70.6197 35.1294 73.0195C33.3956 75.4192 32.7015 78.35 33.1708 81.2724L55.0916 217.257C55.3389 218.788 54.2964 220.233 52.7649 220.477C52.6132 220.508 52.4615 220.519 52.3125 220.519Z" fill="black"/>
<path d="M143.41 141.198L76.9899 151.905C73.4325 152.478 70.0801 150.058 69.5069 146.501L63.0607 106.515C62.4875 102.957 64.9069 99.6049 68.4644 99.0316L134.884 88.3255C138.442 87.7523 141.794 90.1717 142.367 93.7291L148.814 133.715C149.39 137.276 146.97 140.625 143.41 141.198Z" fill="#4EDEC1"/>
<path d="M178.698 223.265L61.8356 242.103L58.5029 221.427L175.365 202.589C181.075 201.667 186.448 205.55 187.37 211.26C188.288 216.97 184.408 222.343 178.698 223.265Z" fill="#9FE3D5"/>
<path d="M61.7232 254.304C58.1235 254.304 54.9454 251.688 54.3553 248.026C53.8074 244.629 55.6564 241.389 58.6518 240.032L56.1313 224.397C54.8471 224.265 53.6135 223.796 52.5401 223.02C50.9215 221.854 49.8565 220.126 49.5418 218.159C49.2243 216.192 49.6936 214.216 50.8597 212.601C52.0287 210.985 53.754 209.92 55.7238 209.602L174.654 190.43C180.625 189.455 186.588 190.885 191.481 194.42C196.373 197.955 199.596 203.181 200.554 209.139C201.515 215.096 200.099 221.073 196.564 225.965C193.029 230.857 187.802 234.083 181.845 235.041L62.9174 254.208C62.5156 254.27 62.1194 254.304 61.7232 254.304ZM58.5001 218.617C59.0874 218.617 59.6634 218.799 60.1439 219.148C60.7481 219.583 61.1527 220.244 61.2736 220.977L64.6062 241.653C64.8535 243.185 63.811 244.629 62.2795 244.873L61.4309 245.011C60.942 245.09 60.5149 245.351 60.2282 245.753C59.9388 246.155 59.8236 246.641 59.9023 247.127C60.0653 248.13 61.0122 248.816 62.0182 248.656L180.949 229.486C185.425 228.764 189.351 226.341 192.006 222.666C194.659 218.988 195.724 214.5 195.001 210.024C194.279 205.547 191.86 201.622 188.184 198.966C184.506 196.314 180.016 195.24 175.542 195.971L56.6118 215.144C56.1256 215.222 55.6985 215.486 55.4091 215.885C55.1197 216.287 55.0044 216.771 55.0831 217.26C55.2433 218.263 56.1959 218.948 57.1991 218.788L58.0449 218.651C58.2022 218.628 58.3512 218.617 58.5001 218.617Z" fill="black"/>
<path d="M175.098 196.008C173.744 196.008 172.55 195.024 172.328 193.644L154.833 85.1081C154.585 83.5766 155.628 82.1323 157.159 81.8878C158.694 81.6377 160.135 82.683 160.38 84.2145L177.875 192.751C178.122 194.282 177.079 195.727 175.548 195.971C175.399 195.996 175.247 196.008 175.098 196.008Z" fill="black"/>
<path d="M61.8329 244.913C61.2456 244.913 60.6695 244.73 60.189 244.382C59.5849 243.946 59.1802 243.286 59.0594 242.552L55.7267 221.876C55.4794 220.345 56.522 218.901 58.0534 218.656L174.916 199.818C182.157 198.638 188.977 203.592 190.14 210.816C191.306 218.044 186.372 224.875 179.142 226.044L62.2796 244.882C62.1307 244.902 61.9818 244.913 61.8329 244.913ZM61.7233 223.753L64.1623 238.883L178.251 220.491C180.272 220.165 182.047 219.072 183.242 217.411C184.442 215.753 184.922 213.727 184.593 211.707C184.267 209.684 183.174 207.914 181.516 206.716C179.858 205.519 177.832 205.039 175.812 205.365L61.7233 223.753Z" fill="black"/>
<path d="M75.9446 154.802C71.4458 154.802 67.4697 151.531 66.7335 146.948L60.2873 106.961C59.8883 104.5 60.4756 102.03 61.934 100.007C63.3952 97.9835 65.5561 96.6516 68.0176 96.2554L134.438 85.5493C139.546 84.7259 144.323 88.1991 145.141 93.2824L151.587 133.269C152.405 138.355 148.937 143.151 143.854 143.972L77.4339 154.678C76.9366 154.76 76.4392 154.802 75.9446 154.802ZM135.927 91.0513C135.733 91.0513 135.533 91.0653 135.334 91.099L68.914 101.805C67.9333 101.962 67.0735 102.494 66.4918 103.297C65.9101 104.104 65.6769 105.084 65.8371 106.065L72.2832 146.051C72.6092 148.077 74.534 149.468 76.5432 149.131L142.963 138.425C144.989 138.099 146.369 136.185 146.043 134.162L139.597 94.176C139.302 92.3523 137.72 91.0513 135.927 91.0513Z" fill="black"/>
<path d="M73.4353 173.69C72.0808 173.69 70.8866 172.707 70.6646 171.327C70.4173 169.796 71.4598 168.351 72.9913 168.107L152.298 155.322C153.832 155.071 155.274 156.117 155.518 157.648C155.765 159.18 154.723 160.624 153.191 160.868L73.8849 173.654C73.7331 173.679 73.5842 173.69 73.4353 173.69Z" fill="black"/>
<path d="M76.5375 192.95C75.1831 192.95 73.9889 191.967 73.7669 190.587C73.5196 189.056 74.5621 187.611 76.0936 187.367L155.4 174.581C156.92 174.326 158.376 175.377 158.62 176.908C158.868 178.439 157.825 179.884 156.294 180.128L76.9871 192.914C76.8382 192.942 76.6865 192.95 76.5375 192.95Z" fill="black"/>
<path d="M154.405 67.6439C153.051 67.6439 151.857 66.6604 151.635 65.2807L148.937 48.5415C148.69 47.0101 149.732 45.5657 151.264 45.3213C152.787 45.0627 154.24 46.1165 154.484 47.6479L157.182 64.3871C157.429 65.9186 156.386 67.3629 154.855 67.6074C154.703 67.6327 154.554 67.6439 154.405 67.6439Z" fill="black"/>
<path d="M175.174 206.034L224.341 67.7029C228.03 57.32 222.607 45.9114 212.224 42.2218L107.577 5.02587C100.347 2.45472 92.4028 6.23417 89.8316 13.4643L43.7027 143.25C42.4775 151.371 118.159 181.196 175.174 206.034Z" fill="#EC4242"/>
<path d="M212.381 42.2753L158.151 194.853L175.174 206.034L224.341 67.7029C228.03 57.32 222.607 45.9114 212.224 42.2219" fill="#EC4242"/>
<path d="M51.3318 150.904L46.5296 149.196C44.1073 148.336 42.84 145.672 43.7027 143.25C44.5626 140.828 47.2264 139.56 49.6487 140.423L163.159 180.766C173.454 184.425 178.833 195.738 175.174 206.034C171.516 216.329 160.202 221.708 149.907 218.049L36.3967 177.703C33.9745 176.843 32.7072 174.179 33.5698 171.757C34.4297 169.335 37.0936 168.068 39.5158 168.93L44.3181 170.639L51.3318 150.904Z" fill="#EC4242"/>
<path d="M175.171 208.844C174.859 208.844 174.539 208.79 174.23 208.681C172.769 208.158 172.004 206.553 172.524 205.092L221.694 66.7616C224.858 57.8567 220.188 48.0357 211.283 44.8689L106.633 7.6729C103.845 6.67816 100.836 6.83271 98.1605 8.10564C95.4882 9.37857 93.4678 11.6153 92.4787 14.4029L46.3497 144.188C45.827 145.65 44.2197 146.405 42.7613 145.894C41.3001 145.371 40.5358 143.767 41.0557 142.306L87.1818 12.523C88.6767 8.3192 91.72 4.9472 95.7495 3.03359C99.779 1.11436 104.312 0.883944 108.515 2.37886L213.163 39.572C224.987 43.7758 231.189 56.817 226.988 68.6415L177.821 206.975C177.411 208.124 176.329 208.844 175.171 208.844Z" fill="black"/>
<path d="M160.357 119.935L96.9634 97.4046C93.5661 96.1963 91.793 92.4646 92.9985 89.0673L106.562 50.9019C107.771 47.5046 111.502 45.7315 114.9 46.937L178.293 69.4676C181.691 70.6759 183.464 74.4076 182.258 77.8049L168.691 115.97C167.486 119.368 163.751 121.141 160.357 119.935Z" fill="#F8B3B3"/>
<path d="M151.862 208.86L40.3251 169.217L47.3388 149.485L158.876 189.129C164.325 191.065 167.171 197.053 165.235 202.501C163.296 207.95 157.311 210.797 151.862 208.86Z" fill="#F8B3B3"/>
<path d="M156.51 222.003C154.004 222.003 151.458 221.584 148.965 220.696L35.4553 180.353C31.5775 178.976 29.543 174.694 30.9199 170.816C32.072 167.573 35.2389 165.592 38.5294 165.873L43.8347 150.946C41.1343 149.072 39.9007 145.551 41.05 142.311C42.4297 138.428 46.7065 136.391 50.5871 137.776L164.094 178.119C175.834 182.292 181.991 195.24 177.818 206.975C174.536 216.22 165.808 222.003 156.51 222.003ZM37.9562 171.468C37.6864 171.468 37.4167 171.527 37.1638 171.648C36.717 171.858 36.3826 172.232 36.2168 172.696C35.874 173.657 36.3798 174.716 37.338 175.056L150.845 215.399C155.114 216.92 159.722 216.684 163.819 214.736C167.916 212.789 171.007 209.363 172.524 205.089C174.044 200.818 173.808 196.21 171.861 192.116C169.914 188.022 166.488 184.928 162.214 183.41L48.7072 143.07C47.7434 142.724 46.6897 143.233 46.3497 144.188C46.0096 145.149 46.5126 146.209 47.4708 146.549L48.2745 146.833C48.977 147.083 49.5559 147.6 49.8762 148.274C50.1965 148.948 50.2359 149.724 49.9886 150.427L42.9748 170.161C42.7248 170.864 42.2077 171.437 41.5333 171.757C40.8589 172.078 40.0862 172.111 39.3837 171.867L38.5744 171.577C38.3721 171.504 38.1641 171.468 37.9562 171.468Z" fill="black"/>
<path d="M163.156 183.576C162.844 183.576 162.524 183.523 162.214 183.413C160.753 182.89 159.989 181.286 160.509 179.825L197.328 76.2369C197.848 74.7729 199.458 74.0086 200.917 74.5312C202.378 75.0511 203.142 76.6584 202.622 78.1196L165.806 181.707C165.395 182.857 164.311 183.576 163.156 183.576Z" fill="black"/>
<path d="M155.355 212.275C153.883 212.275 152.385 212.027 150.921 211.507L39.3838 171.867C37.9226 171.344 37.1582 169.74 37.6781 168.278L44.6919 148.544C44.9419 147.841 45.459 147.268 46.1334 146.948C46.8078 146.627 47.5805 146.591 48.283 146.838L159.82 186.482C166.719 188.935 170.338 196.547 167.885 203.446C165.949 208.875 160.818 212.275 155.355 212.275ZM43.9135 167.511L152.804 206.211C156.788 207.63 161.172 205.536 162.585 201.56C164.002 197.578 161.914 193.192 157.935 191.776L49.0445 153.071L43.9135 167.511Z" fill="black"/>
<path d="M162.549 123.125C161.495 123.125 160.436 122.945 159.416 122.582L96.0221 100.052C91.1721 98.3263 88.629 92.9761 90.3516 88.126L103.915 49.9634C105.638 45.1105 110.991 42.5703 115.841 44.29L179.235 66.8206C181.584 67.6551 183.469 69.3552 184.54 71.6088C185.613 73.8596 185.743 76.3971 184.908 78.7462L171.341 116.912C170.504 119.261 168.807 121.143 166.553 122.217C165.28 122.821 163.917 123.125 162.549 123.125ZM112.719 49.3705C111.191 49.3705 109.752 50.3231 109.212 51.8433L95.6484 90.0059C94.9599 91.9364 95.9744 94.0663 97.9048 94.752L161.298 117.283C162.229 117.614 163.235 117.566 164.139 117.136C165.033 116.709 165.713 115.962 166.045 115.026L179.611 76.8607C179.943 75.925 179.892 74.9162 179.465 74.0198C179.041 73.1234 178.288 72.4462 177.352 72.1146L113.958 49.584C113.551 49.4407 113.129 49.3705 112.719 49.3705Z" fill="black"/>
<path d="M160.422 142.05C160.11 142.05 159.789 141.996 159.48 141.887L83.7901 114.984C82.3289 114.464 81.5646 112.857 82.0845 111.396C82.6043 109.934 84.2088 109.173 85.6728 109.69L161.363 136.593C162.824 137.116 163.589 138.72 163.069 140.181C162.658 141.331 161.577 142.05 160.422 142.05Z" fill="black"/>
<path d="M153.888 160.433C153.577 160.433 153.256 160.38 152.947 160.27L77.2541 133.364C75.7929 132.842 75.0286 131.237 75.5485 129.776C76.0711 128.312 77.67 127.547 79.1368 128.07L154.83 154.976C156.291 155.499 157.055 157.103 156.535 158.564C156.128 159.714 155.046 160.433 153.888 160.433Z" fill="black"/>
<path d="M206.702 61.0657C206.39 61.0657 206.07 61.0123 205.761 60.9027C204.297 60.3829 203.535 58.7756 204.055 57.3144L209.732 41.3367C210.251 39.8727 211.864 39.1112 213.32 39.631C214.781 40.1509 215.545 41.7582 215.026 43.2194L209.349 59.1971C208.942 60.3463 207.857 61.0657 206.702 61.0657Z" fill="black"/>
</svg>
