<svg width="21" height="20" viewBox="0 0 21 20" fill="none" xmlns="http://www.w3.org/2000/svg">
<path d="M10.5 0.25C8.57164 0.25 6.68657 0.821828 5.08319 1.89317C3.47982 2.96452 2.23013 4.48726 1.49218 6.26884C0.754225 8.05042 0.561142 10.0108 0.937348 11.9021C1.31355 13.7934 2.24215 15.5307 3.60571 16.8943C4.96928 18.2579 6.70656 19.1865 8.59787 19.5627C10.4892 19.9389 12.4496 19.7458 14.2312 19.0078C16.0127 18.2699 17.5355 17.0202 18.6068 15.4168C19.6782 13.8134 20.25 11.9284 20.25 10C20.2473 7.41498 19.2192 4.93661 17.3913 3.10872C15.5634 1.28084 13.085 0.25273 10.5 0.25ZM5.445 16.5156C5.98757 15.6671 6.73501 14.9688 7.61843 14.4851C8.50185 14.0013 9.49283 13.7478 10.5 13.7478C11.5072 13.7478 12.4982 14.0013 13.3816 14.4851C14.265 14.9688 15.0124 15.6671 15.555 16.5156C14.1097 17.6397 12.331 18.2499 10.5 18.2499C8.66905 18.2499 6.89032 17.6397 5.445 16.5156ZM7.5 9.25C7.5 8.65666 7.67595 8.07664 8.0056 7.58329C8.33524 7.08994 8.80378 6.70542 9.35195 6.47836C9.90013 6.2513 10.5033 6.19189 11.0853 6.30764C11.6672 6.4234 12.2018 6.70912 12.6213 7.12868C13.0409 7.54824 13.3266 8.08279 13.4424 8.66473C13.5581 9.24667 13.4987 9.84987 13.2716 10.3981C13.0446 10.9462 12.6601 11.4148 12.1667 11.7444C11.6734 12.0741 11.0933 12.25 10.5 12.25C9.70436 12.25 8.94129 11.9339 8.37868 11.3713C7.81608 10.8087 7.5 10.0457 7.5 9.25ZM16.665 15.4759C15.8285 14.2638 14.6524 13.3261 13.2844 12.7806C14.0192 12.2019 14.5554 11.4085 14.8184 10.5108C15.0815 9.6132 15.0582 8.6559 14.752 7.77207C14.4457 6.88825 13.8716 6.12183 13.1096 5.5794C12.3475 5.03696 11.4354 4.74548 10.5 4.74548C9.56462 4.74548 8.65248 5.03696 7.89044 5.5794C7.12839 6.12183 6.55432 6.88825 6.24805 7.77207C5.94179 8.6559 5.91855 9.6132 6.18157 10.5108C6.44459 11.4085 6.9808 12.2019 7.71563 12.7806C6.34765 13.3261 5.17147 14.2638 4.335 15.4759C3.27804 14.2873 2.5872 12.8185 2.34567 11.2464C2.10415 9.67427 2.32224 8.06584 2.97368 6.61478C3.62512 5.16372 4.68214 3.93192 6.01745 3.06769C7.35276 2.20346 8.90943 1.74367 10.5 1.74367C12.0906 1.74367 13.6473 2.20346 14.9826 3.06769C16.3179 3.93192 17.3749 5.16372 18.0263 6.61478C18.6778 8.06584 18.8959 9.67427 18.6543 11.2464C18.4128 12.8185 17.722 14.2873 16.665 15.4759Z" fill="#D4D4D4"/>
</svg>
