<svg width="98" height="98" viewBox="0 0 98 98" fill="none" xmlns="http://www.w3.org/2000/svg">
<path d="M49 0.25C39.3582 0.25 29.9329 3.10914 21.916 8.46586C13.8991 13.8226 7.65067 21.4363 3.96089 30.3442C0.271123 39.2521 -0.69429 49.0541 1.18674 58.5107C3.06777 67.9672 7.71076 76.6536 14.5286 83.4715C21.3464 90.2893 30.0328 94.9323 39.4894 96.8133C48.9459 98.6943 58.7479 97.7289 67.6558 94.0391C76.5637 90.3493 84.1774 84.1009 89.5342 76.084C94.8909 68.0671 97.75 58.6418 97.75 49C97.7364 36.0749 92.5958 23.6831 83.4564 14.5436C74.317 5.40418 61.9251 0.263649 49 0.25ZM70.4031 40.4031L44.1531 66.6531C43.8049 67.0018 43.3913 67.2784 42.936 67.4671C42.4808 67.6558 41.9928 67.7529 41.5 67.7529C41.0072 67.7529 40.5192 67.6558 40.064 67.4671C39.6088 67.2784 39.1952 67.0018 38.8469 66.6531L27.5969 55.4031C26.8932 54.6995 26.4979 53.7451 26.4979 52.75C26.4979 51.7549 26.8932 50.8005 27.5969 50.0969C28.3005 49.3932 29.2549 48.9979 30.25 48.9979C31.2451 48.9979 32.1995 49.3932 32.9031 50.0969L41.5 58.6984L65.0969 35.0969C65.4453 34.7485 65.8589 34.4721 66.3142 34.2835C66.7694 34.095 67.2573 33.9979 67.75 33.9979C68.2428 33.9979 68.7307 34.095 69.1859 34.2835C69.6411 34.4721 70.0547 34.7485 70.4031 35.0969C70.7516 35.4453 71.0279 35.8589 71.2165 36.3141C71.4051 36.7694 71.5021 37.2573 71.5021 37.75C71.5021 38.2427 71.4051 38.7306 71.2165 39.1859C71.0279 39.6411 70.7516 40.0547 70.4031 40.4031Z" fill="#8FB56A"/>
</svg>
